G04 EAGLE Gerber RS-274X export*
G75*
%MOMM*%
%FSLAX34Y34*%
%LPD*%
%INTop Copper*%
%IPPOS*%
%AMOC8*
5,1,8,0,0,1.08239X$1,22.5*%
G01*
%ADD10C,1.725000*%
%ADD11C,4.950000*%
%ADD12R,1.500000X1.500000*%
%ADD13R,1.500000X1.300000*%
%ADD14R,1.300000X1.500000*%
%ADD15C,1.524000*%
%ADD16C,1.320800*%
%ADD17R,1.000000X1.400000*%
%ADD18R,2.057400X0.609600*%
%ADD19C,0.300000*%
%ADD20C,0.152400*%
%ADD21C,0.711200*%

G36*
X814178Y175084D02*
X814178Y175084D01*
X814197Y175082D01*
X814299Y175104D01*
X814401Y175120D01*
X814418Y175130D01*
X814438Y175134D01*
X814527Y175187D01*
X814618Y175236D01*
X814632Y175250D01*
X814649Y175260D01*
X814716Y175339D01*
X814788Y175414D01*
X814796Y175432D01*
X814809Y175447D01*
X814848Y175543D01*
X814891Y175637D01*
X814893Y175657D01*
X814901Y175675D01*
X814919Y175842D01*
X814919Y984158D01*
X814916Y984178D01*
X814918Y984197D01*
X814896Y984299D01*
X814880Y984401D01*
X814870Y984418D01*
X814866Y984438D01*
X814813Y984527D01*
X814764Y984618D01*
X814750Y984632D01*
X814740Y984649D01*
X814661Y984716D01*
X814586Y984788D01*
X814568Y984796D01*
X814553Y984809D01*
X814457Y984848D01*
X814363Y984891D01*
X814343Y984893D01*
X814325Y984901D01*
X814158Y984919D01*
X5842Y984919D01*
X5822Y984916D01*
X5803Y984918D01*
X5701Y984896D01*
X5599Y984880D01*
X5582Y984870D01*
X5562Y984866D01*
X5473Y984813D01*
X5382Y984764D01*
X5368Y984750D01*
X5351Y984740D01*
X5284Y984661D01*
X5212Y984586D01*
X5204Y984568D01*
X5191Y984553D01*
X5152Y984457D01*
X5109Y984363D01*
X5107Y984343D01*
X5099Y984325D01*
X5081Y984158D01*
X5081Y175842D01*
X5084Y175822D01*
X5082Y175803D01*
X5104Y175701D01*
X5120Y175599D01*
X5130Y175582D01*
X5134Y175562D01*
X5187Y175473D01*
X5236Y175382D01*
X5250Y175368D01*
X5260Y175351D01*
X5339Y175284D01*
X5414Y175212D01*
X5432Y175204D01*
X5447Y175191D01*
X5543Y175152D01*
X5637Y175109D01*
X5657Y175107D01*
X5675Y175099D01*
X5842Y175081D01*
X814158Y175081D01*
X814178Y175084D01*
G37*
%LPC*%
G36*
X369385Y842009D02*
X369385Y842009D01*
X346494Y864900D01*
X346420Y864953D01*
X346350Y865013D01*
X346320Y865025D01*
X346294Y865044D01*
X346207Y865071D01*
X346122Y865105D01*
X346081Y865109D01*
X346059Y865116D01*
X346027Y865115D01*
X345955Y865123D01*
X342319Y865123D01*
X339343Y868099D01*
X339343Y872309D01*
X342319Y875285D01*
X346529Y875285D01*
X349505Y872309D01*
X349505Y868673D01*
X349519Y868582D01*
X349527Y868492D01*
X349539Y868462D01*
X349544Y868430D01*
X349587Y868349D01*
X349623Y868265D01*
X349649Y868233D01*
X349660Y868212D01*
X349683Y868190D01*
X349728Y868134D01*
X371056Y846806D01*
X371130Y846753D01*
X371200Y846693D01*
X371230Y846681D01*
X371256Y846662D01*
X371343Y846635D01*
X371428Y846601D01*
X371469Y846597D01*
X371491Y846590D01*
X371523Y846591D01*
X371595Y846583D01*
X398025Y846583D01*
X398116Y846597D01*
X398206Y846605D01*
X398236Y846617D01*
X398268Y846622D01*
X398349Y846665D01*
X398433Y846701D01*
X398465Y846727D01*
X398486Y846738D01*
X398508Y846761D01*
X398564Y846806D01*
X419252Y867494D01*
X419305Y867568D01*
X419365Y867638D01*
X419377Y867668D01*
X419396Y867694D01*
X419423Y867781D01*
X419457Y867866D01*
X419461Y867907D01*
X419468Y867929D01*
X419467Y867961D01*
X419475Y868033D01*
X419475Y869003D01*
X420019Y869547D01*
X420031Y869563D01*
X420046Y869575D01*
X420102Y869662D01*
X420162Y869746D01*
X420168Y869765D01*
X420179Y869782D01*
X420204Y869883D01*
X420235Y869981D01*
X420234Y870001D01*
X420239Y870021D01*
X420231Y870124D01*
X420228Y870227D01*
X420222Y870246D01*
X420220Y870266D01*
X420180Y870361D01*
X420144Y870458D01*
X420132Y870474D01*
X420124Y870492D01*
X420052Y870582D01*
X420045Y870593D01*
X420038Y870599D01*
X420019Y870623D01*
X415328Y875314D01*
X415254Y875367D01*
X415184Y875427D01*
X415154Y875439D01*
X415128Y875458D01*
X415041Y875485D01*
X414956Y875519D01*
X414915Y875523D01*
X414893Y875530D01*
X414861Y875529D01*
X414789Y875537D01*
X392380Y875537D01*
X392290Y875523D01*
X392199Y875515D01*
X392169Y875503D01*
X392137Y875498D01*
X392057Y875455D01*
X391973Y875419D01*
X391941Y875393D01*
X391920Y875382D01*
X391898Y875359D01*
X391842Y875314D01*
X390953Y874425D01*
X371602Y874425D01*
X371582Y874422D01*
X371563Y874424D01*
X371461Y874402D01*
X371359Y874386D01*
X371342Y874376D01*
X371322Y874372D01*
X371233Y874319D01*
X371142Y874270D01*
X371128Y874256D01*
X371111Y874246D01*
X371044Y874167D01*
X370972Y874092D01*
X370964Y874074D01*
X370951Y874059D01*
X370912Y873963D01*
X370869Y873869D01*
X370867Y873849D01*
X370859Y873831D01*
X370841Y873664D01*
X370841Y871536D01*
X370844Y871516D01*
X370842Y871497D01*
X370864Y871395D01*
X370880Y871293D01*
X370890Y871276D01*
X370894Y871256D01*
X370947Y871167D01*
X370996Y871076D01*
X371010Y871062D01*
X371020Y871045D01*
X371099Y870978D01*
X371174Y870906D01*
X371192Y870898D01*
X371207Y870885D01*
X371303Y870846D01*
X371397Y870803D01*
X371417Y870801D01*
X371435Y870793D01*
X371602Y870775D01*
X390953Y870775D01*
X392725Y869003D01*
X392725Y863497D01*
X390953Y861725D01*
X371747Y861725D01*
X369975Y863497D01*
X369975Y868444D01*
X369964Y868515D01*
X369962Y868587D01*
X369944Y868636D01*
X369936Y868687D01*
X369902Y868750D01*
X369877Y868818D01*
X369845Y868858D01*
X369820Y868904D01*
X369768Y868954D01*
X369724Y869010D01*
X369680Y869038D01*
X369642Y869074D01*
X369577Y869104D01*
X369517Y869143D01*
X369466Y869155D01*
X369419Y869177D01*
X369348Y869185D01*
X369278Y869203D01*
X369226Y869199D01*
X369175Y869204D01*
X369104Y869189D01*
X369033Y869184D01*
X368985Y869163D01*
X368934Y869152D01*
X368873Y869115D01*
X368807Y869087D01*
X368751Y869043D01*
X368723Y869026D01*
X368708Y869008D01*
X368676Y868983D01*
X367865Y868171D01*
X363655Y868171D01*
X360679Y871147D01*
X360679Y875357D01*
X363655Y878333D01*
X367292Y878333D01*
X367382Y878347D01*
X367473Y878355D01*
X367502Y878367D01*
X367534Y878372D01*
X367615Y878415D01*
X367699Y878451D01*
X367731Y878477D01*
X367752Y878488D01*
X367774Y878511D01*
X367830Y878556D01*
X369346Y880072D01*
X369752Y880478D01*
X369805Y880552D01*
X369865Y880622D01*
X369877Y880652D01*
X369896Y880678D01*
X369923Y880765D01*
X369957Y880850D01*
X369961Y880891D01*
X369968Y880913D01*
X369967Y880945D01*
X369975Y881016D01*
X369975Y881703D01*
X371747Y883475D01*
X390953Y883475D01*
X392745Y881683D01*
X392747Y881660D01*
X392759Y881630D01*
X392764Y881598D01*
X392807Y881517D01*
X392843Y881433D01*
X392869Y881401D01*
X392880Y881380D01*
X392903Y881358D01*
X392948Y881302D01*
X393916Y880334D01*
X393990Y880281D01*
X394060Y880221D01*
X394090Y880209D01*
X394116Y880190D01*
X394203Y880163D01*
X394288Y880129D01*
X394329Y880125D01*
X394351Y880118D01*
X394383Y880119D01*
X394455Y880111D01*
X410838Y880111D01*
X410909Y880122D01*
X410981Y880124D01*
X411030Y880142D01*
X411081Y880150D01*
X411144Y880184D01*
X411212Y880209D01*
X411252Y880241D01*
X411298Y880266D01*
X411348Y880317D01*
X411404Y880362D01*
X411432Y880406D01*
X411468Y880444D01*
X411498Y880509D01*
X411537Y880569D01*
X411549Y880620D01*
X411571Y880667D01*
X411579Y880738D01*
X411597Y880808D01*
X411593Y880860D01*
X411598Y880911D01*
X411583Y880981D01*
X411578Y881053D01*
X411557Y881101D01*
X411546Y881152D01*
X411509Y881213D01*
X411481Y881279D01*
X411436Y881335D01*
X411420Y881363D01*
X411402Y881378D01*
X411377Y881410D01*
X410971Y881816D01*
X410971Y886025D01*
X413947Y889001D01*
X415044Y889001D01*
X415114Y889012D01*
X415186Y889014D01*
X415235Y889032D01*
X415286Y889040D01*
X415350Y889074D01*
X415417Y889099D01*
X415458Y889131D01*
X415504Y889156D01*
X415553Y889208D01*
X415609Y889252D01*
X415637Y889296D01*
X415673Y889334D01*
X415703Y889399D01*
X415742Y889459D01*
X415755Y889510D01*
X415777Y889557D01*
X415785Y889628D01*
X415802Y889698D01*
X415798Y889750D01*
X415804Y889801D01*
X415789Y889872D01*
X415783Y889943D01*
X415763Y889991D01*
X415752Y890042D01*
X415715Y890103D01*
X415687Y890169D01*
X415642Y890225D01*
X415625Y890253D01*
X415608Y890268D01*
X415582Y890300D01*
X401358Y904524D01*
X401284Y904577D01*
X401214Y904637D01*
X401184Y904649D01*
X401158Y904668D01*
X401071Y904695D01*
X400986Y904729D01*
X400945Y904733D01*
X400923Y904740D01*
X400891Y904739D01*
X400819Y904747D01*
X397183Y904747D01*
X394207Y907723D01*
X394207Y908820D01*
X394196Y908890D01*
X394194Y908962D01*
X394176Y909011D01*
X394168Y909062D01*
X394134Y909126D01*
X394109Y909193D01*
X394077Y909234D01*
X394052Y909280D01*
X394000Y909329D01*
X393956Y909385D01*
X393912Y909413D01*
X393874Y909449D01*
X393809Y909479D01*
X393749Y909518D01*
X393698Y909531D01*
X393651Y909553D01*
X393580Y909561D01*
X393510Y909578D01*
X393458Y909574D01*
X393407Y909580D01*
X393336Y909565D01*
X393265Y909559D01*
X393217Y909539D01*
X393166Y909528D01*
X393105Y909491D01*
X393039Y909463D01*
X392983Y909418D01*
X392955Y909401D01*
X392940Y909384D01*
X392908Y909358D01*
X392615Y909065D01*
X392600Y909065D01*
X392529Y909054D01*
X392458Y909052D01*
X392409Y909034D01*
X392357Y909026D01*
X392294Y908992D01*
X392227Y908967D01*
X392186Y908935D01*
X392140Y908910D01*
X392091Y908859D01*
X392035Y908814D01*
X392006Y908770D01*
X391971Y908732D01*
X391940Y908667D01*
X391902Y908607D01*
X391889Y908556D01*
X391867Y908509D01*
X391859Y908438D01*
X391842Y908368D01*
X391846Y908316D01*
X391840Y908265D01*
X391855Y908194D01*
X391861Y908123D01*
X391881Y908075D01*
X391892Y908024D01*
X391929Y907963D01*
X391957Y907897D01*
X392002Y907841D01*
X392018Y907813D01*
X392036Y907798D01*
X392062Y907766D01*
X392120Y907707D01*
X392519Y907018D01*
X392725Y906248D01*
X392725Y905849D01*
X382088Y905849D01*
X382069Y905846D01*
X382049Y905848D01*
X381947Y905826D01*
X381845Y905810D01*
X381828Y905800D01*
X381808Y905796D01*
X381719Y905743D01*
X381628Y905694D01*
X381614Y905680D01*
X381597Y905670D01*
X381530Y905591D01*
X381459Y905516D01*
X381450Y905498D01*
X381437Y905483D01*
X381399Y905387D01*
X381355Y905293D01*
X381353Y905273D01*
X381346Y905255D01*
X381333Y905331D01*
X381324Y905348D01*
X381320Y905368D01*
X381267Y905457D01*
X381218Y905548D01*
X381204Y905562D01*
X381194Y905579D01*
X381115Y905646D01*
X381040Y905718D01*
X381022Y905726D01*
X381007Y905739D01*
X380910Y905778D01*
X380817Y905821D01*
X380797Y905823D01*
X380779Y905831D01*
X380612Y905849D01*
X369975Y905849D01*
X369975Y906248D01*
X370181Y907018D01*
X370580Y907707D01*
X370638Y907766D01*
X370680Y907824D01*
X370729Y907876D01*
X370751Y907923D01*
X370782Y907965D01*
X370803Y908034D01*
X370833Y908099D01*
X370839Y908151D01*
X370854Y908200D01*
X370852Y908272D01*
X370860Y908343D01*
X370849Y908394D01*
X370848Y908446D01*
X370823Y908514D01*
X370808Y908584D01*
X370781Y908629D01*
X370763Y908677D01*
X370718Y908733D01*
X370682Y908795D01*
X370642Y908829D01*
X370610Y908869D01*
X370549Y908908D01*
X370495Y908955D01*
X370446Y908974D01*
X370403Y909002D01*
X370333Y909020D01*
X370267Y909047D01*
X370195Y909055D01*
X370164Y909063D01*
X370141Y909061D01*
X370100Y909065D01*
X362451Y909065D01*
X362360Y909051D01*
X362270Y909043D01*
X362240Y909031D01*
X362208Y909026D01*
X362127Y908983D01*
X362043Y908947D01*
X362011Y908921D01*
X361990Y908910D01*
X361968Y908887D01*
X361912Y908842D01*
X311843Y858773D01*
X288613Y858773D01*
X282740Y864646D01*
X281634Y865752D01*
X281560Y865805D01*
X281490Y865865D01*
X281460Y865877D01*
X281434Y865896D01*
X281347Y865923D01*
X281262Y865957D01*
X281221Y865961D01*
X281199Y865968D01*
X281167Y865967D01*
X281096Y865975D01*
X275968Y865975D01*
X275075Y866868D01*
X275075Y871080D01*
X275064Y871151D01*
X275062Y871223D01*
X275044Y871272D01*
X275036Y871323D01*
X275002Y871386D01*
X274977Y871454D01*
X274945Y871494D01*
X274920Y871540D01*
X274869Y871590D01*
X274824Y871646D01*
X274780Y871674D01*
X274742Y871710D01*
X274677Y871740D01*
X274617Y871779D01*
X274566Y871791D01*
X274519Y871813D01*
X274448Y871821D01*
X274378Y871839D01*
X274326Y871835D01*
X274275Y871840D01*
X274204Y871825D01*
X274133Y871820D01*
X274085Y871799D01*
X274034Y871788D01*
X273973Y871751D01*
X273907Y871723D01*
X273851Y871678D01*
X273823Y871662D01*
X273808Y871644D01*
X273776Y871619D01*
X273376Y871219D01*
X269167Y871219D01*
X266191Y874195D01*
X266191Y878405D01*
X269167Y881381D01*
X273376Y881381D01*
X273776Y880981D01*
X273834Y880940D01*
X273886Y880890D01*
X273904Y880882D01*
X273918Y880870D01*
X273947Y880858D01*
X273975Y880838D01*
X274044Y880817D01*
X274109Y880787D01*
X274131Y880784D01*
X274146Y880778D01*
X274184Y880774D01*
X274211Y880766D01*
X274249Y880767D01*
X274313Y880759D01*
X274314Y880759D01*
X274330Y880762D01*
X274353Y880760D01*
X274404Y880771D01*
X274456Y880772D01*
X274510Y880792D01*
X274557Y880799D01*
X274571Y880807D01*
X274594Y880812D01*
X274639Y880839D01*
X274687Y880856D01*
X274732Y880892D01*
X274774Y880914D01*
X274786Y880926D01*
X274805Y880938D01*
X274839Y880978D01*
X274879Y881010D01*
X274910Y881057D01*
X274944Y881093D01*
X274951Y881109D01*
X274965Y881125D01*
X274984Y881173D01*
X275012Y881217D01*
X275026Y881270D01*
X275047Y881316D01*
X275049Y881334D01*
X275057Y881353D01*
X275065Y881424D01*
X275073Y881456D01*
X275071Y881479D01*
X275075Y881520D01*
X275075Y883132D01*
X275968Y884025D01*
X290232Y884025D01*
X291125Y883132D01*
X291125Y866868D01*
X290232Y865975D01*
X289716Y865975D01*
X289646Y865964D01*
X289574Y865962D01*
X289525Y865944D01*
X289474Y865936D01*
X289410Y865902D01*
X289343Y865877D01*
X289302Y865845D01*
X289256Y865820D01*
X289207Y865768D01*
X289151Y865724D01*
X289123Y865680D01*
X289087Y865642D01*
X289057Y865577D01*
X289018Y865517D01*
X289005Y865466D01*
X288983Y865419D01*
X288975Y865348D01*
X288958Y865278D01*
X288962Y865226D01*
X288956Y865175D01*
X288971Y865104D01*
X288977Y865033D01*
X288997Y864985D01*
X289008Y864934D01*
X289045Y864873D01*
X289073Y864807D01*
X289118Y864751D01*
X289135Y864723D01*
X289152Y864708D01*
X289178Y864676D01*
X290284Y863570D01*
X290358Y863517D01*
X290428Y863457D01*
X290458Y863445D01*
X290484Y863426D01*
X290571Y863399D01*
X290656Y863365D01*
X290697Y863361D01*
X290719Y863354D01*
X290751Y863355D01*
X290823Y863347D01*
X309633Y863347D01*
X309724Y863361D01*
X309814Y863369D01*
X309844Y863381D01*
X309876Y863386D01*
X309957Y863429D01*
X310041Y863465D01*
X310073Y863491D01*
X310094Y863502D01*
X310116Y863525D01*
X310172Y863570D01*
X360241Y913639D01*
X369214Y913639D01*
X369234Y913642D01*
X369253Y913640D01*
X369355Y913662D01*
X369457Y913678D01*
X369474Y913688D01*
X369494Y913692D01*
X369583Y913745D01*
X369674Y913794D01*
X369688Y913808D01*
X369705Y913818D01*
X369772Y913897D01*
X369844Y913972D01*
X369852Y913990D01*
X369865Y914005D01*
X369904Y914101D01*
X369947Y914195D01*
X369949Y914215D01*
X369957Y914233D01*
X369975Y914400D01*
X369972Y914420D01*
X369974Y914439D01*
X369952Y914541D01*
X369936Y914643D01*
X369926Y914660D01*
X369922Y914680D01*
X369869Y914769D01*
X369820Y914860D01*
X369806Y914874D01*
X369796Y914891D01*
X369717Y914958D01*
X369642Y915030D01*
X369624Y915038D01*
X369609Y915051D01*
X369513Y915090D01*
X369419Y915133D01*
X369399Y915135D01*
X369381Y915143D01*
X369214Y915161D01*
X304800Y915161D01*
X304780Y915158D01*
X304761Y915160D01*
X304659Y915138D01*
X304557Y915122D01*
X304540Y915112D01*
X304520Y915108D01*
X304431Y915055D01*
X304340Y915006D01*
X304326Y914992D01*
X304309Y914982D01*
X304242Y914903D01*
X304170Y914828D01*
X304162Y914810D01*
X304149Y914795D01*
X304110Y914699D01*
X304067Y914605D01*
X304065Y914585D01*
X304057Y914567D01*
X304039Y914400D01*
X304039Y884786D01*
X304042Y884766D01*
X304040Y884747D01*
X304062Y884645D01*
X304078Y884543D01*
X304088Y884526D01*
X304092Y884506D01*
X304145Y884417D01*
X304194Y884326D01*
X304208Y884312D01*
X304218Y884295D01*
X304297Y884228D01*
X304372Y884156D01*
X304390Y884148D01*
X304405Y884135D01*
X304501Y884096D01*
X304595Y884053D01*
X304615Y884051D01*
X304633Y884043D01*
X304800Y884025D01*
X309232Y884025D01*
X310125Y883132D01*
X310125Y866868D01*
X309232Y865975D01*
X294968Y865975D01*
X294075Y866868D01*
X294075Y883132D01*
X294968Y884025D01*
X298704Y884025D01*
X298724Y884028D01*
X298743Y884026D01*
X298845Y884048D01*
X298947Y884064D01*
X298964Y884074D01*
X298984Y884078D01*
X299073Y884131D01*
X299164Y884180D01*
X299178Y884194D01*
X299195Y884204D01*
X299262Y884283D01*
X299334Y884358D01*
X299342Y884376D01*
X299355Y884391D01*
X299394Y884487D01*
X299437Y884581D01*
X299439Y884601D01*
X299447Y884619D01*
X299465Y884786D01*
X299465Y900684D01*
X299462Y900704D01*
X299464Y900723D01*
X299442Y900825D01*
X299426Y900927D01*
X299416Y900944D01*
X299412Y900964D01*
X299359Y901053D01*
X299310Y901144D01*
X299296Y901158D01*
X299286Y901175D01*
X299207Y901242D01*
X299132Y901314D01*
X299114Y901322D01*
X299099Y901335D01*
X299003Y901374D01*
X298909Y901417D01*
X298889Y901419D01*
X298871Y901427D01*
X298704Y901445D01*
X217932Y901445D01*
X217912Y901442D01*
X217893Y901444D01*
X217791Y901422D01*
X217689Y901406D01*
X217672Y901396D01*
X217652Y901392D01*
X217563Y901339D01*
X217472Y901290D01*
X217458Y901276D01*
X217441Y901266D01*
X217374Y901187D01*
X217302Y901112D01*
X217294Y901094D01*
X217281Y901079D01*
X217242Y900983D01*
X217199Y900889D01*
X217197Y900869D01*
X217189Y900851D01*
X217171Y900684D01*
X217171Y884486D01*
X217174Y884466D01*
X217172Y884447D01*
X217194Y884345D01*
X217210Y884243D01*
X217220Y884226D01*
X217224Y884206D01*
X217277Y884117D01*
X217326Y884026D01*
X217340Y884012D01*
X217350Y883995D01*
X217429Y883928D01*
X217504Y883856D01*
X217522Y883848D01*
X217537Y883835D01*
X217633Y883796D01*
X217727Y883753D01*
X217747Y883751D01*
X217765Y883743D01*
X217932Y883725D01*
X221532Y883725D01*
X222425Y882832D01*
X222425Y866568D01*
X221532Y865675D01*
X216952Y865675D01*
X216862Y865661D01*
X216771Y865653D01*
X216742Y865641D01*
X216710Y865636D01*
X216629Y865593D01*
X216545Y865557D01*
X216513Y865531D01*
X216492Y865520D01*
X216470Y865497D01*
X216414Y865452D01*
X215608Y864646D01*
X214092Y863130D01*
X214039Y863056D01*
X213979Y862986D01*
X213967Y862956D01*
X213948Y862930D01*
X213921Y862843D01*
X213887Y862758D01*
X213883Y862717D01*
X213876Y862695D01*
X213877Y862663D01*
X213869Y862591D01*
X213869Y858955D01*
X210893Y855979D01*
X206683Y855979D01*
X203707Y858955D01*
X203707Y863165D01*
X206205Y865662D01*
X206217Y865678D01*
X206232Y865691D01*
X206288Y865778D01*
X206348Y865862D01*
X206354Y865881D01*
X206365Y865898D01*
X206390Y865998D01*
X206421Y866097D01*
X206420Y866117D01*
X206425Y866136D01*
X206417Y866239D01*
X206414Y866343D01*
X206408Y866362D01*
X206406Y866381D01*
X206375Y866454D01*
X206375Y882832D01*
X207268Y883725D01*
X211836Y883725D01*
X211856Y883728D01*
X211875Y883726D01*
X211977Y883748D01*
X212079Y883764D01*
X212096Y883774D01*
X212116Y883778D01*
X212205Y883831D01*
X212296Y883880D01*
X212310Y883894D01*
X212327Y883904D01*
X212394Y883983D01*
X212466Y884058D01*
X212474Y884076D01*
X212487Y884091D01*
X212526Y884187D01*
X212569Y884281D01*
X212571Y884301D01*
X212579Y884319D01*
X212597Y884486D01*
X212597Y924914D01*
X212594Y924933D01*
X212596Y924951D01*
X212596Y924952D01*
X212596Y924953D01*
X212574Y925055D01*
X212558Y925157D01*
X212548Y925174D01*
X212544Y925194D01*
X212491Y925283D01*
X212442Y925374D01*
X212428Y925388D01*
X212418Y925405D01*
X212339Y925472D01*
X212264Y925544D01*
X212246Y925552D01*
X212231Y925565D01*
X212135Y925604D01*
X212041Y925647D01*
X212021Y925649D01*
X212003Y925657D01*
X211836Y925675D01*
X205668Y925675D01*
X204775Y926568D01*
X204775Y942832D01*
X205668Y943725D01*
X219932Y943725D01*
X220825Y942832D01*
X220825Y926568D01*
X219932Y925675D01*
X217932Y925675D01*
X217912Y925672D01*
X217893Y925674D01*
X217791Y925652D01*
X217689Y925636D01*
X217672Y925626D01*
X217652Y925622D01*
X217563Y925569D01*
X217472Y925520D01*
X217458Y925506D01*
X217441Y925496D01*
X217374Y925417D01*
X217302Y925342D01*
X217294Y925324D01*
X217281Y925309D01*
X217242Y925213D01*
X217199Y925119D01*
X217197Y925099D01*
X217189Y925081D01*
X217171Y924914D01*
X217171Y906780D01*
X217174Y906760D01*
X217172Y906741D01*
X217194Y906639D01*
X217210Y906537D01*
X217220Y906520D01*
X217224Y906500D01*
X217277Y906411D01*
X217326Y906320D01*
X217340Y906306D01*
X217350Y906289D01*
X217429Y906222D01*
X217504Y906150D01*
X217522Y906142D01*
X217537Y906129D01*
X217633Y906090D01*
X217727Y906047D01*
X217747Y906045D01*
X217765Y906037D01*
X217932Y906019D01*
X298704Y906019D01*
X298724Y906022D01*
X298743Y906020D01*
X298845Y906042D01*
X298947Y906058D01*
X298964Y906068D01*
X298984Y906072D01*
X299073Y906125D01*
X299164Y906174D01*
X299178Y906188D01*
X299195Y906198D01*
X299262Y906277D01*
X299334Y906352D01*
X299342Y906370D01*
X299355Y906385D01*
X299394Y906481D01*
X299437Y906575D01*
X299439Y906595D01*
X299447Y906613D01*
X299465Y906780D01*
X299465Y924914D01*
X299462Y924933D01*
X299464Y924951D01*
X299464Y924952D01*
X299464Y924953D01*
X299442Y925055D01*
X299426Y925157D01*
X299416Y925174D01*
X299412Y925194D01*
X299359Y925283D01*
X299310Y925374D01*
X299296Y925388D01*
X299286Y925405D01*
X299207Y925472D01*
X299132Y925544D01*
X299114Y925552D01*
X299099Y925565D01*
X299003Y925604D01*
X298909Y925647D01*
X298889Y925649D01*
X298871Y925657D01*
X298704Y925675D01*
X296468Y925675D01*
X295575Y926568D01*
X295575Y942832D01*
X296468Y943725D01*
X310732Y943725D01*
X311625Y942832D01*
X311625Y926568D01*
X310732Y925675D01*
X304800Y925675D01*
X304780Y925672D01*
X304761Y925674D01*
X304659Y925652D01*
X304557Y925636D01*
X304540Y925626D01*
X304520Y925622D01*
X304431Y925569D01*
X304340Y925520D01*
X304326Y925506D01*
X304309Y925496D01*
X304242Y925417D01*
X304170Y925342D01*
X304162Y925324D01*
X304149Y925309D01*
X304110Y925213D01*
X304067Y925119D01*
X304065Y925099D01*
X304057Y925081D01*
X304039Y924914D01*
X304039Y920496D01*
X304042Y920476D01*
X304040Y920457D01*
X304062Y920355D01*
X304078Y920253D01*
X304088Y920236D01*
X304092Y920216D01*
X304145Y920127D01*
X304194Y920036D01*
X304208Y920022D01*
X304218Y920005D01*
X304297Y919938D01*
X304372Y919866D01*
X304390Y919858D01*
X304405Y919845D01*
X304501Y919806D01*
X304595Y919763D01*
X304615Y919761D01*
X304633Y919753D01*
X304800Y919735D01*
X369592Y919735D01*
X369682Y919749D01*
X369773Y919757D01*
X369803Y919769D01*
X369835Y919774D01*
X369915Y919817D01*
X369999Y919853D01*
X370031Y919879D01*
X370052Y919890D01*
X370074Y919913D01*
X370130Y919958D01*
X371747Y921575D01*
X390953Y921575D01*
X391219Y921309D01*
X391235Y921297D01*
X391247Y921282D01*
X391321Y921235D01*
X391342Y921216D01*
X391355Y921211D01*
X391418Y921166D01*
X391437Y921160D01*
X391454Y921149D01*
X391555Y921124D01*
X391653Y921093D01*
X391673Y921094D01*
X391693Y921089D01*
X391796Y921097D01*
X391899Y921100D01*
X391918Y921106D01*
X391938Y921108D01*
X392033Y921148D01*
X392130Y921184D01*
X392146Y921196D01*
X392164Y921204D01*
X392230Y921257D01*
X392237Y921261D01*
X392243Y921268D01*
X392295Y921309D01*
X408970Y937984D01*
X410533Y939547D01*
X414789Y939547D01*
X414880Y939561D01*
X414970Y939569D01*
X415000Y939581D01*
X415032Y939586D01*
X415113Y939629D01*
X415197Y939665D01*
X415229Y939691D01*
X415250Y939702D01*
X415272Y939725D01*
X415328Y939770D01*
X418114Y942556D01*
X419252Y943694D01*
X419305Y943768D01*
X419365Y943838D01*
X419377Y943868D01*
X419396Y943894D01*
X419423Y943981D01*
X419457Y944066D01*
X419461Y944107D01*
X419468Y944129D01*
X419467Y944161D01*
X419475Y944232D01*
X419475Y945203D01*
X421247Y946975D01*
X440453Y946975D01*
X440861Y946567D01*
X440877Y946555D01*
X440889Y946540D01*
X440976Y946484D01*
X441060Y946424D01*
X441079Y946418D01*
X441096Y946407D01*
X441197Y946382D01*
X441295Y946351D01*
X441315Y946352D01*
X441335Y946347D01*
X441438Y946355D01*
X441541Y946358D01*
X441560Y946364D01*
X441580Y946366D01*
X441675Y946406D01*
X441772Y946442D01*
X441788Y946454D01*
X441806Y946462D01*
X441937Y946567D01*
X445585Y950215D01*
X595307Y950215D01*
X604228Y941294D01*
X604302Y941241D01*
X604372Y941181D01*
X604402Y941169D01*
X604428Y941150D01*
X604515Y941123D01*
X604600Y941089D01*
X604641Y941085D01*
X604663Y941078D01*
X604695Y941079D01*
X604767Y941071D01*
X615327Y941071D01*
X615347Y941074D01*
X615366Y941072D01*
X615468Y941094D01*
X615570Y941110D01*
X615587Y941120D01*
X615607Y941124D01*
X615696Y941177D01*
X615787Y941226D01*
X615801Y941240D01*
X615818Y941250D01*
X615885Y941329D01*
X615957Y941404D01*
X615965Y941422D01*
X615978Y941437D01*
X616017Y941533D01*
X616060Y941627D01*
X616062Y941647D01*
X616070Y941665D01*
X616088Y941832D01*
X616088Y942480D01*
X616981Y943373D01*
X638819Y943373D01*
X639712Y942480D01*
X639712Y941832D01*
X639715Y941812D01*
X639713Y941793D01*
X639735Y941691D01*
X639751Y941589D01*
X639761Y941572D01*
X639765Y941552D01*
X639818Y941463D01*
X639867Y941372D01*
X639881Y941358D01*
X639891Y941341D01*
X639970Y941274D01*
X640045Y941202D01*
X640063Y941194D01*
X640078Y941181D01*
X640174Y941142D01*
X640268Y941099D01*
X640288Y941097D01*
X640306Y941089D01*
X640473Y941071D01*
X683013Y941071D01*
X683104Y941085D01*
X683194Y941093D01*
X683224Y941105D01*
X683256Y941110D01*
X683337Y941153D01*
X683421Y941189D01*
X683453Y941215D01*
X683474Y941226D01*
X683496Y941249D01*
X683552Y941294D01*
X692473Y950215D01*
X732467Y950215D01*
X740789Y941893D01*
X740847Y941851D01*
X740899Y941802D01*
X740946Y941780D01*
X740988Y941750D01*
X741057Y941729D01*
X741122Y941698D01*
X741174Y941693D01*
X741224Y941677D01*
X741295Y941679D01*
X741366Y941671D01*
X741417Y941682D01*
X741469Y941684D01*
X741537Y941708D01*
X741607Y941723D01*
X741652Y941750D01*
X741700Y941768D01*
X741756Y941813D01*
X741818Y941850D01*
X741852Y941889D01*
X741892Y941922D01*
X741931Y941982D01*
X741978Y942037D01*
X741997Y942085D01*
X742025Y942129D01*
X742043Y942198D01*
X742070Y942265D01*
X742078Y942336D01*
X742086Y942367D01*
X742084Y942391D01*
X742088Y942431D01*
X742088Y942480D01*
X742981Y943373D01*
X764819Y943373D01*
X765712Y942480D01*
X765712Y935120D01*
X764819Y934227D01*
X742981Y934227D01*
X742088Y935120D01*
X742088Y935736D01*
X742085Y935756D01*
X742087Y935775D01*
X742065Y935877D01*
X742049Y935979D01*
X742039Y935996D01*
X742035Y936016D01*
X741982Y936105D01*
X741933Y936196D01*
X741919Y936210D01*
X741909Y936227D01*
X741830Y936294D01*
X741755Y936366D01*
X741737Y936374D01*
X741722Y936387D01*
X741626Y936426D01*
X741532Y936469D01*
X741512Y936471D01*
X741494Y936479D01*
X741327Y936497D01*
X739717Y936497D01*
X730796Y945418D01*
X730722Y945471D01*
X730652Y945531D01*
X730622Y945543D01*
X730596Y945562D01*
X730509Y945589D01*
X730424Y945623D01*
X730383Y945627D01*
X730361Y945634D01*
X730329Y945633D01*
X730257Y945641D01*
X694683Y945641D01*
X694592Y945627D01*
X694502Y945619D01*
X694472Y945607D01*
X694440Y945602D01*
X694359Y945559D01*
X694275Y945523D01*
X694243Y945497D01*
X694222Y945486D01*
X694200Y945463D01*
X694144Y945418D01*
X685223Y936497D01*
X640473Y936497D01*
X640453Y936494D01*
X640434Y936496D01*
X640332Y936474D01*
X640230Y936458D01*
X640213Y936448D01*
X640193Y936444D01*
X640104Y936391D01*
X640013Y936342D01*
X639999Y936328D01*
X639982Y936318D01*
X639915Y936239D01*
X639843Y936164D01*
X639835Y936146D01*
X639822Y936131D01*
X639783Y936035D01*
X639740Y935941D01*
X639738Y935921D01*
X639730Y935903D01*
X639712Y935736D01*
X639712Y935120D01*
X638819Y934227D01*
X616981Y934227D01*
X616088Y935120D01*
X616088Y935736D01*
X616085Y935756D01*
X616087Y935775D01*
X616065Y935877D01*
X616049Y935979D01*
X616039Y935996D01*
X616035Y936016D01*
X615982Y936105D01*
X615933Y936196D01*
X615919Y936210D01*
X615909Y936227D01*
X615830Y936294D01*
X615755Y936366D01*
X615737Y936374D01*
X615722Y936387D01*
X615626Y936426D01*
X615532Y936469D01*
X615512Y936471D01*
X615494Y936479D01*
X615327Y936497D01*
X602557Y936497D01*
X602264Y936790D01*
X602206Y936832D01*
X602154Y936881D01*
X602107Y936903D01*
X602065Y936933D01*
X601996Y936954D01*
X601931Y936985D01*
X601879Y936990D01*
X601829Y937006D01*
X601758Y937004D01*
X601687Y937012D01*
X601636Y937001D01*
X601584Y936999D01*
X601516Y936975D01*
X601446Y936960D01*
X601401Y936933D01*
X601353Y936915D01*
X601297Y936870D01*
X601235Y936833D01*
X601201Y936794D01*
X601161Y936761D01*
X601122Y936701D01*
X601075Y936646D01*
X601056Y936598D01*
X601028Y936554D01*
X601010Y936485D01*
X600983Y936418D01*
X600975Y936347D01*
X600967Y936316D01*
X600969Y936292D01*
X600965Y936252D01*
X600965Y935155D01*
X597989Y932179D01*
X593779Y932179D01*
X591810Y934148D01*
X591794Y934160D01*
X591782Y934176D01*
X591694Y934232D01*
X591611Y934292D01*
X591592Y934298D01*
X591575Y934309D01*
X591474Y934334D01*
X591375Y934364D01*
X591355Y934364D01*
X591336Y934369D01*
X591233Y934361D01*
X591130Y934358D01*
X591111Y934351D01*
X591091Y934350D01*
X590996Y934309D01*
X590899Y934274D01*
X590883Y934261D01*
X590865Y934253D01*
X590832Y934227D01*
X568975Y934227D01*
X568082Y935120D01*
X568082Y942480D01*
X568975Y943373D01*
X590813Y943373D01*
X591706Y942480D01*
X591706Y942105D01*
X591717Y942034D01*
X591719Y941962D01*
X591737Y941913D01*
X591745Y941862D01*
X591779Y941799D01*
X591804Y941731D01*
X591836Y941691D01*
X591861Y941645D01*
X591913Y941595D01*
X591957Y941539D01*
X592001Y941511D01*
X592039Y941475D01*
X592104Y941445D01*
X592164Y941406D01*
X592215Y941394D01*
X592262Y941372D01*
X592333Y941364D01*
X592403Y941346D01*
X592455Y941350D01*
X592506Y941345D01*
X592577Y941360D01*
X592648Y941365D01*
X592696Y941386D01*
X592747Y941397D01*
X592808Y941434D01*
X592874Y941462D01*
X592930Y941506D01*
X592958Y941523D01*
X592973Y941541D01*
X593005Y941566D01*
X593779Y942341D01*
X594876Y942341D01*
X594946Y942352D01*
X595018Y942354D01*
X595067Y942372D01*
X595118Y942380D01*
X595182Y942414D01*
X595249Y942439D01*
X595290Y942471D01*
X595336Y942496D01*
X595385Y942548D01*
X595441Y942592D01*
X595469Y942636D01*
X595505Y942674D01*
X595535Y942739D01*
X595574Y942799D01*
X595587Y942850D01*
X595609Y942897D01*
X595617Y942968D01*
X595634Y943038D01*
X595630Y943090D01*
X595636Y943141D01*
X595621Y943212D01*
X595615Y943283D01*
X595595Y943331D01*
X595584Y943382D01*
X595547Y943443D01*
X595519Y943509D01*
X595474Y943565D01*
X595457Y943593D01*
X595440Y943608D01*
X595414Y943640D01*
X593636Y945418D01*
X593562Y945471D01*
X593492Y945531D01*
X593462Y945543D01*
X593436Y945562D01*
X593349Y945589D01*
X593264Y945623D01*
X593223Y945627D01*
X593201Y945634D01*
X593169Y945633D01*
X593097Y945641D01*
X447795Y945641D01*
X447704Y945627D01*
X447614Y945619D01*
X447584Y945607D01*
X447552Y945602D01*
X447471Y945559D01*
X447387Y945523D01*
X447355Y945497D01*
X447334Y945486D01*
X447312Y945463D01*
X447256Y945418D01*
X442448Y940610D01*
X442395Y940536D01*
X442335Y940466D01*
X442323Y940436D01*
X442304Y940410D01*
X442277Y940323D01*
X442243Y940238D01*
X442239Y940197D01*
X442232Y940175D01*
X442233Y940143D01*
X442225Y940071D01*
X442225Y939697D01*
X440453Y937925D01*
X421247Y937925D01*
X421137Y938035D01*
X421121Y938047D01*
X421109Y938062D01*
X421021Y938118D01*
X420938Y938178D01*
X420919Y938184D01*
X420902Y938195D01*
X420801Y938220D01*
X420703Y938251D01*
X420683Y938250D01*
X420663Y938255D01*
X420560Y938247D01*
X420457Y938244D01*
X420438Y938238D01*
X420418Y938236D01*
X420323Y938196D01*
X420226Y938160D01*
X420210Y938148D01*
X420192Y938140D01*
X420061Y938035D01*
X416999Y934973D01*
X412742Y934973D01*
X412652Y934959D01*
X412561Y934951D01*
X412532Y934939D01*
X412500Y934934D01*
X412419Y934891D01*
X412335Y934855D01*
X412303Y934829D01*
X412282Y934818D01*
X412260Y934795D01*
X412204Y934750D01*
X410680Y933226D01*
X410638Y933168D01*
X410589Y933116D01*
X410567Y933069D01*
X410537Y933027D01*
X410516Y932958D01*
X410485Y932893D01*
X410480Y932841D01*
X410464Y932791D01*
X410466Y932720D01*
X410458Y932649D01*
X410469Y932598D01*
X410471Y932546D01*
X410495Y932478D01*
X410510Y932408D01*
X410537Y932364D01*
X410555Y932315D01*
X410600Y932259D01*
X410637Y932197D01*
X410676Y932163D01*
X410709Y932123D01*
X410769Y932084D01*
X410824Y932037D01*
X410872Y932018D01*
X410916Y931990D01*
X410985Y931972D01*
X411052Y931945D01*
X411123Y931937D01*
X411154Y931929D01*
X411178Y931931D01*
X411218Y931927D01*
X418714Y931927D01*
X418734Y931930D01*
X418753Y931928D01*
X418855Y931950D01*
X418957Y931966D01*
X418974Y931976D01*
X418994Y931980D01*
X419083Y932033D01*
X419174Y932082D01*
X419188Y932096D01*
X419205Y932106D01*
X419272Y932185D01*
X419344Y932260D01*
X419352Y932278D01*
X419365Y932293D01*
X419404Y932389D01*
X419440Y932468D01*
X421247Y934275D01*
X440453Y934275D01*
X442225Y932503D01*
X442225Y926997D01*
X440453Y925225D01*
X421247Y925225D01*
X419342Y927130D01*
X419268Y927183D01*
X419199Y927243D01*
X419169Y927255D01*
X419142Y927274D01*
X419055Y927301D01*
X418971Y927335D01*
X418930Y927339D01*
X418907Y927346D01*
X418875Y927345D01*
X418804Y927353D01*
X411219Y927353D01*
X411128Y927339D01*
X411038Y927331D01*
X411008Y927319D01*
X410976Y927314D01*
X410895Y927271D01*
X410811Y927235D01*
X410779Y927209D01*
X410758Y927198D01*
X410736Y927175D01*
X410680Y927130D01*
X407378Y923828D01*
X407336Y923770D01*
X407287Y923718D01*
X407265Y923671D01*
X407235Y923629D01*
X407214Y923560D01*
X407183Y923495D01*
X407178Y923443D01*
X407162Y923393D01*
X407164Y923322D01*
X407156Y923251D01*
X407167Y923200D01*
X407169Y923148D01*
X407193Y923080D01*
X407208Y923010D01*
X407235Y922965D01*
X407253Y922917D01*
X407298Y922861D01*
X407335Y922799D01*
X407374Y922765D01*
X407407Y922725D01*
X407467Y922686D01*
X407522Y922639D01*
X407570Y922620D01*
X407614Y922592D01*
X407683Y922574D01*
X407750Y922547D01*
X407821Y922539D01*
X407852Y922531D01*
X407876Y922533D01*
X407916Y922529D01*
X412061Y922529D01*
X414632Y919958D01*
X414705Y919905D01*
X414775Y919845D01*
X414805Y919833D01*
X414831Y919814D01*
X414918Y919787D01*
X415003Y919753D01*
X415044Y919749D01*
X415066Y919742D01*
X415099Y919743D01*
X415170Y919735D01*
X419092Y919735D01*
X419182Y919749D01*
X419273Y919757D01*
X419303Y919769D01*
X419335Y919774D01*
X419415Y919817D01*
X419499Y919853D01*
X419531Y919879D01*
X419552Y919890D01*
X419574Y919913D01*
X419630Y919958D01*
X421247Y921575D01*
X440453Y921575D01*
X442225Y919803D01*
X442225Y914297D01*
X440453Y912525D01*
X421894Y912525D01*
X421874Y912522D01*
X421855Y912524D01*
X421753Y912502D01*
X421651Y912486D01*
X421634Y912476D01*
X421614Y912472D01*
X421525Y912419D01*
X421434Y912370D01*
X421420Y912356D01*
X421403Y912346D01*
X421336Y912267D01*
X421264Y912192D01*
X421256Y912174D01*
X421243Y912159D01*
X421204Y912063D01*
X421161Y911969D01*
X421159Y911949D01*
X421151Y911931D01*
X421133Y911764D01*
X421133Y909636D01*
X421136Y909616D01*
X421134Y909597D01*
X421156Y909495D01*
X421172Y909393D01*
X421182Y909376D01*
X421186Y909356D01*
X421239Y909267D01*
X421288Y909176D01*
X421302Y909162D01*
X421312Y909145D01*
X421391Y909078D01*
X421466Y909006D01*
X421484Y908998D01*
X421499Y908985D01*
X421595Y908946D01*
X421689Y908903D01*
X421709Y908901D01*
X421727Y908893D01*
X421894Y908875D01*
X440453Y908875D01*
X442225Y907103D01*
X442225Y901597D01*
X440453Y899825D01*
X421247Y899825D01*
X419475Y901597D01*
X419475Y902855D01*
X419473Y902867D01*
X419474Y902875D01*
X419465Y902916D01*
X419461Y902946D01*
X419453Y903036D01*
X419441Y903066D01*
X419436Y903098D01*
X419393Y903179D01*
X419357Y903263D01*
X419331Y903295D01*
X419320Y903316D01*
X419297Y903338D01*
X419252Y903394D01*
X418122Y904524D01*
X418048Y904577D01*
X417978Y904637D01*
X417948Y904649D01*
X417922Y904668D01*
X417835Y904695D01*
X417750Y904729D01*
X417709Y904733D01*
X417687Y904740D01*
X417655Y904739D01*
X417583Y904747D01*
X413947Y904747D01*
X410971Y907723D01*
X410971Y911606D01*
X410968Y911626D01*
X410970Y911645D01*
X410948Y911747D01*
X410932Y911849D01*
X410922Y911866D01*
X410918Y911886D01*
X410865Y911975D01*
X410816Y912066D01*
X410802Y912080D01*
X410792Y912097D01*
X410713Y912164D01*
X410638Y912236D01*
X410620Y912244D01*
X410605Y912257D01*
X410509Y912296D01*
X410415Y912339D01*
X410395Y912341D01*
X410377Y912349D01*
X410210Y912367D01*
X407851Y912367D01*
X404875Y915343D01*
X404875Y919488D01*
X404864Y919558D01*
X404862Y919630D01*
X404844Y919679D01*
X404836Y919730D01*
X404802Y919794D01*
X404777Y919861D01*
X404745Y919902D01*
X404720Y919948D01*
X404669Y919997D01*
X404624Y920053D01*
X404580Y920081D01*
X404542Y920117D01*
X404477Y920147D01*
X404417Y920186D01*
X404366Y920199D01*
X404319Y920221D01*
X404248Y920229D01*
X404178Y920246D01*
X404126Y920242D01*
X404075Y920248D01*
X404004Y920233D01*
X403933Y920227D01*
X403885Y920207D01*
X403834Y920196D01*
X403773Y920159D01*
X403707Y920131D01*
X403651Y920086D01*
X403623Y920069D01*
X403608Y920052D01*
X403576Y920026D01*
X399758Y916208D01*
X399716Y916150D01*
X399667Y916098D01*
X399645Y916051D01*
X399615Y916009D01*
X399594Y915940D01*
X399563Y915875D01*
X399558Y915823D01*
X399542Y915773D01*
X399544Y915702D01*
X399536Y915631D01*
X399547Y915580D01*
X399549Y915528D01*
X399573Y915460D01*
X399588Y915390D01*
X399615Y915346D01*
X399633Y915297D01*
X399678Y915241D01*
X399715Y915179D01*
X399754Y915145D01*
X399787Y915105D01*
X399847Y915066D01*
X399902Y915019D01*
X399950Y915000D01*
X399994Y914972D01*
X400063Y914954D01*
X400130Y914927D01*
X400201Y914919D01*
X400232Y914911D01*
X400256Y914913D01*
X400296Y914909D01*
X401393Y914909D01*
X404369Y911933D01*
X404369Y908297D01*
X404383Y908206D01*
X404391Y908116D01*
X404403Y908086D01*
X404408Y908054D01*
X404451Y907973D01*
X404487Y907889D01*
X404513Y907857D01*
X404524Y907836D01*
X404547Y907814D01*
X404592Y907758D01*
X418176Y894174D01*
X418203Y894155D01*
X418204Y894153D01*
X418216Y894145D01*
X418234Y894132D01*
X418286Y894083D01*
X418333Y894061D01*
X418375Y894031D01*
X418444Y894010D01*
X418509Y893979D01*
X418561Y893974D01*
X418611Y893958D01*
X418682Y893960D01*
X418753Y893952D01*
X418804Y893963D01*
X418856Y893965D01*
X418924Y893989D01*
X418994Y894004D01*
X419039Y894031D01*
X419087Y894049D01*
X419118Y894074D01*
X419121Y894075D01*
X419149Y894097D01*
X419205Y894131D01*
X419236Y894167D01*
X419252Y894180D01*
X419258Y894185D01*
X419279Y894203D01*
X419287Y894215D01*
X421247Y896175D01*
X440453Y896175D01*
X442225Y894403D01*
X442225Y888897D01*
X440453Y887125D01*
X421870Y887125D01*
X421799Y887114D01*
X421727Y887112D01*
X421678Y887094D01*
X421627Y887086D01*
X421564Y887052D01*
X421496Y887027D01*
X421455Y886995D01*
X421410Y886970D01*
X421360Y886918D01*
X421304Y886873D01*
X421276Y886830D01*
X421240Y886792D01*
X421210Y886727D01*
X421171Y886666D01*
X421158Y886616D01*
X421137Y886569D01*
X421129Y886497D01*
X421111Y886428D01*
X421115Y886376D01*
X421110Y886325D01*
X421125Y886254D01*
X421130Y886183D01*
X421133Y886177D01*
X421133Y884236D01*
X421136Y884216D01*
X421134Y884197D01*
X421156Y884095D01*
X421172Y883993D01*
X421182Y883976D01*
X421186Y883956D01*
X421239Y883867D01*
X421288Y883776D01*
X421302Y883762D01*
X421312Y883745D01*
X421391Y883678D01*
X421466Y883606D01*
X421484Y883598D01*
X421499Y883585D01*
X421595Y883546D01*
X421689Y883503D01*
X421709Y883501D01*
X421727Y883493D01*
X421894Y883475D01*
X440453Y883475D01*
X442225Y881703D01*
X442225Y880112D01*
X442236Y880042D01*
X442238Y879970D01*
X442256Y879921D01*
X442264Y879870D01*
X442298Y879806D01*
X442323Y879739D01*
X442355Y879698D01*
X442380Y879652D01*
X442432Y879603D01*
X442476Y879547D01*
X442520Y879519D01*
X442558Y879483D01*
X442623Y879453D01*
X442683Y879414D01*
X442734Y879401D01*
X442781Y879379D01*
X442852Y879371D01*
X442922Y879354D01*
X442974Y879358D01*
X443025Y879352D01*
X443096Y879367D01*
X443167Y879373D01*
X443215Y879393D01*
X443266Y879404D01*
X443327Y879441D01*
X443393Y879469D01*
X443449Y879514D01*
X443477Y879531D01*
X443492Y879548D01*
X443524Y879574D01*
X469969Y906019D01*
X492714Y906019D01*
X492734Y906022D01*
X492753Y906020D01*
X492855Y906042D01*
X492957Y906058D01*
X492974Y906068D01*
X492994Y906072D01*
X493083Y906125D01*
X493174Y906174D01*
X493188Y906188D01*
X493205Y906198D01*
X493272Y906277D01*
X493344Y906352D01*
X493352Y906370D01*
X493365Y906385D01*
X493404Y906481D01*
X493447Y906575D01*
X493449Y906595D01*
X493457Y906613D01*
X493475Y906780D01*
X493475Y911332D01*
X494368Y912225D01*
X510632Y912225D01*
X511525Y911332D01*
X511525Y906780D01*
X511528Y906760D01*
X511526Y906741D01*
X511548Y906639D01*
X511564Y906537D01*
X511574Y906520D01*
X511578Y906500D01*
X511631Y906411D01*
X511680Y906320D01*
X511694Y906306D01*
X511704Y906289D01*
X511783Y906222D01*
X511858Y906150D01*
X511876Y906142D01*
X511891Y906129D01*
X511987Y906090D01*
X512081Y906047D01*
X512101Y906045D01*
X512119Y906037D01*
X512286Y906019D01*
X551111Y906019D01*
X566128Y891002D01*
X566202Y890949D01*
X566272Y890889D01*
X566302Y890877D01*
X566328Y890858D01*
X566415Y890831D01*
X566500Y890797D01*
X566541Y890793D01*
X566563Y890786D01*
X566595Y890787D01*
X566667Y890779D01*
X567321Y890779D01*
X567341Y890782D01*
X567360Y890780D01*
X567462Y890802D01*
X567564Y890818D01*
X567581Y890828D01*
X567601Y890832D01*
X567690Y890885D01*
X567781Y890934D01*
X567795Y890948D01*
X567812Y890958D01*
X567879Y891037D01*
X567951Y891112D01*
X567959Y891130D01*
X567972Y891145D01*
X568011Y891241D01*
X568054Y891335D01*
X568056Y891355D01*
X568064Y891373D01*
X568082Y891540D01*
X568082Y891680D01*
X568975Y892573D01*
X590813Y892573D01*
X591709Y891676D01*
X591726Y891664D01*
X591738Y891649D01*
X591825Y891593D01*
X591909Y891532D01*
X591928Y891527D01*
X591945Y891516D01*
X592045Y891490D01*
X592144Y891460D01*
X592164Y891461D01*
X592183Y891456D01*
X592286Y891464D01*
X592390Y891466D01*
X592409Y891473D01*
X592429Y891475D01*
X592524Y891515D01*
X592621Y891551D01*
X592637Y891563D01*
X592655Y891571D01*
X592786Y891676D01*
X593374Y892264D01*
X593428Y892338D01*
X593487Y892408D01*
X593499Y892438D01*
X593518Y892464D01*
X593545Y892551D01*
X593579Y892636D01*
X593583Y892677D01*
X593590Y892699D01*
X593589Y892731D01*
X593597Y892803D01*
X593597Y895535D01*
X595160Y897098D01*
X595414Y897352D01*
X595456Y897410D01*
X595505Y897462D01*
X595527Y897509D01*
X595557Y897551D01*
X595578Y897620D01*
X595609Y897685D01*
X595614Y897737D01*
X595630Y897787D01*
X595628Y897858D01*
X595636Y897929D01*
X595625Y897980D01*
X595623Y898032D01*
X595599Y898100D01*
X595584Y898170D01*
X595557Y898215D01*
X595539Y898263D01*
X595494Y898319D01*
X595457Y898381D01*
X595418Y898415D01*
X595385Y898455D01*
X595325Y898494D01*
X595270Y898541D01*
X595222Y898560D01*
X595178Y898588D01*
X595109Y898606D01*
X595042Y898633D01*
X594971Y898641D01*
X594940Y898649D01*
X594916Y898647D01*
X594876Y898651D01*
X594353Y898651D01*
X594262Y898637D01*
X594172Y898629D01*
X594142Y898617D01*
X594110Y898612D01*
X594029Y898569D01*
X593945Y898533D01*
X593913Y898507D01*
X593892Y898496D01*
X593870Y898473D01*
X593814Y898428D01*
X593783Y898397D01*
X592467Y898397D01*
X592447Y898394D01*
X592428Y898396D01*
X592326Y898374D01*
X592224Y898358D01*
X592207Y898348D01*
X592187Y898344D01*
X592098Y898291D01*
X592007Y898242D01*
X591993Y898228D01*
X591976Y898218D01*
X591909Y898139D01*
X591837Y898064D01*
X591829Y898046D01*
X591816Y898031D01*
X591777Y897935D01*
X591734Y897841D01*
X591732Y897821D01*
X591724Y897803D01*
X591706Y897636D01*
X591706Y897020D01*
X590813Y896127D01*
X568975Y896127D01*
X568082Y897020D01*
X568082Y904380D01*
X568975Y905273D01*
X590042Y905273D01*
X590062Y905276D01*
X590081Y905274D01*
X590183Y905296D01*
X590285Y905312D01*
X590302Y905322D01*
X590322Y905326D01*
X590411Y905379D01*
X590502Y905428D01*
X590516Y905442D01*
X590533Y905452D01*
X590600Y905531D01*
X590672Y905606D01*
X590680Y905624D01*
X590693Y905639D01*
X590732Y905735D01*
X590757Y905791D01*
X593779Y908813D01*
X597989Y908813D01*
X600965Y905837D01*
X600965Y904740D01*
X600976Y904670D01*
X600978Y904598D01*
X600996Y904549D01*
X601004Y904498D01*
X601038Y904434D01*
X601063Y904367D01*
X601095Y904326D01*
X601120Y904280D01*
X601172Y904231D01*
X601216Y904175D01*
X601260Y904147D01*
X601298Y904111D01*
X601363Y904081D01*
X601423Y904042D01*
X601474Y904029D01*
X601521Y904007D01*
X601592Y903999D01*
X601662Y903982D01*
X601714Y903986D01*
X601765Y903980D01*
X601836Y903995D01*
X601907Y904001D01*
X601955Y904021D01*
X602006Y904032D01*
X602067Y904069D01*
X602133Y904097D01*
X602189Y904142D01*
X602217Y904159D01*
X602232Y904176D01*
X602264Y904202D01*
X613225Y915163D01*
X615327Y915163D01*
X615347Y915166D01*
X615366Y915164D01*
X615468Y915186D01*
X615570Y915202D01*
X615587Y915212D01*
X615607Y915216D01*
X615696Y915269D01*
X615787Y915318D01*
X615801Y915332D01*
X615818Y915342D01*
X615885Y915421D01*
X615957Y915496D01*
X615965Y915514D01*
X615978Y915529D01*
X616017Y915625D01*
X616060Y915719D01*
X616062Y915739D01*
X616070Y915757D01*
X616088Y915924D01*
X616088Y917080D01*
X616981Y917973D01*
X624840Y917973D01*
X624860Y917976D01*
X624879Y917974D01*
X624981Y917996D01*
X625083Y918012D01*
X625100Y918022D01*
X625120Y918026D01*
X625209Y918079D01*
X625300Y918128D01*
X625314Y918142D01*
X625331Y918152D01*
X625398Y918231D01*
X625470Y918306D01*
X625478Y918324D01*
X625491Y918339D01*
X625530Y918435D01*
X625573Y918529D01*
X625575Y918549D01*
X625583Y918567D01*
X625601Y918734D01*
X625601Y920766D01*
X625598Y920786D01*
X625600Y920805D01*
X625578Y920907D01*
X625562Y921009D01*
X625552Y921026D01*
X625548Y921046D01*
X625495Y921135D01*
X625446Y921226D01*
X625432Y921240D01*
X625422Y921257D01*
X625343Y921324D01*
X625268Y921396D01*
X625250Y921404D01*
X625235Y921417D01*
X625139Y921456D01*
X625045Y921499D01*
X625025Y921501D01*
X625007Y921509D01*
X624840Y921527D01*
X616981Y921527D01*
X616088Y922420D01*
X616088Y929780D01*
X616981Y930673D01*
X638819Y930673D01*
X639712Y929780D01*
X639712Y922420D01*
X638819Y921527D01*
X630936Y921527D01*
X630916Y921524D01*
X630897Y921526D01*
X630795Y921504D01*
X630693Y921488D01*
X630676Y921478D01*
X630656Y921474D01*
X630567Y921421D01*
X630476Y921372D01*
X630462Y921358D01*
X630445Y921348D01*
X630378Y921269D01*
X630306Y921194D01*
X630298Y921176D01*
X630285Y921161D01*
X630246Y921065D01*
X630203Y920971D01*
X630201Y920951D01*
X630193Y920933D01*
X630175Y920766D01*
X630175Y918734D01*
X630178Y918714D01*
X630176Y918695D01*
X630198Y918593D01*
X630214Y918491D01*
X630224Y918474D01*
X630228Y918454D01*
X630281Y918365D01*
X630330Y918274D01*
X630344Y918260D01*
X630354Y918243D01*
X630433Y918176D01*
X630508Y918104D01*
X630526Y918096D01*
X630541Y918083D01*
X630637Y918044D01*
X630731Y918001D01*
X630751Y917999D01*
X630769Y917991D01*
X630936Y917973D01*
X638819Y917973D01*
X639712Y917080D01*
X639712Y915924D01*
X639715Y915904D01*
X639713Y915885D01*
X639735Y915783D01*
X639751Y915681D01*
X639761Y915664D01*
X639765Y915644D01*
X639818Y915555D01*
X639867Y915464D01*
X639881Y915450D01*
X639891Y915433D01*
X639970Y915366D01*
X640045Y915294D01*
X640063Y915286D01*
X640078Y915273D01*
X640174Y915234D01*
X640268Y915191D01*
X640288Y915189D01*
X640306Y915181D01*
X640473Y915163D01*
X642551Y915163D01*
X666712Y891002D01*
X666786Y890949D01*
X666856Y890889D01*
X666886Y890877D01*
X666912Y890858D01*
X666999Y890831D01*
X667084Y890797D01*
X667125Y890793D01*
X667147Y890786D01*
X667179Y890787D01*
X667251Y890779D01*
X693321Y890779D01*
X693341Y890782D01*
X693360Y890780D01*
X693462Y890802D01*
X693564Y890818D01*
X693581Y890828D01*
X693601Y890832D01*
X693690Y890885D01*
X693781Y890934D01*
X693795Y890948D01*
X693812Y890958D01*
X693879Y891037D01*
X693951Y891112D01*
X693959Y891130D01*
X693972Y891145D01*
X694011Y891241D01*
X694054Y891335D01*
X694056Y891355D01*
X694064Y891373D01*
X694082Y891540D01*
X694082Y891680D01*
X694975Y892573D01*
X716813Y892573D01*
X717796Y891590D01*
X717804Y891568D01*
X717836Y891527D01*
X717861Y891481D01*
X717912Y891432D01*
X717957Y891376D01*
X718001Y891348D01*
X718039Y891312D01*
X718104Y891282D01*
X718164Y891243D01*
X718215Y891230D01*
X718262Y891208D01*
X718333Y891200D01*
X718403Y891183D01*
X718455Y891187D01*
X718506Y891181D01*
X718577Y891196D01*
X718648Y891202D01*
X718696Y891222D01*
X718747Y891233D01*
X718808Y891270D01*
X718874Y891298D01*
X718930Y891343D01*
X718958Y891360D01*
X718973Y891377D01*
X719005Y891403D01*
X721906Y894304D01*
X721948Y894362D01*
X721997Y894414D01*
X722019Y894461D01*
X722049Y894503D01*
X722070Y894572D01*
X722101Y894637D01*
X722106Y894689D01*
X722122Y894739D01*
X722120Y894810D01*
X722128Y894881D01*
X722117Y894932D01*
X722115Y894984D01*
X722091Y895052D01*
X722076Y895122D01*
X722049Y895166D01*
X722031Y895215D01*
X721986Y895271D01*
X721949Y895333D01*
X721910Y895367D01*
X721877Y895407D01*
X721817Y895446D01*
X721762Y895493D01*
X721714Y895512D01*
X721670Y895540D01*
X721601Y895558D01*
X721534Y895585D01*
X721463Y895593D01*
X721432Y895601D01*
X721408Y895599D01*
X721368Y895603D01*
X720271Y895603D01*
X718818Y897056D01*
X718802Y897068D01*
X718790Y897084D01*
X718702Y897140D01*
X718619Y897200D01*
X718600Y897206D01*
X718583Y897217D01*
X718482Y897242D01*
X718383Y897272D01*
X718364Y897272D01*
X718344Y897277D01*
X718241Y897269D01*
X718138Y897266D01*
X718119Y897259D01*
X718099Y897258D01*
X718004Y897217D01*
X717907Y897182D01*
X717891Y897169D01*
X717873Y897161D01*
X717742Y897056D01*
X716813Y896127D01*
X694975Y896127D01*
X694082Y897020D01*
X694082Y904380D01*
X694975Y905273D01*
X716813Y905273D01*
X717758Y904328D01*
X717774Y904316D01*
X717786Y904300D01*
X717874Y904244D01*
X717957Y904184D01*
X717976Y904178D01*
X717993Y904167D01*
X718094Y904142D01*
X718193Y904112D01*
X718212Y904112D01*
X718232Y904107D01*
X718335Y904115D01*
X718438Y904118D01*
X718457Y904125D01*
X718477Y904126D01*
X718572Y904167D01*
X718669Y904202D01*
X718685Y904215D01*
X718703Y904223D01*
X718834Y904328D01*
X720271Y905765D01*
X724481Y905765D01*
X727457Y902789D01*
X727457Y901692D01*
X727468Y901622D01*
X727470Y901550D01*
X727488Y901501D01*
X727496Y901450D01*
X727530Y901386D01*
X727555Y901319D01*
X727587Y901278D01*
X727612Y901232D01*
X727664Y901183D01*
X727708Y901127D01*
X727752Y901099D01*
X727790Y901063D01*
X727855Y901033D01*
X727915Y900994D01*
X727966Y900981D01*
X728013Y900959D01*
X728084Y900951D01*
X728154Y900934D01*
X728206Y900938D01*
X728257Y900932D01*
X728328Y900947D01*
X728399Y900953D01*
X728447Y900973D01*
X728498Y900984D01*
X728559Y901021D01*
X728625Y901049D01*
X728681Y901094D01*
X728709Y901111D01*
X728724Y901128D01*
X728756Y901154D01*
X735106Y907504D01*
X735159Y907578D01*
X735219Y907648D01*
X735231Y907678D01*
X735250Y907704D01*
X735277Y907791D01*
X735311Y907876D01*
X735315Y907917D01*
X735322Y907939D01*
X735321Y907971D01*
X735329Y908043D01*
X735329Y910775D01*
X739717Y915163D01*
X741327Y915163D01*
X741347Y915166D01*
X741366Y915164D01*
X741468Y915186D01*
X741570Y915202D01*
X741587Y915212D01*
X741607Y915216D01*
X741696Y915269D01*
X741787Y915318D01*
X741801Y915332D01*
X741818Y915342D01*
X741885Y915421D01*
X741957Y915496D01*
X741965Y915514D01*
X741978Y915529D01*
X742017Y915625D01*
X742060Y915719D01*
X742062Y915739D01*
X742070Y915757D01*
X742088Y915924D01*
X742088Y917080D01*
X742981Y917973D01*
X751332Y917973D01*
X751352Y917976D01*
X751371Y917974D01*
X751473Y917996D01*
X751575Y918012D01*
X751592Y918022D01*
X751612Y918026D01*
X751701Y918079D01*
X751792Y918128D01*
X751806Y918142D01*
X751823Y918152D01*
X751890Y918231D01*
X751962Y918306D01*
X751970Y918324D01*
X751983Y918339D01*
X752022Y918435D01*
X752065Y918529D01*
X752067Y918549D01*
X752075Y918567D01*
X752093Y918734D01*
X752093Y920766D01*
X752090Y920786D01*
X752092Y920805D01*
X752070Y920907D01*
X752054Y921009D01*
X752044Y921026D01*
X752040Y921046D01*
X751987Y921135D01*
X751938Y921226D01*
X751924Y921240D01*
X751914Y921257D01*
X751835Y921324D01*
X751760Y921396D01*
X751742Y921404D01*
X751727Y921417D01*
X751631Y921456D01*
X751537Y921499D01*
X751517Y921501D01*
X751499Y921509D01*
X751332Y921527D01*
X742981Y921527D01*
X742088Y922420D01*
X742088Y929780D01*
X742981Y930673D01*
X764819Y930673D01*
X765712Y929780D01*
X765712Y922420D01*
X764819Y921527D01*
X757428Y921527D01*
X757408Y921524D01*
X757389Y921526D01*
X757287Y921504D01*
X757185Y921488D01*
X757168Y921478D01*
X757148Y921474D01*
X757059Y921421D01*
X756968Y921372D01*
X756954Y921358D01*
X756937Y921348D01*
X756870Y921269D01*
X756798Y921194D01*
X756790Y921176D01*
X756777Y921161D01*
X756738Y921065D01*
X756695Y920971D01*
X756693Y920951D01*
X756685Y920933D01*
X756667Y920766D01*
X756667Y918734D01*
X756670Y918714D01*
X756668Y918695D01*
X756690Y918593D01*
X756706Y918491D01*
X756716Y918474D01*
X756720Y918454D01*
X756773Y918365D01*
X756822Y918274D01*
X756836Y918260D01*
X756846Y918243D01*
X756925Y918176D01*
X757000Y918104D01*
X757018Y918096D01*
X757033Y918083D01*
X757129Y918044D01*
X757223Y918001D01*
X757243Y917999D01*
X757261Y917991D01*
X757428Y917973D01*
X764819Y917973D01*
X765712Y917080D01*
X765712Y909720D01*
X764819Y908827D01*
X742981Y908827D01*
X741954Y909855D01*
X741937Y909867D01*
X741925Y909882D01*
X741838Y909938D01*
X741754Y909999D01*
X741735Y910004D01*
X741718Y910015D01*
X741618Y910041D01*
X741519Y910071D01*
X741499Y910070D01*
X741480Y910075D01*
X741377Y910067D01*
X741273Y910065D01*
X741254Y910058D01*
X741234Y910056D01*
X741139Y910016D01*
X741042Y909980D01*
X741026Y909968D01*
X741008Y909960D01*
X740877Y909855D01*
X740126Y909104D01*
X740073Y909030D01*
X740013Y908960D01*
X740001Y908930D01*
X739982Y908904D01*
X739955Y908817D01*
X739921Y908732D01*
X739917Y908691D01*
X739910Y908669D01*
X739911Y908637D01*
X739903Y908565D01*
X739903Y905833D01*
X720275Y886205D01*
X718467Y886205D01*
X718447Y886202D01*
X718428Y886204D01*
X718326Y886182D01*
X718224Y886166D01*
X718207Y886156D01*
X718187Y886152D01*
X718098Y886099D01*
X718007Y886050D01*
X717993Y886036D01*
X717976Y886026D01*
X717909Y885947D01*
X717837Y885872D01*
X717829Y885854D01*
X717816Y885839D01*
X717777Y885743D01*
X717734Y885649D01*
X717732Y885629D01*
X717724Y885611D01*
X717706Y885444D01*
X717706Y884320D01*
X716813Y883427D01*
X708660Y883427D01*
X708640Y883424D01*
X708621Y883426D01*
X708519Y883404D01*
X708417Y883388D01*
X708400Y883378D01*
X708380Y883374D01*
X708291Y883321D01*
X708200Y883272D01*
X708186Y883258D01*
X708169Y883248D01*
X708102Y883169D01*
X708030Y883094D01*
X708022Y883076D01*
X708009Y883061D01*
X707970Y882965D01*
X707927Y882871D01*
X707925Y882851D01*
X707917Y882833D01*
X707899Y882666D01*
X707899Y880634D01*
X707902Y880614D01*
X707900Y880595D01*
X707922Y880493D01*
X707938Y880391D01*
X707948Y880374D01*
X707952Y880354D01*
X708005Y880265D01*
X708054Y880174D01*
X708068Y880160D01*
X708078Y880143D01*
X708157Y880076D01*
X708232Y880004D01*
X708250Y879996D01*
X708265Y879983D01*
X708361Y879944D01*
X708455Y879901D01*
X708475Y879899D01*
X708493Y879891D01*
X708660Y879873D01*
X716813Y879873D01*
X717706Y878980D01*
X717706Y871620D01*
X716813Y870727D01*
X694975Y870727D01*
X694082Y871620D01*
X694082Y878980D01*
X694975Y879873D01*
X702564Y879873D01*
X702584Y879876D01*
X702603Y879874D01*
X702705Y879896D01*
X702807Y879912D01*
X702824Y879922D01*
X702844Y879926D01*
X702933Y879979D01*
X703024Y880028D01*
X703038Y880042D01*
X703055Y880052D01*
X703122Y880131D01*
X703194Y880206D01*
X703202Y880224D01*
X703215Y880239D01*
X703254Y880335D01*
X703297Y880429D01*
X703299Y880449D01*
X703307Y880467D01*
X703325Y880634D01*
X703325Y882666D01*
X703322Y882686D01*
X703324Y882705D01*
X703302Y882807D01*
X703286Y882909D01*
X703276Y882926D01*
X703272Y882946D01*
X703219Y883035D01*
X703170Y883126D01*
X703156Y883140D01*
X703146Y883157D01*
X703067Y883224D01*
X702992Y883296D01*
X702974Y883304D01*
X702959Y883317D01*
X702863Y883356D01*
X702769Y883399D01*
X702749Y883401D01*
X702731Y883409D01*
X702564Y883427D01*
X694975Y883427D01*
X694082Y884320D01*
X694082Y885444D01*
X694079Y885464D01*
X694081Y885483D01*
X694059Y885585D01*
X694043Y885687D01*
X694033Y885704D01*
X694029Y885724D01*
X693976Y885813D01*
X693927Y885904D01*
X693913Y885918D01*
X693903Y885935D01*
X693824Y886002D01*
X693749Y886074D01*
X693731Y886082D01*
X693716Y886095D01*
X693620Y886134D01*
X693526Y886177D01*
X693506Y886179D01*
X693488Y886187D01*
X693321Y886205D01*
X665041Y886205D01*
X651032Y900214D01*
X650974Y900256D01*
X650922Y900305D01*
X650875Y900327D01*
X650833Y900357D01*
X650764Y900378D01*
X650699Y900409D01*
X650647Y900414D01*
X650597Y900430D01*
X650526Y900428D01*
X650455Y900436D01*
X650404Y900425D01*
X650352Y900423D01*
X650284Y900399D01*
X650214Y900384D01*
X650169Y900357D01*
X650121Y900339D01*
X650065Y900294D01*
X650003Y900257D01*
X649969Y900218D01*
X649929Y900185D01*
X649890Y900125D01*
X649843Y900070D01*
X649824Y900022D01*
X649796Y899978D01*
X649778Y899909D01*
X649751Y899842D01*
X649743Y899771D01*
X649735Y899740D01*
X649737Y899716D01*
X649733Y899676D01*
X649733Y895531D01*
X646757Y892555D01*
X642547Y892555D01*
X639539Y895564D01*
X639532Y895609D01*
X639522Y895626D01*
X639518Y895646D01*
X639465Y895735D01*
X639416Y895826D01*
X639402Y895840D01*
X639392Y895857D01*
X639313Y895924D01*
X639238Y895996D01*
X639220Y896004D01*
X639205Y896017D01*
X639109Y896056D01*
X639015Y896099D01*
X638995Y896101D01*
X638977Y896109D01*
X638810Y896127D01*
X616981Y896127D01*
X616088Y897020D01*
X616088Y904380D01*
X616981Y905273D01*
X638819Y905273D01*
X639712Y904380D01*
X639712Y903732D01*
X639715Y903712D01*
X639713Y903693D01*
X639735Y903591D01*
X639751Y903489D01*
X639761Y903472D01*
X639765Y903452D01*
X639818Y903363D01*
X639867Y903272D01*
X639881Y903258D01*
X639891Y903241D01*
X639970Y903174D01*
X640045Y903102D01*
X640063Y903094D01*
X640078Y903081D01*
X640174Y903042D01*
X640268Y902999D01*
X640288Y902997D01*
X640306Y902989D01*
X640473Y902971D01*
X642551Y902971D01*
X642582Y902940D01*
X642656Y902887D01*
X642726Y902827D01*
X642756Y902815D01*
X642782Y902796D01*
X642869Y902769D01*
X642954Y902735D01*
X642995Y902731D01*
X643017Y902724D01*
X643049Y902725D01*
X643121Y902717D01*
X646692Y902717D01*
X646762Y902728D01*
X646834Y902730D01*
X646883Y902748D01*
X646934Y902756D01*
X646998Y902790D01*
X647065Y902815D01*
X647106Y902847D01*
X647152Y902872D01*
X647201Y902923D01*
X647257Y902968D01*
X647285Y903012D01*
X647321Y903050D01*
X647351Y903115D01*
X647390Y903175D01*
X647403Y903226D01*
X647425Y903273D01*
X647433Y903344D01*
X647450Y903414D01*
X647446Y903466D01*
X647452Y903517D01*
X647437Y903588D01*
X647431Y903659D01*
X647411Y903707D01*
X647400Y903758D01*
X647363Y903819D01*
X647335Y903885D01*
X647290Y903941D01*
X647273Y903969D01*
X647256Y903984D01*
X647230Y904016D01*
X641011Y910235D01*
X640953Y910277D01*
X640901Y910326D01*
X640879Y910336D01*
X640877Y910338D01*
X640864Y910343D01*
X640854Y910348D01*
X640812Y910378D01*
X640743Y910399D01*
X640678Y910430D01*
X640626Y910435D01*
X640576Y910451D01*
X640505Y910449D01*
X640434Y910457D01*
X640383Y910446D01*
X640331Y910444D01*
X640263Y910420D01*
X640193Y910405D01*
X640149Y910378D01*
X640100Y910360D01*
X640044Y910315D01*
X639982Y910278D01*
X639948Y910239D01*
X639908Y910206D01*
X639869Y910146D01*
X639822Y910091D01*
X639803Y910043D01*
X639775Y909999D01*
X639757Y909930D01*
X639754Y909923D01*
X639740Y909892D01*
X639739Y909885D01*
X639730Y909863D01*
X639722Y909792D01*
X639714Y909761D01*
X639716Y909737D01*
X639715Y909723D01*
X638819Y908827D01*
X616981Y908827D01*
X616088Y909720D01*
X616088Y909721D01*
X616077Y909791D01*
X616075Y909863D01*
X616057Y909912D01*
X616049Y909963D01*
X616015Y910027D01*
X615990Y910094D01*
X615958Y910135D01*
X615933Y910181D01*
X615881Y910230D01*
X615837Y910286D01*
X615793Y910314D01*
X615755Y910350D01*
X615690Y910380D01*
X615630Y910419D01*
X615579Y910432D01*
X615532Y910454D01*
X615461Y910462D01*
X615391Y910479D01*
X615339Y910475D01*
X615288Y910481D01*
X615217Y910466D01*
X615146Y910460D01*
X615098Y910440D01*
X615047Y910429D01*
X614986Y910392D01*
X614920Y910364D01*
X614864Y910319D01*
X614836Y910302D01*
X614821Y910285D01*
X614789Y910259D01*
X598394Y893864D01*
X598341Y893790D01*
X598281Y893720D01*
X598269Y893690D01*
X598250Y893664D01*
X598223Y893577D01*
X598189Y893492D01*
X598185Y893451D01*
X598178Y893429D01*
X598179Y893397D01*
X598171Y893325D01*
X598171Y890593D01*
X593783Y886205D01*
X592467Y886205D01*
X592447Y886202D01*
X592428Y886204D01*
X592326Y886182D01*
X592224Y886166D01*
X592207Y886156D01*
X592187Y886152D01*
X592098Y886099D01*
X592007Y886050D01*
X591993Y886036D01*
X591976Y886026D01*
X591909Y885947D01*
X591837Y885872D01*
X591829Y885854D01*
X591816Y885839D01*
X591777Y885743D01*
X591734Y885649D01*
X591732Y885629D01*
X591724Y885611D01*
X591706Y885444D01*
X591706Y884320D01*
X590813Y883427D01*
X583692Y883427D01*
X583672Y883424D01*
X583653Y883426D01*
X583551Y883404D01*
X583449Y883388D01*
X583432Y883378D01*
X583412Y883374D01*
X583323Y883321D01*
X583232Y883272D01*
X583218Y883258D01*
X583201Y883248D01*
X583134Y883169D01*
X583062Y883094D01*
X583054Y883076D01*
X583041Y883061D01*
X583002Y882965D01*
X582959Y882871D01*
X582957Y882851D01*
X582949Y882833D01*
X582931Y882666D01*
X582931Y880634D01*
X582934Y880614D01*
X582932Y880595D01*
X582954Y880493D01*
X582970Y880391D01*
X582980Y880374D01*
X582984Y880354D01*
X583037Y880265D01*
X583086Y880174D01*
X583100Y880160D01*
X583110Y880143D01*
X583189Y880076D01*
X583264Y880004D01*
X583282Y879996D01*
X583297Y879983D01*
X583393Y879944D01*
X583487Y879901D01*
X583507Y879899D01*
X583525Y879891D01*
X583692Y879873D01*
X590813Y879873D01*
X591706Y878980D01*
X591706Y871620D01*
X590813Y870727D01*
X568975Y870727D01*
X568082Y871620D01*
X568082Y878980D01*
X568975Y879873D01*
X577596Y879873D01*
X577616Y879876D01*
X577635Y879874D01*
X577737Y879896D01*
X577839Y879912D01*
X577856Y879922D01*
X577876Y879926D01*
X577965Y879979D01*
X578056Y880028D01*
X578070Y880042D01*
X578087Y880052D01*
X578154Y880131D01*
X578226Y880206D01*
X578234Y880224D01*
X578247Y880239D01*
X578286Y880335D01*
X578329Y880429D01*
X578331Y880449D01*
X578339Y880467D01*
X578357Y880634D01*
X578357Y882666D01*
X578354Y882686D01*
X578356Y882705D01*
X578334Y882807D01*
X578318Y882909D01*
X578308Y882926D01*
X578304Y882946D01*
X578251Y883035D01*
X578202Y883126D01*
X578188Y883140D01*
X578178Y883157D01*
X578099Y883224D01*
X578024Y883296D01*
X578006Y883304D01*
X577991Y883317D01*
X577895Y883356D01*
X577801Y883399D01*
X577781Y883401D01*
X577763Y883409D01*
X577596Y883427D01*
X568975Y883427D01*
X568082Y884320D01*
X568082Y885444D01*
X568079Y885464D01*
X568081Y885483D01*
X568059Y885585D01*
X568043Y885687D01*
X568033Y885704D01*
X568029Y885724D01*
X567976Y885813D01*
X567927Y885904D01*
X567913Y885918D01*
X567903Y885935D01*
X567824Y886002D01*
X567749Y886074D01*
X567731Y886082D01*
X567716Y886095D01*
X567620Y886134D01*
X567526Y886177D01*
X567506Y886179D01*
X567488Y886187D01*
X567321Y886205D01*
X564457Y886205D01*
X549440Y901222D01*
X549366Y901275D01*
X549296Y901335D01*
X549266Y901347D01*
X549240Y901366D01*
X549153Y901393D01*
X549068Y901427D01*
X549027Y901431D01*
X549005Y901438D01*
X548973Y901437D01*
X548901Y901445D01*
X512286Y901445D01*
X512266Y901442D01*
X512247Y901444D01*
X512145Y901422D01*
X512043Y901406D01*
X512026Y901396D01*
X512006Y901392D01*
X511917Y901339D01*
X511826Y901290D01*
X511812Y901276D01*
X511795Y901266D01*
X511728Y901187D01*
X511656Y901112D01*
X511648Y901094D01*
X511635Y901079D01*
X511596Y900983D01*
X511553Y900889D01*
X511551Y900869D01*
X511543Y900851D01*
X511525Y900684D01*
X511525Y897068D01*
X510632Y896175D01*
X494368Y896175D01*
X493475Y897068D01*
X493475Y900684D01*
X493472Y900704D01*
X493474Y900723D01*
X493452Y900825D01*
X493436Y900927D01*
X493426Y900944D01*
X493422Y900964D01*
X493369Y901053D01*
X493320Y901144D01*
X493306Y901158D01*
X493296Y901175D01*
X493217Y901242D01*
X493142Y901314D01*
X493124Y901322D01*
X493109Y901335D01*
X493013Y901374D01*
X492919Y901417D01*
X492899Y901419D01*
X492881Y901427D01*
X492714Y901445D01*
X472179Y901445D01*
X472088Y901431D01*
X471998Y901423D01*
X471968Y901411D01*
X471936Y901406D01*
X471855Y901363D01*
X471771Y901327D01*
X471739Y901301D01*
X471718Y901290D01*
X471696Y901267D01*
X471640Y901222D01*
X441361Y870943D01*
X441349Y870927D01*
X441334Y870914D01*
X441278Y870827D01*
X441218Y870743D01*
X441212Y870724D01*
X441201Y870708D01*
X441176Y870607D01*
X441145Y870508D01*
X441146Y870488D01*
X441141Y870469D01*
X441149Y870366D01*
X441152Y870262D01*
X441158Y870244D01*
X441160Y870224D01*
X441200Y870129D01*
X441236Y870031D01*
X441248Y870016D01*
X441256Y869997D01*
X441361Y869867D01*
X442225Y869003D01*
X442225Y863497D01*
X440453Y861725D01*
X421247Y861725D01*
X421137Y861835D01*
X421121Y861847D01*
X421109Y861862D01*
X421022Y861918D01*
X420938Y861978D01*
X420919Y861984D01*
X420902Y861995D01*
X420802Y862020D01*
X420703Y862051D01*
X420683Y862050D01*
X420663Y862055D01*
X420560Y862047D01*
X420457Y862044D01*
X420438Y862038D01*
X420418Y862036D01*
X420323Y861996D01*
X420226Y861960D01*
X420210Y861948D01*
X420192Y861940D01*
X420061Y861835D01*
X400235Y842009D01*
X369385Y842009D01*
G37*
%LPD*%
%LPC*%
G36*
X43661Y657455D02*
X43661Y657455D01*
X40300Y658847D01*
X37727Y661420D01*
X36335Y664781D01*
X36335Y668419D01*
X37727Y671780D01*
X40300Y674353D01*
X43661Y675745D01*
X53451Y675745D01*
X53542Y675759D01*
X53632Y675767D01*
X53662Y675779D01*
X53694Y675784D01*
X53775Y675827D01*
X53859Y675863D01*
X53891Y675889D01*
X53912Y675900D01*
X53934Y675923D01*
X53990Y675968D01*
X63022Y685000D01*
X63075Y685074D01*
X63135Y685144D01*
X63147Y685174D01*
X63166Y685200D01*
X63193Y685287D01*
X63227Y685372D01*
X63231Y685413D01*
X63238Y685435D01*
X63237Y685467D01*
X63245Y685539D01*
X63245Y740925D01*
X63231Y741016D01*
X63223Y741106D01*
X63211Y741136D01*
X63206Y741168D01*
X63163Y741249D01*
X63127Y741333D01*
X63101Y741365D01*
X63090Y741386D01*
X63067Y741408D01*
X63022Y741464D01*
X61721Y742765D01*
X61721Y771714D01*
X61718Y771734D01*
X61720Y771753D01*
X61698Y771855D01*
X61682Y771957D01*
X61672Y771974D01*
X61668Y771994D01*
X61615Y772083D01*
X61566Y772174D01*
X61552Y772188D01*
X61542Y772205D01*
X61463Y772272D01*
X61388Y772344D01*
X61370Y772352D01*
X61355Y772365D01*
X61259Y772404D01*
X61165Y772447D01*
X61145Y772449D01*
X61127Y772457D01*
X60960Y772475D01*
X57468Y772475D01*
X56575Y773368D01*
X56575Y786072D01*
X56564Y786142D01*
X56562Y786214D01*
X56544Y786263D01*
X56536Y786314D01*
X56502Y786378D01*
X56477Y786445D01*
X56445Y786486D01*
X56420Y786532D01*
X56369Y786581D01*
X56324Y786637D01*
X56280Y786665D01*
X56242Y786701D01*
X56177Y786731D01*
X56117Y786770D01*
X56066Y786783D01*
X56019Y786805D01*
X55948Y786813D01*
X55878Y786830D01*
X55826Y786826D01*
X55775Y786832D01*
X55704Y786817D01*
X55633Y786811D01*
X55585Y786791D01*
X55534Y786780D01*
X55473Y786743D01*
X55407Y786715D01*
X55351Y786670D01*
X55323Y786653D01*
X55308Y786636D01*
X55276Y786610D01*
X50848Y782182D01*
X50795Y782108D01*
X50735Y782038D01*
X50723Y782008D01*
X50704Y781982D01*
X50677Y781895D01*
X50643Y781810D01*
X50639Y781769D01*
X50632Y781747D01*
X50633Y781715D01*
X50625Y781644D01*
X50625Y773368D01*
X49732Y772475D01*
X38468Y772475D01*
X37575Y773368D01*
X37575Y788632D01*
X38468Y789525D01*
X49732Y789525D01*
X50189Y789067D01*
X50205Y789056D01*
X50218Y789040D01*
X50305Y788984D01*
X50389Y788924D01*
X50408Y788918D01*
X50424Y788907D01*
X50525Y788882D01*
X50624Y788851D01*
X50644Y788852D01*
X50663Y788847D01*
X50766Y788855D01*
X50870Y788858D01*
X50888Y788865D01*
X50908Y788866D01*
X51003Y788907D01*
X51101Y788942D01*
X51116Y788955D01*
X51135Y788963D01*
X51265Y789067D01*
X53878Y791680D01*
X55374Y793176D01*
X55416Y793234D01*
X55465Y793286D01*
X55487Y793333D01*
X55517Y793375D01*
X55538Y793444D01*
X55569Y793509D01*
X55574Y793561D01*
X55590Y793611D01*
X55588Y793682D01*
X55596Y793753D01*
X55585Y793804D01*
X55583Y793856D01*
X55559Y793924D01*
X55544Y793994D01*
X55517Y794039D01*
X55499Y794087D01*
X55454Y794143D01*
X55417Y794205D01*
X55378Y794239D01*
X55345Y794279D01*
X55285Y794318D01*
X55230Y794365D01*
X55182Y794384D01*
X55138Y794412D01*
X55069Y794430D01*
X55002Y794457D01*
X54931Y794465D01*
X54900Y794473D01*
X54876Y794471D01*
X54836Y794475D01*
X47968Y794475D01*
X47075Y795368D01*
X47075Y798576D01*
X47074Y798583D01*
X47074Y798584D01*
X47073Y798589D01*
X47072Y798596D01*
X47074Y798615D01*
X47052Y798717D01*
X47036Y798819D01*
X47026Y798836D01*
X47022Y798856D01*
X46969Y798945D01*
X46920Y799036D01*
X46906Y799050D01*
X46896Y799067D01*
X46817Y799134D01*
X46742Y799206D01*
X46724Y799214D01*
X46709Y799227D01*
X46613Y799266D01*
X46519Y799309D01*
X46499Y799311D01*
X46481Y799319D01*
X46314Y799337D01*
X45459Y799337D01*
X45368Y799323D01*
X45278Y799315D01*
X45248Y799303D01*
X45216Y799298D01*
X45135Y799255D01*
X45051Y799219D01*
X45019Y799193D01*
X44998Y799182D01*
X44976Y799159D01*
X44920Y799114D01*
X36038Y790232D01*
X35985Y790158D01*
X35925Y790088D01*
X35913Y790058D01*
X35894Y790032D01*
X35867Y789945D01*
X35833Y789860D01*
X35829Y789819D01*
X35822Y789797D01*
X35823Y789765D01*
X35815Y789693D01*
X35815Y758691D01*
X35829Y758600D01*
X35837Y758510D01*
X35849Y758480D01*
X35854Y758448D01*
X35897Y758367D01*
X35933Y758283D01*
X35959Y758251D01*
X35970Y758230D01*
X35993Y758208D01*
X36038Y758152D01*
X51016Y743174D01*
X51742Y742448D01*
X51816Y742395D01*
X51886Y742335D01*
X51916Y742323D01*
X51942Y742304D01*
X52029Y742277D01*
X52114Y742243D01*
X52155Y742239D01*
X52177Y742232D01*
X52209Y742233D01*
X52280Y742225D01*
X59832Y742225D01*
X60725Y741332D01*
X60725Y727068D01*
X59832Y726175D01*
X43568Y726175D01*
X42675Y727068D01*
X42675Y741332D01*
X43568Y742225D01*
X43660Y742225D01*
X43730Y742236D01*
X43802Y742238D01*
X43851Y742256D01*
X43902Y742264D01*
X43966Y742298D01*
X44033Y742323D01*
X44074Y742355D01*
X44120Y742380D01*
X44169Y742432D01*
X44225Y742476D01*
X44253Y742520D01*
X44289Y742558D01*
X44319Y742623D01*
X44358Y742683D01*
X44371Y742734D01*
X44393Y742781D01*
X44401Y742852D01*
X44418Y742922D01*
X44414Y742974D01*
X44420Y743025D01*
X44405Y743096D01*
X44399Y743167D01*
X44379Y743215D01*
X44368Y743266D01*
X44331Y743327D01*
X44303Y743393D01*
X44258Y743449D01*
X44241Y743477D01*
X44224Y743492D01*
X44198Y743524D01*
X31241Y756481D01*
X31241Y791903D01*
X43249Y803911D01*
X46314Y803911D01*
X46334Y803914D01*
X46353Y803912D01*
X46455Y803934D01*
X46557Y803950D01*
X46574Y803960D01*
X46594Y803964D01*
X46683Y804017D01*
X46774Y804066D01*
X46788Y804080D01*
X46805Y804090D01*
X46872Y804169D01*
X46944Y804244D01*
X46952Y804262D01*
X46965Y804277D01*
X47004Y804373D01*
X47047Y804467D01*
X47049Y804487D01*
X47057Y804505D01*
X47075Y804672D01*
X47075Y810632D01*
X47968Y811525D01*
X59232Y811525D01*
X60125Y810632D01*
X60125Y795368D01*
X59299Y794542D01*
X59257Y794484D01*
X59207Y794432D01*
X59185Y794385D01*
X59155Y794343D01*
X59134Y794274D01*
X59104Y794209D01*
X59098Y794157D01*
X59083Y794107D01*
X59085Y794036D01*
X59077Y793965D01*
X59088Y793914D01*
X59089Y793862D01*
X59114Y793794D01*
X59129Y793724D01*
X59156Y793679D01*
X59173Y793631D01*
X59218Y793575D01*
X59255Y793513D01*
X59295Y793479D01*
X59327Y793439D01*
X59387Y793400D01*
X59442Y793353D01*
X59490Y793334D01*
X59534Y793306D01*
X59604Y793288D01*
X59670Y793261D01*
X59741Y793253D01*
X59773Y793245D01*
X59796Y793247D01*
X59837Y793243D01*
X61221Y793243D01*
X61312Y793257D01*
X61402Y793265D01*
X61432Y793277D01*
X61464Y793282D01*
X61545Y793325D01*
X61629Y793361D01*
X61661Y793387D01*
X61682Y793398D01*
X61704Y793421D01*
X61760Y793466D01*
X108781Y840487D01*
X418458Y840487D01*
X418529Y840498D01*
X418601Y840500D01*
X418650Y840518D01*
X418701Y840526D01*
X418764Y840560D01*
X418832Y840585D01*
X418872Y840617D01*
X418918Y840642D01*
X418968Y840693D01*
X419024Y840738D01*
X419052Y840782D01*
X419088Y840820D01*
X419118Y840885D01*
X419157Y840945D01*
X419169Y840996D01*
X419191Y841043D01*
X419199Y841114D01*
X419217Y841184D01*
X419213Y841236D01*
X419218Y841287D01*
X419203Y841358D01*
X419198Y841429D01*
X419177Y841477D01*
X419166Y841528D01*
X419129Y841589D01*
X419101Y841655D01*
X419056Y841711D01*
X419040Y841739D01*
X419022Y841754D01*
X418997Y841786D01*
X418591Y842192D01*
X418591Y846401D01*
X420693Y848503D01*
X420705Y848519D01*
X420720Y848531D01*
X420777Y848619D01*
X420837Y848702D01*
X420843Y848721D01*
X420853Y848738D01*
X420879Y848839D01*
X420909Y848937D01*
X420909Y848957D01*
X420914Y848977D01*
X420906Y849080D01*
X420903Y849183D01*
X420896Y849202D01*
X420894Y849222D01*
X420854Y849317D01*
X420818Y849414D01*
X420806Y849430D01*
X420798Y849448D01*
X420693Y849579D01*
X419475Y850797D01*
X419475Y856303D01*
X421247Y858075D01*
X440453Y858075D01*
X442225Y856303D01*
X442225Y850797D01*
X440453Y849025D01*
X431951Y849025D01*
X431860Y849011D01*
X431770Y849003D01*
X431740Y848991D01*
X431708Y848986D01*
X431627Y848943D01*
X431543Y848907D01*
X431511Y848881D01*
X431490Y848870D01*
X431468Y848847D01*
X431412Y848802D01*
X428976Y846366D01*
X428923Y846292D01*
X428863Y846222D01*
X428851Y846192D01*
X428832Y846166D01*
X428805Y846079D01*
X428771Y845994D01*
X428767Y845953D01*
X428760Y845931D01*
X428761Y845899D01*
X428753Y845827D01*
X428753Y842192D01*
X428347Y841786D01*
X428306Y841728D01*
X428256Y841676D01*
X428234Y841629D01*
X428204Y841587D01*
X428183Y841518D01*
X428153Y841453D01*
X428147Y841401D01*
X428132Y841351D01*
X428133Y841280D01*
X428126Y841209D01*
X428137Y841158D01*
X428138Y841106D01*
X428163Y841038D01*
X428178Y840968D01*
X428205Y840923D01*
X428222Y840875D01*
X428267Y840819D01*
X428304Y840757D01*
X428344Y840723D01*
X428376Y840683D01*
X428436Y840644D01*
X428491Y840597D01*
X428539Y840578D01*
X428583Y840550D01*
X428653Y840532D01*
X428719Y840505D01*
X428790Y840497D01*
X428822Y840489D01*
X428845Y840491D01*
X428886Y840487D01*
X446793Y840487D01*
X446884Y840501D01*
X446974Y840509D01*
X447004Y840521D01*
X447036Y840526D01*
X447117Y840569D01*
X447201Y840605D01*
X447233Y840631D01*
X447254Y840642D01*
X447276Y840665D01*
X447332Y840710D01*
X492790Y886168D01*
X493252Y886630D01*
X493306Y886704D01*
X493365Y886774D01*
X493377Y886804D01*
X493396Y886830D01*
X493423Y886917D01*
X493457Y887002D01*
X493461Y887043D01*
X493468Y887065D01*
X493467Y887097D01*
X493475Y887168D01*
X493475Y892332D01*
X494368Y893225D01*
X510632Y893225D01*
X511525Y892332D01*
X511525Y878068D01*
X510632Y877175D01*
X494368Y877175D01*
X493475Y878068D01*
X493475Y878548D01*
X493464Y878618D01*
X493462Y878690D01*
X493444Y878739D01*
X493436Y878790D01*
X493402Y878854D01*
X493377Y878921D01*
X493345Y878962D01*
X493320Y879008D01*
X493268Y879057D01*
X493224Y879113D01*
X493180Y879141D01*
X493142Y879177D01*
X493077Y879207D01*
X493017Y879246D01*
X492966Y879259D01*
X492919Y879281D01*
X492848Y879289D01*
X492778Y879306D01*
X492726Y879302D01*
X492675Y879308D01*
X492604Y879293D01*
X492533Y879287D01*
X492485Y879267D01*
X492434Y879256D01*
X492373Y879219D01*
X492307Y879191D01*
X492251Y879146D01*
X492223Y879129D01*
X492208Y879112D01*
X492176Y879086D01*
X449003Y835913D01*
X110991Y835913D01*
X110900Y835899D01*
X110810Y835891D01*
X110780Y835879D01*
X110748Y835874D01*
X110667Y835831D01*
X110583Y835795D01*
X110551Y835769D01*
X110530Y835758D01*
X110508Y835735D01*
X110452Y835690D01*
X65586Y790824D01*
X65544Y790766D01*
X65495Y790714D01*
X65473Y790667D01*
X65443Y790625D01*
X65422Y790556D01*
X65391Y790491D01*
X65386Y790439D01*
X65370Y790389D01*
X65372Y790318D01*
X65364Y790247D01*
X65375Y790196D01*
X65377Y790144D01*
X65401Y790076D01*
X65416Y790006D01*
X65443Y789961D01*
X65461Y789913D01*
X65506Y789857D01*
X65543Y789795D01*
X65582Y789761D01*
X65615Y789721D01*
X65675Y789682D01*
X65730Y789635D01*
X65778Y789616D01*
X65822Y789588D01*
X65891Y789570D01*
X65958Y789543D01*
X66029Y789535D01*
X66060Y789527D01*
X66084Y789529D01*
X66124Y789525D01*
X68732Y789525D01*
X69625Y788632D01*
X69625Y773368D01*
X68732Y772475D01*
X67056Y772475D01*
X67036Y772472D01*
X67017Y772474D01*
X66915Y772452D01*
X66813Y772436D01*
X66796Y772426D01*
X66776Y772422D01*
X66687Y772369D01*
X66596Y772320D01*
X66582Y772306D01*
X66565Y772296D01*
X66498Y772217D01*
X66426Y772142D01*
X66418Y772124D01*
X66405Y772109D01*
X66366Y772013D01*
X66323Y771919D01*
X66321Y771899D01*
X66313Y771881D01*
X66295Y771714D01*
X66295Y744975D01*
X66309Y744884D01*
X66317Y744794D01*
X66329Y744764D01*
X66334Y744732D01*
X66377Y744651D01*
X66413Y744567D01*
X66439Y744535D01*
X66450Y744514D01*
X66473Y744492D01*
X66518Y744436D01*
X67819Y743135D01*
X67819Y683329D01*
X61534Y677044D01*
X61492Y676986D01*
X61443Y676934D01*
X61421Y676887D01*
X61391Y676845D01*
X61370Y676776D01*
X61339Y676711D01*
X61334Y676659D01*
X61318Y676609D01*
X61320Y676538D01*
X61312Y676467D01*
X61323Y676416D01*
X61325Y676364D01*
X61349Y676296D01*
X61364Y676226D01*
X61391Y676181D01*
X61409Y676133D01*
X61454Y676077D01*
X61491Y676015D01*
X61530Y675981D01*
X61563Y675941D01*
X61623Y675902D01*
X61678Y675855D01*
X61726Y675836D01*
X61770Y675808D01*
X61839Y675790D01*
X61906Y675763D01*
X61977Y675755D01*
X62008Y675747D01*
X62032Y675749D01*
X62072Y675745D01*
X62539Y675745D01*
X65900Y674353D01*
X68473Y671780D01*
X69865Y668419D01*
X69865Y664781D01*
X68473Y661420D01*
X65900Y658847D01*
X62539Y657455D01*
X43661Y657455D01*
G37*
%LPD*%
%LPC*%
G36*
X697541Y683925D02*
X697541Y683925D01*
X690858Y685716D01*
X684867Y689175D01*
X679975Y694067D01*
X676516Y700058D01*
X674725Y706741D01*
X674725Y713659D01*
X676516Y720342D01*
X679975Y726333D01*
X684867Y731225D01*
X690858Y734684D01*
X697541Y736475D01*
X704459Y736475D01*
X711142Y734684D01*
X717133Y731225D01*
X722025Y726333D01*
X725484Y720342D01*
X727275Y713659D01*
X727275Y706741D01*
X725484Y700058D01*
X722025Y694067D01*
X717133Y689175D01*
X711142Y685716D01*
X704459Y683925D01*
X697541Y683925D01*
G37*
%LPD*%
%LPC*%
G36*
X117541Y683925D02*
X117541Y683925D01*
X110858Y685716D01*
X104867Y689175D01*
X99975Y694067D01*
X96516Y700058D01*
X94725Y706741D01*
X94725Y713659D01*
X96516Y720342D01*
X99975Y726333D01*
X104867Y731225D01*
X110858Y734684D01*
X117541Y736475D01*
X124459Y736475D01*
X131142Y734684D01*
X137133Y731225D01*
X142025Y726333D01*
X145484Y720342D01*
X147275Y713659D01*
X147275Y706741D01*
X145484Y700058D01*
X142025Y694067D01*
X137133Y689175D01*
X131142Y685716D01*
X124459Y683925D01*
X117541Y683925D01*
G37*
%LPD*%
%LPC*%
G36*
X117541Y483925D02*
X117541Y483925D01*
X110858Y485716D01*
X104867Y489175D01*
X99975Y494067D01*
X96516Y500058D01*
X94725Y506741D01*
X94725Y513659D01*
X96516Y520342D01*
X99975Y526333D01*
X104867Y531225D01*
X110858Y534684D01*
X117541Y536475D01*
X124459Y536475D01*
X131142Y534684D01*
X137133Y531225D01*
X142025Y526333D01*
X145484Y520342D01*
X147275Y513659D01*
X147275Y506741D01*
X145484Y500058D01*
X142025Y494067D01*
X137133Y489175D01*
X131142Y485716D01*
X124459Y483925D01*
X117541Y483925D01*
G37*
%LPD*%
%LPC*%
G36*
X697541Y483925D02*
X697541Y483925D01*
X690858Y485716D01*
X684867Y489175D01*
X679975Y494067D01*
X676516Y500058D01*
X674725Y506741D01*
X674725Y513659D01*
X676516Y520342D01*
X679975Y526333D01*
X684867Y531225D01*
X690858Y534684D01*
X697541Y536475D01*
X704459Y536475D01*
X711142Y534684D01*
X717133Y531225D01*
X722025Y526333D01*
X725484Y520342D01*
X727275Y513659D01*
X727275Y506741D01*
X725484Y500058D01*
X722025Y494067D01*
X717133Y489175D01*
X711142Y485716D01*
X704459Y483925D01*
X697541Y483925D01*
G37*
%LPD*%
%LPC*%
G36*
X647119Y770635D02*
X647119Y770635D01*
X644143Y773611D01*
X644143Y777821D01*
X647119Y780797D01*
X650756Y780797D01*
X650846Y780811D01*
X650937Y780819D01*
X650966Y780831D01*
X650998Y780836D01*
X651079Y780879D01*
X651163Y780915D01*
X651195Y780941D01*
X651216Y780952D01*
X651238Y780975D01*
X651294Y781020D01*
X654850Y784576D01*
X654892Y784634D01*
X654941Y784686D01*
X654963Y784733D01*
X654993Y784775D01*
X655014Y784844D01*
X655045Y784909D01*
X655050Y784961D01*
X655066Y785011D01*
X655064Y785082D01*
X655072Y785153D01*
X655061Y785204D01*
X655059Y785256D01*
X655035Y785324D01*
X655020Y785394D01*
X654993Y785438D01*
X654975Y785487D01*
X654930Y785543D01*
X654893Y785605D01*
X654854Y785639D01*
X654821Y785679D01*
X654761Y785718D01*
X654706Y785765D01*
X654658Y785784D01*
X654614Y785812D01*
X654545Y785830D01*
X654478Y785857D01*
X654407Y785865D01*
X654376Y785873D01*
X654352Y785871D01*
X654312Y785875D01*
X653215Y785875D01*
X650239Y788851D01*
X650239Y792734D01*
X650236Y792754D01*
X650238Y792773D01*
X650216Y792875D01*
X650200Y792977D01*
X650190Y792994D01*
X650186Y793014D01*
X650133Y793103D01*
X650084Y793194D01*
X650070Y793208D01*
X650060Y793225D01*
X649981Y793292D01*
X649906Y793364D01*
X649888Y793372D01*
X649873Y793385D01*
X649777Y793424D01*
X649683Y793467D01*
X649663Y793469D01*
X649645Y793477D01*
X649478Y793495D01*
X647119Y793495D01*
X644143Y796471D01*
X644143Y800681D01*
X647119Y803657D01*
X650755Y803657D01*
X650846Y803671D01*
X650936Y803679D01*
X650966Y803691D01*
X650998Y803696D01*
X651079Y803739D01*
X651163Y803775D01*
X651195Y803801D01*
X651216Y803812D01*
X651238Y803835D01*
X651294Y803880D01*
X657636Y810222D01*
X657684Y810288D01*
X657691Y810296D01*
X657694Y810301D01*
X657749Y810366D01*
X657761Y810396D01*
X657780Y810422D01*
X657807Y810509D01*
X657841Y810594D01*
X657845Y810635D01*
X657852Y810657D01*
X657851Y810689D01*
X657859Y810761D01*
X657859Y814397D01*
X660835Y817373D01*
X665045Y817373D01*
X668021Y814397D01*
X668021Y810187D01*
X665045Y807211D01*
X661409Y807211D01*
X661318Y807197D01*
X661228Y807189D01*
X661198Y807177D01*
X661166Y807172D01*
X661085Y807129D01*
X661001Y807093D01*
X660969Y807067D01*
X660948Y807056D01*
X660926Y807033D01*
X660870Y806988D01*
X654528Y800646D01*
X654475Y800572D01*
X654415Y800502D01*
X654403Y800472D01*
X654384Y800446D01*
X654357Y800359D01*
X654323Y800274D01*
X654319Y800233D01*
X654312Y800211D01*
X654313Y800179D01*
X654305Y800107D01*
X654305Y796798D01*
X654308Y796778D01*
X654306Y796759D01*
X654328Y796657D01*
X654344Y796555D01*
X654354Y796538D01*
X654358Y796518D01*
X654411Y796429D01*
X654460Y796338D01*
X654474Y796324D01*
X654484Y796307D01*
X654563Y796240D01*
X654638Y796168D01*
X654656Y796160D01*
X654671Y796147D01*
X654767Y796108D01*
X654861Y796065D01*
X654881Y796063D01*
X654899Y796055D01*
X655066Y796037D01*
X656851Y796037D01*
X656942Y796051D01*
X657032Y796059D01*
X657062Y796071D01*
X657094Y796076D01*
X657175Y796119D01*
X657259Y796155D01*
X657291Y796181D01*
X657312Y796192D01*
X657334Y796215D01*
X657390Y796260D01*
X719866Y858736D01*
X719919Y858810D01*
X719979Y858880D01*
X719991Y858910D01*
X720010Y858936D01*
X720037Y859023D01*
X720071Y859108D01*
X720075Y859149D01*
X720082Y859171D01*
X720081Y859203D01*
X720089Y859275D01*
X720089Y871151D01*
X739717Y890779D01*
X741327Y890779D01*
X741347Y890782D01*
X741366Y890780D01*
X741468Y890802D01*
X741570Y890818D01*
X741587Y890828D01*
X741607Y890832D01*
X741696Y890885D01*
X741787Y890934D01*
X741801Y890948D01*
X741818Y890958D01*
X741885Y891037D01*
X741957Y891112D01*
X741965Y891130D01*
X741978Y891145D01*
X742017Y891241D01*
X742060Y891335D01*
X742062Y891355D01*
X742070Y891373D01*
X742088Y891540D01*
X742088Y891680D01*
X742981Y892573D01*
X764819Y892573D01*
X765712Y891680D01*
X765712Y884320D01*
X764819Y883427D01*
X742981Y883427D01*
X742088Y884320D01*
X742088Y884845D01*
X742077Y884915D01*
X742075Y884987D01*
X742057Y885036D01*
X742049Y885087D01*
X742015Y885151D01*
X741990Y885218D01*
X741958Y885259D01*
X741933Y885305D01*
X741881Y885354D01*
X741837Y885410D01*
X741793Y885438D01*
X741755Y885474D01*
X741690Y885504D01*
X741630Y885543D01*
X741579Y885556D01*
X741532Y885578D01*
X741461Y885586D01*
X741391Y885603D01*
X741339Y885599D01*
X741288Y885605D01*
X741217Y885590D01*
X741146Y885584D01*
X741098Y885564D01*
X741047Y885553D01*
X740986Y885516D01*
X740920Y885488D01*
X740864Y885443D01*
X740836Y885426D01*
X740821Y885409D01*
X740789Y885383D01*
X724886Y869480D01*
X724833Y869406D01*
X724773Y869336D01*
X724761Y869306D01*
X724742Y869280D01*
X724715Y869193D01*
X724681Y869108D01*
X724677Y869067D01*
X724670Y869045D01*
X724671Y869013D01*
X724663Y868941D01*
X724663Y865370D01*
X724674Y865300D01*
X724676Y865228D01*
X724694Y865179D01*
X724702Y865128D01*
X724736Y865064D01*
X724761Y864997D01*
X724793Y864956D01*
X724818Y864910D01*
X724870Y864861D01*
X724914Y864805D01*
X724958Y864777D01*
X724996Y864741D01*
X725061Y864711D01*
X725121Y864672D01*
X725172Y864659D01*
X725219Y864637D01*
X725290Y864629D01*
X725360Y864612D01*
X725412Y864616D01*
X725463Y864610D01*
X725534Y864625D01*
X725605Y864631D01*
X725653Y864651D01*
X725704Y864662D01*
X725765Y864699D01*
X725831Y864727D01*
X725887Y864772D01*
X725915Y864789D01*
X725930Y864806D01*
X725962Y864832D01*
X738193Y877063D01*
X741327Y877063D01*
X741347Y877066D01*
X741366Y877064D01*
X741468Y877086D01*
X741570Y877102D01*
X741587Y877112D01*
X741607Y877116D01*
X741696Y877169D01*
X741787Y877218D01*
X741801Y877232D01*
X741818Y877242D01*
X741885Y877321D01*
X741957Y877396D01*
X741965Y877414D01*
X741978Y877429D01*
X742017Y877525D01*
X742060Y877619D01*
X742062Y877639D01*
X742070Y877657D01*
X742088Y877824D01*
X742088Y878980D01*
X742981Y879873D01*
X764819Y879873D01*
X765712Y878980D01*
X765712Y871620D01*
X764819Y870727D01*
X742981Y870727D01*
X742088Y871620D01*
X742088Y871728D01*
X742085Y871748D01*
X742087Y871767D01*
X742065Y871869D01*
X742049Y871971D01*
X742039Y871988D01*
X742035Y872008D01*
X741982Y872097D01*
X741933Y872188D01*
X741919Y872202D01*
X741909Y872219D01*
X741830Y872286D01*
X741755Y872358D01*
X741737Y872366D01*
X741722Y872379D01*
X741626Y872418D01*
X741532Y872461D01*
X741512Y872463D01*
X741494Y872471D01*
X741327Y872489D01*
X740403Y872489D01*
X740312Y872475D01*
X740222Y872467D01*
X740192Y872455D01*
X740160Y872450D01*
X740079Y872407D01*
X739995Y872371D01*
X739963Y872345D01*
X739942Y872334D01*
X739920Y872311D01*
X739864Y872266D01*
X727934Y860336D01*
X727881Y860262D01*
X727821Y860192D01*
X727809Y860162D01*
X727790Y860136D01*
X727763Y860049D01*
X727729Y859964D01*
X727725Y859923D01*
X727718Y859901D01*
X727719Y859869D01*
X727711Y859797D01*
X727711Y850969D01*
X654528Y777786D01*
X654475Y777712D01*
X654415Y777642D01*
X654403Y777612D01*
X654384Y777586D01*
X654357Y777499D01*
X654323Y777414D01*
X654319Y777373D01*
X654312Y777351D01*
X654313Y777319D01*
X654305Y777248D01*
X654305Y773611D01*
X651329Y770635D01*
X647119Y770635D01*
G37*
%LPD*%
%LPC*%
G36*
X759561Y632055D02*
X759561Y632055D01*
X756200Y633447D01*
X753627Y636020D01*
X752235Y639381D01*
X752235Y643019D01*
X753627Y646380D01*
X754032Y646785D01*
X754044Y646801D01*
X754060Y646814D01*
X754116Y646901D01*
X754176Y646985D01*
X754182Y647004D01*
X754193Y647021D01*
X754218Y647121D01*
X754248Y647220D01*
X754248Y647240D01*
X754253Y647259D01*
X754245Y647362D01*
X754242Y647466D01*
X754235Y647485D01*
X754234Y647504D01*
X754193Y647599D01*
X754158Y647697D01*
X754145Y647712D01*
X754137Y647731D01*
X754032Y647862D01*
X744473Y657421D01*
X744473Y671507D01*
X751870Y678904D01*
X751923Y678978D01*
X751983Y679048D01*
X751995Y679078D01*
X752014Y679104D01*
X752041Y679191D01*
X752075Y679276D01*
X752079Y679317D01*
X752086Y679339D01*
X752085Y679371D01*
X752093Y679443D01*
X752093Y857266D01*
X752090Y857286D01*
X752092Y857305D01*
X752070Y857407D01*
X752054Y857509D01*
X752044Y857526D01*
X752040Y857546D01*
X751987Y857635D01*
X751938Y857726D01*
X751924Y857740D01*
X751914Y857757D01*
X751835Y857824D01*
X751760Y857896D01*
X751742Y857904D01*
X751727Y857917D01*
X751631Y857956D01*
X751537Y857999D01*
X751517Y858001D01*
X751499Y858009D01*
X751332Y858027D01*
X742981Y858027D01*
X742088Y858920D01*
X742088Y866280D01*
X742981Y867173D01*
X764819Y867173D01*
X765712Y866280D01*
X765712Y858920D01*
X764819Y858027D01*
X757428Y858027D01*
X757408Y858024D01*
X757389Y858026D01*
X757287Y858004D01*
X757185Y857988D01*
X757168Y857978D01*
X757148Y857974D01*
X757059Y857921D01*
X756968Y857872D01*
X756954Y857858D01*
X756937Y857848D01*
X756870Y857769D01*
X756798Y857694D01*
X756790Y857676D01*
X756777Y857661D01*
X756738Y857565D01*
X756695Y857471D01*
X756693Y857451D01*
X756685Y857433D01*
X756667Y857266D01*
X756667Y677233D01*
X749270Y669836D01*
X749217Y669762D01*
X749157Y669692D01*
X749145Y669662D01*
X749126Y669636D01*
X749099Y669549D01*
X749065Y669464D01*
X749061Y669423D01*
X749054Y669401D01*
X749055Y669369D01*
X749047Y669297D01*
X749047Y659631D01*
X749061Y659540D01*
X749069Y659450D01*
X749081Y659420D01*
X749086Y659388D01*
X749129Y659307D01*
X749165Y659223D01*
X749191Y659191D01*
X749202Y659170D01*
X749225Y659148D01*
X749270Y659092D01*
X758110Y650252D01*
X758204Y650184D01*
X758298Y650114D01*
X758304Y650112D01*
X758309Y650109D01*
X758421Y650074D01*
X758532Y650038D01*
X758539Y650038D01*
X758545Y650036D01*
X758661Y650039D01*
X758778Y650040D01*
X758785Y650043D01*
X758790Y650043D01*
X758808Y650049D01*
X758939Y650087D01*
X759561Y650345D01*
X778439Y650345D01*
X781800Y648953D01*
X784373Y646380D01*
X785765Y643019D01*
X785765Y639381D01*
X784373Y636020D01*
X781800Y633447D01*
X778439Y632055D01*
X759561Y632055D01*
G37*
%LPD*%
%LPC*%
G36*
X390581Y790550D02*
X390581Y790550D01*
X386851Y792095D01*
X383995Y794951D01*
X382450Y798681D01*
X382450Y802719D01*
X383995Y806449D01*
X386851Y809305D01*
X390581Y810850D01*
X394619Y810850D01*
X398349Y809305D01*
X398980Y808674D01*
X398996Y808663D01*
X399008Y808647D01*
X399096Y808591D01*
X399179Y808531D01*
X399198Y808525D01*
X399215Y808514D01*
X399316Y808489D01*
X399415Y808458D01*
X399434Y808459D01*
X399454Y808454D01*
X399557Y808462D01*
X399660Y808465D01*
X399679Y808472D01*
X399699Y808473D01*
X399794Y808513D01*
X399891Y808549D01*
X399907Y808562D01*
X399925Y808569D01*
X400056Y808674D01*
X409009Y817627D01*
X553473Y817627D01*
X553564Y817641D01*
X553654Y817649D01*
X553684Y817661D01*
X553716Y817666D01*
X553797Y817709D01*
X553881Y817745D01*
X553913Y817771D01*
X553934Y817782D01*
X553956Y817805D01*
X554012Y817850D01*
X613225Y877063D01*
X615327Y877063D01*
X615347Y877066D01*
X615366Y877064D01*
X615468Y877086D01*
X615570Y877102D01*
X615587Y877112D01*
X615607Y877116D01*
X615696Y877169D01*
X615787Y877218D01*
X615801Y877232D01*
X615818Y877242D01*
X615885Y877321D01*
X615957Y877396D01*
X615965Y877414D01*
X615978Y877429D01*
X616017Y877525D01*
X616060Y877619D01*
X616062Y877639D01*
X616070Y877657D01*
X616088Y877824D01*
X616088Y878980D01*
X616981Y879873D01*
X638819Y879873D01*
X639712Y878980D01*
X639712Y871620D01*
X638819Y870727D01*
X616981Y870727D01*
X616088Y871620D01*
X616088Y871621D01*
X616077Y871691D01*
X616075Y871763D01*
X616057Y871812D01*
X616049Y871863D01*
X616015Y871927D01*
X615990Y871994D01*
X615958Y872035D01*
X615933Y872081D01*
X615881Y872130D01*
X615837Y872186D01*
X615793Y872214D01*
X615755Y872250D01*
X615690Y872280D01*
X615630Y872319D01*
X615579Y872332D01*
X615532Y872354D01*
X615461Y872362D01*
X615391Y872379D01*
X615339Y872375D01*
X615288Y872381D01*
X615217Y872366D01*
X615146Y872360D01*
X615098Y872340D01*
X615047Y872329D01*
X614986Y872292D01*
X614920Y872264D01*
X614864Y872219D01*
X614836Y872202D01*
X614821Y872185D01*
X614789Y872159D01*
X557246Y814616D01*
X555683Y813053D01*
X411219Y813053D01*
X411128Y813039D01*
X411038Y813031D01*
X411008Y813019D01*
X410976Y813014D01*
X410895Y812971D01*
X410811Y812935D01*
X410779Y812909D01*
X410758Y812898D01*
X410736Y812875D01*
X410680Y812830D01*
X402471Y804621D01*
X402402Y804525D01*
X402333Y804432D01*
X402331Y804426D01*
X402327Y804421D01*
X402293Y804309D01*
X402256Y804198D01*
X402257Y804192D01*
X402255Y804186D01*
X402258Y804069D01*
X402259Y803952D01*
X402261Y803945D01*
X402261Y803940D01*
X402267Y803923D01*
X402306Y803791D01*
X402750Y802719D01*
X402750Y798681D01*
X401205Y794951D01*
X398349Y792095D01*
X394619Y790550D01*
X390581Y790550D01*
G37*
%LPD*%
%LPC*%
G36*
X43661Y581255D02*
X43661Y581255D01*
X40300Y582647D01*
X37727Y585220D01*
X36335Y588581D01*
X36335Y592219D01*
X37727Y595580D01*
X38196Y596049D01*
X38208Y596065D01*
X38224Y596078D01*
X38280Y596165D01*
X38340Y596249D01*
X38346Y596268D01*
X38357Y596285D01*
X38382Y596385D01*
X38412Y596484D01*
X38412Y596504D01*
X38417Y596523D01*
X38409Y596626D01*
X38406Y596730D01*
X38399Y596749D01*
X38398Y596768D01*
X38357Y596863D01*
X38322Y596961D01*
X38309Y596976D01*
X38301Y596995D01*
X38196Y597126D01*
X29717Y605605D01*
X29717Y673031D01*
X49306Y692620D01*
X49359Y692694D01*
X49419Y692764D01*
X49431Y692794D01*
X49450Y692820D01*
X49477Y692907D01*
X49511Y692992D01*
X49515Y693033D01*
X49522Y693055D01*
X49521Y693087D01*
X49529Y693159D01*
X49529Y706414D01*
X49526Y706434D01*
X49528Y706453D01*
X49506Y706555D01*
X49490Y706657D01*
X49480Y706674D01*
X49476Y706694D01*
X49423Y706783D01*
X49374Y706874D01*
X49360Y706888D01*
X49350Y706905D01*
X49271Y706972D01*
X49196Y707044D01*
X49178Y707052D01*
X49163Y707065D01*
X49067Y707104D01*
X48973Y707147D01*
X48953Y707149D01*
X48935Y707157D01*
X48768Y707175D01*
X43568Y707175D01*
X42675Y708068D01*
X42675Y722332D01*
X43568Y723225D01*
X59832Y723225D01*
X60725Y722332D01*
X60725Y708068D01*
X59832Y707175D01*
X54864Y707175D01*
X54844Y707172D01*
X54825Y707174D01*
X54723Y707152D01*
X54621Y707136D01*
X54604Y707126D01*
X54584Y707122D01*
X54495Y707069D01*
X54404Y707020D01*
X54390Y707006D01*
X54373Y706996D01*
X54306Y706917D01*
X54234Y706842D01*
X54226Y706824D01*
X54213Y706809D01*
X54174Y706713D01*
X54131Y706619D01*
X54129Y706599D01*
X54121Y706581D01*
X54103Y706414D01*
X54103Y690949D01*
X34514Y671360D01*
X34461Y671286D01*
X34401Y671216D01*
X34389Y671186D01*
X34370Y671160D01*
X34343Y671073D01*
X34309Y670988D01*
X34305Y670947D01*
X34298Y670925D01*
X34299Y670893D01*
X34291Y670821D01*
X34291Y607815D01*
X34305Y607724D01*
X34313Y607634D01*
X34325Y607604D01*
X34330Y607572D01*
X34373Y607491D01*
X34409Y607407D01*
X34435Y607375D01*
X34446Y607354D01*
X34469Y607332D01*
X34514Y607276D01*
X42300Y599490D01*
X42395Y599422D01*
X42489Y599352D01*
X42495Y599350D01*
X42500Y599346D01*
X42612Y599312D01*
X42723Y599276D01*
X42729Y599276D01*
X42735Y599274D01*
X42852Y599277D01*
X42969Y599278D01*
X42976Y599280D01*
X42981Y599280D01*
X42998Y599287D01*
X43130Y599325D01*
X43661Y599545D01*
X62539Y599545D01*
X65900Y598153D01*
X68473Y595580D01*
X69865Y592219D01*
X69865Y588581D01*
X68473Y585220D01*
X65900Y582647D01*
X62539Y581255D01*
X43661Y581255D01*
G37*
%LPD*%
%LPC*%
G36*
X57083Y923767D02*
X57083Y923767D01*
X54095Y925005D01*
X51809Y927291D01*
X50571Y930279D01*
X50571Y946721D01*
X51809Y949709D01*
X54095Y951995D01*
X57083Y953233D01*
X60317Y953233D01*
X63305Y951995D01*
X63535Y951765D01*
X63551Y951754D01*
X63563Y951738D01*
X63633Y951693D01*
X63664Y951666D01*
X63682Y951659D01*
X63734Y951622D01*
X63753Y951616D01*
X63770Y951605D01*
X63871Y951580D01*
X63969Y951549D01*
X63989Y951550D01*
X64009Y951545D01*
X64112Y951553D01*
X64215Y951556D01*
X64234Y951562D01*
X64254Y951564D01*
X64327Y951595D01*
X64329Y951595D01*
X64335Y951598D01*
X64349Y951604D01*
X64446Y951640D01*
X64462Y951653D01*
X64480Y951660D01*
X64536Y951705D01*
X64547Y951711D01*
X64558Y951723D01*
X64611Y951765D01*
X73729Y960883D01*
X139631Y960883D01*
X162268Y938246D01*
X162342Y938193D01*
X162412Y938133D01*
X162442Y938121D01*
X162468Y938102D01*
X162555Y938075D01*
X162640Y938041D01*
X162681Y938037D01*
X162703Y938030D01*
X162735Y938031D01*
X162807Y938023D01*
X185014Y938023D01*
X185034Y938026D01*
X185053Y938024D01*
X185155Y938046D01*
X185257Y938062D01*
X185274Y938072D01*
X185294Y938076D01*
X185383Y938129D01*
X185474Y938178D01*
X185488Y938192D01*
X185505Y938202D01*
X185572Y938281D01*
X185644Y938356D01*
X185652Y938374D01*
X185665Y938389D01*
X185704Y938485D01*
X185747Y938579D01*
X185749Y938599D01*
X185757Y938617D01*
X185775Y938784D01*
X185775Y942832D01*
X186668Y943725D01*
X200932Y943725D01*
X201825Y942832D01*
X201825Y926568D01*
X200932Y925675D01*
X186668Y925675D01*
X185775Y926568D01*
X185775Y932688D01*
X185772Y932708D01*
X185774Y932727D01*
X185752Y932829D01*
X185736Y932931D01*
X185726Y932948D01*
X185722Y932968D01*
X185669Y933057D01*
X185620Y933148D01*
X185606Y933162D01*
X185596Y933179D01*
X185517Y933246D01*
X185442Y933318D01*
X185424Y933326D01*
X185409Y933339D01*
X185313Y933378D01*
X185219Y933421D01*
X185199Y933423D01*
X185181Y933431D01*
X185014Y933449D01*
X160597Y933449D01*
X137960Y956086D01*
X137886Y956139D01*
X137816Y956199D01*
X137786Y956211D01*
X137760Y956230D01*
X137673Y956257D01*
X137588Y956291D01*
X137547Y956295D01*
X137525Y956302D01*
X137493Y956301D01*
X137421Y956309D01*
X75939Y956309D01*
X75848Y956295D01*
X75758Y956287D01*
X75728Y956275D01*
X75696Y956270D01*
X75615Y956227D01*
X75531Y956191D01*
X75499Y956165D01*
X75478Y956154D01*
X75456Y956131D01*
X75400Y956086D01*
X66956Y947642D01*
X66888Y947547D01*
X66818Y947453D01*
X66816Y947447D01*
X66812Y947442D01*
X66778Y947331D01*
X66742Y947219D01*
X66742Y947213D01*
X66740Y947207D01*
X66743Y947090D01*
X66744Y946973D01*
X66746Y946966D01*
X66746Y946961D01*
X66753Y946944D01*
X66791Y946812D01*
X66829Y946721D01*
X66829Y930279D01*
X65591Y927291D01*
X63305Y925005D01*
X60317Y923767D01*
X57083Y923767D01*
G37*
%LPD*%
%LPC*%
G36*
X188268Y865675D02*
X188268Y865675D01*
X187375Y866568D01*
X187375Y871728D01*
X187372Y871748D01*
X187374Y871767D01*
X187352Y871869D01*
X187336Y871971D01*
X187326Y871988D01*
X187322Y872008D01*
X187269Y872097D01*
X187220Y872188D01*
X187206Y872202D01*
X187196Y872219D01*
X187117Y872286D01*
X187042Y872358D01*
X187024Y872366D01*
X187009Y872379D01*
X186913Y872418D01*
X186819Y872461D01*
X186799Y872463D01*
X186781Y872471D01*
X186614Y872489D01*
X172789Y872489D01*
X117664Y927614D01*
X117627Y927641D01*
X117596Y927675D01*
X117527Y927712D01*
X117464Y927758D01*
X117421Y927771D01*
X117380Y927793D01*
X117304Y927807D01*
X117229Y927830D01*
X117183Y927829D01*
X117138Y927837D01*
X117061Y927826D01*
X116983Y927824D01*
X116940Y927808D01*
X116895Y927801D01*
X116826Y927766D01*
X116752Y927739D01*
X116716Y927710D01*
X116676Y927690D01*
X116621Y927634D01*
X116560Y927585D01*
X116535Y927547D01*
X116503Y927514D01*
X116438Y927394D01*
X116427Y927378D01*
X116426Y927374D01*
X116422Y927367D01*
X116391Y927291D01*
X114105Y925005D01*
X111117Y923767D01*
X107883Y923767D01*
X104895Y925005D01*
X102609Y927291D01*
X101371Y930279D01*
X101371Y946721D01*
X102609Y949709D01*
X104895Y951995D01*
X107883Y953233D01*
X111117Y953233D01*
X114105Y951995D01*
X116391Y949709D01*
X117629Y946721D01*
X117629Y934433D01*
X117643Y934342D01*
X117651Y934252D01*
X117663Y934222D01*
X117668Y934190D01*
X117711Y934109D01*
X117747Y934025D01*
X117773Y933993D01*
X117784Y933972D01*
X117807Y933950D01*
X117852Y933894D01*
X174460Y877286D01*
X174534Y877233D01*
X174604Y877173D01*
X174634Y877161D01*
X174660Y877142D01*
X174747Y877115D01*
X174832Y877081D01*
X174873Y877077D01*
X174895Y877070D01*
X174927Y877071D01*
X174999Y877063D01*
X186614Y877063D01*
X186634Y877066D01*
X186653Y877064D01*
X186755Y877086D01*
X186857Y877102D01*
X186874Y877112D01*
X186894Y877116D01*
X186983Y877169D01*
X187074Y877218D01*
X187088Y877232D01*
X187105Y877242D01*
X187172Y877321D01*
X187244Y877396D01*
X187252Y877414D01*
X187265Y877429D01*
X187304Y877525D01*
X187347Y877619D01*
X187349Y877639D01*
X187357Y877657D01*
X187375Y877824D01*
X187375Y882832D01*
X188268Y883725D01*
X202532Y883725D01*
X203425Y882832D01*
X203425Y866568D01*
X202532Y865675D01*
X188268Y865675D01*
G37*
%LPD*%
%LPC*%
G36*
X69468Y210275D02*
X69468Y210275D01*
X68575Y211168D01*
X68575Y227432D01*
X69468Y228325D01*
X74676Y228325D01*
X74696Y228328D01*
X74715Y228326D01*
X74817Y228348D01*
X74919Y228364D01*
X74936Y228374D01*
X74956Y228378D01*
X75045Y228431D01*
X75136Y228480D01*
X75150Y228494D01*
X75167Y228504D01*
X75234Y228583D01*
X75306Y228658D01*
X75314Y228676D01*
X75327Y228691D01*
X75366Y228787D01*
X75409Y228881D01*
X75411Y228901D01*
X75419Y228919D01*
X75437Y229086D01*
X75437Y266714D01*
X75434Y266734D01*
X75436Y266753D01*
X75414Y266855D01*
X75398Y266957D01*
X75388Y266974D01*
X75384Y266994D01*
X75331Y267083D01*
X75282Y267174D01*
X75268Y267188D01*
X75258Y267205D01*
X75179Y267272D01*
X75104Y267344D01*
X75086Y267352D01*
X75071Y267365D01*
X74975Y267404D01*
X74881Y267447D01*
X74861Y267449D01*
X74843Y267457D01*
X74676Y267475D01*
X65268Y267475D01*
X64375Y268368D01*
X64375Y282632D01*
X65268Y283525D01*
X81532Y283525D01*
X82425Y282632D01*
X82425Y268368D01*
X81532Y267475D01*
X80772Y267475D01*
X80752Y267472D01*
X80733Y267474D01*
X80631Y267452D01*
X80529Y267436D01*
X80512Y267426D01*
X80492Y267422D01*
X80403Y267369D01*
X80312Y267320D01*
X80298Y267306D01*
X80281Y267296D01*
X80214Y267217D01*
X80142Y267142D01*
X80134Y267124D01*
X80121Y267109D01*
X80082Y267013D01*
X80039Y266919D01*
X80037Y266899D01*
X80029Y266881D01*
X80011Y266714D01*
X80011Y229086D01*
X80014Y229066D01*
X80012Y229047D01*
X80034Y228945D01*
X80050Y228843D01*
X80060Y228826D01*
X80064Y228806D01*
X80117Y228717D01*
X80166Y228626D01*
X80180Y228612D01*
X80190Y228595D01*
X80269Y228528D01*
X80344Y228456D01*
X80362Y228448D01*
X80377Y228435D01*
X80473Y228396D01*
X80567Y228353D01*
X80587Y228351D01*
X80605Y228343D01*
X80772Y228325D01*
X85732Y228325D01*
X86625Y227432D01*
X86625Y211168D01*
X85732Y210275D01*
X69468Y210275D01*
G37*
%LPD*%
%LPC*%
G36*
X759561Y505055D02*
X759561Y505055D01*
X756200Y506447D01*
X753627Y509020D01*
X752235Y512381D01*
X752235Y516019D01*
X753627Y519380D01*
X756200Y521953D01*
X759561Y523345D01*
X778439Y523345D01*
X781800Y521953D01*
X784373Y519380D01*
X785765Y516019D01*
X785765Y512381D01*
X784373Y509020D01*
X781800Y506447D01*
X778439Y505055D01*
X759561Y505055D01*
G37*
%LPD*%
%LPC*%
G36*
X759561Y479655D02*
X759561Y479655D01*
X756200Y481047D01*
X753627Y483620D01*
X752235Y486981D01*
X752235Y490619D01*
X753627Y493980D01*
X756200Y496553D01*
X759561Y497945D01*
X778439Y497945D01*
X781800Y496553D01*
X784373Y493980D01*
X785765Y490619D01*
X785765Y486981D01*
X784373Y483620D01*
X781800Y481047D01*
X778439Y479655D01*
X759561Y479655D01*
G37*
%LPD*%
%LPC*%
G36*
X759561Y657455D02*
X759561Y657455D01*
X756200Y658847D01*
X753627Y661420D01*
X752235Y664781D01*
X752235Y668419D01*
X753627Y671780D01*
X756200Y674353D01*
X759561Y675745D01*
X778439Y675745D01*
X781800Y674353D01*
X784373Y671780D01*
X785765Y668419D01*
X785765Y664781D01*
X784373Y661420D01*
X781800Y658847D01*
X778439Y657455D01*
X759561Y657455D01*
G37*
%LPD*%
%LPC*%
G36*
X43661Y479655D02*
X43661Y479655D01*
X40300Y481047D01*
X37727Y483620D01*
X36335Y486981D01*
X36335Y490619D01*
X37727Y493980D01*
X40300Y496553D01*
X43661Y497945D01*
X62539Y497945D01*
X65900Y496553D01*
X68473Y493980D01*
X69865Y490619D01*
X69865Y486981D01*
X68473Y483620D01*
X65900Y481047D01*
X62539Y479655D01*
X43661Y479655D01*
G37*
%LPD*%
%LPC*%
G36*
X43661Y505055D02*
X43661Y505055D01*
X40300Y506447D01*
X37727Y509020D01*
X36335Y512381D01*
X36335Y516019D01*
X37727Y519380D01*
X40300Y521953D01*
X43661Y523345D01*
X62539Y523345D01*
X65900Y521953D01*
X68473Y519380D01*
X69865Y516019D01*
X69865Y512381D01*
X68473Y509020D01*
X65900Y506447D01*
X62539Y505055D01*
X43661Y505055D01*
G37*
%LPD*%
%LPC*%
G36*
X759561Y606655D02*
X759561Y606655D01*
X756200Y608047D01*
X753627Y610620D01*
X752235Y613981D01*
X752235Y617619D01*
X753627Y620980D01*
X756200Y623553D01*
X759561Y624945D01*
X778439Y624945D01*
X781800Y623553D01*
X784373Y620980D01*
X785765Y617619D01*
X785765Y613981D01*
X784373Y610620D01*
X781800Y608047D01*
X778439Y606655D01*
X759561Y606655D01*
G37*
%LPD*%
%LPC*%
G36*
X43661Y530455D02*
X43661Y530455D01*
X40300Y531847D01*
X37727Y534420D01*
X36335Y537781D01*
X36335Y541419D01*
X37727Y544780D01*
X40300Y547353D01*
X43661Y548745D01*
X62539Y548745D01*
X65900Y547353D01*
X68473Y544780D01*
X69865Y541419D01*
X69865Y537781D01*
X68473Y534420D01*
X65900Y531847D01*
X62539Y530455D01*
X43661Y530455D01*
G37*
%LPD*%
%LPC*%
G36*
X759561Y530455D02*
X759561Y530455D01*
X756200Y531847D01*
X753627Y534420D01*
X752235Y537781D01*
X752235Y541419D01*
X753627Y544780D01*
X756200Y547353D01*
X759561Y548745D01*
X778439Y548745D01*
X781800Y547353D01*
X784373Y544780D01*
X785765Y541419D01*
X785765Y537781D01*
X784373Y534420D01*
X781800Y531847D01*
X778439Y530455D01*
X759561Y530455D01*
G37*
%LPD*%
%LPC*%
G36*
X43661Y555855D02*
X43661Y555855D01*
X40300Y557247D01*
X37727Y559820D01*
X36335Y563181D01*
X36335Y566819D01*
X37727Y570180D01*
X40300Y572753D01*
X43661Y574145D01*
X62539Y574145D01*
X65900Y572753D01*
X68473Y570180D01*
X69865Y566819D01*
X69865Y563181D01*
X68473Y559820D01*
X65900Y557247D01*
X62539Y555855D01*
X43661Y555855D01*
G37*
%LPD*%
%LPC*%
G36*
X759561Y555855D02*
X759561Y555855D01*
X756200Y557247D01*
X753627Y559820D01*
X752235Y563181D01*
X752235Y566819D01*
X753627Y570180D01*
X756200Y572753D01*
X759561Y574145D01*
X778439Y574145D01*
X781800Y572753D01*
X784373Y570180D01*
X785765Y566819D01*
X785765Y563181D01*
X784373Y559820D01*
X781800Y557247D01*
X778439Y555855D01*
X759561Y555855D01*
G37*
%LPD*%
%LPC*%
G36*
X759561Y581255D02*
X759561Y581255D01*
X756200Y582647D01*
X753627Y585220D01*
X752235Y588581D01*
X752235Y592219D01*
X753627Y595580D01*
X756200Y598153D01*
X759561Y599545D01*
X778439Y599545D01*
X781800Y598153D01*
X784373Y595580D01*
X785765Y592219D01*
X785765Y588581D01*
X784373Y585220D01*
X781800Y582647D01*
X778439Y581255D01*
X759561Y581255D01*
G37*
%LPD*%
%LPC*%
G36*
X133283Y923767D02*
X133283Y923767D01*
X130295Y925005D01*
X128009Y927291D01*
X126771Y930279D01*
X126771Y946721D01*
X128009Y949709D01*
X130295Y951995D01*
X133283Y953233D01*
X136517Y953233D01*
X139505Y951995D01*
X141791Y949709D01*
X143029Y946721D01*
X143029Y930279D01*
X141791Y927291D01*
X139505Y925005D01*
X136517Y923767D01*
X133283Y923767D01*
G37*
%LPD*%
%LPC*%
G36*
X82483Y923767D02*
X82483Y923767D01*
X79495Y925005D01*
X77209Y927291D01*
X75971Y930279D01*
X75971Y946721D01*
X77209Y949709D01*
X79495Y951995D01*
X82483Y953233D01*
X85717Y953233D01*
X88705Y951995D01*
X90991Y949709D01*
X92229Y946721D01*
X92229Y930279D01*
X90991Y927291D01*
X88705Y925005D01*
X85717Y923767D01*
X82483Y923767D01*
G37*
%LPD*%
%LPC*%
G36*
X668455Y907795D02*
X668455Y907795D01*
X665479Y910771D01*
X665479Y914981D01*
X668455Y917957D01*
X672665Y917957D01*
X675236Y915386D01*
X675309Y915333D01*
X675379Y915273D01*
X675409Y915261D01*
X675435Y915242D01*
X675522Y915215D01*
X675607Y915181D01*
X675648Y915177D01*
X675670Y915170D01*
X675703Y915171D01*
X675774Y915163D01*
X693321Y915163D01*
X693341Y915166D01*
X693360Y915164D01*
X693462Y915186D01*
X693564Y915202D01*
X693581Y915212D01*
X693601Y915216D01*
X693690Y915269D01*
X693781Y915318D01*
X693795Y915332D01*
X693812Y915342D01*
X693879Y915421D01*
X693951Y915496D01*
X693959Y915514D01*
X693972Y915529D01*
X694011Y915625D01*
X694054Y915719D01*
X694056Y915739D01*
X694064Y915757D01*
X694082Y915924D01*
X694082Y917080D01*
X694975Y917973D01*
X716813Y917973D01*
X717706Y917080D01*
X717706Y909720D01*
X716813Y908827D01*
X694975Y908827D01*
X694082Y909720D01*
X694082Y909828D01*
X694079Y909848D01*
X694081Y909867D01*
X694059Y909969D01*
X694043Y910071D01*
X694033Y910088D01*
X694029Y910108D01*
X693976Y910197D01*
X693927Y910288D01*
X693913Y910302D01*
X693903Y910319D01*
X693824Y910386D01*
X693749Y910458D01*
X693731Y910466D01*
X693716Y910479D01*
X693620Y910518D01*
X693526Y910561D01*
X693506Y910563D01*
X693488Y910571D01*
X693321Y910589D01*
X675774Y910589D01*
X675684Y910575D01*
X675593Y910567D01*
X675563Y910555D01*
X675531Y910550D01*
X675450Y910507D01*
X675367Y910471D01*
X675334Y910445D01*
X675314Y910434D01*
X675292Y910411D01*
X675236Y910366D01*
X672665Y907795D01*
X668455Y907795D01*
G37*
%LPD*%
%LPC*%
G36*
X65268Y286475D02*
X65268Y286475D01*
X64375Y287368D01*
X64375Y301632D01*
X65268Y302525D01*
X67928Y302525D01*
X67999Y302536D01*
X68071Y302538D01*
X68120Y302556D01*
X68171Y302564D01*
X68234Y302598D01*
X68302Y302623D01*
X68342Y302655D01*
X68388Y302680D01*
X68438Y302731D01*
X68494Y302776D01*
X68522Y302820D01*
X68558Y302858D01*
X68588Y302923D01*
X68627Y302983D01*
X68639Y303034D01*
X68661Y303081D01*
X68669Y303152D01*
X68687Y303222D01*
X68683Y303274D01*
X68688Y303325D01*
X68673Y303396D01*
X68668Y303467D01*
X68647Y303515D01*
X68636Y303566D01*
X68599Y303627D01*
X68571Y303693D01*
X68526Y303749D01*
X68510Y303777D01*
X68492Y303792D01*
X68467Y303824D01*
X68071Y304220D01*
X68071Y308429D01*
X71047Y311405D01*
X75257Y311405D01*
X78233Y308429D01*
X78233Y304220D01*
X77837Y303824D01*
X77796Y303766D01*
X77746Y303714D01*
X77724Y303667D01*
X77694Y303625D01*
X77673Y303556D01*
X77643Y303491D01*
X77637Y303439D01*
X77622Y303389D01*
X77623Y303318D01*
X77616Y303247D01*
X77627Y303196D01*
X77628Y303144D01*
X77653Y303076D01*
X77668Y303006D01*
X77695Y302961D01*
X77712Y302913D01*
X77757Y302857D01*
X77794Y302795D01*
X77834Y302761D01*
X77866Y302721D01*
X77926Y302682D01*
X77981Y302635D01*
X78029Y302616D01*
X78073Y302588D01*
X78143Y302570D01*
X78209Y302543D01*
X78280Y302535D01*
X78312Y302527D01*
X78335Y302529D01*
X78376Y302525D01*
X81532Y302525D01*
X82425Y301632D01*
X82425Y287368D01*
X81532Y286475D01*
X65268Y286475D01*
G37*
%LPD*%
%LPC*%
G36*
X277468Y925675D02*
X277468Y925675D01*
X276575Y926568D01*
X276575Y930492D01*
X276564Y930563D01*
X276562Y930635D01*
X276544Y930684D01*
X276536Y930735D01*
X276502Y930798D01*
X276477Y930866D01*
X276445Y930906D01*
X276420Y930952D01*
X276369Y931002D01*
X276324Y931058D01*
X276280Y931086D01*
X276242Y931122D01*
X276177Y931152D01*
X276117Y931191D01*
X276066Y931203D01*
X276019Y931225D01*
X275948Y931233D01*
X275878Y931251D01*
X275826Y931247D01*
X275775Y931252D01*
X275704Y931237D01*
X275633Y931232D01*
X275585Y931211D01*
X275534Y931200D01*
X275473Y931163D01*
X275407Y931135D01*
X275351Y931090D01*
X275323Y931074D01*
X275308Y931056D01*
X275276Y931031D01*
X274900Y930655D01*
X270691Y930655D01*
X267715Y933631D01*
X267715Y937841D01*
X270691Y940817D01*
X274900Y940817D01*
X275276Y940441D01*
X275334Y940400D01*
X275386Y940350D01*
X275433Y940328D01*
X275475Y940298D01*
X275544Y940277D01*
X275609Y940247D01*
X275661Y940241D01*
X275711Y940226D01*
X275782Y940227D01*
X275853Y940220D01*
X275904Y940231D01*
X275956Y940232D01*
X276024Y940257D01*
X276094Y940272D01*
X276139Y940299D01*
X276187Y940316D01*
X276243Y940361D01*
X276305Y940398D01*
X276339Y940438D01*
X276379Y940470D01*
X276418Y940530D01*
X276465Y940585D01*
X276484Y940633D01*
X276512Y940677D01*
X276530Y940747D01*
X276557Y940813D01*
X276565Y940884D01*
X276573Y940916D01*
X276571Y940939D01*
X276575Y940980D01*
X276575Y942832D01*
X277468Y943725D01*
X291732Y943725D01*
X292625Y942832D01*
X292625Y926568D01*
X291732Y925675D01*
X277468Y925675D01*
G37*
%LPD*%
%LPC*%
G36*
X642547Y842263D02*
X642547Y842263D01*
X639571Y845239D01*
X639571Y848875D01*
X639557Y848966D01*
X639549Y849056D01*
X639537Y849086D01*
X639532Y849118D01*
X639489Y849199D01*
X639453Y849283D01*
X639427Y849315D01*
X639416Y849336D01*
X639393Y849358D01*
X639348Y849414D01*
X630958Y857804D01*
X630884Y857857D01*
X630814Y857917D01*
X630784Y857929D01*
X630758Y857948D01*
X630671Y857975D01*
X630586Y858009D01*
X630545Y858013D01*
X630523Y858020D01*
X630491Y858019D01*
X630419Y858027D01*
X616981Y858027D01*
X616088Y858920D01*
X616088Y866280D01*
X616981Y867173D01*
X638819Y867173D01*
X639712Y866280D01*
X639712Y858920D01*
X638758Y857966D01*
X638734Y857954D01*
X638667Y857929D01*
X638626Y857897D01*
X638580Y857872D01*
X638531Y857820D01*
X638475Y857776D01*
X638447Y857732D01*
X638411Y857694D01*
X638381Y857629D01*
X638342Y857569D01*
X638329Y857518D01*
X638307Y857471D01*
X638299Y857400D01*
X638282Y857330D01*
X638286Y857278D01*
X638280Y857227D01*
X638295Y857156D01*
X638301Y857085D01*
X638321Y857037D01*
X638332Y856986D01*
X638369Y856925D01*
X638397Y856859D01*
X638442Y856803D01*
X638459Y856775D01*
X638476Y856760D01*
X638502Y856728D01*
X642582Y852648D01*
X642656Y852595D01*
X642726Y852535D01*
X642756Y852523D01*
X642782Y852504D01*
X642869Y852477D01*
X642954Y852443D01*
X642995Y852439D01*
X643017Y852432D01*
X643049Y852433D01*
X643121Y852425D01*
X646757Y852425D01*
X649733Y849449D01*
X649733Y845239D01*
X646757Y842263D01*
X642547Y842263D01*
G37*
%LPD*%
%LPC*%
G36*
X365181Y790550D02*
X365181Y790550D01*
X361451Y792095D01*
X358595Y794951D01*
X357050Y798681D01*
X357050Y802719D01*
X358595Y806449D01*
X361451Y809305D01*
X365181Y810850D01*
X369219Y810850D01*
X372949Y809305D01*
X375805Y806449D01*
X377350Y802719D01*
X377350Y798681D01*
X375805Y794951D01*
X372949Y792095D01*
X369219Y790550D01*
X365181Y790550D01*
G37*
%LPD*%
%LPC*%
G36*
X415981Y790550D02*
X415981Y790550D01*
X412251Y792095D01*
X409395Y794951D01*
X407850Y798681D01*
X407850Y802719D01*
X409395Y806449D01*
X412251Y809305D01*
X415981Y810850D01*
X420019Y810850D01*
X423749Y809305D01*
X426605Y806449D01*
X428150Y802719D01*
X428150Y798681D01*
X426605Y794951D01*
X423749Y792095D01*
X420019Y790550D01*
X415981Y790550D01*
G37*
%LPD*%
%LPC*%
G36*
X454081Y790550D02*
X454081Y790550D01*
X450351Y792095D01*
X447495Y794951D01*
X445950Y798681D01*
X445950Y802719D01*
X447495Y806449D01*
X450351Y809305D01*
X454081Y810850D01*
X458119Y810850D01*
X461849Y809305D01*
X464705Y806449D01*
X466250Y802719D01*
X466250Y798681D01*
X464705Y794951D01*
X461849Y792095D01*
X458119Y790550D01*
X454081Y790550D01*
G37*
%LPD*%
%LPC*%
G36*
X339781Y790550D02*
X339781Y790550D01*
X336051Y792095D01*
X333195Y794951D01*
X331650Y798681D01*
X331650Y802719D01*
X333195Y806449D01*
X336051Y809305D01*
X339781Y810850D01*
X343819Y810850D01*
X347549Y809305D01*
X350405Y806449D01*
X351950Y802719D01*
X351950Y798681D01*
X350405Y794951D01*
X347549Y792095D01*
X343819Y790550D01*
X339781Y790550D01*
G37*
%LPD*%
%LPC*%
G36*
X454081Y765150D02*
X454081Y765150D01*
X450351Y766695D01*
X447495Y769551D01*
X445950Y773281D01*
X445950Y777319D01*
X447495Y781049D01*
X450351Y783905D01*
X454081Y785450D01*
X458119Y785450D01*
X461849Y783905D01*
X464705Y781049D01*
X466250Y777319D01*
X466250Y773281D01*
X464705Y769551D01*
X461849Y766695D01*
X458119Y765150D01*
X454081Y765150D01*
G37*
%LPD*%
%LPC*%
G36*
X415981Y409550D02*
X415981Y409550D01*
X412251Y411095D01*
X409395Y413951D01*
X407850Y417681D01*
X407850Y421719D01*
X409395Y425449D01*
X412251Y428305D01*
X415981Y429850D01*
X420019Y429850D01*
X423749Y428305D01*
X426605Y425449D01*
X428150Y421719D01*
X428150Y417681D01*
X426605Y413951D01*
X423749Y411095D01*
X420019Y409550D01*
X415981Y409550D01*
G37*
%LPD*%
%LPC*%
G36*
X390581Y409550D02*
X390581Y409550D01*
X386851Y411095D01*
X383995Y413951D01*
X382450Y417681D01*
X382450Y421719D01*
X383995Y425449D01*
X386851Y428305D01*
X390581Y429850D01*
X394619Y429850D01*
X398349Y428305D01*
X401205Y425449D01*
X402750Y421719D01*
X402750Y417681D01*
X401205Y413951D01*
X398349Y411095D01*
X394619Y409550D01*
X390581Y409550D01*
G37*
%LPD*%
%LPC*%
G36*
X365181Y409550D02*
X365181Y409550D01*
X361451Y411095D01*
X358595Y413951D01*
X357050Y417681D01*
X357050Y421719D01*
X358595Y425449D01*
X361451Y428305D01*
X365181Y429850D01*
X369219Y429850D01*
X372949Y428305D01*
X375805Y425449D01*
X377350Y421719D01*
X377350Y417681D01*
X375805Y413951D01*
X372949Y411095D01*
X369219Y409550D01*
X365181Y409550D01*
G37*
%LPD*%
%LPC*%
G36*
X339781Y409550D02*
X339781Y409550D01*
X336051Y411095D01*
X333195Y413951D01*
X331650Y417681D01*
X331650Y421719D01*
X333195Y425449D01*
X336051Y428305D01*
X339781Y429850D01*
X343819Y429850D01*
X347549Y428305D01*
X350405Y425449D01*
X351950Y421719D01*
X351950Y417681D01*
X350405Y413951D01*
X347549Y411095D01*
X343819Y409550D01*
X339781Y409550D01*
G37*
%LPD*%
%LPC*%
G36*
X382849Y931249D02*
X382849Y931249D01*
X382849Y934275D01*
X390098Y934275D01*
X390201Y934247D01*
X390319Y934235D01*
X390437Y934222D01*
X390442Y934223D01*
X390446Y934223D01*
X390561Y934249D01*
X390678Y934275D01*
X390681Y934277D01*
X390685Y934278D01*
X390786Y934339D01*
X390889Y934401D01*
X390892Y934404D01*
X390895Y934406D01*
X390971Y934496D01*
X391049Y934588D01*
X391050Y934592D01*
X391053Y934595D01*
X391096Y934705D01*
X391141Y934816D01*
X391141Y934821D01*
X391143Y934824D01*
X391143Y934838D01*
X391159Y934982D01*
X391159Y937164D01*
X391156Y937184D01*
X391158Y937203D01*
X391136Y937305D01*
X391120Y937407D01*
X391110Y937424D01*
X391106Y937444D01*
X391053Y937533D01*
X391004Y937624D01*
X390990Y937638D01*
X390980Y937655D01*
X390901Y937722D01*
X390826Y937794D01*
X390808Y937802D01*
X390793Y937815D01*
X390697Y937854D01*
X390603Y937897D01*
X390583Y937899D01*
X390565Y937907D01*
X390398Y937925D01*
X371747Y937925D01*
X369975Y939697D01*
X369975Y945203D01*
X371747Y946975D01*
X390953Y946975D01*
X392725Y945203D01*
X392725Y944325D01*
X392739Y944234D01*
X392747Y944144D01*
X392759Y944114D01*
X392764Y944082D01*
X392807Y944001D01*
X392843Y943917D01*
X392869Y943885D01*
X392880Y943864D01*
X392903Y943842D01*
X392948Y943786D01*
X394170Y942564D01*
X394244Y942511D01*
X394314Y942451D01*
X394344Y942439D01*
X394370Y942420D01*
X394457Y942393D01*
X394542Y942359D01*
X394583Y942355D01*
X394605Y942348D01*
X394637Y942349D01*
X394709Y942341D01*
X398345Y942341D01*
X401321Y939365D01*
X401321Y935155D01*
X398345Y932179D01*
X394135Y932179D01*
X394023Y932292D01*
X393983Y932321D01*
X393949Y932357D01*
X393920Y932373D01*
X393914Y932378D01*
X393883Y932392D01*
X393823Y932435D01*
X393776Y932450D01*
X393732Y932474D01*
X393695Y932480D01*
X393691Y932482D01*
X393673Y932484D01*
X393659Y932486D01*
X393588Y932508D01*
X393538Y932507D01*
X393489Y932515D01*
X393449Y932508D01*
X393447Y932509D01*
X393437Y932507D01*
X393416Y932503D01*
X393342Y932501D01*
X393295Y932484D01*
X393246Y932477D01*
X393209Y932457D01*
X393206Y932456D01*
X393196Y932450D01*
X393181Y932442D01*
X393111Y932417D01*
X393072Y932386D01*
X393028Y932363D01*
X392999Y932333D01*
X392995Y932330D01*
X392980Y932313D01*
X392977Y932310D01*
X392919Y932263D01*
X392892Y932221D01*
X392858Y932186D01*
X392841Y932150D01*
X392835Y932143D01*
X392824Y932115D01*
X392786Y932056D01*
X392774Y932008D01*
X392753Y931963D01*
X392749Y931929D01*
X392743Y931915D01*
X392737Y931863D01*
X392726Y931818D01*
X392729Y931784D01*
X392725Y931748D01*
X392725Y931724D01*
X392724Y931719D01*
X392725Y931715D01*
X392725Y931249D01*
X382849Y931249D01*
G37*
%LPD*%
%LPC*%
G36*
X609019Y883411D02*
X609019Y883411D01*
X606043Y886387D01*
X606043Y890597D01*
X609019Y893573D01*
X613229Y893573D01*
X615067Y891735D01*
X615083Y891723D01*
X615095Y891707D01*
X615183Y891651D01*
X615266Y891591D01*
X615285Y891585D01*
X615302Y891574D01*
X615403Y891549D01*
X615501Y891519D01*
X615521Y891519D01*
X615541Y891514D01*
X615644Y891522D01*
X615747Y891525D01*
X615766Y891532D01*
X615786Y891533D01*
X615881Y891574D01*
X615978Y891609D01*
X615994Y891622D01*
X616012Y891630D01*
X616143Y891735D01*
X616981Y892573D01*
X638819Y892573D01*
X639712Y891680D01*
X639712Y884320D01*
X638819Y883427D01*
X616981Y883427D01*
X616088Y884320D01*
X616088Y884433D01*
X616077Y884504D01*
X616075Y884576D01*
X616057Y884625D01*
X616049Y884676D01*
X616015Y884739D01*
X615990Y884807D01*
X615958Y884847D01*
X615933Y884893D01*
X615881Y884943D01*
X615837Y884999D01*
X615793Y885027D01*
X615755Y885063D01*
X615690Y885093D01*
X615630Y885132D01*
X615579Y885144D01*
X615532Y885166D01*
X615461Y885174D01*
X615391Y885192D01*
X615339Y885188D01*
X615288Y885193D01*
X615217Y885178D01*
X615146Y885173D01*
X615098Y885152D01*
X615047Y885141D01*
X614986Y885104D01*
X614920Y885076D01*
X614864Y885032D01*
X614836Y885015D01*
X614821Y884997D01*
X614789Y884972D01*
X613229Y883411D01*
X609019Y883411D01*
G37*
%LPD*%
%LPC*%
G36*
X720271Y933703D02*
X720271Y933703D01*
X718818Y935156D01*
X718802Y935168D01*
X718790Y935184D01*
X718702Y935240D01*
X718619Y935300D01*
X718600Y935306D01*
X718583Y935317D01*
X718482Y935342D01*
X718384Y935372D01*
X718364Y935372D01*
X718344Y935377D01*
X718241Y935369D01*
X718138Y935366D01*
X718119Y935359D01*
X718099Y935358D01*
X718004Y935317D01*
X717907Y935282D01*
X717891Y935269D01*
X717873Y935261D01*
X717742Y935156D01*
X716813Y934227D01*
X694975Y934227D01*
X694082Y935120D01*
X694082Y942480D01*
X694975Y943373D01*
X716813Y943373D01*
X717758Y942428D01*
X717774Y942416D01*
X717786Y942400D01*
X717874Y942344D01*
X717958Y942284D01*
X717976Y942278D01*
X717993Y942267D01*
X718094Y942242D01*
X718193Y942212D01*
X718213Y942212D01*
X718232Y942207D01*
X718335Y942215D01*
X718438Y942218D01*
X718457Y942225D01*
X718477Y942226D01*
X718572Y942267D01*
X718669Y942302D01*
X718685Y942315D01*
X718703Y942323D01*
X718834Y942428D01*
X720271Y943865D01*
X724481Y943865D01*
X727457Y940889D01*
X727457Y936679D01*
X724481Y933703D01*
X720271Y933703D01*
G37*
%LPD*%
%LPC*%
G36*
X561775Y907795D02*
X561775Y907795D01*
X558799Y910771D01*
X558799Y914981D01*
X561775Y917957D01*
X565985Y917957D01*
X566934Y917008D01*
X566950Y916996D01*
X566962Y916980D01*
X567050Y916924D01*
X567133Y916864D01*
X567152Y916858D01*
X567169Y916847D01*
X567270Y916822D01*
X567368Y916792D01*
X567388Y916792D01*
X567408Y916787D01*
X567511Y916795D01*
X567614Y916798D01*
X567633Y916805D01*
X567653Y916806D01*
X567748Y916847D01*
X567845Y916882D01*
X567861Y916895D01*
X567879Y916903D01*
X568010Y917008D01*
X568975Y917973D01*
X590813Y917973D01*
X591706Y917080D01*
X591706Y909720D01*
X590813Y908827D01*
X568975Y908827D01*
X568534Y909268D01*
X568518Y909280D01*
X568506Y909296D01*
X568418Y909352D01*
X568334Y909412D01*
X568316Y909418D01*
X568299Y909429D01*
X568198Y909454D01*
X568099Y909484D01*
X568079Y909484D01*
X568060Y909489D01*
X567957Y909481D01*
X567854Y909478D01*
X567835Y909471D01*
X567815Y909470D01*
X567720Y909429D01*
X567623Y909394D01*
X567607Y909381D01*
X567589Y909373D01*
X567458Y909268D01*
X565985Y907795D01*
X561775Y907795D01*
G37*
%LPD*%
%LPC*%
G36*
X561775Y921511D02*
X561775Y921511D01*
X558799Y924487D01*
X558799Y928697D01*
X561775Y931673D01*
X565985Y931673D01*
X567442Y930216D01*
X567458Y930204D01*
X567470Y930188D01*
X567558Y930132D01*
X567641Y930072D01*
X567660Y930066D01*
X567677Y930055D01*
X567778Y930030D01*
X567876Y930000D01*
X567896Y930000D01*
X567916Y929995D01*
X568019Y930003D01*
X568122Y930006D01*
X568141Y930013D01*
X568161Y930014D01*
X568256Y930055D01*
X568353Y930090D01*
X568369Y930103D01*
X568387Y930111D01*
X568518Y930216D01*
X568975Y930673D01*
X590813Y930673D01*
X591706Y929780D01*
X591706Y922420D01*
X590813Y921527D01*
X568975Y921527D01*
X568026Y922476D01*
X568010Y922488D01*
X567998Y922504D01*
X567910Y922560D01*
X567826Y922620D01*
X567808Y922626D01*
X567791Y922637D01*
X567690Y922662D01*
X567591Y922692D01*
X567571Y922692D01*
X567552Y922697D01*
X567449Y922689D01*
X567346Y922686D01*
X567327Y922679D01*
X567307Y922678D01*
X567212Y922637D01*
X567115Y922602D01*
X567099Y922589D01*
X567081Y922581D01*
X566950Y922476D01*
X565985Y921511D01*
X561775Y921511D01*
G37*
%LPD*%
%LPC*%
G36*
X688267Y918463D02*
X688267Y918463D01*
X685291Y921439D01*
X685291Y925649D01*
X688267Y928625D01*
X691903Y928625D01*
X691994Y928639D01*
X692084Y928647D01*
X692114Y928659D01*
X692146Y928664D01*
X692227Y928707D01*
X692311Y928743D01*
X692343Y928769D01*
X692364Y928780D01*
X692386Y928803D01*
X692442Y928848D01*
X692473Y928879D01*
X693321Y928879D01*
X693341Y928882D01*
X693360Y928880D01*
X693462Y928902D01*
X693564Y928918D01*
X693581Y928928D01*
X693601Y928932D01*
X693690Y928985D01*
X693781Y929034D01*
X693795Y929048D01*
X693812Y929058D01*
X693879Y929137D01*
X693951Y929212D01*
X693959Y929230D01*
X693972Y929245D01*
X694011Y929341D01*
X694054Y929435D01*
X694056Y929455D01*
X694064Y929473D01*
X694082Y929640D01*
X694082Y929780D01*
X694975Y930673D01*
X716813Y930673D01*
X717706Y929780D01*
X717706Y922420D01*
X716813Y921527D01*
X695856Y921527D01*
X695766Y921513D01*
X695675Y921505D01*
X695645Y921493D01*
X695613Y921488D01*
X695532Y921445D01*
X695449Y921409D01*
X695416Y921383D01*
X695396Y921372D01*
X695374Y921349D01*
X695318Y921304D01*
X692477Y918463D01*
X688267Y918463D01*
G37*
%LPD*%
%LPC*%
G36*
X767515Y895603D02*
X767515Y895603D01*
X766443Y896675D01*
X766427Y896687D01*
X766415Y896703D01*
X766327Y896759D01*
X766244Y896819D01*
X766225Y896825D01*
X766208Y896836D01*
X766107Y896861D01*
X766008Y896891D01*
X765989Y896891D01*
X765969Y896896D01*
X765866Y896888D01*
X765763Y896885D01*
X765744Y896878D01*
X765724Y896877D01*
X765629Y896836D01*
X765532Y896801D01*
X765516Y896788D01*
X765498Y896780D01*
X765367Y896675D01*
X764819Y896127D01*
X742981Y896127D01*
X742088Y897020D01*
X742088Y904380D01*
X742981Y905273D01*
X764819Y905273D01*
X765383Y904709D01*
X765399Y904697D01*
X765411Y904681D01*
X765499Y904625D01*
X765582Y904565D01*
X765601Y904559D01*
X765618Y904548D01*
X765719Y904523D01*
X765818Y904493D01*
X765837Y904493D01*
X765857Y904488D01*
X765960Y904496D01*
X766063Y904499D01*
X766082Y904506D01*
X766102Y904507D01*
X766197Y904548D01*
X766294Y904583D01*
X766310Y904596D01*
X766328Y904604D01*
X766459Y904709D01*
X767515Y905765D01*
X771725Y905765D01*
X774701Y902789D01*
X774701Y898579D01*
X771725Y895603D01*
X767515Y895603D01*
G37*
%LPD*%
%LPC*%
G36*
X371747Y887125D02*
X371747Y887125D01*
X369975Y888897D01*
X369975Y894403D01*
X371747Y896175D01*
X390953Y896175D01*
X392725Y894403D01*
X392725Y888897D01*
X390953Y887125D01*
X371747Y887125D01*
G37*
%LPD*%
%LPC*%
G36*
X54623Y642723D02*
X54623Y642723D01*
X54623Y650345D01*
X61621Y650345D01*
X63387Y649993D01*
X65052Y649304D01*
X66550Y648303D01*
X67823Y647030D01*
X68824Y645532D01*
X69513Y643867D01*
X69741Y642723D01*
X54623Y642723D01*
G37*
%LPD*%
%LPC*%
G36*
X54623Y617323D02*
X54623Y617323D01*
X54623Y624945D01*
X61621Y624945D01*
X63387Y624593D01*
X65052Y623904D01*
X66550Y622903D01*
X67823Y621630D01*
X68824Y620132D01*
X69513Y618467D01*
X69741Y617323D01*
X54623Y617323D01*
G37*
%LPD*%
%LPC*%
G36*
X36459Y642723D02*
X36459Y642723D01*
X36687Y643867D01*
X37376Y645532D01*
X38377Y647030D01*
X39650Y648303D01*
X41148Y649304D01*
X42813Y649993D01*
X44579Y650345D01*
X51577Y650345D01*
X51577Y642723D01*
X36459Y642723D01*
G37*
%LPD*%
%LPC*%
G36*
X36459Y617323D02*
X36459Y617323D01*
X36687Y618467D01*
X37376Y620132D01*
X38377Y621630D01*
X39650Y622903D01*
X41148Y623904D01*
X42813Y624593D01*
X44579Y624945D01*
X51577Y624945D01*
X51577Y617323D01*
X36459Y617323D01*
G37*
%LPD*%
%LPC*%
G36*
X54623Y632055D02*
X54623Y632055D01*
X54623Y639677D01*
X69741Y639677D01*
X69513Y638533D01*
X68824Y636868D01*
X67823Y635370D01*
X66550Y634097D01*
X65052Y633096D01*
X63387Y632407D01*
X61621Y632055D01*
X54623Y632055D01*
G37*
%LPD*%
%LPC*%
G36*
X54623Y606655D02*
X54623Y606655D01*
X54623Y614277D01*
X69741Y614277D01*
X69513Y613133D01*
X68824Y611468D01*
X67823Y609970D01*
X66550Y608697D01*
X65052Y607696D01*
X63387Y607007D01*
X61621Y606655D01*
X54623Y606655D01*
G37*
%LPD*%
%LPC*%
G36*
X44579Y632055D02*
X44579Y632055D01*
X42813Y632407D01*
X41148Y633096D01*
X39650Y634097D01*
X38377Y635370D01*
X37376Y636868D01*
X36687Y638533D01*
X36459Y639677D01*
X51577Y639677D01*
X51577Y632055D01*
X44579Y632055D01*
G37*
%LPD*%
%LPC*%
G36*
X44579Y606655D02*
X44579Y606655D01*
X42813Y607007D01*
X41148Y607696D01*
X39650Y608697D01*
X38377Y609970D01*
X37376Y611468D01*
X36687Y613133D01*
X36459Y614277D01*
X51577Y614277D01*
X51577Y606655D01*
X44579Y606655D01*
G37*
%LPD*%
%LPC*%
G36*
X85623Y863823D02*
X85623Y863823D01*
X85623Y876889D01*
X86471Y876720D01*
X87950Y876108D01*
X89282Y875218D01*
X90414Y874086D01*
X91304Y872754D01*
X91916Y871275D01*
X92229Y869705D01*
X92229Y863823D01*
X85623Y863823D01*
G37*
%LPD*%
%LPC*%
G36*
X111023Y863823D02*
X111023Y863823D01*
X111023Y876889D01*
X111871Y876720D01*
X113350Y876108D01*
X114682Y875218D01*
X115814Y874086D01*
X116704Y872754D01*
X117316Y871275D01*
X117629Y869705D01*
X117629Y863823D01*
X111023Y863823D01*
G37*
%LPD*%
%LPC*%
G36*
X60223Y863823D02*
X60223Y863823D01*
X60223Y876889D01*
X61071Y876720D01*
X62550Y876108D01*
X63882Y875218D01*
X65014Y874086D01*
X65904Y872754D01*
X66516Y871275D01*
X66829Y869705D01*
X66829Y863823D01*
X60223Y863823D01*
G37*
%LPD*%
%LPC*%
G36*
X136423Y863823D02*
X136423Y863823D01*
X136423Y876889D01*
X137271Y876720D01*
X138750Y876108D01*
X140082Y875218D01*
X141214Y874086D01*
X142104Y872754D01*
X142716Y871275D01*
X143029Y869705D01*
X143029Y863823D01*
X136423Y863823D01*
G37*
%LPD*%
%LPC*%
G36*
X60223Y860777D02*
X60223Y860777D01*
X66829Y860777D01*
X66829Y854895D01*
X66516Y853325D01*
X65904Y851846D01*
X65014Y850514D01*
X63882Y849382D01*
X62550Y848492D01*
X61071Y847880D01*
X60223Y847711D01*
X60223Y860777D01*
G37*
%LPD*%
%LPC*%
G36*
X136423Y860777D02*
X136423Y860777D01*
X143029Y860777D01*
X143029Y854895D01*
X142716Y853325D01*
X142104Y851846D01*
X141214Y850514D01*
X140082Y849382D01*
X138750Y848492D01*
X137271Y847880D01*
X136423Y847711D01*
X136423Y860777D01*
G37*
%LPD*%
%LPC*%
G36*
X85623Y860777D02*
X85623Y860777D01*
X92229Y860777D01*
X92229Y854895D01*
X91916Y853325D01*
X91304Y851846D01*
X90414Y850514D01*
X89282Y849382D01*
X87950Y848492D01*
X86471Y847880D01*
X85623Y847711D01*
X85623Y860777D01*
G37*
%LPD*%
%LPC*%
G36*
X111023Y860777D02*
X111023Y860777D01*
X117629Y860777D01*
X117629Y854895D01*
X117316Y853325D01*
X116704Y851846D01*
X115814Y850514D01*
X114682Y849382D01*
X113350Y848492D01*
X111871Y847880D01*
X111023Y847711D01*
X111023Y860777D01*
G37*
%LPD*%
%LPC*%
G36*
X101371Y863823D02*
X101371Y863823D01*
X101371Y869705D01*
X101684Y871275D01*
X102296Y872754D01*
X103186Y874086D01*
X104318Y875218D01*
X105650Y876108D01*
X107129Y876720D01*
X107977Y876889D01*
X107977Y863823D01*
X101371Y863823D01*
G37*
%LPD*%
%LPC*%
G36*
X50571Y863823D02*
X50571Y863823D01*
X50571Y869705D01*
X50884Y871275D01*
X51496Y872754D01*
X52386Y874086D01*
X53518Y875218D01*
X54850Y876108D01*
X56329Y876720D01*
X57177Y876889D01*
X57177Y863823D01*
X50571Y863823D01*
G37*
%LPD*%
%LPC*%
G36*
X126771Y863823D02*
X126771Y863823D01*
X126771Y869705D01*
X127084Y871275D01*
X127696Y872754D01*
X128586Y874086D01*
X129718Y875218D01*
X131050Y876108D01*
X132529Y876720D01*
X133377Y876889D01*
X133377Y863823D01*
X126771Y863823D01*
G37*
%LPD*%
%LPC*%
G36*
X75971Y863823D02*
X75971Y863823D01*
X75971Y869705D01*
X76284Y871275D01*
X76896Y872754D01*
X77786Y874086D01*
X78918Y875218D01*
X80250Y876108D01*
X81729Y876720D01*
X82577Y876889D01*
X82577Y863823D01*
X75971Y863823D01*
G37*
%LPD*%
%LPC*%
G36*
X56329Y847880D02*
X56329Y847880D01*
X54850Y848492D01*
X53518Y849382D01*
X52386Y850514D01*
X51496Y851846D01*
X50884Y853325D01*
X50571Y854895D01*
X50571Y860777D01*
X57177Y860777D01*
X57177Y847711D01*
X56329Y847880D01*
G37*
%LPD*%
%LPC*%
G36*
X81729Y847880D02*
X81729Y847880D01*
X80250Y848492D01*
X78918Y849382D01*
X77786Y850514D01*
X76896Y851846D01*
X76284Y853325D01*
X75971Y854895D01*
X75971Y860777D01*
X82577Y860777D01*
X82577Y847711D01*
X81729Y847880D01*
G37*
%LPD*%
%LPC*%
G36*
X107129Y847880D02*
X107129Y847880D01*
X105650Y848492D01*
X104318Y849382D01*
X103186Y850514D01*
X102296Y851846D01*
X101684Y853325D01*
X101371Y854895D01*
X101371Y860777D01*
X107977Y860777D01*
X107977Y847711D01*
X107129Y847880D01*
G37*
%LPD*%
%LPC*%
G36*
X132529Y847880D02*
X132529Y847880D01*
X131050Y848492D01*
X129718Y849382D01*
X128586Y850514D01*
X127696Y851846D01*
X127084Y853325D01*
X126771Y854895D01*
X126771Y860777D01*
X133377Y860777D01*
X133377Y847711D01*
X132529Y847880D01*
G37*
%LPD*%
%LPC*%
G36*
X44123Y220823D02*
X44123Y220823D01*
X44123Y228325D01*
X50403Y228325D01*
X50964Y228093D01*
X51393Y227664D01*
X51625Y227103D01*
X51625Y220823D01*
X44123Y220823D01*
G37*
%LPD*%
%LPC*%
G36*
X33575Y220823D02*
X33575Y220823D01*
X33575Y227103D01*
X33807Y227664D01*
X34236Y228093D01*
X34797Y228325D01*
X41077Y228325D01*
X41077Y220823D01*
X33575Y220823D01*
G37*
%LPD*%
%LPC*%
G36*
X44123Y210275D02*
X44123Y210275D01*
X44123Y217777D01*
X51625Y217777D01*
X51625Y211497D01*
X51393Y210936D01*
X50964Y210507D01*
X50403Y210275D01*
X44123Y210275D01*
G37*
%LPD*%
%LPC*%
G36*
X34797Y210275D02*
X34797Y210275D01*
X34236Y210507D01*
X33807Y210936D01*
X33575Y211497D01*
X33575Y217777D01*
X41077Y217777D01*
X41077Y210275D01*
X34797Y210275D01*
G37*
%LPD*%
%LPC*%
G36*
X707417Y864123D02*
X707417Y864123D01*
X707417Y867173D01*
X716484Y867173D01*
X717045Y866941D01*
X717474Y866512D01*
X717706Y865951D01*
X717706Y864123D01*
X707417Y864123D01*
G37*
%LPD*%
%LPC*%
G36*
X581417Y864123D02*
X581417Y864123D01*
X581417Y867173D01*
X590484Y867173D01*
X591045Y866941D01*
X591474Y866512D01*
X591706Y865951D01*
X591706Y864123D01*
X581417Y864123D01*
G37*
%LPD*%
%LPC*%
G36*
X568082Y864123D02*
X568082Y864123D01*
X568082Y865951D01*
X568314Y866512D01*
X568743Y866941D01*
X569304Y867173D01*
X578371Y867173D01*
X578371Y864123D01*
X568082Y864123D01*
G37*
%LPD*%
%LPC*%
G36*
X694082Y864123D02*
X694082Y864123D01*
X694082Y865951D01*
X694314Y866512D01*
X694743Y866941D01*
X695304Y867173D01*
X704371Y867173D01*
X704371Y864123D01*
X694082Y864123D01*
G37*
%LPD*%
%LPC*%
G36*
X695304Y858027D02*
X695304Y858027D01*
X694743Y858259D01*
X694314Y858688D01*
X694082Y859249D01*
X694082Y861077D01*
X704371Y861077D01*
X704371Y858027D01*
X695304Y858027D01*
G37*
%LPD*%
%LPC*%
G36*
X569304Y858027D02*
X569304Y858027D01*
X568743Y858259D01*
X568314Y858688D01*
X568082Y859249D01*
X568082Y861077D01*
X578371Y861077D01*
X578371Y858027D01*
X569304Y858027D01*
G37*
%LPD*%
%LPC*%
G36*
X581417Y858027D02*
X581417Y858027D01*
X581417Y861077D01*
X591706Y861077D01*
X591706Y859249D01*
X591474Y858688D01*
X591045Y858259D01*
X590484Y858027D01*
X581417Y858027D01*
G37*
%LPD*%
%LPC*%
G36*
X707417Y858027D02*
X707417Y858027D01*
X707417Y861077D01*
X717706Y861077D01*
X717706Y859249D01*
X717474Y858688D01*
X717045Y858259D01*
X716484Y858027D01*
X707417Y858027D01*
G37*
%LPD*%
%LPC*%
G36*
X382849Y855049D02*
X382849Y855049D01*
X382849Y858075D01*
X390098Y858075D01*
X390868Y857869D01*
X391557Y857470D01*
X392120Y856907D01*
X392519Y856218D01*
X392725Y855448D01*
X392725Y855049D01*
X382849Y855049D01*
G37*
%LPD*%
%LPC*%
G36*
X369975Y931249D02*
X369975Y931249D01*
X369975Y931648D01*
X370181Y932418D01*
X370580Y933107D01*
X371143Y933670D01*
X371832Y934069D01*
X372602Y934275D01*
X379851Y934275D01*
X379851Y931249D01*
X369975Y931249D01*
G37*
%LPD*%
%LPC*%
G36*
X369975Y855049D02*
X369975Y855049D01*
X369975Y855448D01*
X370181Y856218D01*
X370580Y856907D01*
X371143Y857470D01*
X371832Y857869D01*
X372602Y858075D01*
X379851Y858075D01*
X379851Y855049D01*
X369975Y855049D01*
G37*
%LPD*%
%LPC*%
G36*
X382849Y899825D02*
X382849Y899825D01*
X382849Y902851D01*
X392725Y902851D01*
X392725Y902452D01*
X392519Y901682D01*
X392120Y900993D01*
X391557Y900430D01*
X390868Y900031D01*
X390098Y899825D01*
X382849Y899825D01*
G37*
%LPD*%
%LPC*%
G36*
X382849Y925225D02*
X382849Y925225D01*
X382849Y928251D01*
X392725Y928251D01*
X392725Y927852D01*
X392519Y927082D01*
X392120Y926393D01*
X391557Y925830D01*
X390868Y925431D01*
X390098Y925225D01*
X382849Y925225D01*
G37*
%LPD*%
%LPC*%
G36*
X382849Y849025D02*
X382849Y849025D01*
X382849Y852051D01*
X392725Y852051D01*
X392725Y851652D01*
X392519Y850882D01*
X392120Y850193D01*
X391557Y849630D01*
X390868Y849231D01*
X390098Y849025D01*
X382849Y849025D01*
G37*
%LPD*%
%LPC*%
G36*
X372602Y925225D02*
X372602Y925225D01*
X371832Y925431D01*
X371143Y925830D01*
X370580Y926393D01*
X370181Y927082D01*
X369975Y927852D01*
X369975Y928251D01*
X379851Y928251D01*
X379851Y925225D01*
X372602Y925225D01*
G37*
%LPD*%
%LPC*%
G36*
X372602Y899825D02*
X372602Y899825D01*
X371832Y900031D01*
X371143Y900430D01*
X370580Y900993D01*
X370181Y901682D01*
X369975Y902452D01*
X369975Y902851D01*
X379851Y902851D01*
X379851Y899825D01*
X372602Y899825D01*
G37*
%LPD*%
%LPC*%
G36*
X372602Y849025D02*
X372602Y849025D01*
X371832Y849231D01*
X371143Y849630D01*
X370580Y850193D01*
X370181Y850882D01*
X369975Y851652D01*
X369975Y852051D01*
X379851Y852051D01*
X379851Y849025D01*
X372602Y849025D01*
G37*
%LPD*%
%LPC*%
G36*
X84099Y862299D02*
X84099Y862299D01*
X84099Y862301D01*
X84101Y862301D01*
X84101Y862299D01*
X84099Y862299D01*
G37*
%LPD*%
%LPC*%
G36*
X134899Y862299D02*
X134899Y862299D01*
X134899Y862301D01*
X134901Y862301D01*
X134901Y862299D01*
X134899Y862299D01*
G37*
%LPD*%
%LPC*%
G36*
X109499Y862299D02*
X109499Y862299D01*
X109499Y862301D01*
X109501Y862301D01*
X109501Y862299D01*
X109499Y862299D01*
G37*
%LPD*%
%LPC*%
G36*
X58699Y862299D02*
X58699Y862299D01*
X58699Y862301D01*
X58701Y862301D01*
X58701Y862299D01*
X58699Y862299D01*
G37*
%LPD*%
%LPC*%
G36*
X53099Y641199D02*
X53099Y641199D01*
X53099Y641201D01*
X53101Y641201D01*
X53101Y641199D01*
X53099Y641199D01*
G37*
%LPD*%
%LPC*%
G36*
X53099Y615799D02*
X53099Y615799D01*
X53099Y615801D01*
X53101Y615801D01*
X53101Y615799D01*
X53099Y615799D01*
G37*
%LPD*%
%LPC*%
G36*
X705893Y862599D02*
X705893Y862599D01*
X705893Y862601D01*
X705895Y862601D01*
X705895Y862599D01*
X705893Y862599D01*
G37*
%LPD*%
%LPC*%
G36*
X579893Y862599D02*
X579893Y862599D01*
X579893Y862601D01*
X579895Y862601D01*
X579895Y862599D01*
X579893Y862599D01*
G37*
%LPD*%
%LPC*%
G36*
X42599Y219299D02*
X42599Y219299D01*
X42599Y219301D01*
X42601Y219301D01*
X42601Y219299D01*
X42599Y219299D01*
G37*
%LPD*%
D10*
X341800Y800700D03*
X367200Y800700D03*
X392600Y800700D03*
X418000Y800700D03*
X341800Y419700D03*
X367200Y419700D03*
X392600Y419700D03*
X418000Y419700D03*
X456100Y800700D03*
X456100Y775300D03*
D11*
X121000Y710200D03*
X121000Y510200D03*
X701000Y710200D03*
X701000Y510200D03*
D12*
X42600Y219300D03*
X77600Y219300D03*
D13*
X73400Y294500D03*
X73400Y275500D03*
X502500Y904200D03*
X502500Y885200D03*
X51700Y715200D03*
X51700Y734200D03*
D14*
X302100Y875000D03*
X283100Y875000D03*
X214400Y874700D03*
X195400Y874700D03*
X303600Y934700D03*
X284600Y934700D03*
X212800Y934700D03*
X193800Y934700D03*
D15*
X761380Y488800D02*
X776620Y488800D01*
X776620Y514200D02*
X761380Y514200D01*
X761380Y539600D02*
X776620Y539600D01*
X776620Y565000D02*
X761380Y565000D01*
X761380Y590400D02*
X776620Y590400D01*
X776620Y615800D02*
X761380Y615800D01*
X761380Y641200D02*
X776620Y641200D01*
X776620Y666600D02*
X761380Y666600D01*
X60720Y488800D02*
X45480Y488800D01*
X45480Y514200D02*
X60720Y514200D01*
X60720Y539600D02*
X45480Y539600D01*
X45480Y565000D02*
X60720Y565000D01*
X60720Y590400D02*
X45480Y590400D01*
X45480Y615800D02*
X60720Y615800D01*
X60720Y641200D02*
X45480Y641200D01*
X45480Y666600D02*
X60720Y666600D01*
D16*
X58700Y855696D02*
X58700Y868904D01*
X84100Y868904D02*
X84100Y855696D01*
X84100Y931896D02*
X84100Y945104D01*
X58700Y945104D02*
X58700Y931896D01*
X109500Y868904D02*
X109500Y855696D01*
X134900Y855696D02*
X134900Y868904D01*
X109500Y931896D02*
X109500Y945104D01*
X134900Y945104D02*
X134900Y931896D01*
D17*
X53600Y803000D03*
X63100Y781000D03*
X44100Y781000D03*
D18*
X579894Y938800D03*
X579894Y926100D03*
X579894Y913400D03*
X579894Y900700D03*
X579894Y888000D03*
X579894Y875300D03*
X579894Y862600D03*
X627900Y862600D03*
X627900Y875300D03*
X627900Y888000D03*
X627900Y900700D03*
X627900Y913400D03*
X627900Y926100D03*
X627900Y938800D03*
X705894Y938800D03*
X705894Y926100D03*
X705894Y913400D03*
X705894Y900700D03*
X705894Y888000D03*
X705894Y875300D03*
X705894Y862600D03*
X753900Y862600D03*
X753900Y875300D03*
X753900Y888000D03*
X753900Y900700D03*
X753900Y913400D03*
X753900Y926100D03*
X753900Y938800D03*
D19*
X389700Y940950D02*
X373000Y940950D01*
X373000Y943950D01*
X389700Y943950D01*
X389700Y940950D01*
X389700Y943800D02*
X373000Y943800D01*
X373000Y928250D02*
X389700Y928250D01*
X373000Y928250D02*
X373000Y931250D01*
X389700Y931250D01*
X389700Y928250D01*
X389700Y931100D02*
X373000Y931100D01*
X373000Y915550D02*
X389700Y915550D01*
X373000Y915550D02*
X373000Y918550D01*
X389700Y918550D01*
X389700Y915550D01*
X389700Y918400D02*
X373000Y918400D01*
X373000Y902850D02*
X389700Y902850D01*
X373000Y902850D02*
X373000Y905850D01*
X389700Y905850D01*
X389700Y902850D01*
X389700Y905700D02*
X373000Y905700D01*
X373000Y890150D02*
X389700Y890150D01*
X373000Y890150D02*
X373000Y893150D01*
X389700Y893150D01*
X389700Y890150D01*
X389700Y893000D02*
X373000Y893000D01*
X373000Y877450D02*
X389700Y877450D01*
X373000Y877450D02*
X373000Y880450D01*
X389700Y880450D01*
X389700Y877450D01*
X389700Y880300D02*
X373000Y880300D01*
X373000Y864750D02*
X389700Y864750D01*
X373000Y864750D02*
X373000Y867750D01*
X389700Y867750D01*
X389700Y864750D01*
X389700Y867600D02*
X373000Y867600D01*
X373000Y852050D02*
X389700Y852050D01*
X373000Y852050D02*
X373000Y855050D01*
X389700Y855050D01*
X389700Y852050D01*
X389700Y854900D02*
X373000Y854900D01*
X422500Y855050D02*
X439200Y855050D01*
X439200Y852050D01*
X422500Y852050D01*
X422500Y855050D01*
X422500Y854900D02*
X439200Y854900D01*
X439200Y867750D02*
X422500Y867750D01*
X439200Y867750D02*
X439200Y864750D01*
X422500Y864750D01*
X422500Y867750D01*
X422500Y867600D02*
X439200Y867600D01*
X439200Y880450D02*
X422500Y880450D01*
X439200Y880450D02*
X439200Y877450D01*
X422500Y877450D01*
X422500Y880450D01*
X422500Y880300D02*
X439200Y880300D01*
X439200Y893150D02*
X422500Y893150D01*
X439200Y893150D02*
X439200Y890150D01*
X422500Y890150D01*
X422500Y893150D01*
X422500Y893000D02*
X439200Y893000D01*
X439200Y905850D02*
X422500Y905850D01*
X439200Y905850D02*
X439200Y902850D01*
X422500Y902850D01*
X422500Y905850D01*
X422500Y905700D02*
X439200Y905700D01*
X439200Y918550D02*
X422500Y918550D01*
X439200Y918550D02*
X439200Y915550D01*
X422500Y915550D01*
X422500Y918550D01*
X422500Y918400D02*
X439200Y918400D01*
X439200Y931250D02*
X422500Y931250D01*
X439200Y931250D02*
X439200Y928250D01*
X422500Y928250D01*
X422500Y931250D01*
X422500Y931100D02*
X439200Y931100D01*
X439200Y943950D02*
X422500Y943950D01*
X439200Y943950D02*
X439200Y940950D01*
X422500Y940950D01*
X422500Y943950D01*
X422500Y943800D02*
X439200Y943800D01*
D20*
X563880Y926592D02*
X579120Y926592D01*
X579894Y926100D01*
D21*
X563880Y926592D03*
D20*
X563880Y912876D02*
X579120Y912876D01*
X579894Y913400D01*
D21*
X563880Y912876D03*
D20*
X614172Y874776D02*
X627888Y874776D01*
X614172Y874776D02*
X554736Y815340D01*
X409956Y815340D01*
X396240Y801624D01*
X393192Y801624D01*
X627888Y874776D02*
X627900Y875300D01*
X393192Y801624D02*
X392600Y800700D01*
X611124Y888492D02*
X627888Y888492D01*
X627900Y888000D01*
D21*
X611124Y888492D03*
D20*
X693420Y926592D02*
X705612Y926592D01*
X693420Y926592D02*
X690372Y923544D01*
X662940Y812292D02*
X649224Y798576D01*
X705894Y926100D02*
X705612Y926592D01*
D21*
X690372Y923544D03*
X662940Y812292D03*
X649224Y798576D03*
D20*
X670560Y912876D02*
X705612Y912876D01*
X705894Y913400D01*
D21*
X670560Y912876D03*
D20*
X739140Y874776D02*
X752856Y874776D01*
X739140Y874776D02*
X725424Y861060D01*
X725424Y851916D01*
X649224Y775716D01*
X752856Y874776D02*
X753900Y875300D01*
D21*
X649224Y775716D03*
D20*
X740664Y888492D02*
X752856Y888492D01*
X740664Y888492D02*
X722376Y870204D01*
X722376Y858012D01*
X655320Y790956D01*
X752856Y888492D02*
X753900Y888000D01*
D21*
X655320Y790956D03*
D20*
X51816Y714756D02*
X51816Y691896D01*
X32004Y672084D01*
X32004Y606552D01*
X47244Y591312D01*
X51816Y591312D01*
X51816Y714756D02*
X51700Y715200D01*
X51816Y591312D02*
X53100Y590400D01*
X629412Y938784D02*
X684276Y938784D01*
X693420Y947928D01*
X731520Y947928D01*
X740664Y938784D01*
X752856Y938784D01*
X629412Y938784D02*
X627900Y938800D01*
X752856Y938784D02*
X753900Y938800D01*
X214884Y932688D02*
X214884Y903732D01*
X214884Y874776D01*
X214884Y932688D02*
X213360Y934212D01*
X214884Y874776D02*
X214400Y874700D01*
X213360Y934212D02*
X212800Y934700D01*
X301752Y932688D02*
X301752Y917448D01*
X301752Y903732D01*
X301752Y876300D01*
X301752Y932688D02*
X303276Y934212D01*
X301752Y876300D02*
X302100Y875000D01*
X303276Y934212D02*
X303600Y934700D01*
X382524Y917448D02*
X391668Y917448D01*
X411480Y937260D01*
X416052Y937260D01*
X420624Y941832D01*
X429768Y941832D01*
X382524Y917448D02*
X381350Y917050D01*
X429768Y941832D02*
X430850Y942450D01*
X381000Y917448D02*
X301752Y917448D01*
X381000Y917448D02*
X381350Y917050D01*
X301752Y903732D02*
X214884Y903732D01*
X603504Y938784D02*
X627888Y938784D01*
X603504Y938784D02*
X594360Y947928D01*
X446532Y947928D01*
X440436Y941832D01*
X431292Y941832D01*
X627888Y938784D02*
X627900Y938800D01*
X431292Y941832D02*
X430850Y942450D01*
X214884Y867156D02*
X208788Y861060D01*
X214884Y867156D02*
X214884Y873252D01*
X214400Y874700D01*
D21*
X208788Y861060D03*
D20*
X580644Y938784D02*
X594360Y938784D01*
X595884Y937260D01*
X580644Y938784D02*
X579894Y938800D01*
D21*
X595884Y937260D03*
D20*
X592836Y900684D02*
X580644Y900684D01*
X592836Y900684D02*
X595884Y903732D01*
X580644Y900684D02*
X579894Y900700D01*
D21*
X595884Y903732D03*
D20*
X629412Y862584D02*
X644652Y847344D01*
X629412Y862584D02*
X627900Y862600D01*
D21*
X644652Y847344D03*
D20*
X641604Y900684D02*
X629412Y900684D01*
X641604Y900684D02*
X644652Y897636D01*
X629412Y900684D02*
X627900Y900700D01*
D21*
X644652Y897636D03*
D20*
X707136Y938784D02*
X722376Y938784D01*
X707136Y938784D02*
X705894Y938800D01*
D21*
X722376Y938784D03*
D20*
X722376Y900684D02*
X707136Y900684D01*
X705894Y900700D01*
D21*
X722376Y900684D03*
D20*
X754380Y862584D02*
X754380Y678180D01*
X746760Y670560D01*
X746760Y658368D01*
X763524Y641604D01*
X768096Y641604D01*
X754380Y862584D02*
X753900Y862600D01*
X768096Y641604D02*
X769000Y641200D01*
X769620Y900684D02*
X754380Y900684D01*
X753900Y900700D01*
D21*
X769620Y900684D03*
D20*
X705612Y886968D02*
X705612Y876300D01*
X705894Y875300D01*
X705612Y886968D02*
X705894Y888000D01*
X754380Y914400D02*
X754380Y925068D01*
X754380Y914400D02*
X753900Y913400D01*
X754380Y925068D02*
X753900Y926100D01*
X719328Y888492D02*
X707136Y888492D01*
X719328Y888492D02*
X737616Y906780D01*
X737616Y909828D01*
X740664Y912876D01*
X752856Y912876D01*
X707136Y888492D02*
X705894Y888000D01*
X752856Y912876D02*
X753900Y913400D01*
X627888Y914400D02*
X627888Y925068D01*
X627888Y914400D02*
X627900Y913400D01*
X627888Y925068D02*
X627900Y926100D01*
X550164Y903732D02*
X502920Y903732D01*
X550164Y903732D02*
X565404Y888492D01*
X579120Y888492D01*
X502920Y903732D02*
X502500Y904200D01*
X579120Y888492D02*
X579894Y888000D01*
X580644Y886968D02*
X580644Y876300D01*
X579894Y875300D01*
X580644Y886968D02*
X579894Y888000D01*
X614172Y912876D02*
X627888Y912876D01*
X614172Y912876D02*
X595884Y894588D01*
X595884Y891540D01*
X592836Y888492D01*
X580644Y888492D01*
X627888Y912876D02*
X627900Y913400D01*
X580644Y888492D02*
X579894Y888000D01*
X665988Y888492D02*
X705612Y888492D01*
X665988Y888492D02*
X641604Y912876D01*
X629412Y912876D01*
X705612Y888492D02*
X705894Y888000D01*
X629412Y912876D02*
X627900Y913400D01*
X73152Y306324D02*
X73152Y295656D01*
X365760Y873252D02*
X371856Y879348D01*
X381000Y879348D01*
X73152Y295656D02*
X73400Y294500D01*
X381350Y878950D02*
X381000Y879348D01*
X470916Y903732D02*
X501396Y903732D01*
X470916Y903732D02*
X438912Y871728D01*
X422148Y871728D01*
X416052Y877824D01*
X393192Y877824D01*
X391668Y879348D01*
X382524Y879348D01*
X501396Y903732D02*
X502500Y904200D01*
X382524Y879348D02*
X381350Y878950D01*
D21*
X73152Y306324D03*
X365760Y873252D03*
D20*
X77724Y271272D02*
X77724Y219456D01*
X77724Y271272D02*
X74676Y274320D01*
X77724Y219456D02*
X77600Y219300D01*
X74676Y274320D02*
X73400Y275500D01*
X47244Y781812D02*
X44196Y781812D01*
X47244Y781812D02*
X56388Y790956D01*
X62484Y790956D01*
X109728Y838200D01*
X448056Y838200D01*
X495300Y885444D01*
X501396Y885444D01*
X44196Y781812D02*
X44100Y781000D01*
X501396Y885444D02*
X502500Y885200D01*
X193548Y935736D02*
X161544Y935736D01*
X138684Y958596D01*
X74676Y958596D01*
X59436Y943356D01*
X59436Y938784D01*
X193548Y935736D02*
X193800Y934700D01*
X59436Y938784D02*
X58700Y938500D01*
X420624Y865632D02*
X429768Y865632D01*
X420624Y865632D02*
X399288Y844296D01*
X370332Y844296D01*
X344424Y870204D01*
X429768Y865632D02*
X430850Y866250D01*
D21*
X344424Y870204D03*
D20*
X283464Y935736D02*
X272796Y935736D01*
X283464Y935736D02*
X284600Y934700D01*
X417576Y891540D02*
X429768Y891540D01*
X417576Y891540D02*
X399288Y909828D01*
X429768Y891540D02*
X430850Y891650D01*
D21*
X272796Y935736D03*
X399288Y909828D03*
D20*
X195072Y874776D02*
X173736Y874776D01*
X109728Y938784D01*
X195072Y874776D02*
X195400Y874700D01*
X109728Y938784D02*
X109500Y938500D01*
X420624Y905256D02*
X429768Y905256D01*
X420624Y905256D02*
X416052Y909828D01*
X429768Y905256D02*
X430850Y904350D01*
D21*
X416052Y909828D03*
D20*
X281940Y876300D02*
X271272Y876300D01*
X281940Y876300D02*
X283100Y875000D01*
X409956Y929640D02*
X429768Y929640D01*
X409956Y929640D02*
X391668Y911352D01*
X361188Y911352D01*
X310896Y861060D01*
X289560Y861060D01*
X283464Y867156D01*
X283464Y874776D01*
X429768Y929640D02*
X430850Y929750D01*
X283464Y874776D02*
X283100Y875000D01*
D21*
X271272Y876300D03*
D20*
X429768Y853440D02*
X429768Y850392D01*
X423672Y844296D01*
X429768Y853440D02*
X430850Y853550D01*
D21*
X423672Y844296D03*
D20*
X420624Y879348D02*
X429768Y879348D01*
X420624Y879348D02*
X416052Y883920D01*
X429768Y879348D02*
X430850Y878950D01*
D21*
X416052Y883920D03*
D20*
X409956Y917448D02*
X429768Y917448D01*
X430850Y917050D01*
D21*
X409956Y917448D03*
D20*
X391668Y941832D02*
X382524Y941832D01*
X391668Y941832D02*
X396240Y937260D01*
X382524Y941832D02*
X381350Y942450D01*
D21*
X396240Y937260D03*
D20*
X64008Y780288D02*
X64008Y743712D01*
X65532Y742188D01*
X65532Y684276D01*
X53340Y672084D01*
X53340Y667512D01*
X64008Y780288D02*
X63100Y781000D01*
X53340Y667512D02*
X53100Y666600D01*
X53340Y801624D02*
X44196Y801624D01*
X33528Y790956D01*
X33528Y757428D01*
X50292Y740664D01*
X50292Y734568D01*
X53340Y801624D02*
X53600Y803000D01*
X50292Y734568D02*
X51700Y734200D01*
M02*
