G04 EAGLE Gerber RS-274X export*
G75*
%MOMM*%
%FSLAX34Y34*%
%LPD*%
%INBottom Copper*%
%IPPOS*%
%AMOC8*
5,1,8,0,0,1.08239X$1,22.5*%
G01*
%ADD10C,1.725000*%
%ADD11C,4.950000*%
%ADD12C,1.524000*%
%ADD13C,1.320800*%
%ADD14C,0.152400*%
%ADD15C,0.711200*%


D10*
X341800Y800700D03*
X367200Y800700D03*
X392600Y800700D03*
X418000Y800700D03*
X341800Y419700D03*
X367200Y419700D03*
X392600Y419700D03*
X418000Y419700D03*
X456100Y800700D03*
X456100Y775300D03*
D11*
X121000Y710200D03*
X121000Y510200D03*
X701000Y710200D03*
X701000Y510200D03*
D12*
X761380Y488800D02*
X776620Y488800D01*
X776620Y514200D02*
X761380Y514200D01*
X761380Y539600D02*
X776620Y539600D01*
X776620Y565000D02*
X761380Y565000D01*
X761380Y590400D02*
X776620Y590400D01*
X776620Y615800D02*
X761380Y615800D01*
X761380Y641200D02*
X776620Y641200D01*
X776620Y666600D02*
X761380Y666600D01*
X60720Y488800D02*
X45480Y488800D01*
X45480Y514200D02*
X60720Y514200D01*
X60720Y539600D02*
X45480Y539600D01*
X45480Y565000D02*
X60720Y565000D01*
X60720Y590400D02*
X45480Y590400D01*
X45480Y615800D02*
X60720Y615800D01*
X60720Y641200D02*
X45480Y641200D01*
X45480Y666600D02*
X60720Y666600D01*
D13*
X58700Y855696D02*
X58700Y868904D01*
X84100Y868904D02*
X84100Y855696D01*
X84100Y931896D02*
X84100Y945104D01*
X58700Y945104D02*
X58700Y931896D01*
X109500Y868904D02*
X109500Y855696D01*
X134900Y855696D02*
X134900Y868904D01*
X109500Y931896D02*
X109500Y945104D01*
X134900Y945104D02*
X134900Y931896D01*
D14*
X467868Y926592D02*
X563880Y926592D01*
X467868Y926592D02*
X342900Y801624D01*
X341800Y800700D01*
D15*
X563880Y926592D03*
D14*
X563880Y912876D02*
X478536Y912876D01*
X367284Y801624D01*
X367200Y800700D01*
D15*
X563880Y912876D03*
D14*
X611124Y888492D02*
X505968Y888492D01*
X419100Y801624D01*
X418000Y800700D01*
D15*
X611124Y888492D03*
D14*
X690372Y923544D02*
X690372Y839724D01*
X662940Y812292D01*
X649224Y798576D02*
X649224Y784860D01*
X342900Y478536D01*
X342900Y419700D01*
X341800Y419700D01*
D15*
X690372Y923544D03*
X662940Y812292D03*
X649224Y798576D03*
D14*
X670560Y912876D02*
X573024Y912876D01*
X551688Y891540D01*
X492252Y891540D01*
X403860Y803148D01*
X403860Y548640D01*
X330708Y475488D01*
X330708Y414528D01*
X336804Y408432D01*
X355092Y408432D01*
X365760Y419100D01*
X367200Y419700D01*
D15*
X670560Y912876D03*
D14*
X649224Y775716D02*
X649224Y676656D01*
X393192Y420624D01*
X392600Y419700D01*
D15*
X649224Y775716D03*
D14*
X655320Y790956D02*
X655320Y656844D01*
X419100Y420624D01*
X418000Y419700D01*
D15*
X655320Y790956D03*
D14*
X53340Y594360D02*
X53340Y591312D01*
X53340Y594360D02*
X208788Y749808D01*
X208788Y861060D01*
X53340Y591312D02*
X53100Y590400D01*
D15*
X208788Y861060D03*
D14*
X595884Y937260D02*
X711708Y937260D01*
X719328Y944880D01*
X739140Y944880D01*
X790956Y893064D01*
X790956Y510540D01*
X769620Y489204D01*
X769000Y488800D01*
D15*
X595884Y937260D03*
D14*
X595884Y903732D02*
X605028Y903732D01*
X635508Y873252D01*
X635508Y821436D01*
X742188Y714756D01*
X742188Y539496D01*
X768096Y513588D01*
X769000Y514200D01*
D15*
X595884Y903732D03*
D14*
X644652Y847344D02*
X644652Y821436D01*
X748284Y717804D01*
X748284Y560832D01*
X768096Y541020D01*
X769000Y539600D01*
D15*
X644652Y847344D03*
D14*
X644652Y856488D02*
X644652Y897636D01*
X644652Y856488D02*
X638556Y850392D01*
X638556Y822960D01*
X745236Y716280D01*
X745236Y541020D01*
X757428Y528828D01*
X780288Y528828D01*
X787908Y536448D01*
X787908Y545592D01*
X769620Y563880D01*
X769000Y565000D01*
D15*
X644652Y897636D03*
D14*
X722376Y938784D02*
X740664Y938784D01*
X787908Y891540D01*
X787908Y609600D01*
X769620Y591312D01*
X769000Y590400D01*
D15*
X722376Y938784D03*
D14*
X722376Y900684D02*
X722376Y748284D01*
X751332Y719328D01*
X751332Y633984D01*
X768096Y617220D01*
X769000Y615800D01*
D15*
X722376Y900684D03*
D14*
X769620Y900684D02*
X769620Y667512D01*
X769000Y666600D01*
D15*
X769620Y900684D03*
D14*
X73152Y446532D02*
X73152Y306324D01*
X73152Y446532D02*
X35052Y484632D01*
X35052Y544068D01*
X45720Y554736D01*
X65532Y554736D01*
X365760Y854964D01*
X365760Y873252D01*
D15*
X73152Y306324D03*
X365760Y873252D03*
D14*
X344424Y870204D02*
X146304Y870204D01*
X97536Y918972D01*
X77724Y918972D01*
X59436Y937260D01*
X58700Y938500D01*
D15*
X344424Y870204D03*
D14*
X272796Y935736D02*
X156972Y935736D01*
X138684Y954024D01*
X100584Y954024D01*
X85344Y938784D01*
X84100Y938500D01*
X298704Y909828D02*
X399288Y909828D01*
X298704Y909828D02*
X272796Y935736D01*
D15*
X272796Y935736D03*
X399288Y909828D03*
D14*
X416052Y909828D02*
X416052Y926592D01*
X385572Y957072D01*
X82296Y957072D01*
X74676Y949452D01*
X74676Y928116D01*
X80772Y922020D01*
X92964Y922020D01*
X108204Y937260D01*
X109500Y938500D01*
D15*
X416052Y909828D03*
D14*
X271272Y876300D02*
X196596Y876300D01*
X135636Y937260D01*
X134900Y938500D01*
D15*
X271272Y876300D03*
D14*
X420624Y844296D02*
X423672Y844296D01*
X420624Y844296D02*
X379476Y803148D01*
X379476Y797052D01*
X120396Y537972D01*
X102108Y537972D01*
X53340Y489204D01*
X53100Y488800D01*
D15*
X423672Y844296D03*
D14*
X416052Y883920D02*
X408432Y883920D01*
X71628Y547116D01*
X71628Y533400D01*
X53340Y515112D01*
X53100Y514200D01*
D15*
X416052Y883920D03*
D14*
X409956Y894588D02*
X409956Y917448D01*
X409956Y894588D02*
X56388Y541020D01*
X53340Y541020D01*
X53100Y539600D01*
D15*
X409956Y917448D03*
D14*
X396240Y922020D02*
X396240Y937260D01*
X396240Y922020D02*
X405384Y912876D01*
X405384Y906780D01*
X377952Y879348D01*
X362712Y879348D01*
X71628Y588264D01*
X71628Y583692D01*
X53340Y565404D01*
X53100Y565000D01*
D15*
X396240Y937260D03*
M02*
