G04 EAGLE Gerber RS-274X export*
G75*
%MOMM*%
%FSLAX34Y34*%
%LPD*%
%INSolderpaste Top*%
%IPPOS*%
%AMOC8*
5,1,8,0,0,1.08239X$1,22.5*%
G01*
%ADD10R,1.500000X1.500000*%
%ADD11R,1.500000X1.300000*%
%ADD12R,1.300000X1.500000*%
%ADD13R,1.000000X1.400000*%
%ADD14R,2.057400X0.609600*%
%ADD15C,0.300000*%


D10*
X42600Y219300D03*
X77600Y219300D03*
D11*
X73400Y294500D03*
X73400Y275500D03*
X502500Y904200D03*
X502500Y885200D03*
X51700Y715200D03*
X51700Y734200D03*
D12*
X302100Y875000D03*
X283100Y875000D03*
X214400Y874700D03*
X195400Y874700D03*
X303600Y934700D03*
X284600Y934700D03*
X212800Y934700D03*
X193800Y934700D03*
D13*
X53600Y803000D03*
X63100Y781000D03*
X44100Y781000D03*
D14*
X579894Y938800D03*
X579894Y926100D03*
X579894Y913400D03*
X579894Y900700D03*
X579894Y888000D03*
X579894Y875300D03*
X579894Y862600D03*
X627900Y862600D03*
X627900Y875300D03*
X627900Y888000D03*
X627900Y900700D03*
X627900Y913400D03*
X627900Y926100D03*
X627900Y938800D03*
X705894Y938800D03*
X705894Y926100D03*
X705894Y913400D03*
X705894Y900700D03*
X705894Y888000D03*
X705894Y875300D03*
X705894Y862600D03*
X753900Y862600D03*
X753900Y875300D03*
X753900Y888000D03*
X753900Y900700D03*
X753900Y913400D03*
X753900Y926100D03*
X753900Y938800D03*
D15*
X389700Y940950D02*
X373000Y940950D01*
X373000Y943950D01*
X389700Y943950D01*
X389700Y940950D01*
X389700Y943800D02*
X373000Y943800D01*
X373000Y928250D02*
X389700Y928250D01*
X373000Y928250D02*
X373000Y931250D01*
X389700Y931250D01*
X389700Y928250D01*
X389700Y931100D02*
X373000Y931100D01*
X373000Y915550D02*
X389700Y915550D01*
X373000Y915550D02*
X373000Y918550D01*
X389700Y918550D01*
X389700Y915550D01*
X389700Y918400D02*
X373000Y918400D01*
X373000Y902850D02*
X389700Y902850D01*
X373000Y902850D02*
X373000Y905850D01*
X389700Y905850D01*
X389700Y902850D01*
X389700Y905700D02*
X373000Y905700D01*
X373000Y890150D02*
X389700Y890150D01*
X373000Y890150D02*
X373000Y893150D01*
X389700Y893150D01*
X389700Y890150D01*
X389700Y893000D02*
X373000Y893000D01*
X373000Y877450D02*
X389700Y877450D01*
X373000Y877450D02*
X373000Y880450D01*
X389700Y880450D01*
X389700Y877450D01*
X389700Y880300D02*
X373000Y880300D01*
X373000Y864750D02*
X389700Y864750D01*
X373000Y864750D02*
X373000Y867750D01*
X389700Y867750D01*
X389700Y864750D01*
X389700Y867600D02*
X373000Y867600D01*
X373000Y852050D02*
X389700Y852050D01*
X373000Y852050D02*
X373000Y855050D01*
X389700Y855050D01*
X389700Y852050D01*
X389700Y854900D02*
X373000Y854900D01*
X422500Y855050D02*
X439200Y855050D01*
X439200Y852050D01*
X422500Y852050D01*
X422500Y855050D01*
X422500Y854900D02*
X439200Y854900D01*
X439200Y867750D02*
X422500Y867750D01*
X439200Y867750D02*
X439200Y864750D01*
X422500Y864750D01*
X422500Y867750D01*
X422500Y867600D02*
X439200Y867600D01*
X439200Y880450D02*
X422500Y880450D01*
X439200Y880450D02*
X439200Y877450D01*
X422500Y877450D01*
X422500Y880450D01*
X422500Y880300D02*
X439200Y880300D01*
X439200Y893150D02*
X422500Y893150D01*
X439200Y893150D02*
X439200Y890150D01*
X422500Y890150D01*
X422500Y893150D01*
X422500Y893000D02*
X439200Y893000D01*
X439200Y905850D02*
X422500Y905850D01*
X439200Y905850D02*
X439200Y902850D01*
X422500Y902850D01*
X422500Y905850D01*
X422500Y905700D02*
X439200Y905700D01*
X439200Y918550D02*
X422500Y918550D01*
X439200Y918550D02*
X439200Y915550D01*
X422500Y915550D01*
X422500Y918550D01*
X422500Y918400D02*
X439200Y918400D01*
X439200Y931250D02*
X422500Y931250D01*
X439200Y931250D02*
X439200Y928250D01*
X422500Y928250D01*
X422500Y931250D01*
X422500Y931100D02*
X439200Y931100D01*
X439200Y943950D02*
X422500Y943950D01*
X439200Y943950D02*
X439200Y940950D01*
X422500Y940950D01*
X422500Y943950D01*
X422500Y943800D02*
X439200Y943800D01*
M02*
