G04 EAGLE Gerber RS-274X export*
G75*
%MOMM*%
%FSLAX34Y34*%
%LPD*%
%INTop Copper*%
%IPPOS*%
%AMOC8*
5,1,8,0,0,1.08239X$1,22.5*%
G01*
%ADD10C,1.258000*%
%ADD11C,2.400000*%
%ADD12C,0.152400*%

G36*
X177020Y248242D02*
X177020Y248242D01*
X177039Y248240D01*
X177141Y248262D01*
X177243Y248279D01*
X177260Y248288D01*
X177280Y248292D01*
X177369Y248345D01*
X177460Y248394D01*
X177474Y248408D01*
X177491Y248418D01*
X177558Y248497D01*
X177630Y248572D01*
X177638Y248590D01*
X177651Y248605D01*
X177690Y248701D01*
X177733Y248795D01*
X177735Y248815D01*
X177743Y248833D01*
X177761Y249000D01*
X177761Y350000D01*
X177758Y350020D01*
X177760Y350039D01*
X177738Y350141D01*
X177722Y350243D01*
X177712Y350260D01*
X177708Y350280D01*
X177655Y350369D01*
X177606Y350460D01*
X177592Y350474D01*
X177582Y350491D01*
X177503Y350558D01*
X177428Y350630D01*
X177410Y350638D01*
X177395Y350651D01*
X177299Y350690D01*
X177205Y350733D01*
X177185Y350735D01*
X177167Y350743D01*
X177000Y350761D01*
X131000Y350761D01*
X130980Y350758D01*
X130961Y350760D01*
X130859Y350738D01*
X130757Y350722D01*
X130740Y350712D01*
X130720Y350708D01*
X130631Y350655D01*
X130540Y350606D01*
X130526Y350592D01*
X130509Y350582D01*
X130442Y350503D01*
X130371Y350428D01*
X130362Y350410D01*
X130349Y350395D01*
X130310Y350299D01*
X130267Y350205D01*
X130265Y350185D01*
X130257Y350167D01*
X130239Y350000D01*
X130239Y249000D01*
X130242Y248980D01*
X130240Y248961D01*
X130262Y248859D01*
X130279Y248757D01*
X130288Y248740D01*
X130292Y248720D01*
X130345Y248631D01*
X130394Y248540D01*
X130408Y248526D01*
X130418Y248509D01*
X130497Y248442D01*
X130572Y248371D01*
X130590Y248362D01*
X130605Y248349D01*
X130701Y248310D01*
X130795Y248267D01*
X130815Y248265D01*
X130833Y248257D01*
X131000Y248239D01*
X177000Y248239D01*
X177020Y248242D01*
G37*
G36*
X218020Y248242D02*
X218020Y248242D01*
X218039Y248240D01*
X218141Y248262D01*
X218243Y248279D01*
X218260Y248288D01*
X218280Y248292D01*
X218369Y248345D01*
X218460Y248394D01*
X218474Y248408D01*
X218491Y248418D01*
X218558Y248497D01*
X218630Y248572D01*
X218638Y248590D01*
X218651Y248605D01*
X218690Y248701D01*
X218733Y248795D01*
X218735Y248815D01*
X218743Y248833D01*
X218761Y249000D01*
X218761Y272000D01*
X218758Y272020D01*
X218760Y272039D01*
X218738Y272141D01*
X218722Y272243D01*
X218712Y272260D01*
X218708Y272280D01*
X218655Y272369D01*
X218606Y272460D01*
X218592Y272474D01*
X218582Y272491D01*
X218503Y272558D01*
X218428Y272630D01*
X218410Y272638D01*
X218395Y272651D01*
X218299Y272690D01*
X218205Y272733D01*
X218185Y272735D01*
X218167Y272743D01*
X218000Y272761D01*
X181000Y272761D01*
X180980Y272758D01*
X180961Y272760D01*
X180859Y272738D01*
X180757Y272722D01*
X180740Y272712D01*
X180720Y272708D01*
X180631Y272655D01*
X180540Y272606D01*
X180526Y272592D01*
X180509Y272582D01*
X180442Y272503D01*
X180371Y272428D01*
X180362Y272410D01*
X180349Y272395D01*
X180310Y272299D01*
X180267Y272205D01*
X180265Y272185D01*
X180257Y272167D01*
X180239Y272000D01*
X180239Y249000D01*
X180242Y248980D01*
X180240Y248961D01*
X180262Y248859D01*
X180279Y248757D01*
X180288Y248740D01*
X180292Y248720D01*
X180345Y248631D01*
X180394Y248540D01*
X180408Y248526D01*
X180418Y248509D01*
X180497Y248442D01*
X180572Y248371D01*
X180590Y248362D01*
X180605Y248349D01*
X180701Y248310D01*
X180795Y248267D01*
X180815Y248265D01*
X180833Y248257D01*
X181000Y248239D01*
X218000Y248239D01*
X218020Y248242D01*
G37*
G36*
X218020Y327242D02*
X218020Y327242D01*
X218039Y327240D01*
X218141Y327262D01*
X218243Y327279D01*
X218260Y327288D01*
X218280Y327292D01*
X218369Y327345D01*
X218460Y327394D01*
X218474Y327408D01*
X218491Y327418D01*
X218558Y327497D01*
X218630Y327572D01*
X218638Y327590D01*
X218651Y327605D01*
X218690Y327701D01*
X218733Y327795D01*
X218735Y327815D01*
X218743Y327833D01*
X218761Y328000D01*
X218761Y350000D01*
X218758Y350020D01*
X218760Y350039D01*
X218738Y350141D01*
X218722Y350243D01*
X218712Y350260D01*
X218708Y350280D01*
X218655Y350369D01*
X218606Y350460D01*
X218592Y350474D01*
X218582Y350491D01*
X218503Y350558D01*
X218428Y350630D01*
X218410Y350638D01*
X218395Y350651D01*
X218299Y350690D01*
X218205Y350733D01*
X218185Y350735D01*
X218167Y350743D01*
X218000Y350761D01*
X181000Y350761D01*
X180980Y350758D01*
X180961Y350760D01*
X180859Y350738D01*
X180757Y350722D01*
X180740Y350712D01*
X180720Y350708D01*
X180631Y350655D01*
X180540Y350606D01*
X180526Y350592D01*
X180509Y350582D01*
X180442Y350503D01*
X180371Y350428D01*
X180362Y350410D01*
X180349Y350395D01*
X180310Y350299D01*
X180267Y350205D01*
X180265Y350185D01*
X180257Y350167D01*
X180239Y350000D01*
X180239Y328000D01*
X180242Y327980D01*
X180240Y327961D01*
X180262Y327859D01*
X180279Y327757D01*
X180288Y327740D01*
X180292Y327720D01*
X180345Y327631D01*
X180394Y327540D01*
X180408Y327526D01*
X180418Y327509D01*
X180497Y327442D01*
X180572Y327371D01*
X180590Y327362D01*
X180605Y327349D01*
X180701Y327310D01*
X180795Y327267D01*
X180815Y327265D01*
X180833Y327257D01*
X181000Y327239D01*
X218000Y327239D01*
X218020Y327242D01*
G37*
G36*
X218020Y301242D02*
X218020Y301242D01*
X218039Y301240D01*
X218141Y301262D01*
X218243Y301279D01*
X218260Y301288D01*
X218280Y301292D01*
X218369Y301345D01*
X218460Y301394D01*
X218474Y301408D01*
X218491Y301418D01*
X218558Y301497D01*
X218630Y301572D01*
X218638Y301590D01*
X218651Y301605D01*
X218690Y301701D01*
X218733Y301795D01*
X218735Y301815D01*
X218743Y301833D01*
X218761Y302000D01*
X218761Y324000D01*
X218758Y324020D01*
X218760Y324039D01*
X218738Y324141D01*
X218722Y324243D01*
X218712Y324260D01*
X218708Y324280D01*
X218655Y324369D01*
X218606Y324460D01*
X218592Y324474D01*
X218582Y324491D01*
X218503Y324558D01*
X218428Y324630D01*
X218410Y324638D01*
X218395Y324651D01*
X218299Y324690D01*
X218205Y324733D01*
X218185Y324735D01*
X218167Y324743D01*
X218000Y324761D01*
X181000Y324761D01*
X180980Y324758D01*
X180961Y324760D01*
X180859Y324738D01*
X180757Y324722D01*
X180740Y324712D01*
X180720Y324708D01*
X180631Y324655D01*
X180540Y324606D01*
X180526Y324592D01*
X180509Y324582D01*
X180442Y324503D01*
X180371Y324428D01*
X180362Y324410D01*
X180349Y324395D01*
X180310Y324299D01*
X180267Y324205D01*
X180265Y324185D01*
X180257Y324167D01*
X180239Y324000D01*
X180239Y302000D01*
X180242Y301980D01*
X180240Y301961D01*
X180262Y301859D01*
X180279Y301757D01*
X180288Y301740D01*
X180292Y301720D01*
X180345Y301631D01*
X180394Y301540D01*
X180408Y301526D01*
X180418Y301509D01*
X180497Y301442D01*
X180572Y301371D01*
X180590Y301362D01*
X180605Y301349D01*
X180701Y301310D01*
X180795Y301267D01*
X180815Y301265D01*
X180833Y301257D01*
X181000Y301239D01*
X218000Y301239D01*
X218020Y301242D01*
G37*
G36*
X218020Y275242D02*
X218020Y275242D01*
X218039Y275240D01*
X218141Y275262D01*
X218243Y275279D01*
X218260Y275288D01*
X218280Y275292D01*
X218369Y275345D01*
X218460Y275394D01*
X218474Y275408D01*
X218491Y275418D01*
X218558Y275497D01*
X218630Y275572D01*
X218638Y275590D01*
X218651Y275605D01*
X218690Y275701D01*
X218733Y275795D01*
X218735Y275815D01*
X218743Y275833D01*
X218761Y276000D01*
X218761Y298000D01*
X218758Y298020D01*
X218760Y298039D01*
X218738Y298141D01*
X218722Y298243D01*
X218712Y298260D01*
X218708Y298280D01*
X218655Y298369D01*
X218606Y298460D01*
X218592Y298474D01*
X218582Y298491D01*
X218503Y298558D01*
X218428Y298630D01*
X218410Y298638D01*
X218395Y298651D01*
X218299Y298690D01*
X218205Y298733D01*
X218185Y298735D01*
X218167Y298743D01*
X218000Y298761D01*
X181000Y298761D01*
X180980Y298758D01*
X180961Y298760D01*
X180859Y298738D01*
X180757Y298722D01*
X180740Y298712D01*
X180720Y298708D01*
X180631Y298655D01*
X180540Y298606D01*
X180526Y298592D01*
X180509Y298582D01*
X180442Y298503D01*
X180371Y298428D01*
X180362Y298410D01*
X180349Y298395D01*
X180310Y298299D01*
X180267Y298205D01*
X180265Y298185D01*
X180257Y298167D01*
X180239Y298000D01*
X180239Y276000D01*
X180242Y275980D01*
X180240Y275961D01*
X180262Y275859D01*
X180279Y275757D01*
X180288Y275740D01*
X180292Y275720D01*
X180345Y275631D01*
X180394Y275540D01*
X180408Y275526D01*
X180418Y275509D01*
X180497Y275442D01*
X180572Y275371D01*
X180590Y275362D01*
X180605Y275349D01*
X180701Y275310D01*
X180795Y275267D01*
X180815Y275265D01*
X180833Y275257D01*
X181000Y275239D01*
X218000Y275239D01*
X218020Y275242D01*
G37*
G36*
X127020Y327242D02*
X127020Y327242D01*
X127039Y327240D01*
X127141Y327262D01*
X127243Y327279D01*
X127260Y327288D01*
X127280Y327292D01*
X127369Y327345D01*
X127460Y327394D01*
X127474Y327408D01*
X127491Y327418D01*
X127558Y327497D01*
X127630Y327572D01*
X127638Y327590D01*
X127651Y327605D01*
X127690Y327701D01*
X127733Y327795D01*
X127735Y327815D01*
X127743Y327833D01*
X127761Y328000D01*
X127761Y350000D01*
X127758Y350020D01*
X127760Y350039D01*
X127738Y350141D01*
X127722Y350243D01*
X127712Y350260D01*
X127708Y350280D01*
X127655Y350369D01*
X127606Y350460D01*
X127592Y350474D01*
X127582Y350491D01*
X127503Y350558D01*
X127428Y350630D01*
X127410Y350638D01*
X127395Y350651D01*
X127299Y350690D01*
X127205Y350733D01*
X127185Y350735D01*
X127167Y350743D01*
X127000Y350761D01*
X91000Y350761D01*
X90980Y350758D01*
X90961Y350760D01*
X90859Y350738D01*
X90757Y350722D01*
X90740Y350712D01*
X90720Y350708D01*
X90631Y350655D01*
X90540Y350606D01*
X90526Y350592D01*
X90509Y350582D01*
X90442Y350503D01*
X90371Y350428D01*
X90362Y350410D01*
X90349Y350395D01*
X90310Y350299D01*
X90267Y350205D01*
X90265Y350185D01*
X90257Y350167D01*
X90239Y350000D01*
X90239Y328000D01*
X90242Y327980D01*
X90240Y327961D01*
X90262Y327859D01*
X90279Y327757D01*
X90288Y327740D01*
X90292Y327720D01*
X90345Y327631D01*
X90394Y327540D01*
X90408Y327526D01*
X90418Y327509D01*
X90497Y327442D01*
X90572Y327371D01*
X90590Y327362D01*
X90605Y327349D01*
X90701Y327310D01*
X90795Y327267D01*
X90815Y327265D01*
X90833Y327257D01*
X91000Y327239D01*
X127000Y327239D01*
X127020Y327242D01*
G37*
G36*
X127020Y301242D02*
X127020Y301242D01*
X127039Y301240D01*
X127141Y301262D01*
X127243Y301279D01*
X127260Y301288D01*
X127280Y301292D01*
X127369Y301345D01*
X127460Y301394D01*
X127474Y301408D01*
X127491Y301418D01*
X127558Y301497D01*
X127630Y301572D01*
X127638Y301590D01*
X127651Y301605D01*
X127690Y301701D01*
X127733Y301795D01*
X127735Y301815D01*
X127743Y301833D01*
X127761Y302000D01*
X127761Y324000D01*
X127758Y324020D01*
X127760Y324039D01*
X127738Y324141D01*
X127722Y324243D01*
X127712Y324260D01*
X127708Y324280D01*
X127655Y324369D01*
X127606Y324460D01*
X127592Y324474D01*
X127582Y324491D01*
X127503Y324558D01*
X127428Y324630D01*
X127410Y324638D01*
X127395Y324651D01*
X127299Y324690D01*
X127205Y324733D01*
X127185Y324735D01*
X127167Y324743D01*
X127000Y324761D01*
X91000Y324761D01*
X90980Y324758D01*
X90961Y324760D01*
X90859Y324738D01*
X90757Y324722D01*
X90740Y324712D01*
X90720Y324708D01*
X90631Y324655D01*
X90540Y324606D01*
X90526Y324592D01*
X90509Y324582D01*
X90442Y324503D01*
X90371Y324428D01*
X90362Y324410D01*
X90349Y324395D01*
X90310Y324299D01*
X90267Y324205D01*
X90265Y324185D01*
X90257Y324167D01*
X90239Y324000D01*
X90239Y302000D01*
X90242Y301980D01*
X90240Y301961D01*
X90262Y301859D01*
X90279Y301757D01*
X90288Y301740D01*
X90292Y301720D01*
X90345Y301631D01*
X90394Y301540D01*
X90408Y301526D01*
X90418Y301509D01*
X90497Y301442D01*
X90572Y301371D01*
X90590Y301362D01*
X90605Y301349D01*
X90701Y301310D01*
X90795Y301267D01*
X90815Y301265D01*
X90833Y301257D01*
X91000Y301239D01*
X127000Y301239D01*
X127020Y301242D01*
G37*
G36*
X127020Y275242D02*
X127020Y275242D01*
X127039Y275240D01*
X127141Y275262D01*
X127243Y275279D01*
X127260Y275288D01*
X127280Y275292D01*
X127369Y275345D01*
X127460Y275394D01*
X127474Y275408D01*
X127491Y275418D01*
X127558Y275497D01*
X127630Y275572D01*
X127638Y275590D01*
X127651Y275605D01*
X127690Y275701D01*
X127733Y275795D01*
X127735Y275815D01*
X127743Y275833D01*
X127761Y276000D01*
X127761Y298000D01*
X127758Y298020D01*
X127760Y298039D01*
X127738Y298141D01*
X127722Y298243D01*
X127712Y298260D01*
X127708Y298280D01*
X127655Y298369D01*
X127606Y298460D01*
X127592Y298474D01*
X127582Y298491D01*
X127503Y298558D01*
X127428Y298630D01*
X127410Y298638D01*
X127395Y298651D01*
X127299Y298690D01*
X127205Y298733D01*
X127185Y298735D01*
X127167Y298743D01*
X127000Y298761D01*
X91000Y298761D01*
X90980Y298758D01*
X90961Y298760D01*
X90859Y298738D01*
X90757Y298722D01*
X90740Y298712D01*
X90720Y298708D01*
X90631Y298655D01*
X90540Y298606D01*
X90526Y298592D01*
X90509Y298582D01*
X90442Y298503D01*
X90371Y298428D01*
X90362Y298410D01*
X90349Y298395D01*
X90310Y298299D01*
X90267Y298205D01*
X90265Y298185D01*
X90257Y298167D01*
X90239Y298000D01*
X90239Y276000D01*
X90242Y275980D01*
X90240Y275961D01*
X90262Y275859D01*
X90279Y275757D01*
X90288Y275740D01*
X90292Y275720D01*
X90345Y275631D01*
X90394Y275540D01*
X90408Y275526D01*
X90418Y275509D01*
X90497Y275442D01*
X90572Y275371D01*
X90590Y275362D01*
X90605Y275349D01*
X90701Y275310D01*
X90795Y275267D01*
X90815Y275265D01*
X90833Y275257D01*
X91000Y275239D01*
X127000Y275239D01*
X127020Y275242D01*
G37*
G36*
X127020Y249242D02*
X127020Y249242D01*
X127039Y249240D01*
X127141Y249262D01*
X127243Y249279D01*
X127260Y249288D01*
X127280Y249292D01*
X127369Y249345D01*
X127460Y249394D01*
X127474Y249408D01*
X127491Y249418D01*
X127558Y249497D01*
X127630Y249572D01*
X127638Y249590D01*
X127651Y249605D01*
X127690Y249701D01*
X127733Y249795D01*
X127735Y249815D01*
X127743Y249833D01*
X127761Y250000D01*
X127761Y272000D01*
X127758Y272020D01*
X127760Y272039D01*
X127738Y272141D01*
X127722Y272243D01*
X127712Y272260D01*
X127708Y272280D01*
X127655Y272369D01*
X127606Y272460D01*
X127592Y272474D01*
X127582Y272491D01*
X127503Y272558D01*
X127428Y272630D01*
X127410Y272638D01*
X127395Y272651D01*
X127299Y272690D01*
X127205Y272733D01*
X127185Y272735D01*
X127167Y272743D01*
X127000Y272761D01*
X91000Y272761D01*
X90980Y272758D01*
X90961Y272760D01*
X90859Y272738D01*
X90757Y272722D01*
X90740Y272712D01*
X90720Y272708D01*
X90631Y272655D01*
X90540Y272606D01*
X90526Y272592D01*
X90509Y272582D01*
X90442Y272503D01*
X90371Y272428D01*
X90362Y272410D01*
X90349Y272395D01*
X90310Y272299D01*
X90267Y272205D01*
X90265Y272185D01*
X90257Y272167D01*
X90239Y272000D01*
X90239Y250000D01*
X90242Y249980D01*
X90240Y249961D01*
X90262Y249859D01*
X90279Y249757D01*
X90288Y249740D01*
X90292Y249720D01*
X90345Y249631D01*
X90394Y249540D01*
X90408Y249526D01*
X90418Y249509D01*
X90497Y249442D01*
X90572Y249371D01*
X90590Y249362D01*
X90605Y249349D01*
X90701Y249310D01*
X90795Y249267D01*
X90815Y249265D01*
X90833Y249257D01*
X91000Y249239D01*
X127000Y249239D01*
X127020Y249242D01*
G37*
D10*
X882700Y228950D03*
X857300Y241650D03*
X882700Y254350D03*
X857300Y267050D03*
X882700Y279750D03*
X857300Y292450D03*
X882700Y305150D03*
X857300Y317850D03*
D11*
X976700Y195400D03*
X976700Y351400D03*
D12*
X900000Y230000D02*
X882700Y228950D01*
X900000Y230000D02*
X920000Y250000D01*
X920000Y370000D01*
X900000Y390000D01*
X120000Y390000D01*
X110000Y380000D01*
X110000Y330000D01*
X380000Y250000D02*
X820000Y250000D01*
X380000Y250000D02*
X310000Y190000D01*
X90000Y190000D01*
X60000Y220000D01*
X60000Y310000D01*
X110000Y310000D01*
X820000Y250000D02*
X824350Y254350D01*
X882700Y254350D01*
X882700Y279750D02*
X858372Y279750D01*
X858122Y280000D01*
X380000Y280000D02*
X310000Y210000D01*
X100000Y210000D01*
X80000Y230000D01*
X80000Y290000D01*
X110000Y290000D01*
X380000Y280000D02*
X858122Y280000D01*
X842700Y283874D02*
X840000Y283874D01*
X363874Y283874D01*
X310000Y230000D02*
X110000Y230000D01*
X110000Y260000D01*
X310000Y230000D02*
X363874Y283874D01*
X842700Y283874D02*
X861424Y283874D01*
X882700Y305150D01*
X857300Y241650D02*
X860000Y240000D01*
X890000Y240000D01*
X910000Y260000D01*
X910000Y360000D01*
X890000Y380000D01*
X230000Y380000D01*
X210000Y360000D01*
X210000Y340000D01*
X160000Y340000D01*
X860250Y270000D02*
X890000Y270000D01*
X900000Y280000D01*
X900000Y360000D01*
X860250Y270000D02*
X857300Y267050D01*
X900000Y360000D02*
X890000Y370000D01*
X240000Y370000D01*
X230000Y360000D01*
X230000Y310000D01*
X200000Y310000D01*
X250000Y360000D02*
X830000Y360000D01*
X250000Y360000D02*
X240000Y350000D01*
X240000Y300000D01*
X230000Y290000D01*
X200000Y290000D01*
X857300Y292450D02*
X857300Y305722D01*
X865876Y314298D01*
X865876Y324124D01*
X830000Y360000D01*
X850000Y320000D02*
X857300Y317850D01*
X850000Y320000D02*
X300000Y320000D01*
X250000Y260000D01*
X200000Y260000D01*
M02*
