G04 EAGLE Gerber RS-274X export*
G75*
%MOMM*%
%FSLAX34Y34*%
%LPD*%
%INSoldermask Top*%
%IPPOS*%
%AMOC8*
5,1,8,0,0,1.08239X$1,22.5*%
G01*
%ADD10C,0.100000*%
%ADD11C,1.461200*%
%ADD12C,2.603200*%
%ADD13C,3.453200*%

G36*
X220020Y249242D02*
X220020Y249242D01*
X220039Y249240D01*
X220141Y249262D01*
X220243Y249279D01*
X220260Y249288D01*
X220280Y249292D01*
X220369Y249345D01*
X220460Y249394D01*
X220474Y249408D01*
X220491Y249418D01*
X220558Y249497D01*
X220630Y249572D01*
X220638Y249590D01*
X220651Y249605D01*
X220690Y249701D01*
X220733Y249795D01*
X220735Y249815D01*
X220743Y249833D01*
X220761Y250000D01*
X220761Y350000D01*
X220758Y350020D01*
X220760Y350039D01*
X220738Y350141D01*
X220722Y350243D01*
X220712Y350260D01*
X220708Y350280D01*
X220655Y350369D01*
X220606Y350460D01*
X220592Y350474D01*
X220582Y350491D01*
X220503Y350558D01*
X220428Y350630D01*
X220410Y350638D01*
X220395Y350651D01*
X220299Y350690D01*
X220205Y350733D01*
X220185Y350735D01*
X220167Y350743D01*
X220000Y350761D01*
X90000Y350761D01*
X89980Y350758D01*
X89961Y350760D01*
X89859Y350738D01*
X89757Y350722D01*
X89740Y350712D01*
X89720Y350708D01*
X89631Y350655D01*
X89540Y350606D01*
X89526Y350592D01*
X89509Y350582D01*
X89442Y350503D01*
X89371Y350428D01*
X89362Y350410D01*
X89349Y350395D01*
X89310Y350299D01*
X89267Y350205D01*
X89265Y350185D01*
X89257Y350167D01*
X89239Y350000D01*
X89239Y250000D01*
X89242Y249980D01*
X89240Y249961D01*
X89262Y249859D01*
X89279Y249757D01*
X89288Y249740D01*
X89292Y249720D01*
X89345Y249631D01*
X89394Y249540D01*
X89408Y249526D01*
X89418Y249509D01*
X89497Y249442D01*
X89572Y249371D01*
X89590Y249362D01*
X89605Y249349D01*
X89701Y249310D01*
X89795Y249267D01*
X89815Y249265D01*
X89833Y249257D01*
X90000Y249239D01*
X220000Y249239D01*
X220020Y249242D01*
G37*
D10*
X1080100Y24850D02*
X1080100Y24215D01*
D11*
X882700Y228950D03*
X857300Y241650D03*
X882700Y254350D03*
X857300Y267050D03*
X882700Y279750D03*
X857300Y292450D03*
X882700Y305150D03*
X857300Y317850D03*
D12*
X976700Y195400D03*
X976700Y351400D03*
D13*
X946200Y216250D03*
X946200Y330550D03*
M02*
