M48
;GenerationSoftware,Autodesk,EAGLE,9.2.1*%
;CreationDate,2018-12-25T21:03:51Z*%
FMAT,2
ICI,OFF
METRIC,TZ,000.000
T11C0.305
T10C0.350
T9C0.610
T8C0.700
T7C0.750
T6C0.813
T5C1.016
T4C1.600
T3C2.062
T2C3.000
T1C3.250
%
G90
M71
T1
X70715Y94120
X59285Y94120
T2
X4000Y95000
X79000Y95000
X79000Y5000
X4000Y5000
T3
X17700Y96425
X10300Y96425
X17700Y91675
X10300Y91675
T4
X57200Y97170
X72800Y97170
T5
X44460Y91730
X49540Y94270
X49540Y91730
X47000Y94270
X47000Y91730
X77250Y37450
X6080Y47610
X77250Y29830
X77250Y32370
X77250Y34910
X44460Y94270
X77250Y39990
X77250Y42530
X77250Y45070
X77250Y47610
X6080Y29830
X6080Y32370
X6080Y34910
X6080Y37450
X6080Y39990
X6080Y42530
X6080Y45070
T6
X35030Y37810
X32490Y37810
X55350Y30190
X32490Y30190
X35030Y30190
X37570Y30190
X40110Y30190
X42650Y30190
X45190Y30190
X47730Y30190
X50270Y30190
X52810Y30190
X50270Y37810
X57890Y30190
X60430Y30190
X62970Y30190
X65510Y30190
X65510Y37810
X62970Y37810
X60430Y37810
X57890Y37810
X55350Y37810
X52810Y37810
X47730Y37810
X45190Y37810
X42650Y37810
X40110Y37810
X37570Y37810
T7
X69445Y87770
X68175Y85230
X66905Y87770
X65635Y85230
X64365Y87770
X63095Y85230
X61825Y87770
X60555Y85230
T8
X12400Y90775
X13200Y91975
X14000Y90775
X14800Y91975
X15600Y90775
T9
X52000Y62540
X58540Y22000
X53460Y22000
X52000Y57460
T10
X34000Y65000
X27000Y60000
T11
X43843Y60530
X34442Y78486
X78486Y49073
X47701Y90221
X38405Y86716
X37795Y59741
X35357Y56845
X17526Y59436
X13716Y15850
X55931Y70104
X33985Y57302
M30