G04 EAGLE Gerber RS-274X export*
G75*
%MOMM*%
%FSLAX34Y34*%
%LPD*%
%INTop Copper*%
%IPPOS*%
%AMOC8*
5,1,8,0,0,1.08239X$1,22.5*%
G01*
%ADD10R,1.800000X1.600000*%
%ADD11R,1.600000X1.800000*%
%ADD12R,2.150000X1.800000*%
%ADD13R,2.400000X2.400000*%
%ADD14R,0.400000X1.200000*%
%ADD15R,1.200000X0.400000*%
%ADD16C,1.524000*%
%ADD17R,1.500000X1.500000*%
%ADD18R,1.500000X1.300000*%
%ADD19R,1.300000X1.500000*%
%ADD20C,1.117600*%
%ADD21C,1.320800*%
%ADD22P,1.649562X8X22.500000*%
%ADD23C,1.258000*%
%ADD24C,2.400000*%
%ADD25C,1.208000*%
%ADD26C,3.092400*%
%ADD27R,2.950000X2.020000*%
%ADD28R,2.020000X2.950000*%
%ADD29C,0.152400*%
%ADD30C,0.756400*%
%ADD31C,0.711200*%
%ADD32C,5.800000*%

G36*
X824178Y5084D02*
X824178Y5084D01*
X824197Y5082D01*
X824299Y5104D01*
X824401Y5120D01*
X824418Y5130D01*
X824438Y5134D01*
X824527Y5187D01*
X824618Y5236D01*
X824632Y5250D01*
X824649Y5260D01*
X824716Y5339D01*
X824788Y5414D01*
X824796Y5432D01*
X824809Y5447D01*
X824848Y5543D01*
X824891Y5637D01*
X824893Y5657D01*
X824901Y5675D01*
X824919Y5842D01*
X824919Y994038D01*
X824916Y994058D01*
X824918Y994077D01*
X824896Y994179D01*
X824880Y994281D01*
X824870Y994298D01*
X824866Y994318D01*
X824813Y994407D01*
X824764Y994498D01*
X824750Y994512D01*
X824740Y994529D01*
X824661Y994596D01*
X824586Y994668D01*
X824568Y994676D01*
X824553Y994689D01*
X824457Y994728D01*
X824363Y994771D01*
X824343Y994773D01*
X824325Y994781D01*
X824158Y994799D01*
X5842Y994799D01*
X5822Y994796D01*
X5803Y994798D01*
X5701Y994776D01*
X5599Y994760D01*
X5582Y994750D01*
X5562Y994746D01*
X5473Y994693D01*
X5382Y994644D01*
X5368Y994630D01*
X5351Y994620D01*
X5284Y994541D01*
X5212Y994466D01*
X5204Y994448D01*
X5191Y994433D01*
X5152Y994337D01*
X5109Y994243D01*
X5107Y994223D01*
X5099Y994205D01*
X5081Y994038D01*
X5081Y5842D01*
X5084Y5822D01*
X5082Y5803D01*
X5104Y5701D01*
X5120Y5599D01*
X5130Y5582D01*
X5134Y5562D01*
X5187Y5473D01*
X5236Y5382D01*
X5250Y5368D01*
X5260Y5351D01*
X5339Y5284D01*
X5414Y5212D01*
X5432Y5204D01*
X5447Y5191D01*
X5543Y5152D01*
X5637Y5109D01*
X5657Y5107D01*
X5675Y5099D01*
X5842Y5081D01*
X824158Y5081D01*
X824178Y5084D01*
G37*
%LPC*%
G36*
X484468Y480575D02*
X484468Y480575D01*
X483575Y481468D01*
X483575Y495732D01*
X484486Y496643D01*
X484523Y496656D01*
X484574Y496664D01*
X484638Y496698D01*
X484705Y496723D01*
X484746Y496755D01*
X484792Y496780D01*
X484841Y496832D01*
X484897Y496876D01*
X484925Y496920D01*
X484961Y496958D01*
X484991Y497023D01*
X485030Y497083D01*
X485043Y497134D01*
X485065Y497181D01*
X485073Y497252D01*
X485090Y497322D01*
X485086Y497374D01*
X485092Y497425D01*
X485077Y497496D01*
X485071Y497567D01*
X485051Y497615D01*
X485040Y497666D01*
X485003Y497727D01*
X484975Y497793D01*
X484930Y497849D01*
X484913Y497877D01*
X484896Y497892D01*
X484870Y497924D01*
X448817Y533977D01*
X448817Y560314D01*
X448814Y560334D01*
X448816Y560353D01*
X448794Y560455D01*
X448778Y560557D01*
X448768Y560574D01*
X448764Y560594D01*
X448711Y560683D01*
X448662Y560774D01*
X448648Y560788D01*
X448638Y560805D01*
X448559Y560872D01*
X448484Y560944D01*
X448466Y560952D01*
X448451Y560965D01*
X448355Y561004D01*
X448261Y561047D01*
X448241Y561049D01*
X448223Y561057D01*
X448056Y561075D01*
X443318Y561075D01*
X442425Y561968D01*
X442425Y566122D01*
X442414Y566192D01*
X442412Y566264D01*
X442394Y566313D01*
X442386Y566364D01*
X442352Y566428D01*
X442327Y566495D01*
X442295Y566536D01*
X442270Y566582D01*
X442219Y566631D01*
X442174Y566687D01*
X442130Y566715D01*
X442092Y566751D01*
X442027Y566781D01*
X441967Y566820D01*
X441916Y566833D01*
X441869Y566855D01*
X441798Y566863D01*
X441728Y566880D01*
X441676Y566876D01*
X441625Y566882D01*
X441554Y566867D01*
X441483Y566861D01*
X441435Y566841D01*
X441384Y566830D01*
X441323Y566793D01*
X441257Y566765D01*
X441201Y566720D01*
X441173Y566703D01*
X441158Y566686D01*
X441126Y566660D01*
X440903Y566437D01*
X439009Y566437D01*
X437446Y568000D01*
X419356Y586090D01*
X419282Y586143D01*
X419212Y586203D01*
X419182Y586215D01*
X419156Y586234D01*
X419069Y586261D01*
X418984Y586295D01*
X418943Y586299D01*
X418921Y586306D01*
X418889Y586305D01*
X418817Y586313D01*
X373635Y586313D01*
X373545Y586299D01*
X373454Y586291D01*
X373424Y586279D01*
X373392Y586274D01*
X373312Y586231D01*
X373228Y586195D01*
X373195Y586169D01*
X373175Y586158D01*
X373153Y586135D01*
X373097Y586090D01*
X372119Y585113D01*
X372092Y585075D01*
X372058Y585044D01*
X372021Y584976D01*
X371975Y584913D01*
X371962Y584869D01*
X371940Y584829D01*
X371926Y584752D01*
X371903Y584678D01*
X371904Y584632D01*
X371896Y584587D01*
X371907Y584510D01*
X371909Y584432D01*
X371925Y584389D01*
X371932Y584343D01*
X371967Y584274D01*
X371994Y584201D01*
X372022Y584165D01*
X372043Y584124D01*
X372099Y584070D01*
X372147Y584009D01*
X372186Y583984D01*
X372219Y583952D01*
X372298Y583908D01*
X372743Y583464D01*
X372975Y582903D01*
X372975Y581599D01*
X365688Y581599D01*
X365669Y581596D01*
X365649Y581598D01*
X365547Y581576D01*
X365445Y581560D01*
X365444Y581559D01*
X365417Y581571D01*
X365397Y581573D01*
X365379Y581581D01*
X365212Y581599D01*
X357925Y581599D01*
X357925Y582903D01*
X358157Y583464D01*
X358598Y583904D01*
X358616Y583911D01*
X358677Y583960D01*
X358743Y584001D01*
X358772Y584036D01*
X358808Y584065D01*
X358850Y584130D01*
X358900Y584190D01*
X358916Y584233D01*
X358941Y584272D01*
X358960Y584347D01*
X358988Y584420D01*
X358990Y584466D01*
X359001Y584510D01*
X358995Y584588D01*
X358999Y584665D01*
X358986Y584709D01*
X358982Y584755D01*
X358952Y584827D01*
X358930Y584902D01*
X358904Y584939D01*
X358886Y584982D01*
X358800Y585089D01*
X358790Y585104D01*
X358786Y585107D01*
X358781Y585113D01*
X358139Y585754D01*
X358065Y585808D01*
X357996Y585867D01*
X357966Y585879D01*
X357940Y585898D01*
X357853Y585925D01*
X357768Y585959D01*
X357727Y585963D01*
X357705Y585970D01*
X357672Y585969D01*
X357601Y585977D01*
X311473Y585977D01*
X272072Y625378D01*
X271998Y625431D01*
X271928Y625491D01*
X271898Y625503D01*
X271872Y625522D01*
X271785Y625549D01*
X271700Y625583D01*
X271659Y625587D01*
X271637Y625594D01*
X271605Y625593D01*
X271533Y625601D01*
X206886Y625601D01*
X206866Y625598D01*
X206847Y625600D01*
X206745Y625578D01*
X206643Y625562D01*
X206626Y625552D01*
X206606Y625548D01*
X206517Y625495D01*
X206426Y625446D01*
X206412Y625432D01*
X206395Y625422D01*
X206328Y625343D01*
X206256Y625268D01*
X206248Y625250D01*
X206235Y625235D01*
X206196Y625139D01*
X206153Y625045D01*
X206151Y625025D01*
X206143Y625007D01*
X206125Y624840D01*
X206125Y615268D01*
X205232Y614375D01*
X179968Y614375D01*
X179075Y615268D01*
X179075Y640532D01*
X179968Y641425D01*
X190500Y641425D01*
X190520Y641428D01*
X190539Y641426D01*
X190641Y641448D01*
X190743Y641464D01*
X190760Y641474D01*
X190780Y641478D01*
X190869Y641531D01*
X190960Y641580D01*
X190974Y641594D01*
X190991Y641604D01*
X191058Y641683D01*
X191130Y641758D01*
X191138Y641776D01*
X191151Y641791D01*
X191190Y641887D01*
X191233Y641981D01*
X191235Y642001D01*
X191243Y642019D01*
X191261Y642186D01*
X191261Y692114D01*
X191258Y692134D01*
X191260Y692153D01*
X191238Y692255D01*
X191222Y692357D01*
X191212Y692374D01*
X191208Y692394D01*
X191155Y692483D01*
X191106Y692574D01*
X191092Y692588D01*
X191082Y692605D01*
X191003Y692672D01*
X190928Y692744D01*
X190910Y692752D01*
X190895Y692765D01*
X190799Y692804D01*
X190705Y692847D01*
X190685Y692849D01*
X190667Y692857D01*
X190500Y692875D01*
X188268Y692875D01*
X187375Y693768D01*
X187375Y702564D01*
X187372Y702584D01*
X187374Y702603D01*
X187352Y702705D01*
X187336Y702807D01*
X187326Y702824D01*
X187322Y702844D01*
X187269Y702933D01*
X187220Y703024D01*
X187206Y703038D01*
X187196Y703055D01*
X187117Y703122D01*
X187042Y703194D01*
X187024Y703202D01*
X187009Y703215D01*
X186913Y703254D01*
X186819Y703297D01*
X186799Y703299D01*
X186781Y703307D01*
X186614Y703325D01*
X115563Y703325D01*
X115472Y703311D01*
X115382Y703303D01*
X115352Y703291D01*
X115320Y703286D01*
X115239Y703243D01*
X115155Y703207D01*
X115123Y703181D01*
X115102Y703170D01*
X115080Y703147D01*
X115024Y703102D01*
X112199Y700277D01*
X109467Y700277D01*
X109377Y700263D01*
X109286Y700255D01*
X109256Y700243D01*
X109224Y700238D01*
X109143Y700195D01*
X109059Y700159D01*
X109027Y700133D01*
X109006Y700122D01*
X108984Y700099D01*
X108928Y700054D01*
X107998Y699124D01*
X107956Y699066D01*
X107907Y699014D01*
X107885Y698967D01*
X107855Y698925D01*
X107834Y698856D01*
X107803Y698791D01*
X107798Y698739D01*
X107782Y698689D01*
X107784Y698618D01*
X107776Y698547D01*
X107787Y698496D01*
X107789Y698444D01*
X107813Y698376D01*
X107828Y698306D01*
X107855Y698261D01*
X107873Y698213D01*
X107918Y698157D01*
X107955Y698095D01*
X107994Y698061D01*
X108027Y698021D01*
X108052Y698004D01*
X109125Y696932D01*
X109125Y679668D01*
X108232Y678775D01*
X88968Y678775D01*
X88075Y679668D01*
X88075Y696932D01*
X88968Y697825D01*
X99915Y697825D01*
X100006Y697839D01*
X100096Y697847D01*
X100126Y697859D01*
X100158Y697864D01*
X100239Y697907D01*
X100323Y697943D01*
X100355Y697969D01*
X100376Y697980D01*
X100398Y698003D01*
X100454Y698048D01*
X107257Y704851D01*
X109989Y704851D01*
X110080Y704865D01*
X110170Y704873D01*
X110200Y704885D01*
X110232Y704890D01*
X110313Y704933D01*
X110397Y704969D01*
X110429Y704995D01*
X110450Y705006D01*
X110472Y705029D01*
X110528Y705074D01*
X111790Y706336D01*
X111843Y706410D01*
X111903Y706480D01*
X111915Y706510D01*
X111934Y706536D01*
X111961Y706623D01*
X111995Y706708D01*
X111999Y706749D01*
X112006Y706771D01*
X112005Y706803D01*
X112013Y706875D01*
X112013Y757689D01*
X111999Y757780D01*
X111991Y757870D01*
X111979Y757900D01*
X111974Y757932D01*
X111931Y758013D01*
X111895Y758097D01*
X111869Y758129D01*
X111858Y758150D01*
X111835Y758172D01*
X111790Y758228D01*
X106866Y763152D01*
X106792Y763205D01*
X106722Y763265D01*
X106692Y763277D01*
X106666Y763296D01*
X106579Y763323D01*
X106494Y763357D01*
X106453Y763361D01*
X106431Y763368D01*
X106399Y763367D01*
X106327Y763375D01*
X84618Y763375D01*
X83725Y764268D01*
X83725Y785732D01*
X84618Y786625D01*
X115382Y786625D01*
X116275Y785732D01*
X116275Y764268D01*
X115382Y763375D01*
X114948Y763375D01*
X114878Y763364D01*
X114806Y763362D01*
X114757Y763344D01*
X114706Y763336D01*
X114642Y763302D01*
X114575Y763277D01*
X114534Y763245D01*
X114488Y763220D01*
X114439Y763168D01*
X114383Y763124D01*
X114355Y763080D01*
X114319Y763042D01*
X114289Y762977D01*
X114250Y762917D01*
X114237Y762866D01*
X114215Y762819D01*
X114207Y762748D01*
X114190Y762678D01*
X114194Y762626D01*
X114188Y762575D01*
X114203Y762504D01*
X114209Y762433D01*
X114229Y762385D01*
X114240Y762334D01*
X114277Y762273D01*
X114305Y762207D01*
X114350Y762151D01*
X114367Y762123D01*
X114384Y762108D01*
X114410Y762076D01*
X116587Y759899D01*
X116587Y708660D01*
X116590Y708640D01*
X116588Y708621D01*
X116610Y708519D01*
X116626Y708417D01*
X116636Y708400D01*
X116640Y708380D01*
X116693Y708291D01*
X116742Y708200D01*
X116756Y708186D01*
X116766Y708169D01*
X116845Y708102D01*
X116920Y708030D01*
X116938Y708022D01*
X116953Y708009D01*
X117049Y707970D01*
X117143Y707927D01*
X117163Y707925D01*
X117181Y707917D01*
X117348Y707899D01*
X186614Y707899D01*
X186634Y707902D01*
X186653Y707900D01*
X186755Y707922D01*
X186857Y707938D01*
X186874Y707948D01*
X186894Y707952D01*
X186983Y708005D01*
X187074Y708054D01*
X187088Y708068D01*
X187105Y708078D01*
X187172Y708157D01*
X187244Y708232D01*
X187252Y708250D01*
X187265Y708265D01*
X187304Y708361D01*
X187347Y708455D01*
X187349Y708475D01*
X187357Y708493D01*
X187375Y708660D01*
X187375Y713032D01*
X188268Y713925D01*
X201360Y713925D01*
X201450Y713939D01*
X201541Y713947D01*
X201570Y713959D01*
X201602Y713964D01*
X201683Y714007D01*
X201767Y714043D01*
X201799Y714069D01*
X201820Y714080D01*
X201842Y714103D01*
X201898Y714148D01*
X235234Y747484D01*
X235287Y747558D01*
X235347Y747628D01*
X235359Y747658D01*
X235378Y747684D01*
X235405Y747771D01*
X235439Y747856D01*
X235443Y747897D01*
X235450Y747919D01*
X235449Y747951D01*
X235457Y748023D01*
X235457Y764314D01*
X235454Y764334D01*
X235456Y764353D01*
X235434Y764455D01*
X235418Y764557D01*
X235408Y764574D01*
X235404Y764594D01*
X235351Y764683D01*
X235302Y764774D01*
X235288Y764788D01*
X235278Y764805D01*
X235199Y764872D01*
X235124Y764944D01*
X235106Y764952D01*
X235091Y764965D01*
X234995Y765004D01*
X234901Y765047D01*
X234881Y765049D01*
X234863Y765057D01*
X234696Y765075D01*
X227968Y765075D01*
X227075Y765968D01*
X227075Y785232D01*
X227968Y786125D01*
X245232Y786125D01*
X246125Y785232D01*
X246125Y765968D01*
X245232Y765075D01*
X240792Y765075D01*
X240772Y765072D01*
X240753Y765074D01*
X240651Y765052D01*
X240549Y765036D01*
X240532Y765026D01*
X240512Y765022D01*
X240423Y764969D01*
X240332Y764920D01*
X240318Y764906D01*
X240301Y764896D01*
X240234Y764817D01*
X240162Y764742D01*
X240154Y764724D01*
X240141Y764709D01*
X240102Y764613D01*
X240059Y764519D01*
X240057Y764499D01*
X240049Y764481D01*
X240031Y764314D01*
X240031Y745813D01*
X209442Y715224D01*
X209400Y715166D01*
X209351Y715114D01*
X209329Y715067D01*
X209299Y715025D01*
X209278Y714956D01*
X209247Y714891D01*
X209242Y714839D01*
X209226Y714789D01*
X209228Y714718D01*
X209220Y714647D01*
X209231Y714596D01*
X209233Y714544D01*
X209257Y714476D01*
X209272Y714406D01*
X209299Y714361D01*
X209317Y714313D01*
X209362Y714257D01*
X209399Y714195D01*
X209438Y714161D01*
X209471Y714121D01*
X209531Y714082D01*
X209586Y714035D01*
X209634Y714016D01*
X209678Y713988D01*
X209747Y713970D01*
X209814Y713943D01*
X209885Y713935D01*
X209916Y713927D01*
X209940Y713929D01*
X209980Y713925D01*
X211032Y713925D01*
X211925Y713032D01*
X211925Y693768D01*
X211032Y692875D01*
X196596Y692875D01*
X196576Y692872D01*
X196557Y692874D01*
X196455Y692852D01*
X196353Y692836D01*
X196336Y692826D01*
X196316Y692822D01*
X196227Y692769D01*
X196136Y692720D01*
X196122Y692706D01*
X196105Y692696D01*
X196038Y692617D01*
X195966Y692542D01*
X195958Y692524D01*
X195945Y692509D01*
X195906Y692413D01*
X195863Y692319D01*
X195861Y692299D01*
X195853Y692281D01*
X195835Y692114D01*
X195835Y642186D01*
X195838Y642166D01*
X195836Y642147D01*
X195858Y642045D01*
X195874Y641943D01*
X195884Y641926D01*
X195888Y641906D01*
X195941Y641817D01*
X195990Y641726D01*
X196004Y641712D01*
X196014Y641695D01*
X196093Y641628D01*
X196168Y641556D01*
X196186Y641548D01*
X196201Y641535D01*
X196297Y641496D01*
X196391Y641453D01*
X196411Y641451D01*
X196429Y641443D01*
X196596Y641425D01*
X205232Y641425D01*
X206125Y640532D01*
X206125Y630936D01*
X206128Y630916D01*
X206126Y630897D01*
X206148Y630795D01*
X206164Y630693D01*
X206174Y630676D01*
X206178Y630656D01*
X206231Y630567D01*
X206280Y630476D01*
X206294Y630462D01*
X206304Y630445D01*
X206383Y630378D01*
X206458Y630306D01*
X206476Y630298D01*
X206491Y630285D01*
X206587Y630246D01*
X206681Y630203D01*
X206701Y630201D01*
X206719Y630193D01*
X206886Y630175D01*
X273743Y630175D01*
X313144Y590774D01*
X313218Y590721D01*
X313288Y590661D01*
X313318Y590649D01*
X313344Y590630D01*
X313431Y590603D01*
X313516Y590569D01*
X313557Y590565D01*
X313579Y590558D01*
X313611Y590559D01*
X313683Y590551D01*
X357164Y590551D01*
X357184Y590554D01*
X357203Y590552D01*
X357305Y590574D01*
X357407Y590590D01*
X357424Y590600D01*
X357444Y590604D01*
X357533Y590657D01*
X357624Y590706D01*
X357638Y590720D01*
X357655Y590730D01*
X357722Y590809D01*
X357794Y590884D01*
X357802Y590902D01*
X357815Y590917D01*
X357854Y591013D01*
X357897Y591107D01*
X357899Y591127D01*
X357907Y591145D01*
X357915Y591222D01*
X358755Y592062D01*
X358767Y592078D01*
X358783Y592090D01*
X358839Y592178D01*
X358899Y592261D01*
X358905Y592280D01*
X358916Y592297D01*
X358941Y592398D01*
X358971Y592497D01*
X358971Y592516D01*
X358976Y592536D01*
X358968Y592639D01*
X358965Y592742D01*
X358958Y592761D01*
X358957Y592781D01*
X358916Y592876D01*
X358881Y592973D01*
X358868Y592989D01*
X358860Y593007D01*
X358755Y593138D01*
X357925Y593968D01*
X357925Y599232D01*
X358755Y600062D01*
X358767Y600078D01*
X358783Y600090D01*
X358839Y600178D01*
X358899Y600261D01*
X358905Y600280D01*
X358916Y600297D01*
X358941Y600398D01*
X358971Y600497D01*
X358971Y600516D01*
X358976Y600536D01*
X358968Y600639D01*
X358965Y600742D01*
X358958Y600761D01*
X358957Y600781D01*
X358916Y600876D01*
X358881Y600973D01*
X358868Y600989D01*
X358860Y601007D01*
X358755Y601138D01*
X357925Y601968D01*
X357925Y601980D01*
X357922Y602000D01*
X357924Y602019D01*
X357902Y602121D01*
X357886Y602223D01*
X357876Y602240D01*
X357872Y602260D01*
X357819Y602349D01*
X357770Y602440D01*
X357756Y602454D01*
X357746Y602471D01*
X357667Y602538D01*
X357592Y602610D01*
X357574Y602618D01*
X357559Y602631D01*
X357463Y602670D01*
X357369Y602713D01*
X357349Y602715D01*
X357331Y602723D01*
X357164Y602741D01*
X354145Y602741D01*
X294893Y661993D01*
X294893Y770567D01*
X300805Y776479D01*
X301214Y776479D01*
X301234Y776482D01*
X301253Y776480D01*
X301355Y776502D01*
X301457Y776518D01*
X301474Y776528D01*
X301494Y776532D01*
X301583Y776585D01*
X301674Y776634D01*
X301688Y776648D01*
X301705Y776658D01*
X301772Y776737D01*
X301844Y776812D01*
X301852Y776830D01*
X301865Y776845D01*
X301904Y776941D01*
X301947Y777035D01*
X301949Y777055D01*
X301957Y777073D01*
X301975Y777240D01*
X301975Y790832D01*
X302868Y791725D01*
X307848Y791725D01*
X307868Y791728D01*
X307887Y791726D01*
X307989Y791748D01*
X308091Y791764D01*
X308108Y791774D01*
X308128Y791778D01*
X308217Y791831D01*
X308308Y791880D01*
X308322Y791894D01*
X308339Y791904D01*
X308406Y791983D01*
X308478Y792058D01*
X308486Y792076D01*
X308499Y792091D01*
X308538Y792187D01*
X308581Y792281D01*
X308583Y792301D01*
X308591Y792319D01*
X308609Y792486D01*
X308609Y812553D01*
X308595Y812644D01*
X308587Y812734D01*
X308575Y812764D01*
X308570Y812796D01*
X308527Y812877D01*
X308491Y812961D01*
X308465Y812993D01*
X308454Y813014D01*
X308431Y813036D01*
X308386Y813092D01*
X185204Y936274D01*
X185130Y936327D01*
X185060Y936387D01*
X185030Y936399D01*
X185004Y936418D01*
X184917Y936445D01*
X184832Y936479D01*
X184791Y936483D01*
X184769Y936490D01*
X184737Y936489D01*
X184665Y936497D01*
X170427Y936497D01*
X170336Y936483D01*
X170246Y936475D01*
X170216Y936463D01*
X170184Y936458D01*
X170103Y936415D01*
X170019Y936379D01*
X169987Y936353D01*
X169966Y936342D01*
X169944Y936319D01*
X169888Y936274D01*
X155721Y922107D01*
X155653Y922012D01*
X155583Y921918D01*
X155581Y921912D01*
X155577Y921907D01*
X155543Y921795D01*
X155506Y921684D01*
X155506Y921678D01*
X155505Y921672D01*
X155508Y921555D01*
X155509Y921438D01*
X155511Y921431D01*
X155511Y921426D01*
X155517Y921409D01*
X155556Y921277D01*
X155565Y921255D01*
X155565Y918245D01*
X154787Y916367D01*
X154776Y916323D01*
X154757Y916281D01*
X154748Y916204D01*
X154731Y916128D01*
X154735Y916082D01*
X154730Y916037D01*
X154746Y915960D01*
X154754Y915883D01*
X154772Y915841D01*
X154782Y915796D01*
X154822Y915729D01*
X154854Y915658D01*
X154885Y915624D01*
X154908Y915585D01*
X154967Y915534D01*
X155020Y915477D01*
X155060Y915455D01*
X155095Y915425D01*
X155167Y915396D01*
X155236Y915359D01*
X155281Y915350D01*
X155323Y915333D01*
X155459Y915318D01*
X155478Y915315D01*
X155483Y915316D01*
X155490Y915315D01*
X157505Y915315D01*
X158961Y914712D01*
X159005Y914701D01*
X159047Y914682D01*
X159124Y914673D01*
X159200Y914655D01*
X159246Y914660D01*
X159291Y914655D01*
X159368Y914671D01*
X159445Y914679D01*
X159487Y914697D01*
X159532Y914707D01*
X159599Y914747D01*
X159670Y914779D01*
X159704Y914810D01*
X159743Y914833D01*
X159794Y914892D01*
X159851Y914945D01*
X159873Y914985D01*
X159903Y915020D01*
X159932Y915092D01*
X159969Y915160D01*
X159978Y915206D01*
X159995Y915248D01*
X160010Y915384D01*
X160013Y915403D01*
X160012Y915407D01*
X160013Y915415D01*
X160013Y920129D01*
X162599Y926372D01*
X167378Y931151D01*
X173621Y933737D01*
X180379Y933737D01*
X186622Y931151D01*
X191401Y926372D01*
X193987Y920129D01*
X193987Y913371D01*
X191401Y907128D01*
X186622Y902349D01*
X180379Y899763D01*
X173621Y899763D01*
X167378Y902349D01*
X164346Y905381D01*
X164309Y905408D01*
X164278Y905442D01*
X164209Y905479D01*
X164146Y905525D01*
X164103Y905538D01*
X164062Y905560D01*
X163986Y905574D01*
X163911Y905597D01*
X163865Y905596D01*
X163820Y905604D01*
X163743Y905593D01*
X163665Y905591D01*
X163622Y905575D01*
X163577Y905568D01*
X163507Y905533D01*
X163434Y905506D01*
X163398Y905477D01*
X163358Y905457D01*
X163303Y905401D01*
X163242Y905352D01*
X163217Y905314D01*
X163185Y905281D01*
X163119Y905161D01*
X163109Y905146D01*
X163108Y905141D01*
X163104Y905134D01*
X162413Y903465D01*
X160285Y901337D01*
X157505Y900185D01*
X155448Y900185D01*
X155428Y900182D01*
X155409Y900184D01*
X155320Y900165D01*
X155267Y900161D01*
X155247Y900152D01*
X155205Y900146D01*
X155188Y900136D01*
X155168Y900132D01*
X155092Y900086D01*
X155041Y900065D01*
X155018Y900046D01*
X154988Y900030D01*
X154974Y900016D01*
X154957Y900006D01*
X154935Y899980D01*
X154910Y899960D01*
X107666Y852716D01*
X107613Y852642D01*
X107553Y852572D01*
X107541Y852542D01*
X107522Y852516D01*
X107495Y852429D01*
X107461Y852344D01*
X107457Y852303D01*
X107450Y852281D01*
X107451Y852249D01*
X107443Y852177D01*
X107443Y837386D01*
X107446Y837366D01*
X107444Y837347D01*
X107466Y837245D01*
X107482Y837143D01*
X107492Y837126D01*
X107496Y837106D01*
X107549Y837017D01*
X107598Y836926D01*
X107612Y836912D01*
X107622Y836895D01*
X107701Y836828D01*
X107776Y836756D01*
X107794Y836748D01*
X107809Y836735D01*
X107905Y836696D01*
X107999Y836653D01*
X108019Y836651D01*
X108037Y836643D01*
X108204Y836625D01*
X115382Y836625D01*
X116275Y835732D01*
X116275Y814268D01*
X115382Y813375D01*
X84618Y813375D01*
X83725Y814268D01*
X83725Y835732D01*
X84618Y836625D01*
X102108Y836625D01*
X102128Y836628D01*
X102147Y836626D01*
X102249Y836648D01*
X102351Y836664D01*
X102368Y836674D01*
X102388Y836678D01*
X102477Y836731D01*
X102568Y836780D01*
X102582Y836794D01*
X102599Y836804D01*
X102666Y836883D01*
X102738Y836958D01*
X102746Y836976D01*
X102759Y836991D01*
X102798Y837087D01*
X102841Y837181D01*
X102843Y837201D01*
X102851Y837219D01*
X102869Y837386D01*
X102869Y854387D01*
X149890Y901408D01*
X149943Y901482D01*
X150003Y901552D01*
X150015Y901582D01*
X150034Y901608D01*
X150061Y901695D01*
X150095Y901780D01*
X150099Y901821D01*
X150106Y901843D01*
X150105Y901875D01*
X150113Y901947D01*
X150113Y902623D01*
X150112Y902631D01*
X150112Y902634D01*
X150109Y902647D01*
X150099Y902713D01*
X150091Y902804D01*
X150079Y902834D01*
X150074Y902866D01*
X150031Y902947D01*
X149995Y903031D01*
X149969Y903063D01*
X149958Y903083D01*
X149935Y903106D01*
X149890Y903162D01*
X149587Y903465D01*
X148703Y905598D01*
X148665Y905659D01*
X148636Y905725D01*
X148601Y905763D01*
X148574Y905807D01*
X148518Y905853D01*
X148470Y905906D01*
X148424Y905931D01*
X148384Y905964D01*
X148317Y905990D01*
X148254Y906024D01*
X148203Y906034D01*
X148155Y906052D01*
X148083Y906055D01*
X148012Y906068D01*
X147961Y906060D01*
X147909Y906063D01*
X147840Y906043D01*
X147769Y906032D01*
X147723Y906009D01*
X147673Y905994D01*
X147614Y905953D01*
X147550Y905921D01*
X147513Y905884D01*
X147471Y905854D01*
X147428Y905796D01*
X147378Y905745D01*
X147343Y905682D01*
X147324Y905657D01*
X147317Y905634D01*
X147297Y905598D01*
X146413Y903465D01*
X144285Y901337D01*
X141505Y900185D01*
X138495Y900185D01*
X135715Y901337D01*
X133587Y903465D01*
X132703Y905598D01*
X132665Y905659D01*
X132636Y905725D01*
X132601Y905763D01*
X132574Y905807D01*
X132518Y905853D01*
X132470Y905906D01*
X132424Y905931D01*
X132384Y905964D01*
X132317Y905990D01*
X132254Y906024D01*
X132203Y906034D01*
X132155Y906052D01*
X132083Y906055D01*
X132012Y906068D01*
X131961Y906060D01*
X131909Y906063D01*
X131840Y906043D01*
X131769Y906032D01*
X131723Y906009D01*
X131673Y905994D01*
X131614Y905953D01*
X131550Y905921D01*
X131513Y905884D01*
X131471Y905854D01*
X131428Y905796D01*
X131378Y905745D01*
X131343Y905682D01*
X131324Y905657D01*
X131317Y905634D01*
X131297Y905598D01*
X130704Y904167D01*
X129876Y902928D01*
X128822Y901874D01*
X127583Y901046D01*
X126207Y900476D01*
X125523Y900340D01*
X125523Y906988D01*
X125520Y907008D01*
X125522Y907027D01*
X125500Y907129D01*
X125483Y907231D01*
X125474Y907248D01*
X125470Y907268D01*
X125417Y907357D01*
X125368Y907448D01*
X125354Y907462D01*
X125344Y907479D01*
X125265Y907546D01*
X125190Y907617D01*
X125172Y907626D01*
X125157Y907639D01*
X125061Y907677D01*
X124967Y907721D01*
X124947Y907723D01*
X124929Y907731D01*
X124762Y907749D01*
X123238Y907749D01*
X123218Y907746D01*
X123199Y907748D01*
X123097Y907726D01*
X122995Y907709D01*
X122978Y907700D01*
X122958Y907696D01*
X122869Y907643D01*
X122778Y907594D01*
X122764Y907580D01*
X122747Y907570D01*
X122680Y907491D01*
X122609Y907416D01*
X122600Y907398D01*
X122587Y907383D01*
X122548Y907287D01*
X122505Y907193D01*
X122503Y907173D01*
X122495Y907155D01*
X122477Y906988D01*
X122477Y900340D01*
X121793Y900476D01*
X120417Y901046D01*
X119178Y901874D01*
X118124Y902928D01*
X117296Y904167D01*
X116896Y905134D01*
X116871Y905173D01*
X116856Y905216D01*
X116807Y905277D01*
X116766Y905343D01*
X116731Y905373D01*
X116702Y905408D01*
X116636Y905450D01*
X116576Y905500D01*
X116534Y905516D01*
X116495Y905541D01*
X116419Y905560D01*
X116347Y905588D01*
X116301Y905590D01*
X116256Y905601D01*
X116179Y905595D01*
X116101Y905599D01*
X116057Y905586D01*
X116011Y905582D01*
X115940Y905552D01*
X115865Y905530D01*
X115827Y905504D01*
X115785Y905486D01*
X115678Y905401D01*
X115663Y905390D01*
X115660Y905386D01*
X115654Y905381D01*
X112622Y902349D01*
X106379Y899763D01*
X99621Y899763D01*
X93378Y902349D01*
X88599Y907128D01*
X86013Y913371D01*
X86013Y920129D01*
X88599Y926372D01*
X93378Y931151D01*
X99621Y933737D01*
X106379Y933737D01*
X112622Y931151D01*
X117401Y926372D01*
X119987Y920129D01*
X119987Y915415D01*
X119994Y915370D01*
X119992Y915324D01*
X120014Y915249D01*
X120026Y915172D01*
X120048Y915132D01*
X120061Y915088D01*
X120105Y915023D01*
X120142Y914955D01*
X120175Y914923D01*
X120201Y914885D01*
X120264Y914839D01*
X120320Y914785D01*
X120362Y914766D01*
X120398Y914739D01*
X120472Y914715D01*
X120543Y914682D01*
X120589Y914677D01*
X120632Y914663D01*
X120710Y914663D01*
X120787Y914655D01*
X120832Y914664D01*
X120878Y914665D01*
X121009Y914703D01*
X121028Y914707D01*
X121032Y914710D01*
X121039Y914712D01*
X121793Y915024D01*
X122477Y915160D01*
X122477Y908512D01*
X122480Y908492D01*
X122478Y908473D01*
X122500Y908371D01*
X122517Y908269D01*
X122526Y908252D01*
X122530Y908232D01*
X122583Y908143D01*
X122632Y908052D01*
X122646Y908038D01*
X122656Y908021D01*
X122735Y907954D01*
X122810Y907883D01*
X122828Y907874D01*
X122843Y907861D01*
X122939Y907823D01*
X123033Y907779D01*
X123053Y907777D01*
X123071Y907769D01*
X123238Y907751D01*
X124762Y907751D01*
X124782Y907754D01*
X124801Y907752D01*
X124903Y907774D01*
X125005Y907791D01*
X125022Y907800D01*
X125042Y907804D01*
X125131Y907857D01*
X125222Y907906D01*
X125236Y907920D01*
X125253Y907930D01*
X125320Y908009D01*
X125391Y908084D01*
X125400Y908102D01*
X125413Y908117D01*
X125452Y908213D01*
X125495Y908307D01*
X125497Y908327D01*
X125505Y908345D01*
X125523Y908512D01*
X125523Y915467D01*
X125513Y915532D01*
X125512Y915598D01*
X125489Y915678D01*
X125483Y915710D01*
X125474Y915727D01*
X125465Y915759D01*
X124435Y918245D01*
X124435Y921255D01*
X125587Y924035D01*
X127715Y926163D01*
X130495Y927315D01*
X133505Y927315D01*
X136285Y926163D01*
X138413Y924035D01*
X139297Y921902D01*
X139335Y921841D01*
X139364Y921775D01*
X139399Y921737D01*
X139426Y921693D01*
X139482Y921647D01*
X139530Y921594D01*
X139576Y921569D01*
X139616Y921536D01*
X139683Y921510D01*
X139746Y921476D01*
X139797Y921466D01*
X139845Y921448D01*
X139917Y921445D01*
X139988Y921432D01*
X140039Y921440D01*
X140091Y921437D01*
X140160Y921457D01*
X140231Y921468D01*
X140277Y921491D01*
X140327Y921506D01*
X140386Y921547D01*
X140450Y921579D01*
X140487Y921616D01*
X140529Y921646D01*
X140572Y921704D01*
X140622Y921755D01*
X140657Y921818D01*
X140676Y921843D01*
X140683Y921866D01*
X140703Y921902D01*
X141587Y924035D01*
X143715Y926163D01*
X146495Y927315D01*
X149505Y927315D01*
X152288Y926162D01*
X152375Y926106D01*
X152458Y926046D01*
X152477Y926040D01*
X152494Y926029D01*
X152595Y926004D01*
X152694Y925973D01*
X152713Y925974D01*
X152733Y925969D01*
X152836Y925977D01*
X152939Y925980D01*
X152958Y925987D01*
X152978Y925988D01*
X153073Y926029D01*
X153170Y926064D01*
X153186Y926077D01*
X153204Y926084D01*
X153335Y926189D01*
X168217Y941071D01*
X186875Y941071D01*
X313183Y814763D01*
X313183Y792486D01*
X313186Y792466D01*
X313184Y792447D01*
X313206Y792345D01*
X313222Y792243D01*
X313232Y792226D01*
X313236Y792206D01*
X313289Y792117D01*
X313338Y792026D01*
X313352Y792012D01*
X313362Y791995D01*
X313441Y791928D01*
X313516Y791856D01*
X313534Y791848D01*
X313549Y791835D01*
X313645Y791796D01*
X313739Y791753D01*
X313759Y791751D01*
X313777Y791743D01*
X313944Y791725D01*
X319132Y791725D01*
X320025Y790832D01*
X320025Y780772D01*
X320027Y780762D01*
X320026Y780755D01*
X320033Y780721D01*
X320036Y780702D01*
X320038Y780630D01*
X320056Y780581D01*
X320064Y780530D01*
X320098Y780466D01*
X320123Y780399D01*
X320155Y780358D01*
X320180Y780312D01*
X320232Y780263D01*
X320276Y780207D01*
X320320Y780179D01*
X320358Y780143D01*
X320423Y780113D01*
X320483Y780074D01*
X320534Y780061D01*
X320581Y780039D01*
X320652Y780031D01*
X320722Y780014D01*
X320774Y780018D01*
X320825Y780012D01*
X320896Y780027D01*
X320967Y780033D01*
X321015Y780053D01*
X321066Y780064D01*
X321127Y780101D01*
X321193Y780129D01*
X321249Y780174D01*
X321277Y780191D01*
X321292Y780208D01*
X321324Y780234D01*
X322102Y781012D01*
X322155Y781086D01*
X322167Y781100D01*
X322194Y781128D01*
X322197Y781134D01*
X322215Y781156D01*
X322227Y781186D01*
X322246Y781212D01*
X322272Y781296D01*
X322297Y781351D01*
X322299Y781363D01*
X322307Y781384D01*
X322311Y781425D01*
X322318Y781447D01*
X322317Y781479D01*
X322325Y781551D01*
X322325Y856749D01*
X322311Y856840D01*
X322303Y856930D01*
X322291Y856960D01*
X322286Y856992D01*
X322243Y857073D01*
X322207Y857157D01*
X322181Y857189D01*
X322170Y857210D01*
X322147Y857232D01*
X322102Y857288D01*
X310133Y869257D01*
X310133Y870214D01*
X310130Y870234D01*
X310132Y870253D01*
X310110Y870355D01*
X310094Y870457D01*
X310084Y870474D01*
X310080Y870494D01*
X310027Y870583D01*
X309978Y870674D01*
X309964Y870688D01*
X309954Y870705D01*
X309875Y870772D01*
X309800Y870844D01*
X309782Y870852D01*
X309767Y870865D01*
X309671Y870904D01*
X309577Y870947D01*
X309557Y870949D01*
X309539Y870957D01*
X309372Y870975D01*
X302368Y870975D01*
X301475Y871868D01*
X301475Y888132D01*
X302368Y889025D01*
X316632Y889025D01*
X317525Y888132D01*
X317525Y871868D01*
X316619Y870963D01*
X316578Y870962D01*
X316529Y870944D01*
X316478Y870936D01*
X316414Y870902D01*
X316347Y870877D01*
X316306Y870845D01*
X316260Y870820D01*
X316211Y870768D01*
X316155Y870724D01*
X316127Y870680D01*
X316091Y870642D01*
X316061Y870577D01*
X316022Y870517D01*
X316009Y870466D01*
X315987Y870419D01*
X315979Y870348D01*
X315962Y870278D01*
X315966Y870226D01*
X315960Y870175D01*
X315975Y870104D01*
X315981Y870033D01*
X316001Y869985D01*
X316012Y869934D01*
X316049Y869873D01*
X316077Y869807D01*
X316122Y869751D01*
X316139Y869723D01*
X316156Y869708D01*
X316182Y869676D01*
X326899Y858959D01*
X326899Y779341D01*
X325598Y778040D01*
X325545Y777966D01*
X325485Y777896D01*
X325473Y777866D01*
X325454Y777840D01*
X325427Y777753D01*
X325393Y777668D01*
X325389Y777627D01*
X325382Y777605D01*
X325383Y777573D01*
X325375Y777501D01*
X325375Y776293D01*
X320987Y771905D01*
X320786Y771905D01*
X320766Y771902D01*
X320747Y771904D01*
X320645Y771882D01*
X320543Y771866D01*
X320526Y771856D01*
X320506Y771852D01*
X320417Y771799D01*
X320326Y771750D01*
X320312Y771736D01*
X320295Y771726D01*
X320228Y771647D01*
X320156Y771572D01*
X320148Y771554D01*
X320135Y771539D01*
X320096Y771443D01*
X320053Y771349D01*
X320051Y771329D01*
X320043Y771311D01*
X320025Y771144D01*
X320025Y757568D01*
X319132Y756675D01*
X318516Y756675D01*
X318496Y756672D01*
X318477Y756674D01*
X318375Y756652D01*
X318273Y756636D01*
X318256Y756626D01*
X318236Y756622D01*
X318147Y756569D01*
X318056Y756520D01*
X318042Y756506D01*
X318025Y756496D01*
X317958Y756417D01*
X317886Y756342D01*
X317878Y756324D01*
X317865Y756309D01*
X317826Y756213D01*
X317783Y756119D01*
X317781Y756099D01*
X317773Y756081D01*
X317755Y755914D01*
X317755Y726687D01*
X317769Y726596D01*
X317777Y726506D01*
X317789Y726476D01*
X317794Y726444D01*
X317837Y726363D01*
X317873Y726279D01*
X317899Y726247D01*
X317910Y726226D01*
X317933Y726204D01*
X317978Y726148D01*
X374366Y669760D01*
X374424Y669718D01*
X374476Y669669D01*
X374523Y669647D01*
X374565Y669617D01*
X374634Y669596D01*
X374699Y669565D01*
X374751Y669560D01*
X374801Y669544D01*
X374872Y669546D01*
X374943Y669538D01*
X374994Y669549D01*
X375046Y669551D01*
X375114Y669575D01*
X375184Y669590D01*
X375229Y669617D01*
X375277Y669635D01*
X375333Y669680D01*
X375395Y669717D01*
X375429Y669756D01*
X375469Y669789D01*
X375508Y669849D01*
X375555Y669904D01*
X375574Y669952D01*
X375602Y669996D01*
X375620Y670065D01*
X375647Y670132D01*
X375655Y670203D01*
X375663Y670234D01*
X375661Y670258D01*
X375665Y670298D01*
X375665Y689795D01*
X377228Y691358D01*
X377239Y691374D01*
X377255Y691386D01*
X377311Y691474D01*
X377371Y691557D01*
X377377Y691576D01*
X377388Y691593D01*
X377413Y691694D01*
X377444Y691793D01*
X377443Y691812D01*
X377448Y691832D01*
X377440Y691935D01*
X377437Y692038D01*
X377430Y692057D01*
X377429Y692077D01*
X377389Y692172D01*
X377353Y692269D01*
X377340Y692285D01*
X377333Y692303D01*
X377228Y692434D01*
X355853Y713809D01*
X355853Y755914D01*
X355850Y755934D01*
X355852Y755953D01*
X355830Y756055D01*
X355814Y756157D01*
X355804Y756174D01*
X355800Y756194D01*
X355747Y756283D01*
X355698Y756374D01*
X355684Y756388D01*
X355674Y756405D01*
X355595Y756472D01*
X355520Y756544D01*
X355502Y756552D01*
X355487Y756565D01*
X355391Y756604D01*
X355297Y756647D01*
X355277Y756649D01*
X355259Y756657D01*
X355092Y756675D01*
X349068Y756675D01*
X348175Y757568D01*
X348175Y771832D01*
X349068Y772725D01*
X365332Y772725D01*
X366225Y771832D01*
X366225Y757568D01*
X365332Y756675D01*
X361188Y756675D01*
X361168Y756672D01*
X361149Y756674D01*
X361047Y756652D01*
X360945Y756636D01*
X360928Y756626D01*
X360908Y756622D01*
X360819Y756569D01*
X360728Y756520D01*
X360714Y756506D01*
X360697Y756496D01*
X360630Y756417D01*
X360558Y756342D01*
X360550Y756324D01*
X360537Y756309D01*
X360498Y756213D01*
X360455Y756119D01*
X360453Y756099D01*
X360445Y756081D01*
X360427Y755914D01*
X360427Y716019D01*
X360441Y715928D01*
X360449Y715838D01*
X360461Y715808D01*
X360466Y715776D01*
X360509Y715695D01*
X360545Y715611D01*
X360571Y715579D01*
X360582Y715558D01*
X360605Y715536D01*
X360650Y715480D01*
X381724Y694406D01*
X381798Y694353D01*
X381868Y694293D01*
X381898Y694281D01*
X381924Y694262D01*
X382011Y694235D01*
X382096Y694201D01*
X382137Y694197D01*
X382159Y694190D01*
X382191Y694191D01*
X382263Y694183D01*
X425457Y694183D01*
X425548Y694197D01*
X425638Y694205D01*
X425668Y694217D01*
X425700Y694222D01*
X425781Y694265D01*
X425865Y694301D01*
X425897Y694327D01*
X425918Y694338D01*
X425940Y694361D01*
X425996Y694406D01*
X433852Y702262D01*
X433905Y702336D01*
X433965Y702406D01*
X433977Y702436D01*
X433996Y702462D01*
X434023Y702549D01*
X434057Y702634D01*
X434061Y702675D01*
X434068Y702697D01*
X434067Y702729D01*
X434075Y702801D01*
X434075Y707632D01*
X434968Y708525D01*
X451232Y708525D01*
X452125Y707632D01*
X452125Y693368D01*
X451232Y692475D01*
X434968Y692475D01*
X434075Y693368D01*
X434075Y694180D01*
X434064Y694250D01*
X434062Y694322D01*
X434044Y694371D01*
X434036Y694422D01*
X434002Y694486D01*
X433977Y694553D01*
X433945Y694594D01*
X433920Y694640D01*
X433868Y694689D01*
X433824Y694745D01*
X433780Y694773D01*
X433742Y694809D01*
X433677Y694839D01*
X433617Y694878D01*
X433566Y694891D01*
X433519Y694913D01*
X433448Y694921D01*
X433378Y694938D01*
X433326Y694934D01*
X433275Y694940D01*
X433204Y694925D01*
X433133Y694919D01*
X433085Y694899D01*
X433034Y694888D01*
X432973Y694851D01*
X432907Y694823D01*
X432851Y694778D01*
X432823Y694761D01*
X432808Y694744D01*
X432776Y694718D01*
X427667Y689609D01*
X382263Y689609D01*
X382172Y689595D01*
X382082Y689587D01*
X382052Y689575D01*
X382020Y689570D01*
X381939Y689527D01*
X381855Y689491D01*
X381823Y689465D01*
X381802Y689454D01*
X381780Y689431D01*
X381724Y689386D01*
X380462Y688124D01*
X380409Y688050D01*
X380349Y687980D01*
X380337Y687950D01*
X380318Y687924D01*
X380291Y687837D01*
X380257Y687752D01*
X380253Y687711D01*
X380246Y687689D01*
X380247Y687657D01*
X380239Y687585D01*
X380239Y668775D01*
X380253Y668684D01*
X380261Y668594D01*
X380273Y668564D01*
X380278Y668532D01*
X380321Y668451D01*
X380357Y668367D01*
X380383Y668335D01*
X380394Y668314D01*
X380417Y668292D01*
X380462Y668236D01*
X387859Y660839D01*
X387859Y643136D01*
X387862Y643116D01*
X387860Y643097D01*
X387882Y642995D01*
X387898Y642893D01*
X387908Y642876D01*
X387912Y642856D01*
X387965Y642767D01*
X388014Y642676D01*
X388028Y642662D01*
X388038Y642645D01*
X388117Y642578D01*
X388192Y642506D01*
X388210Y642498D01*
X388225Y642485D01*
X388321Y642446D01*
X388415Y642403D01*
X388435Y642401D01*
X388453Y642393D01*
X388620Y642375D01*
X389552Y642375D01*
X389572Y642378D01*
X389591Y642376D01*
X389693Y642398D01*
X389795Y642414D01*
X389812Y642424D01*
X389832Y642428D01*
X389921Y642481D01*
X390012Y642530D01*
X390026Y642544D01*
X390043Y642554D01*
X390110Y642633D01*
X390182Y642708D01*
X390190Y642726D01*
X390203Y642741D01*
X390242Y642837D01*
X390285Y642931D01*
X390287Y642951D01*
X390295Y642969D01*
X390313Y643136D01*
X390313Y643423D01*
X390312Y643434D01*
X390313Y643450D01*
X390278Y644468D01*
X390295Y644510D01*
X390301Y644571D01*
X390309Y644600D01*
X390308Y644627D01*
X390313Y644677D01*
X390313Y667814D01*
X390310Y667834D01*
X390312Y667853D01*
X390290Y667955D01*
X390274Y668057D01*
X390264Y668074D01*
X390260Y668094D01*
X390207Y668183D01*
X390158Y668274D01*
X390144Y668288D01*
X390134Y668305D01*
X390055Y668372D01*
X389980Y668444D01*
X389962Y668452D01*
X389947Y668465D01*
X389851Y668504D01*
X389757Y668547D01*
X389737Y668549D01*
X389719Y668557D01*
X389552Y668575D01*
X382968Y668575D01*
X382075Y669468D01*
X382075Y686732D01*
X382968Y687625D01*
X402232Y687625D01*
X403125Y686732D01*
X403125Y669468D01*
X402232Y668575D01*
X395648Y668575D01*
X395628Y668572D01*
X395609Y668574D01*
X395507Y668552D01*
X395405Y668536D01*
X395388Y668526D01*
X395368Y668522D01*
X395279Y668469D01*
X395188Y668420D01*
X395174Y668406D01*
X395157Y668396D01*
X395090Y668317D01*
X395018Y668242D01*
X395010Y668224D01*
X394997Y668209D01*
X394958Y668113D01*
X394915Y668019D01*
X394913Y667999D01*
X394905Y667981D01*
X394887Y667814D01*
X394887Y644801D01*
X394904Y644698D01*
X394915Y644594D01*
X394923Y644577D01*
X394926Y644558D01*
X394975Y644466D01*
X395019Y644372D01*
X395035Y644354D01*
X395042Y644341D01*
X395065Y644319D01*
X395129Y644244D01*
X396913Y642579D01*
X396978Y642536D01*
X397038Y642485D01*
X397080Y642468D01*
X397118Y642443D01*
X397193Y642422D01*
X397266Y642393D01*
X397326Y642387D01*
X397355Y642379D01*
X397382Y642380D01*
X397433Y642375D01*
X398332Y642375D01*
X399162Y641545D01*
X399178Y641533D01*
X399190Y641517D01*
X399278Y641461D01*
X399361Y641401D01*
X399380Y641395D01*
X399397Y641384D01*
X399498Y641359D01*
X399597Y641329D01*
X399616Y641329D01*
X399636Y641324D01*
X399739Y641332D01*
X399842Y641335D01*
X399861Y641342D01*
X399881Y641343D01*
X399976Y641384D01*
X400073Y641419D01*
X400089Y641432D01*
X400107Y641440D01*
X400238Y641545D01*
X401166Y642472D01*
X401181Y642481D01*
X401272Y642530D01*
X401286Y642544D01*
X401303Y642554D01*
X401370Y642633D01*
X401442Y642708D01*
X401450Y642726D01*
X401463Y642741D01*
X401502Y642837D01*
X401545Y642931D01*
X401547Y642951D01*
X401555Y642969D01*
X401573Y643136D01*
X401573Y650171D01*
X433852Y682450D01*
X433905Y682524D01*
X433965Y682594D01*
X433977Y682624D01*
X433996Y682650D01*
X434023Y682737D01*
X434057Y682822D01*
X434061Y682863D01*
X434068Y682885D01*
X434067Y682917D01*
X434075Y682989D01*
X434075Y688632D01*
X434968Y689525D01*
X451232Y689525D01*
X452125Y688632D01*
X452125Y674368D01*
X451232Y673475D01*
X434968Y673475D01*
X434075Y674369D01*
X434064Y674438D01*
X434062Y674510D01*
X434044Y674559D01*
X434036Y674610D01*
X434002Y674674D01*
X433977Y674741D01*
X433945Y674782D01*
X433920Y674828D01*
X433868Y674877D01*
X433824Y674933D01*
X433780Y674961D01*
X433742Y674997D01*
X433677Y675027D01*
X433617Y675066D01*
X433566Y675079D01*
X433519Y675101D01*
X433448Y675109D01*
X433378Y675126D01*
X433326Y675122D01*
X433275Y675128D01*
X433204Y675113D01*
X433133Y675107D01*
X433085Y675087D01*
X433034Y675076D01*
X432973Y675039D01*
X432907Y675011D01*
X432851Y674966D01*
X432823Y674949D01*
X432808Y674932D01*
X432776Y674906D01*
X406370Y648500D01*
X406317Y648426D01*
X406257Y648356D01*
X406245Y648326D01*
X406226Y648300D01*
X406199Y648213D01*
X406165Y648128D01*
X406161Y648087D01*
X406154Y648065D01*
X406155Y648033D01*
X406147Y647961D01*
X406147Y642875D01*
X406161Y642785D01*
X406169Y642694D01*
X406181Y642664D01*
X406186Y642632D01*
X406229Y642551D01*
X406265Y642468D01*
X406291Y642435D01*
X406302Y642415D01*
X406325Y642393D01*
X406370Y642337D01*
X407162Y641545D01*
X407178Y641533D01*
X407190Y641517D01*
X407277Y641461D01*
X407361Y641401D01*
X407381Y641395D01*
X407397Y641384D01*
X407498Y641359D01*
X407597Y641329D01*
X407616Y641329D01*
X407636Y641324D01*
X407739Y641332D01*
X407842Y641335D01*
X407861Y641342D01*
X407881Y641343D01*
X407976Y641384D01*
X408073Y641420D01*
X408089Y641432D01*
X408107Y641440D01*
X408238Y641545D01*
X409068Y642375D01*
X414332Y642375D01*
X415162Y641545D01*
X415178Y641533D01*
X415190Y641517D01*
X415278Y641461D01*
X415361Y641401D01*
X415380Y641395D01*
X415397Y641384D01*
X415498Y641359D01*
X415597Y641329D01*
X415616Y641329D01*
X415636Y641324D01*
X415739Y641332D01*
X415842Y641335D01*
X415861Y641342D01*
X415881Y641343D01*
X415976Y641384D01*
X416073Y641419D01*
X416089Y641432D01*
X416107Y641440D01*
X416238Y641545D01*
X417068Y642375D01*
X417096Y642375D01*
X417116Y642378D01*
X417135Y642376D01*
X417237Y642398D01*
X417339Y642414D01*
X417356Y642424D01*
X417376Y642428D01*
X417465Y642481D01*
X417556Y642530D01*
X417570Y642544D01*
X417587Y642554D01*
X417654Y642633D01*
X417726Y642708D01*
X417734Y642726D01*
X417747Y642741D01*
X417786Y642837D01*
X417829Y642931D01*
X417831Y642951D01*
X417839Y642969D01*
X417857Y643136D01*
X417857Y644347D01*
X422245Y648735D01*
X514893Y648735D01*
X514984Y648749D01*
X515074Y648757D01*
X515104Y648769D01*
X515136Y648774D01*
X515217Y648817D01*
X515301Y648853D01*
X515333Y648879D01*
X515354Y648890D01*
X515376Y648913D01*
X515432Y648958D01*
X561134Y694660D01*
X561176Y694718D01*
X561225Y694770D01*
X561247Y694817D01*
X561277Y694859D01*
X561298Y694928D01*
X561329Y694993D01*
X561334Y695045D01*
X561350Y695095D01*
X561348Y695166D01*
X561356Y695237D01*
X561345Y695288D01*
X561343Y695340D01*
X561319Y695408D01*
X561304Y695478D01*
X561277Y695523D01*
X561259Y695571D01*
X561214Y695627D01*
X561177Y695689D01*
X561138Y695723D01*
X561105Y695763D01*
X561045Y695802D01*
X560990Y695849D01*
X560942Y695868D01*
X560898Y695896D01*
X560829Y695914D01*
X560762Y695941D01*
X560691Y695949D01*
X560660Y695957D01*
X560636Y695955D01*
X560596Y695959D01*
X557203Y695959D01*
X554227Y698935D01*
X554227Y703145D01*
X557203Y706121D01*
X560839Y706121D01*
X560930Y706135D01*
X561020Y706143D01*
X561050Y706155D01*
X561082Y706160D01*
X561163Y706203D01*
X561247Y706239D01*
X561279Y706265D01*
X561300Y706276D01*
X561322Y706299D01*
X561378Y706344D01*
X570553Y715519D01*
X595014Y715519D01*
X595034Y715522D01*
X595053Y715520D01*
X595155Y715542D01*
X595257Y715558D01*
X595274Y715568D01*
X595294Y715572D01*
X595383Y715625D01*
X595474Y715674D01*
X595488Y715688D01*
X595505Y715698D01*
X595572Y715777D01*
X595644Y715852D01*
X595652Y715870D01*
X595665Y715885D01*
X595704Y715981D01*
X595747Y716075D01*
X595749Y716095D01*
X595757Y716113D01*
X595775Y716280D01*
X595775Y720032D01*
X596668Y720925D01*
X612932Y720925D01*
X613825Y720032D01*
X613825Y705768D01*
X612932Y704875D01*
X596668Y704875D01*
X595775Y705768D01*
X595775Y710184D01*
X595772Y710204D01*
X595774Y710223D01*
X595752Y710325D01*
X595736Y710427D01*
X595726Y710444D01*
X595722Y710464D01*
X595669Y710553D01*
X595620Y710644D01*
X595606Y710658D01*
X595596Y710675D01*
X595517Y710742D01*
X595442Y710814D01*
X595424Y710822D01*
X595409Y710835D01*
X595313Y710874D01*
X595219Y710917D01*
X595199Y710919D01*
X595181Y710927D01*
X595014Y710945D01*
X572763Y710945D01*
X572672Y710931D01*
X572582Y710923D01*
X572552Y710911D01*
X572520Y710906D01*
X572439Y710863D01*
X572355Y710827D01*
X572323Y710801D01*
X572302Y710790D01*
X572280Y710767D01*
X572224Y710722D01*
X564612Y703110D01*
X564559Y703036D01*
X564499Y702966D01*
X564487Y702936D01*
X564468Y702910D01*
X564441Y702823D01*
X564407Y702738D01*
X564403Y702697D01*
X564396Y702675D01*
X564397Y702643D01*
X564389Y702571D01*
X564389Y698935D01*
X562731Y697278D01*
X562690Y697220D01*
X562640Y697168D01*
X562618Y697121D01*
X562588Y697079D01*
X562567Y697010D01*
X562537Y696945D01*
X562531Y696893D01*
X562516Y696843D01*
X562517Y696772D01*
X562510Y696701D01*
X562521Y696650D01*
X562522Y696598D01*
X562547Y696530D01*
X562562Y696460D01*
X562589Y696415D01*
X562606Y696367D01*
X562651Y696311D01*
X562688Y696249D01*
X562728Y696215D01*
X562760Y696175D01*
X562820Y696136D01*
X562875Y696089D01*
X562923Y696070D01*
X562967Y696042D01*
X563036Y696024D01*
X563103Y695997D01*
X563174Y695989D01*
X563206Y695981D01*
X563229Y695983D01*
X563270Y695979D01*
X595014Y695979D01*
X595034Y695982D01*
X595053Y695980D01*
X595155Y696002D01*
X595257Y696018D01*
X595274Y696028D01*
X595294Y696032D01*
X595383Y696085D01*
X595474Y696134D01*
X595488Y696148D01*
X595505Y696158D01*
X595572Y696237D01*
X595644Y696312D01*
X595652Y696330D01*
X595665Y696345D01*
X595704Y696441D01*
X595747Y696535D01*
X595749Y696555D01*
X595757Y696573D01*
X595775Y696740D01*
X595775Y701032D01*
X596668Y701925D01*
X612932Y701925D01*
X613825Y701032D01*
X613825Y686768D01*
X612932Y685875D01*
X596668Y685875D01*
X595775Y686768D01*
X595775Y690644D01*
X595772Y690664D01*
X595774Y690683D01*
X595752Y690785D01*
X595736Y690887D01*
X595726Y690904D01*
X595722Y690924D01*
X595669Y691013D01*
X595620Y691104D01*
X595606Y691118D01*
X595596Y691135D01*
X595517Y691202D01*
X595442Y691274D01*
X595424Y691282D01*
X595409Y691295D01*
X595313Y691334D01*
X595219Y691377D01*
X595199Y691379D01*
X595181Y691387D01*
X595014Y691405D01*
X564663Y691405D01*
X564572Y691391D01*
X564482Y691383D01*
X564452Y691371D01*
X564420Y691366D01*
X564339Y691323D01*
X564255Y691287D01*
X564223Y691261D01*
X564202Y691250D01*
X564180Y691227D01*
X564124Y691182D01*
X517103Y644161D01*
X424455Y644161D01*
X424364Y644147D01*
X424274Y644139D01*
X424244Y644127D01*
X424212Y644122D01*
X424131Y644079D01*
X424047Y644043D01*
X424015Y644017D01*
X423994Y644006D01*
X423972Y643983D01*
X423916Y643938D01*
X422880Y642902D01*
X422869Y642886D01*
X422853Y642874D01*
X422797Y642786D01*
X422737Y642703D01*
X422731Y642684D01*
X422720Y642667D01*
X422695Y642567D01*
X422664Y642468D01*
X422665Y642448D01*
X422660Y642428D01*
X422668Y642325D01*
X422671Y642222D01*
X422678Y642203D01*
X422679Y642183D01*
X422720Y642088D01*
X422755Y641991D01*
X422768Y641975D01*
X422776Y641957D01*
X422880Y641826D01*
X423162Y641545D01*
X423178Y641533D01*
X423190Y641517D01*
X423278Y641461D01*
X423362Y641401D01*
X423381Y641395D01*
X423397Y641384D01*
X423498Y641359D01*
X423597Y641329D01*
X423617Y641329D01*
X423636Y641324D01*
X423739Y641332D01*
X423842Y641335D01*
X423861Y641342D01*
X423881Y641343D01*
X423976Y641384D01*
X424073Y641420D01*
X424089Y641432D01*
X424107Y641440D01*
X424238Y641545D01*
X425068Y642375D01*
X430332Y642375D01*
X431162Y641545D01*
X431178Y641533D01*
X431190Y641517D01*
X431278Y641461D01*
X431361Y641401D01*
X431380Y641395D01*
X431397Y641384D01*
X431498Y641359D01*
X431597Y641329D01*
X431616Y641329D01*
X431636Y641324D01*
X431739Y641332D01*
X431842Y641335D01*
X431861Y641342D01*
X431881Y641343D01*
X431976Y641384D01*
X432073Y641419D01*
X432089Y641432D01*
X432107Y641440D01*
X432238Y641545D01*
X433068Y642375D01*
X438332Y642375D01*
X439225Y641482D01*
X439225Y628218D01*
X438332Y627325D01*
X433068Y627325D01*
X432238Y628155D01*
X432222Y628167D01*
X432210Y628183D01*
X432122Y628239D01*
X432039Y628299D01*
X432020Y628305D01*
X432003Y628316D01*
X431902Y628341D01*
X431803Y628371D01*
X431784Y628371D01*
X431764Y628376D01*
X431661Y628368D01*
X431558Y628365D01*
X431539Y628358D01*
X431519Y628357D01*
X431424Y628316D01*
X431327Y628281D01*
X431311Y628268D01*
X431293Y628260D01*
X431162Y628155D01*
X430332Y627325D01*
X425068Y627325D01*
X424238Y628155D01*
X424222Y628167D01*
X424210Y628183D01*
X424123Y628238D01*
X424039Y628299D01*
X424019Y628305D01*
X424003Y628316D01*
X423903Y628341D01*
X423803Y628371D01*
X423784Y628371D01*
X423764Y628376D01*
X423661Y628368D01*
X423558Y628365D01*
X423539Y628358D01*
X423519Y628357D01*
X423424Y628316D01*
X423327Y628281D01*
X423311Y628268D01*
X423293Y628260D01*
X423162Y628155D01*
X422654Y627647D01*
X422600Y627573D01*
X422541Y627504D01*
X422529Y627474D01*
X422510Y627448D01*
X422483Y627361D01*
X422449Y627276D01*
X422445Y627235D01*
X422438Y627213D01*
X422439Y627180D01*
X422431Y627109D01*
X422431Y589798D01*
X422445Y589708D01*
X422453Y589617D01*
X422465Y589588D01*
X422470Y589556D01*
X422513Y589475D01*
X422549Y589391D01*
X422575Y589359D01*
X422586Y589338D01*
X422609Y589316D01*
X422654Y589260D01*
X439418Y572496D01*
X439434Y572485D01*
X439446Y572469D01*
X439534Y572413D01*
X439617Y572353D01*
X439636Y572347D01*
X439653Y572336D01*
X439754Y572311D01*
X439853Y572280D01*
X439872Y572281D01*
X439892Y572276D01*
X439995Y572284D01*
X440098Y572287D01*
X440117Y572294D01*
X440137Y572295D01*
X440232Y572335D01*
X440329Y572371D01*
X440345Y572384D01*
X440363Y572391D01*
X440494Y572496D01*
X442176Y574177D01*
X442201Y574212D01*
X442233Y574241D01*
X442272Y574312D01*
X442319Y574377D01*
X442332Y574418D01*
X442353Y574456D01*
X442388Y574601D01*
X442391Y574612D01*
X442391Y574615D01*
X442392Y574619D01*
X442419Y574827D01*
X442418Y574859D01*
X442425Y574924D01*
X442425Y575232D01*
X443255Y576062D01*
X443267Y576078D01*
X443283Y576090D01*
X443339Y576178D01*
X443399Y576261D01*
X443405Y576280D01*
X443416Y576297D01*
X443441Y576398D01*
X443471Y576497D01*
X443471Y576516D01*
X443476Y576536D01*
X443468Y576639D01*
X443465Y576742D01*
X443458Y576761D01*
X443457Y576781D01*
X443416Y576876D01*
X443381Y576973D01*
X443368Y576989D01*
X443360Y577007D01*
X443255Y577138D01*
X442425Y577968D01*
X442425Y583232D01*
X443255Y584062D01*
X443267Y584078D01*
X443283Y584090D01*
X443339Y584178D01*
X443399Y584261D01*
X443405Y584280D01*
X443416Y584297D01*
X443441Y584398D01*
X443471Y584497D01*
X443471Y584516D01*
X443476Y584536D01*
X443468Y584639D01*
X443465Y584742D01*
X443458Y584761D01*
X443457Y584781D01*
X443416Y584876D01*
X443381Y584973D01*
X443368Y584989D01*
X443360Y585007D01*
X443255Y585138D01*
X442425Y585968D01*
X442425Y591232D01*
X443281Y592087D01*
X443308Y592125D01*
X443342Y592156D01*
X443379Y592224D01*
X443425Y592287D01*
X443438Y592331D01*
X443460Y592371D01*
X443474Y592448D01*
X443497Y592522D01*
X443496Y592568D01*
X443504Y592613D01*
X443493Y592690D01*
X443491Y592768D01*
X443475Y592811D01*
X443468Y592857D01*
X443433Y592926D01*
X443406Y592999D01*
X443378Y593035D01*
X443357Y593076D01*
X443301Y593130D01*
X443253Y593191D01*
X443214Y593216D01*
X443181Y593248D01*
X443102Y593292D01*
X442657Y593736D01*
X442425Y594297D01*
X442425Y595601D01*
X449712Y595601D01*
X449731Y595604D01*
X449751Y595602D01*
X449853Y595624D01*
X449955Y595640D01*
X449956Y595641D01*
X449983Y595629D01*
X450003Y595627D01*
X450021Y595619D01*
X450188Y595601D01*
X457475Y595601D01*
X457475Y594297D01*
X457243Y593736D01*
X456802Y593296D01*
X456784Y593289D01*
X456723Y593240D01*
X456657Y593199D01*
X456628Y593164D01*
X456592Y593135D01*
X456550Y593070D01*
X456500Y593010D01*
X456484Y592967D01*
X456459Y592928D01*
X456440Y592853D01*
X456412Y592780D01*
X456410Y592734D01*
X456399Y592690D01*
X456405Y592612D01*
X456401Y592535D01*
X456414Y592490D01*
X456418Y592445D01*
X456448Y592373D01*
X456470Y592298D01*
X456496Y592261D01*
X456514Y592218D01*
X456599Y592112D01*
X456610Y592096D01*
X456614Y592093D01*
X456619Y592087D01*
X457147Y591560D01*
X457221Y591507D01*
X457290Y591447D01*
X457320Y591435D01*
X457346Y591416D01*
X457433Y591389D01*
X457518Y591355D01*
X457559Y591351D01*
X457581Y591344D01*
X457614Y591345D01*
X457685Y591337D01*
X469687Y591337D01*
X469778Y591351D01*
X469868Y591359D01*
X469898Y591371D01*
X469930Y591376D01*
X470011Y591419D01*
X470095Y591455D01*
X470127Y591481D01*
X470148Y591492D01*
X470170Y591515D01*
X470226Y591560D01*
X507589Y628923D01*
X507664Y628923D01*
X507779Y628942D01*
X507895Y628959D01*
X507900Y628961D01*
X507907Y628962D01*
X508009Y629017D01*
X508114Y629070D01*
X508118Y629075D01*
X508124Y629078D01*
X508204Y629162D01*
X508286Y629246D01*
X508290Y629252D01*
X508293Y629256D01*
X508301Y629273D01*
X508367Y629393D01*
X508382Y629429D01*
X510383Y631430D01*
X512997Y632513D01*
X527003Y632513D01*
X529617Y631430D01*
X531618Y629429D01*
X531633Y629393D01*
X531695Y629293D01*
X531754Y629193D01*
X531759Y629189D01*
X531762Y629184D01*
X531852Y629109D01*
X531941Y629033D01*
X531947Y629031D01*
X531952Y629027D01*
X532060Y628985D01*
X532170Y628941D01*
X532177Y628940D01*
X532182Y628939D01*
X532200Y628938D01*
X532336Y628923D01*
X578714Y628923D01*
X578734Y628926D01*
X578753Y628924D01*
X578855Y628946D01*
X578957Y628962D01*
X578974Y628972D01*
X578994Y628976D01*
X579083Y629029D01*
X579174Y629078D01*
X579188Y629092D01*
X579205Y629102D01*
X579272Y629181D01*
X579344Y629256D01*
X579352Y629274D01*
X579365Y629289D01*
X579404Y629385D01*
X579447Y629479D01*
X579449Y629499D01*
X579457Y629517D01*
X579475Y629684D01*
X579475Y634632D01*
X580368Y635525D01*
X599632Y635525D01*
X600525Y634632D01*
X600525Y617368D01*
X599632Y616475D01*
X580368Y616475D01*
X579475Y617368D01*
X579475Y623588D01*
X579472Y623608D01*
X579474Y623627D01*
X579452Y623729D01*
X579436Y623831D01*
X579426Y623848D01*
X579422Y623868D01*
X579369Y623957D01*
X579320Y624048D01*
X579306Y624062D01*
X579296Y624079D01*
X579217Y624146D01*
X579142Y624218D01*
X579124Y624226D01*
X579109Y624239D01*
X579013Y624278D01*
X578919Y624321D01*
X578899Y624323D01*
X578881Y624331D01*
X578714Y624349D01*
X533360Y624349D01*
X533245Y624330D01*
X533129Y624313D01*
X533124Y624311D01*
X533117Y624310D01*
X533015Y624255D01*
X532910Y624202D01*
X532906Y624197D01*
X532900Y624194D01*
X532820Y624110D01*
X532738Y624026D01*
X532734Y624020D01*
X532731Y624016D01*
X532723Y623999D01*
X532657Y623879D01*
X531618Y621371D01*
X529617Y619370D01*
X527003Y618287D01*
X512997Y618287D01*
X510383Y619370D01*
X508382Y621371D01*
X508268Y621646D01*
X508244Y621685D01*
X508228Y621728D01*
X508180Y621789D01*
X508139Y621855D01*
X508103Y621884D01*
X508075Y621920D01*
X508009Y621962D01*
X507949Y622012D01*
X507906Y622028D01*
X507868Y622053D01*
X507792Y622072D01*
X507720Y622100D01*
X507674Y622102D01*
X507629Y622113D01*
X507552Y622107D01*
X507474Y622110D01*
X507430Y622097D01*
X507384Y622094D01*
X507313Y622064D01*
X507238Y622042D01*
X507200Y622016D01*
X507158Y621998D01*
X507051Y621912D01*
X507036Y621902D01*
X507033Y621897D01*
X507027Y621893D01*
X473460Y588326D01*
X471897Y586763D01*
X458236Y586763D01*
X458216Y586760D01*
X458197Y586762D01*
X458095Y586740D01*
X457993Y586724D01*
X457976Y586714D01*
X457956Y586710D01*
X457867Y586657D01*
X457776Y586608D01*
X457762Y586594D01*
X457745Y586584D01*
X457678Y586505D01*
X457606Y586430D01*
X457598Y586412D01*
X457585Y586397D01*
X457546Y586301D01*
X457503Y586207D01*
X457501Y586187D01*
X457493Y586169D01*
X457475Y586002D01*
X457475Y585968D01*
X456645Y585138D01*
X456633Y585122D01*
X456617Y585110D01*
X456561Y585022D01*
X456501Y584939D01*
X456495Y584920D01*
X456484Y584903D01*
X456459Y584802D01*
X456429Y584703D01*
X456429Y584684D01*
X456424Y584664D01*
X456432Y584561D01*
X456435Y584458D01*
X456442Y584439D01*
X456443Y584419D01*
X456484Y584324D01*
X456519Y584227D01*
X456532Y584211D01*
X456540Y584193D01*
X456645Y584062D01*
X457475Y583232D01*
X457475Y583048D01*
X457478Y583028D01*
X457476Y583009D01*
X457498Y582907D01*
X457514Y582805D01*
X457524Y582788D01*
X457528Y582768D01*
X457581Y582679D01*
X457630Y582588D01*
X457644Y582574D01*
X457654Y582557D01*
X457733Y582490D01*
X457808Y582418D01*
X457826Y582410D01*
X457841Y582397D01*
X457937Y582358D01*
X458031Y582315D01*
X458051Y582313D01*
X458069Y582305D01*
X458236Y582287D01*
X515547Y582287D01*
X515898Y581936D01*
X515972Y581883D01*
X516042Y581823D01*
X516072Y581811D01*
X516098Y581792D01*
X516185Y581765D01*
X516270Y581731D01*
X516311Y581727D01*
X516333Y581720D01*
X516365Y581721D01*
X516437Y581713D01*
X527003Y581713D01*
X529617Y580630D01*
X531618Y578629D01*
X532701Y576015D01*
X532701Y575541D01*
X532715Y575450D01*
X532723Y575360D01*
X532735Y575330D01*
X532740Y575298D01*
X532783Y575217D01*
X532819Y575133D01*
X532845Y575101D01*
X532856Y575080D01*
X532879Y575058D01*
X532924Y575002D01*
X548884Y559042D01*
X548958Y558989D01*
X549028Y558929D01*
X549058Y558917D01*
X549084Y558898D01*
X549171Y558871D01*
X549256Y558837D01*
X549297Y558833D01*
X549319Y558826D01*
X549351Y558827D01*
X549423Y558819D01*
X578714Y558819D01*
X578734Y558822D01*
X578753Y558820D01*
X578855Y558842D01*
X578957Y558858D01*
X578974Y558868D01*
X578994Y558872D01*
X579083Y558925D01*
X579174Y558974D01*
X579188Y558988D01*
X579205Y558998D01*
X579272Y559077D01*
X579344Y559152D01*
X579352Y559170D01*
X579365Y559185D01*
X579404Y559281D01*
X579447Y559375D01*
X579449Y559395D01*
X579457Y559413D01*
X579475Y559580D01*
X579475Y564632D01*
X580368Y565525D01*
X599632Y565525D01*
X600525Y564632D01*
X600525Y547368D01*
X599632Y546475D01*
X580368Y546475D01*
X579475Y547368D01*
X579475Y553484D01*
X579472Y553504D01*
X579474Y553523D01*
X579452Y553625D01*
X579436Y553727D01*
X579426Y553744D01*
X579422Y553764D01*
X579369Y553853D01*
X579320Y553944D01*
X579306Y553958D01*
X579296Y553975D01*
X579217Y554042D01*
X579142Y554114D01*
X579124Y554122D01*
X579109Y554135D01*
X579013Y554174D01*
X578919Y554217D01*
X578899Y554219D01*
X578881Y554227D01*
X578714Y554245D01*
X547213Y554245D01*
X531791Y569667D01*
X531775Y569679D01*
X531762Y569694D01*
X531675Y569751D01*
X531591Y569811D01*
X531572Y569817D01*
X531555Y569827D01*
X531455Y569853D01*
X531356Y569883D01*
X531336Y569883D01*
X531317Y569888D01*
X531214Y569880D01*
X531110Y569877D01*
X531091Y569870D01*
X531071Y569868D01*
X530977Y569828D01*
X530879Y569792D01*
X530863Y569780D01*
X530845Y569772D01*
X530714Y569667D01*
X529617Y568570D01*
X527003Y567487D01*
X512997Y567487D01*
X510383Y568570D01*
X508382Y570571D01*
X507299Y573185D01*
X507299Y576015D01*
X507567Y576661D01*
X507577Y576705D01*
X507597Y576747D01*
X507605Y576824D01*
X507623Y576900D01*
X507619Y576946D01*
X507624Y576991D01*
X507607Y577068D01*
X507600Y577145D01*
X507581Y577187D01*
X507571Y577232D01*
X507532Y577299D01*
X507500Y577370D01*
X507469Y577404D01*
X507445Y577443D01*
X507386Y577494D01*
X507333Y577551D01*
X507293Y577573D01*
X507258Y577603D01*
X507186Y577632D01*
X507118Y577669D01*
X507073Y577678D01*
X507030Y577695D01*
X506894Y577710D01*
X506876Y577713D01*
X506871Y577712D01*
X506864Y577713D01*
X457535Y577713D01*
X457445Y577699D01*
X457354Y577691D01*
X457324Y577679D01*
X457292Y577674D01*
X457212Y577631D01*
X457128Y577595D01*
X457095Y577569D01*
X457075Y577558D01*
X457053Y577535D01*
X456997Y577490D01*
X456645Y577138D01*
X456633Y577122D01*
X456617Y577110D01*
X456561Y577023D01*
X456501Y576939D01*
X456495Y576919D01*
X456484Y576903D01*
X456459Y576802D01*
X456429Y576703D01*
X456429Y576684D01*
X456424Y576664D01*
X456432Y576561D01*
X456435Y576458D01*
X456442Y576439D01*
X456443Y576419D01*
X456484Y576324D01*
X456520Y576227D01*
X456532Y576211D01*
X456540Y576193D01*
X456645Y576062D01*
X457475Y575232D01*
X457475Y569968D01*
X456645Y569138D01*
X456633Y569122D01*
X456617Y569110D01*
X456561Y569022D01*
X456501Y568939D01*
X456495Y568920D01*
X456484Y568903D01*
X456459Y568802D01*
X456429Y568703D01*
X456429Y568684D01*
X456424Y568664D01*
X456432Y568561D01*
X456435Y568458D01*
X456442Y568439D01*
X456443Y568419D01*
X456484Y568324D01*
X456519Y568227D01*
X456532Y568211D01*
X456540Y568193D01*
X456645Y568062D01*
X457475Y567232D01*
X457475Y561968D01*
X456582Y561075D01*
X454152Y561075D01*
X454132Y561072D01*
X454113Y561074D01*
X454011Y561052D01*
X453909Y561036D01*
X453892Y561026D01*
X453872Y561022D01*
X453783Y560969D01*
X453692Y560920D01*
X453678Y560906D01*
X453661Y560896D01*
X453594Y560817D01*
X453522Y560742D01*
X453514Y560724D01*
X453501Y560709D01*
X453462Y560613D01*
X453419Y560519D01*
X453417Y560499D01*
X453409Y560481D01*
X453391Y560314D01*
X453391Y536187D01*
X453405Y536096D01*
X453413Y536006D01*
X453425Y535976D01*
X453430Y535944D01*
X453473Y535863D01*
X453509Y535779D01*
X453535Y535747D01*
X453546Y535726D01*
X453569Y535704D01*
X453614Y535648D01*
X492414Y496848D01*
X492488Y496795D01*
X492558Y496735D01*
X492588Y496723D01*
X492614Y496704D01*
X492701Y496677D01*
X492786Y496643D01*
X492827Y496639D01*
X492849Y496632D01*
X492881Y496633D01*
X492952Y496625D01*
X500732Y496625D01*
X501625Y495732D01*
X501625Y481468D01*
X500732Y480575D01*
X484468Y480575D01*
G37*
%LPD*%
G36*
X417116Y590890D02*
X417116Y590890D01*
X417135Y590888D01*
X417237Y590910D01*
X417339Y590926D01*
X417356Y590936D01*
X417376Y590940D01*
X417465Y590993D01*
X417556Y591042D01*
X417570Y591056D01*
X417587Y591066D01*
X417654Y591145D01*
X417726Y591220D01*
X417734Y591238D01*
X417747Y591253D01*
X417786Y591349D01*
X417829Y591443D01*
X417831Y591463D01*
X417839Y591481D01*
X417857Y591648D01*
X417857Y626564D01*
X417854Y626584D01*
X417856Y626603D01*
X417834Y626705D01*
X417818Y626807D01*
X417808Y626824D01*
X417804Y626844D01*
X417751Y626933D01*
X417702Y627024D01*
X417688Y627038D01*
X417678Y627055D01*
X417599Y627122D01*
X417524Y627194D01*
X417506Y627202D01*
X417491Y627215D01*
X417395Y627254D01*
X417301Y627297D01*
X417281Y627299D01*
X417263Y627307D01*
X417096Y627325D01*
X417068Y627325D01*
X416238Y628155D01*
X416222Y628167D01*
X416210Y628183D01*
X416122Y628239D01*
X416039Y628299D01*
X416020Y628305D01*
X416003Y628316D01*
X415902Y628341D01*
X415803Y628371D01*
X415784Y628371D01*
X415764Y628376D01*
X415661Y628368D01*
X415558Y628365D01*
X415539Y628358D01*
X415519Y628357D01*
X415424Y628316D01*
X415327Y628281D01*
X415311Y628268D01*
X415293Y628260D01*
X415162Y628155D01*
X414332Y627325D01*
X409068Y627325D01*
X408238Y628155D01*
X408222Y628167D01*
X408210Y628183D01*
X408122Y628239D01*
X408039Y628299D01*
X408020Y628305D01*
X408003Y628316D01*
X407902Y628341D01*
X407803Y628371D01*
X407784Y628371D01*
X407764Y628376D01*
X407661Y628368D01*
X407558Y628365D01*
X407539Y628358D01*
X407519Y628357D01*
X407424Y628316D01*
X407327Y628281D01*
X407311Y628268D01*
X407293Y628260D01*
X407162Y628155D01*
X406332Y627325D01*
X401068Y627325D01*
X400238Y628155D01*
X400222Y628167D01*
X400210Y628183D01*
X400122Y628239D01*
X400039Y628299D01*
X400020Y628305D01*
X400003Y628316D01*
X399902Y628341D01*
X399803Y628371D01*
X399784Y628371D01*
X399764Y628376D01*
X399661Y628368D01*
X399558Y628365D01*
X399539Y628358D01*
X399519Y628357D01*
X399424Y628316D01*
X399327Y628281D01*
X399311Y628268D01*
X399293Y628260D01*
X399162Y628155D01*
X398332Y627325D01*
X393068Y627325D01*
X392238Y628155D01*
X392222Y628167D01*
X392210Y628183D01*
X392122Y628239D01*
X392039Y628299D01*
X392020Y628305D01*
X392003Y628316D01*
X391902Y628341D01*
X391803Y628371D01*
X391784Y628371D01*
X391764Y628376D01*
X391661Y628368D01*
X391558Y628365D01*
X391539Y628358D01*
X391519Y628357D01*
X391424Y628316D01*
X391327Y628281D01*
X391311Y628268D01*
X391293Y628260D01*
X391162Y628155D01*
X390332Y627325D01*
X385068Y627325D01*
X384238Y628155D01*
X384222Y628167D01*
X384210Y628183D01*
X384122Y628239D01*
X384039Y628299D01*
X384020Y628305D01*
X384003Y628316D01*
X383902Y628341D01*
X383803Y628371D01*
X383784Y628371D01*
X383764Y628376D01*
X383661Y628368D01*
X383558Y628365D01*
X383539Y628358D01*
X383519Y628357D01*
X383424Y628316D01*
X383327Y628281D01*
X383311Y628268D01*
X383293Y628260D01*
X383162Y628155D01*
X382332Y627325D01*
X377068Y627325D01*
X376175Y628218D01*
X376175Y641482D01*
X376966Y642273D01*
X377019Y642347D01*
X377079Y642416D01*
X377091Y642446D01*
X377110Y642472D01*
X377137Y642559D01*
X377171Y642644D01*
X377175Y642685D01*
X377182Y642707D01*
X377181Y642740D01*
X377189Y642811D01*
X377189Y660153D01*
X377175Y660244D01*
X377167Y660334D01*
X377155Y660364D01*
X377150Y660396D01*
X377107Y660477D01*
X377071Y660561D01*
X377045Y660593D01*
X377034Y660614D01*
X377011Y660636D01*
X376966Y660692D01*
X313181Y724477D01*
X313181Y755914D01*
X313178Y755934D01*
X313180Y755953D01*
X313158Y756055D01*
X313142Y756157D01*
X313132Y756174D01*
X313128Y756194D01*
X313075Y756283D01*
X313026Y756374D01*
X313012Y756388D01*
X313002Y756405D01*
X312923Y756472D01*
X312848Y756544D01*
X312830Y756552D01*
X312815Y756565D01*
X312719Y756604D01*
X312625Y756647D01*
X312605Y756649D01*
X312587Y756657D01*
X312420Y756675D01*
X302868Y756675D01*
X301975Y757568D01*
X301975Y769344D01*
X301964Y769414D01*
X301962Y769486D01*
X301944Y769535D01*
X301936Y769586D01*
X301902Y769650D01*
X301877Y769717D01*
X301845Y769758D01*
X301820Y769804D01*
X301768Y769853D01*
X301724Y769909D01*
X301680Y769937D01*
X301642Y769973D01*
X301577Y770003D01*
X301517Y770042D01*
X301466Y770055D01*
X301419Y770077D01*
X301348Y770085D01*
X301278Y770102D01*
X301226Y770098D01*
X301175Y770104D01*
X301104Y770089D01*
X301033Y770083D01*
X300985Y770063D01*
X300934Y770052D01*
X300873Y770015D01*
X300807Y769987D01*
X300751Y769942D01*
X300723Y769925D01*
X300708Y769908D01*
X300676Y769882D01*
X299690Y768896D01*
X299637Y768822D01*
X299577Y768752D01*
X299565Y768722D01*
X299546Y768696D01*
X299519Y768609D01*
X299485Y768524D01*
X299481Y768483D01*
X299474Y768461D01*
X299475Y768429D01*
X299467Y768357D01*
X299467Y664203D01*
X299481Y664112D01*
X299489Y664022D01*
X299501Y663992D01*
X299506Y663960D01*
X299549Y663879D01*
X299585Y663795D01*
X299611Y663763D01*
X299622Y663742D01*
X299645Y663720D01*
X299690Y663664D01*
X355816Y607538D01*
X355890Y607485D01*
X355960Y607425D01*
X355990Y607413D01*
X356016Y607394D01*
X356103Y607367D01*
X356188Y607333D01*
X356229Y607329D01*
X356251Y607322D01*
X356283Y607323D01*
X356355Y607315D01*
X357693Y607315D01*
X357783Y607329D01*
X357874Y607337D01*
X357904Y607349D01*
X357936Y607354D01*
X358017Y607397D01*
X358100Y607433D01*
X358133Y607459D01*
X358153Y607470D01*
X358175Y607493D01*
X358231Y607538D01*
X358755Y608062D01*
X358767Y608078D01*
X358783Y608090D01*
X358839Y608178D01*
X358899Y608261D01*
X358905Y608280D01*
X358916Y608297D01*
X358941Y608398D01*
X358971Y608497D01*
X358971Y608516D01*
X358976Y608536D01*
X358968Y608639D01*
X358965Y608742D01*
X358958Y608761D01*
X358957Y608781D01*
X358916Y608876D01*
X358881Y608973D01*
X358868Y608989D01*
X358860Y609007D01*
X358755Y609138D01*
X357925Y609968D01*
X357925Y615232D01*
X358781Y616087D01*
X358808Y616125D01*
X358842Y616156D01*
X358879Y616224D01*
X358925Y616287D01*
X358938Y616331D01*
X358960Y616371D01*
X358974Y616448D01*
X358997Y616522D01*
X358996Y616568D01*
X359004Y616613D01*
X358993Y616690D01*
X358991Y616768D01*
X358975Y616811D01*
X358968Y616857D01*
X358933Y616926D01*
X358906Y616999D01*
X358878Y617035D01*
X358857Y617076D01*
X358801Y617130D01*
X358753Y617191D01*
X358714Y617216D01*
X358681Y617248D01*
X358602Y617292D01*
X358157Y617736D01*
X357925Y618297D01*
X357925Y619601D01*
X365212Y619601D01*
X365231Y619604D01*
X365251Y619602D01*
X365353Y619624D01*
X365455Y619640D01*
X365456Y619641D01*
X365483Y619629D01*
X365503Y619627D01*
X365521Y619619D01*
X365688Y619601D01*
X372975Y619601D01*
X372975Y618297D01*
X372743Y617736D01*
X372302Y617296D01*
X372284Y617289D01*
X372223Y617241D01*
X372157Y617199D01*
X372128Y617164D01*
X372092Y617135D01*
X372050Y617070D01*
X372000Y617010D01*
X371984Y616967D01*
X371959Y616928D01*
X371940Y616853D01*
X371912Y616780D01*
X371910Y616734D01*
X371899Y616690D01*
X371905Y616612D01*
X371901Y616535D01*
X371914Y616490D01*
X371918Y616445D01*
X371948Y616373D01*
X371970Y616298D01*
X371996Y616261D01*
X372014Y616218D01*
X372099Y616112D01*
X372110Y616096D01*
X372114Y616093D01*
X372119Y616087D01*
X372975Y615232D01*
X372975Y609968D01*
X372145Y609138D01*
X372133Y609122D01*
X372117Y609110D01*
X372061Y609022D01*
X372001Y608939D01*
X371995Y608920D01*
X371984Y608903D01*
X371959Y608802D01*
X371929Y608703D01*
X371929Y608684D01*
X371924Y608664D01*
X371932Y608561D01*
X371935Y608458D01*
X371942Y608439D01*
X371943Y608419D01*
X371984Y608324D01*
X372019Y608227D01*
X372032Y608211D01*
X372040Y608193D01*
X372145Y608062D01*
X372975Y607232D01*
X372975Y601968D01*
X372145Y601138D01*
X372133Y601122D01*
X372117Y601110D01*
X372062Y601023D01*
X372001Y600939D01*
X371995Y600920D01*
X371984Y600903D01*
X371959Y600802D01*
X371929Y600703D01*
X371929Y600684D01*
X371924Y600664D01*
X371932Y600561D01*
X371935Y600458D01*
X371942Y600439D01*
X371943Y600419D01*
X371984Y600324D01*
X372019Y600227D01*
X372032Y600211D01*
X372040Y600193D01*
X372144Y600062D01*
X372244Y599962D01*
X372260Y599950D01*
X372273Y599935D01*
X372360Y599879D01*
X372444Y599819D01*
X372463Y599813D01*
X372480Y599802D01*
X372580Y599777D01*
X372679Y599746D01*
X372699Y599747D01*
X372718Y599742D01*
X372821Y599750D01*
X372925Y599752D01*
X372944Y599759D01*
X372964Y599761D01*
X373058Y599801D01*
X373156Y599837D01*
X373171Y599849D01*
X373190Y599857D01*
X373321Y599962D01*
X375847Y602489D01*
X380057Y602489D01*
X383033Y599513D01*
X383033Y595303D01*
X379915Y592186D01*
X379874Y592128D01*
X379824Y592076D01*
X379802Y592029D01*
X379772Y591987D01*
X379751Y591918D01*
X379721Y591853D01*
X379715Y591801D01*
X379700Y591751D01*
X379701Y591680D01*
X379694Y591609D01*
X379705Y591558D01*
X379706Y591506D01*
X379731Y591438D01*
X379746Y591368D01*
X379773Y591323D01*
X379790Y591275D01*
X379835Y591219D01*
X379872Y591157D01*
X379912Y591123D01*
X379944Y591083D01*
X380004Y591044D01*
X380059Y590997D01*
X380107Y590978D01*
X380151Y590950D01*
X380220Y590932D01*
X380287Y590905D01*
X380358Y590897D01*
X380390Y590889D01*
X380413Y590891D01*
X380454Y590887D01*
X417096Y590887D01*
X417116Y590890D01*
G37*
%LPC*%
G36*
X35981Y19475D02*
X35981Y19475D01*
X28218Y21555D01*
X21257Y25574D01*
X15574Y31257D01*
X11555Y38218D01*
X9475Y45981D01*
X9475Y54019D01*
X11555Y61782D01*
X15574Y68743D01*
X21257Y74426D01*
X28218Y78445D01*
X35981Y80525D01*
X44019Y80525D01*
X51782Y78445D01*
X58743Y74426D01*
X64426Y68743D01*
X68445Y61782D01*
X70525Y54019D01*
X70525Y45981D01*
X68445Y38218D01*
X64426Y31257D01*
X58743Y25574D01*
X51782Y21555D01*
X44019Y19475D01*
X35981Y19475D01*
G37*
%LPD*%
%LPC*%
G36*
X35981Y919475D02*
X35981Y919475D01*
X28218Y921555D01*
X21257Y925574D01*
X15574Y931257D01*
X11555Y938218D01*
X9475Y945981D01*
X9475Y954019D01*
X11555Y961782D01*
X15574Y968743D01*
X21257Y974426D01*
X28218Y978445D01*
X35981Y980525D01*
X44019Y980525D01*
X51782Y978445D01*
X58743Y974426D01*
X64426Y968743D01*
X68445Y961782D01*
X70525Y954019D01*
X70525Y945981D01*
X68445Y938218D01*
X64426Y931257D01*
X58743Y925574D01*
X51782Y921555D01*
X44019Y919475D01*
X35981Y919475D01*
G37*
%LPD*%
%LPC*%
G36*
X785981Y919475D02*
X785981Y919475D01*
X778218Y921555D01*
X771257Y925574D01*
X765574Y931257D01*
X761555Y938218D01*
X759475Y945981D01*
X759475Y954019D01*
X761555Y961782D01*
X765574Y968743D01*
X771257Y974426D01*
X778218Y978445D01*
X785981Y980525D01*
X794019Y980525D01*
X801782Y978445D01*
X808743Y974426D01*
X814426Y968743D01*
X818445Y961782D01*
X820525Y954019D01*
X820525Y945981D01*
X818445Y938218D01*
X814426Y931257D01*
X808743Y925574D01*
X801782Y921555D01*
X794019Y919475D01*
X785981Y919475D01*
G37*
%LPD*%
%LPC*%
G36*
X785981Y19475D02*
X785981Y19475D01*
X778218Y21555D01*
X771257Y25574D01*
X765574Y31257D01*
X761555Y38218D01*
X759475Y45981D01*
X759475Y54019D01*
X761555Y61782D01*
X765574Y68743D01*
X771257Y74426D01*
X778218Y78445D01*
X785981Y80525D01*
X794019Y80525D01*
X801782Y78445D01*
X808743Y74426D01*
X814426Y68743D01*
X818445Y61782D01*
X820525Y54019D01*
X820525Y45981D01*
X818445Y38218D01*
X814426Y31257D01*
X808743Y25574D01*
X801782Y21555D01*
X794019Y19475D01*
X785981Y19475D01*
G37*
%LPD*%
%LPC*%
G36*
X323283Y287167D02*
X323283Y287167D01*
X320295Y288405D01*
X318009Y290691D01*
X316771Y293679D01*
X316771Y310121D01*
X318009Y313109D01*
X320295Y315395D01*
X323283Y316633D01*
X326553Y316633D01*
X326583Y316626D01*
X326697Y316597D01*
X326703Y316597D01*
X326709Y316596D01*
X326826Y316607D01*
X326942Y316616D01*
X326948Y316619D01*
X326954Y316619D01*
X327062Y316667D01*
X327168Y316712D01*
X327174Y316717D01*
X327179Y316719D01*
X327193Y316732D01*
X327299Y316817D01*
X335818Y325336D01*
X335871Y325410D01*
X335931Y325480D01*
X335943Y325510D01*
X335962Y325536D01*
X335989Y325623D01*
X336023Y325708D01*
X336027Y325749D01*
X336034Y325771D01*
X336033Y325803D01*
X336041Y325875D01*
X336041Y444431D01*
X346686Y455076D01*
X346728Y455134D01*
X346777Y455186D01*
X346799Y455233D01*
X346829Y455275D01*
X346850Y455344D01*
X346881Y455409D01*
X346886Y455461D01*
X346902Y455511D01*
X346900Y455582D01*
X346908Y455653D01*
X346897Y455704D01*
X346895Y455756D01*
X346871Y455824D01*
X346856Y455894D01*
X346829Y455939D01*
X346811Y455987D01*
X346766Y456043D01*
X346729Y456105D01*
X346690Y456139D01*
X346657Y456179D01*
X346597Y456218D01*
X346542Y456265D01*
X346494Y456284D01*
X346450Y456312D01*
X346381Y456330D01*
X346314Y456357D01*
X346243Y456365D01*
X346212Y456373D01*
X346188Y456371D01*
X346148Y456375D01*
X345168Y456375D01*
X344275Y457268D01*
X344275Y467868D01*
X344272Y467888D01*
X344274Y467907D01*
X344252Y468009D01*
X344236Y468111D01*
X344226Y468128D01*
X344222Y468148D01*
X344169Y468237D01*
X344120Y468328D01*
X344106Y468342D01*
X344096Y468359D01*
X344017Y468426D01*
X343942Y468498D01*
X343924Y468506D01*
X343909Y468519D01*
X343813Y468558D01*
X343719Y468601D01*
X343699Y468603D01*
X343681Y468611D01*
X343514Y468629D01*
X341953Y468629D01*
X314744Y495838D01*
X314670Y495891D01*
X314600Y495951D01*
X314570Y495963D01*
X314544Y495982D01*
X314457Y496009D01*
X314372Y496043D01*
X314331Y496047D01*
X314309Y496054D01*
X314277Y496053D01*
X314205Y496061D01*
X310686Y496061D01*
X310666Y496058D01*
X310647Y496060D01*
X310545Y496038D01*
X310443Y496022D01*
X310426Y496012D01*
X310406Y496008D01*
X310317Y495955D01*
X310226Y495906D01*
X310212Y495892D01*
X310195Y495882D01*
X310128Y495803D01*
X310056Y495728D01*
X310048Y495710D01*
X310035Y495695D01*
X310024Y495668D01*
X309032Y494675D01*
X294768Y494675D01*
X293875Y495568D01*
X293875Y511832D01*
X294768Y512725D01*
X300387Y512725D01*
X300478Y512739D01*
X300568Y512747D01*
X300598Y512759D01*
X300630Y512764D01*
X300711Y512807D01*
X300795Y512843D01*
X300827Y512869D01*
X300848Y512880D01*
X300870Y512903D01*
X300926Y512948D01*
X301028Y513050D01*
X350868Y562890D01*
X350880Y562906D01*
X350895Y562919D01*
X350951Y563006D01*
X351012Y563090D01*
X351018Y563109D01*
X351028Y563126D01*
X351054Y563226D01*
X351084Y563325D01*
X351084Y563345D01*
X351088Y563364D01*
X351080Y563467D01*
X351078Y563571D01*
X351071Y563590D01*
X351069Y563609D01*
X351029Y563704D01*
X350993Y563802D01*
X350981Y563817D01*
X350973Y563836D01*
X350868Y563967D01*
X348487Y566347D01*
X348487Y570557D01*
X351463Y573533D01*
X355673Y573533D01*
X356626Y572579D01*
X356684Y572538D01*
X356736Y572488D01*
X356783Y572466D01*
X356825Y572436D01*
X356894Y572415D01*
X356959Y572385D01*
X357011Y572379D01*
X357061Y572364D01*
X357132Y572365D01*
X357203Y572358D01*
X357254Y572369D01*
X357306Y572370D01*
X357374Y572395D01*
X357444Y572410D01*
X357489Y572437D01*
X357537Y572454D01*
X357593Y572499D01*
X357655Y572536D01*
X357689Y572576D01*
X357729Y572608D01*
X357768Y572668D01*
X357815Y572723D01*
X357834Y572771D01*
X357862Y572815D01*
X357880Y572885D01*
X357907Y572951D01*
X357915Y573022D01*
X357923Y573054D01*
X357921Y573077D01*
X357925Y573118D01*
X357925Y575232D01*
X358781Y576087D01*
X358808Y576125D01*
X358842Y576156D01*
X358879Y576224D01*
X358925Y576287D01*
X358938Y576331D01*
X358960Y576371D01*
X358974Y576448D01*
X358997Y576522D01*
X358996Y576568D01*
X359004Y576613D01*
X358993Y576690D01*
X358991Y576768D01*
X358975Y576811D01*
X358968Y576857D01*
X358933Y576926D01*
X358906Y576999D01*
X358878Y577035D01*
X358857Y577076D01*
X358801Y577130D01*
X358753Y577191D01*
X358714Y577216D01*
X358681Y577248D01*
X358602Y577292D01*
X358157Y577736D01*
X357925Y578297D01*
X357925Y579601D01*
X365212Y579601D01*
X365231Y579604D01*
X365251Y579602D01*
X365353Y579624D01*
X365455Y579640D01*
X365456Y579641D01*
X365483Y579629D01*
X365503Y579627D01*
X365521Y579619D01*
X365688Y579601D01*
X372975Y579601D01*
X372975Y578297D01*
X372743Y577736D01*
X372302Y577296D01*
X372284Y577289D01*
X372223Y577241D01*
X372157Y577199D01*
X372128Y577164D01*
X372092Y577135D01*
X372050Y577070D01*
X372000Y577010D01*
X371984Y576967D01*
X371959Y576928D01*
X371940Y576853D01*
X371912Y576780D01*
X371910Y576734D01*
X371899Y576690D01*
X371905Y576612D01*
X371901Y576535D01*
X371914Y576490D01*
X371918Y576445D01*
X371948Y576373D01*
X371970Y576298D01*
X371996Y576261D01*
X372014Y576218D01*
X372100Y576111D01*
X372110Y576096D01*
X372114Y576093D01*
X372119Y576087D01*
X372975Y575232D01*
X372975Y569968D01*
X372145Y569138D01*
X372133Y569122D01*
X372117Y569110D01*
X372061Y569022D01*
X372001Y568939D01*
X371995Y568920D01*
X371984Y568903D01*
X371959Y568802D01*
X371929Y568703D01*
X371929Y568684D01*
X371924Y568664D01*
X371932Y568561D01*
X371935Y568458D01*
X371942Y568439D01*
X371943Y568419D01*
X371984Y568324D01*
X372019Y568227D01*
X372032Y568211D01*
X372040Y568193D01*
X372145Y568062D01*
X372975Y567232D01*
X372975Y561968D01*
X372082Y561075D01*
X358818Y561075D01*
X357925Y561968D01*
X357925Y563786D01*
X357914Y563857D01*
X357912Y563929D01*
X357894Y563978D01*
X357886Y564029D01*
X357852Y564092D01*
X357827Y564160D01*
X357795Y564200D01*
X357770Y564246D01*
X357718Y564296D01*
X357674Y564352D01*
X357630Y564380D01*
X357592Y564416D01*
X357527Y564446D01*
X357467Y564485D01*
X357416Y564497D01*
X357369Y564519D01*
X357298Y564527D01*
X357228Y564545D01*
X357176Y564541D01*
X357125Y564546D01*
X357054Y564531D01*
X356983Y564526D01*
X356935Y564505D01*
X356884Y564494D01*
X356823Y564457D01*
X356757Y564429D01*
X356701Y564384D01*
X356673Y564368D01*
X356658Y564350D01*
X356626Y564325D01*
X356078Y563776D01*
X356024Y563702D01*
X355965Y563633D01*
X355953Y563603D01*
X355934Y563577D01*
X355907Y563490D01*
X355873Y563405D01*
X355869Y563364D01*
X355862Y563342D01*
X355863Y563309D01*
X355855Y563238D01*
X355855Y561409D01*
X308470Y514024D01*
X308428Y513966D01*
X308379Y513914D01*
X308357Y513867D01*
X308327Y513825D01*
X308306Y513756D01*
X308275Y513691D01*
X308270Y513639D01*
X308254Y513589D01*
X308256Y513518D01*
X308248Y513447D01*
X308259Y513396D01*
X308261Y513344D01*
X308285Y513276D01*
X308300Y513206D01*
X308327Y513161D01*
X308345Y513113D01*
X308390Y513057D01*
X308427Y512995D01*
X308466Y512961D01*
X308499Y512921D01*
X308559Y512882D01*
X308614Y512835D01*
X308662Y512816D01*
X308706Y512788D01*
X308775Y512770D01*
X308842Y512743D01*
X308913Y512735D01*
X308944Y512727D01*
X308968Y512729D01*
X309008Y512725D01*
X309032Y512725D01*
X309925Y511832D01*
X309925Y501396D01*
X309927Y501384D01*
X309926Y501376D01*
X309927Y501370D01*
X309926Y501357D01*
X309948Y501255D01*
X309964Y501153D01*
X309974Y501136D01*
X309978Y501116D01*
X310031Y501027D01*
X310080Y500936D01*
X310094Y500922D01*
X310104Y500905D01*
X310183Y500838D01*
X310258Y500766D01*
X310276Y500758D01*
X310291Y500745D01*
X310387Y500706D01*
X310481Y500663D01*
X310501Y500661D01*
X310519Y500653D01*
X310686Y500635D01*
X316415Y500635D01*
X342976Y474074D01*
X343034Y474032D01*
X343086Y473983D01*
X343133Y473961D01*
X343175Y473931D01*
X343244Y473910D01*
X343309Y473879D01*
X343361Y473874D01*
X343411Y473858D01*
X343482Y473860D01*
X343553Y473852D01*
X343604Y473863D01*
X343656Y473865D01*
X343724Y473889D01*
X343794Y473904D01*
X343839Y473931D01*
X343887Y473949D01*
X343943Y473994D01*
X344005Y474031D01*
X344039Y474070D01*
X344079Y474103D01*
X344118Y474163D01*
X344165Y474218D01*
X344184Y474266D01*
X344212Y474310D01*
X344230Y474379D01*
X344257Y474446D01*
X344265Y474517D01*
X344266Y474522D01*
X345168Y475425D01*
X364432Y475425D01*
X365325Y474532D01*
X365325Y457268D01*
X364432Y456375D01*
X354769Y456375D01*
X354678Y456361D01*
X354588Y456353D01*
X354558Y456341D01*
X354526Y456336D01*
X354445Y456293D01*
X354361Y456257D01*
X354329Y456231D01*
X354308Y456220D01*
X354286Y456197D01*
X354230Y456152D01*
X340838Y442760D01*
X340785Y442686D01*
X340725Y442616D01*
X340713Y442586D01*
X340694Y442560D01*
X340667Y442473D01*
X340633Y442388D01*
X340629Y442347D01*
X340622Y442325D01*
X340623Y442293D01*
X340615Y442221D01*
X340615Y323665D01*
X339052Y322102D01*
X331463Y314513D01*
X331451Y314497D01*
X331436Y314485D01*
X331380Y314397D01*
X331320Y314313D01*
X331314Y314294D01*
X331303Y314278D01*
X331278Y314177D01*
X331247Y314078D01*
X331248Y314058D01*
X331243Y314039D01*
X331251Y313936D01*
X331254Y313833D01*
X331260Y313814D01*
X331262Y313794D01*
X331302Y313699D01*
X331338Y313601D01*
X331351Y313586D01*
X331358Y313568D01*
X331463Y313437D01*
X331791Y313109D01*
X333029Y310121D01*
X333029Y293679D01*
X331791Y290691D01*
X329505Y288405D01*
X326517Y287167D01*
X323283Y287167D01*
G37*
%LPD*%
%LPC*%
G36*
X424468Y478675D02*
X424468Y478675D01*
X423575Y479568D01*
X423575Y493832D01*
X424468Y494725D01*
X432816Y494725D01*
X432836Y494728D01*
X432855Y494726D01*
X432957Y494748D01*
X433059Y494764D01*
X433076Y494774D01*
X433096Y494778D01*
X433185Y494831D01*
X433276Y494880D01*
X433290Y494894D01*
X433307Y494904D01*
X433374Y494983D01*
X433446Y495058D01*
X433454Y495076D01*
X433467Y495091D01*
X433506Y495187D01*
X433549Y495281D01*
X433551Y495301D01*
X433559Y495319D01*
X433577Y495486D01*
X433577Y542064D01*
X433574Y542084D01*
X433576Y542103D01*
X433554Y542205D01*
X433538Y542307D01*
X433528Y542324D01*
X433524Y542344D01*
X433471Y542433D01*
X433422Y542524D01*
X433408Y542538D01*
X433398Y542555D01*
X433319Y542622D01*
X433244Y542694D01*
X433226Y542702D01*
X433211Y542715D01*
X433157Y542736D01*
X432238Y543655D01*
X432222Y543667D01*
X432210Y543683D01*
X432122Y543739D01*
X432039Y543799D01*
X432020Y543805D01*
X432003Y543816D01*
X431902Y543841D01*
X431803Y543871D01*
X431784Y543871D01*
X431764Y543876D01*
X431661Y543868D01*
X431558Y543865D01*
X431539Y543858D01*
X431519Y543857D01*
X431424Y543816D01*
X431327Y543781D01*
X431311Y543768D01*
X431293Y543760D01*
X431162Y543655D01*
X430332Y542825D01*
X425068Y542825D01*
X424238Y543655D01*
X424222Y543667D01*
X424210Y543683D01*
X424122Y543739D01*
X424039Y543799D01*
X424020Y543805D01*
X424003Y543816D01*
X423902Y543841D01*
X423803Y543871D01*
X423784Y543871D01*
X423764Y543876D01*
X423661Y543868D01*
X423558Y543865D01*
X423539Y543858D01*
X423519Y543857D01*
X423424Y543816D01*
X423327Y543781D01*
X423311Y543768D01*
X423293Y543760D01*
X423162Y543655D01*
X422332Y542825D01*
X417068Y542825D01*
X416238Y543655D01*
X416222Y543667D01*
X416210Y543683D01*
X416122Y543739D01*
X416039Y543799D01*
X416020Y543805D01*
X416003Y543816D01*
X415902Y543841D01*
X415803Y543871D01*
X415784Y543871D01*
X415764Y543876D01*
X415661Y543868D01*
X415558Y543865D01*
X415539Y543858D01*
X415519Y543857D01*
X415424Y543816D01*
X415327Y543781D01*
X415311Y543768D01*
X415293Y543760D01*
X415162Y543655D01*
X414293Y542787D01*
X414285Y542786D01*
X414268Y542776D01*
X414248Y542772D01*
X414159Y542719D01*
X414068Y542670D01*
X414054Y542656D01*
X414037Y542646D01*
X413970Y542567D01*
X413898Y542492D01*
X413890Y542474D01*
X413877Y542459D01*
X413838Y542363D01*
X413795Y542269D01*
X413793Y542249D01*
X413785Y542231D01*
X413767Y542064D01*
X413767Y538549D01*
X371279Y496061D01*
X366086Y496061D01*
X366066Y496058D01*
X366047Y496060D01*
X365945Y496038D01*
X365843Y496022D01*
X365826Y496012D01*
X365806Y496008D01*
X365717Y495955D01*
X365626Y495906D01*
X365612Y495892D01*
X365595Y495882D01*
X365528Y495803D01*
X365456Y495728D01*
X365448Y495710D01*
X365435Y495695D01*
X365396Y495599D01*
X365353Y495505D01*
X365351Y495485D01*
X365343Y495467D01*
X365325Y495300D01*
X365325Y485268D01*
X364432Y484375D01*
X345168Y484375D01*
X344275Y485268D01*
X344275Y502532D01*
X345168Y503425D01*
X364432Y503425D01*
X365325Y502532D01*
X365325Y501396D01*
X365327Y501384D01*
X365326Y501376D01*
X365327Y501370D01*
X365326Y501357D01*
X365348Y501255D01*
X365364Y501153D01*
X365374Y501136D01*
X365378Y501116D01*
X365431Y501027D01*
X365480Y500936D01*
X365494Y500922D01*
X365504Y500905D01*
X365583Y500838D01*
X365658Y500766D01*
X365676Y500758D01*
X365691Y500745D01*
X365787Y500706D01*
X365881Y500663D01*
X365901Y500661D01*
X365919Y500653D01*
X366086Y500635D01*
X369069Y500635D01*
X369160Y500649D01*
X369250Y500657D01*
X369280Y500669D01*
X369312Y500674D01*
X369393Y500717D01*
X369477Y500753D01*
X369509Y500779D01*
X369530Y500790D01*
X369547Y500808D01*
X369549Y500809D01*
X369556Y500816D01*
X369608Y500858D01*
X408970Y540220D01*
X409023Y540294D01*
X409083Y540364D01*
X409095Y540394D01*
X409114Y540420D01*
X409141Y540507D01*
X409175Y540592D01*
X409179Y540633D01*
X409186Y540655D01*
X409185Y540687D01*
X409193Y540759D01*
X409193Y542385D01*
X409179Y542475D01*
X409171Y542566D01*
X409159Y542596D01*
X409154Y542628D01*
X409111Y542709D01*
X409075Y542792D01*
X409049Y542825D01*
X409038Y542845D01*
X409015Y542867D01*
X408970Y542923D01*
X408238Y543655D01*
X408222Y543667D01*
X408210Y543683D01*
X408122Y543739D01*
X408039Y543799D01*
X408020Y543805D01*
X408003Y543816D01*
X407902Y543841D01*
X407803Y543871D01*
X407784Y543871D01*
X407764Y543876D01*
X407661Y543868D01*
X407558Y543865D01*
X407539Y543858D01*
X407519Y543857D01*
X407424Y543816D01*
X407327Y543781D01*
X407311Y543768D01*
X407293Y543760D01*
X407162Y543655D01*
X406332Y542825D01*
X401068Y542825D01*
X400238Y543655D01*
X400222Y543667D01*
X400210Y543683D01*
X400122Y543739D01*
X400039Y543799D01*
X400020Y543805D01*
X400003Y543816D01*
X399902Y543841D01*
X399803Y543871D01*
X399784Y543871D01*
X399764Y543876D01*
X399661Y543868D01*
X399558Y543865D01*
X399539Y543858D01*
X399519Y543857D01*
X399424Y543816D01*
X399327Y543781D01*
X399311Y543768D01*
X399293Y543760D01*
X399162Y543655D01*
X398332Y542825D01*
X393068Y542825D01*
X392238Y543655D01*
X392222Y543667D01*
X392210Y543683D01*
X392122Y543739D01*
X392039Y543799D01*
X392020Y543805D01*
X392003Y543816D01*
X391902Y543841D01*
X391803Y543871D01*
X391784Y543871D01*
X391764Y543876D01*
X391661Y543868D01*
X391558Y543865D01*
X391539Y543858D01*
X391519Y543857D01*
X391424Y543816D01*
X391327Y543781D01*
X391311Y543768D01*
X391293Y543760D01*
X391162Y543655D01*
X390332Y542825D01*
X385068Y542825D01*
X384213Y543681D01*
X384175Y543708D01*
X384144Y543742D01*
X384076Y543779D01*
X384013Y543825D01*
X383969Y543838D01*
X383929Y543860D01*
X383852Y543874D01*
X383778Y543897D01*
X383732Y543896D01*
X383687Y543904D01*
X383610Y543893D01*
X383532Y543891D01*
X383489Y543875D01*
X383443Y543868D01*
X383374Y543833D01*
X383301Y543806D01*
X383265Y543778D01*
X383224Y543757D01*
X383170Y543701D01*
X383109Y543653D01*
X383084Y543614D01*
X383052Y543581D01*
X383008Y543502D01*
X382564Y543057D01*
X382003Y542825D01*
X380699Y542825D01*
X380699Y550112D01*
X380696Y550131D01*
X380698Y550151D01*
X380676Y550253D01*
X380660Y550355D01*
X380659Y550356D01*
X380671Y550383D01*
X380673Y550403D01*
X380681Y550421D01*
X380699Y550588D01*
X380699Y557875D01*
X382003Y557875D01*
X382564Y557643D01*
X383004Y557202D01*
X383011Y557184D01*
X383059Y557123D01*
X383101Y557057D01*
X383136Y557028D01*
X383165Y556992D01*
X383230Y556950D01*
X383290Y556900D01*
X383333Y556884D01*
X383372Y556859D01*
X383447Y556840D01*
X383520Y556812D01*
X383566Y556810D01*
X383610Y556799D01*
X383688Y556805D01*
X383765Y556801D01*
X383810Y556814D01*
X383855Y556818D01*
X383927Y556848D01*
X384002Y556870D01*
X384039Y556896D01*
X384082Y556914D01*
X384188Y556999D01*
X384204Y557010D01*
X384207Y557014D01*
X384213Y557019D01*
X385068Y557875D01*
X390332Y557875D01*
X391162Y557045D01*
X391178Y557033D01*
X391190Y557017D01*
X391278Y556961D01*
X391361Y556901D01*
X391380Y556895D01*
X391397Y556884D01*
X391498Y556859D01*
X391597Y556829D01*
X391616Y556829D01*
X391636Y556824D01*
X391739Y556832D01*
X391842Y556835D01*
X391861Y556842D01*
X391881Y556843D01*
X391976Y556884D01*
X392073Y556919D01*
X392089Y556932D01*
X392107Y556940D01*
X392238Y557045D01*
X393068Y557875D01*
X398332Y557875D01*
X399162Y557045D01*
X399178Y557033D01*
X399190Y557017D01*
X399278Y556961D01*
X399361Y556901D01*
X399380Y556895D01*
X399397Y556884D01*
X399498Y556859D01*
X399597Y556829D01*
X399616Y556829D01*
X399636Y556824D01*
X399739Y556832D01*
X399842Y556835D01*
X399861Y556842D01*
X399881Y556843D01*
X399976Y556884D01*
X400073Y556919D01*
X400089Y556932D01*
X400107Y556940D01*
X400238Y557045D01*
X401068Y557875D01*
X406332Y557875D01*
X407162Y557045D01*
X407178Y557033D01*
X407190Y557017D01*
X407278Y556961D01*
X407361Y556901D01*
X407380Y556895D01*
X407397Y556884D01*
X407498Y556859D01*
X407597Y556829D01*
X407616Y556829D01*
X407636Y556824D01*
X407739Y556832D01*
X407842Y556835D01*
X407861Y556842D01*
X407881Y556843D01*
X407976Y556884D01*
X408073Y556919D01*
X408089Y556932D01*
X408107Y556940D01*
X408238Y557045D01*
X409068Y557875D01*
X414332Y557875D01*
X415162Y557045D01*
X415178Y557033D01*
X415190Y557017D01*
X415278Y556961D01*
X415361Y556901D01*
X415380Y556895D01*
X415397Y556884D01*
X415498Y556859D01*
X415597Y556829D01*
X415616Y556829D01*
X415636Y556824D01*
X415739Y556832D01*
X415842Y556835D01*
X415861Y556842D01*
X415881Y556843D01*
X415976Y556884D01*
X416073Y556919D01*
X416089Y556932D01*
X416107Y556940D01*
X416238Y557045D01*
X417068Y557875D01*
X422332Y557875D01*
X423162Y557045D01*
X423178Y557033D01*
X423190Y557017D01*
X423278Y556961D01*
X423361Y556901D01*
X423380Y556895D01*
X423397Y556884D01*
X423498Y556859D01*
X423597Y556829D01*
X423616Y556829D01*
X423636Y556824D01*
X423739Y556832D01*
X423842Y556835D01*
X423861Y556842D01*
X423881Y556843D01*
X423976Y556884D01*
X424073Y556919D01*
X424089Y556932D01*
X424107Y556940D01*
X424238Y557045D01*
X425068Y557875D01*
X430332Y557875D01*
X431162Y557045D01*
X431178Y557033D01*
X431190Y557017D01*
X431278Y556961D01*
X431361Y556901D01*
X431380Y556895D01*
X431397Y556884D01*
X431498Y556859D01*
X431597Y556829D01*
X431616Y556829D01*
X431636Y556824D01*
X431739Y556832D01*
X431842Y556835D01*
X431861Y556842D01*
X431881Y556843D01*
X431976Y556884D01*
X432073Y556919D01*
X432089Y556932D01*
X432107Y556940D01*
X432238Y557045D01*
X433068Y557875D01*
X438332Y557875D01*
X439225Y556982D01*
X439225Y543718D01*
X438374Y542867D01*
X438321Y542793D01*
X438261Y542724D01*
X438249Y542694D01*
X438230Y542668D01*
X438203Y542581D01*
X438169Y542496D01*
X438165Y542455D01*
X438158Y542433D01*
X438159Y542400D01*
X438151Y542329D01*
X438151Y495486D01*
X438154Y495466D01*
X438152Y495447D01*
X438174Y495345D01*
X438190Y495243D01*
X438200Y495226D01*
X438204Y495206D01*
X438257Y495117D01*
X438306Y495026D01*
X438320Y495012D01*
X438330Y494995D01*
X438409Y494928D01*
X438484Y494856D01*
X438502Y494848D01*
X438517Y494835D01*
X438613Y494796D01*
X438707Y494753D01*
X438727Y494751D01*
X438745Y494743D01*
X438912Y494725D01*
X440732Y494725D01*
X441625Y493832D01*
X441625Y479568D01*
X440732Y478675D01*
X424468Y478675D01*
G37*
%LPD*%
%LPC*%
G36*
X744268Y203725D02*
X744268Y203725D01*
X743375Y204618D01*
X743375Y235382D01*
X744268Y236275D01*
X752856Y236275D01*
X752876Y236278D01*
X752895Y236276D01*
X752997Y236298D01*
X753099Y236314D01*
X753116Y236324D01*
X753136Y236328D01*
X753225Y236381D01*
X753316Y236430D01*
X753330Y236444D01*
X753347Y236454D01*
X753414Y236533D01*
X753486Y236608D01*
X753494Y236626D01*
X753507Y236641D01*
X753546Y236737D01*
X753589Y236831D01*
X753591Y236851D01*
X753599Y236869D01*
X753617Y237036D01*
X753617Y286773D01*
X753616Y286781D01*
X753616Y286783D01*
X753614Y286792D01*
X753603Y286864D01*
X753595Y286954D01*
X753583Y286984D01*
X753578Y287016D01*
X753535Y287097D01*
X753499Y287181D01*
X753473Y287213D01*
X753462Y287234D01*
X753439Y287256D01*
X753394Y287312D01*
X749045Y291661D01*
X749045Y389567D01*
X755910Y396432D01*
X755978Y396527D01*
X756048Y396620D01*
X756050Y396626D01*
X756053Y396631D01*
X756088Y396743D01*
X756124Y396854D01*
X756124Y396861D01*
X756126Y396867D01*
X756123Y396983D01*
X756122Y397100D01*
X756119Y397107D01*
X756119Y397112D01*
X756113Y397130D01*
X756075Y397261D01*
X755735Y398081D01*
X755735Y401719D01*
X757127Y405080D01*
X759700Y407653D01*
X763061Y409045D01*
X781939Y409045D01*
X785300Y407653D01*
X787873Y405080D01*
X789265Y401719D01*
X789265Y398081D01*
X787873Y394720D01*
X785300Y392147D01*
X781939Y390755D01*
X763061Y390755D01*
X759700Y392147D01*
X759435Y392412D01*
X759419Y392424D01*
X759406Y392440D01*
X759319Y392496D01*
X759235Y392556D01*
X759216Y392562D01*
X759199Y392573D01*
X759099Y392598D01*
X759000Y392628D01*
X758980Y392628D01*
X758961Y392633D01*
X758858Y392625D01*
X758754Y392622D01*
X758735Y392615D01*
X758716Y392614D01*
X758621Y392573D01*
X758523Y392538D01*
X758508Y392525D01*
X758489Y392517D01*
X758358Y392412D01*
X753842Y387896D01*
X753789Y387822D01*
X753729Y387752D01*
X753717Y387722D01*
X753698Y387696D01*
X753671Y387609D01*
X753637Y387524D01*
X753633Y387483D01*
X753626Y387461D01*
X753627Y387429D01*
X753619Y387357D01*
X753619Y293871D01*
X753633Y293780D01*
X753641Y293690D01*
X753653Y293660D01*
X753658Y293628D01*
X753701Y293547D01*
X753737Y293463D01*
X753763Y293431D01*
X753774Y293410D01*
X753797Y293388D01*
X753842Y293332D01*
X758191Y288983D01*
X758191Y237036D01*
X758194Y237016D01*
X758192Y236997D01*
X758214Y236895D01*
X758230Y236793D01*
X758240Y236776D01*
X758244Y236756D01*
X758297Y236667D01*
X758346Y236576D01*
X758360Y236562D01*
X758370Y236545D01*
X758449Y236478D01*
X758524Y236406D01*
X758542Y236398D01*
X758557Y236385D01*
X758653Y236346D01*
X758747Y236303D01*
X758767Y236301D01*
X758785Y236293D01*
X758952Y236275D01*
X765732Y236275D01*
X766625Y235382D01*
X766625Y204618D01*
X765732Y203725D01*
X744268Y203725D01*
G37*
%LPD*%
%LPC*%
G36*
X209668Y138475D02*
X209668Y138475D01*
X208775Y139368D01*
X208775Y153632D01*
X209668Y154525D01*
X225932Y154525D01*
X226825Y153632D01*
X226825Y149352D01*
X226828Y149332D01*
X226826Y149313D01*
X226848Y149211D01*
X226864Y149109D01*
X226874Y149092D01*
X226878Y149072D01*
X226931Y148983D01*
X226980Y148892D01*
X226994Y148878D01*
X227004Y148861D01*
X227083Y148794D01*
X227158Y148722D01*
X227176Y148714D01*
X227191Y148701D01*
X227287Y148662D01*
X227381Y148619D01*
X227401Y148617D01*
X227419Y148609D01*
X227586Y148591D01*
X268485Y148591D01*
X268576Y148605D01*
X268666Y148613D01*
X268696Y148625D01*
X268728Y148630D01*
X268809Y148673D01*
X268893Y148709D01*
X268925Y148735D01*
X268946Y148746D01*
X268968Y148769D01*
X269024Y148814D01*
X418148Y297938D01*
X418201Y298012D01*
X418261Y298082D01*
X418273Y298112D01*
X418292Y298138D01*
X418319Y298225D01*
X418353Y298310D01*
X418357Y298351D01*
X418364Y298373D01*
X418363Y298405D01*
X418371Y298477D01*
X418371Y310121D01*
X419609Y313109D01*
X421895Y315395D01*
X424883Y316633D01*
X428117Y316633D01*
X431105Y315395D01*
X433391Y313109D01*
X434629Y310121D01*
X434629Y293679D01*
X433391Y290691D01*
X431105Y288405D01*
X428117Y287167D01*
X424883Y287167D01*
X421895Y288405D01*
X419609Y290691D01*
X419389Y291222D01*
X419365Y291261D01*
X419349Y291305D01*
X419300Y291365D01*
X419259Y291431D01*
X419224Y291461D01*
X419195Y291497D01*
X419130Y291539D01*
X419070Y291588D01*
X419027Y291605D01*
X418988Y291630D01*
X418913Y291649D01*
X418840Y291676D01*
X418794Y291678D01*
X418750Y291690D01*
X418672Y291684D01*
X418594Y291687D01*
X418550Y291674D01*
X418505Y291670D01*
X418433Y291640D01*
X418358Y291618D01*
X418320Y291592D01*
X418278Y291574D01*
X418171Y291489D01*
X418156Y291478D01*
X418153Y291474D01*
X418147Y291469D01*
X270695Y144017D01*
X227586Y144017D01*
X227566Y144014D01*
X227547Y144016D01*
X227445Y143994D01*
X227343Y143978D01*
X227326Y143968D01*
X227306Y143964D01*
X227217Y143911D01*
X227126Y143862D01*
X227112Y143848D01*
X227095Y143838D01*
X227028Y143759D01*
X226956Y143684D01*
X226948Y143666D01*
X226935Y143651D01*
X226896Y143555D01*
X226853Y143461D01*
X226851Y143441D01*
X226843Y143423D01*
X226825Y143256D01*
X226825Y139368D01*
X225932Y138475D01*
X209668Y138475D01*
G37*
%LPD*%
%LPC*%
G36*
X345001Y279653D02*
X345001Y279653D01*
X336041Y288613D01*
X336041Y314891D01*
X360202Y339052D01*
X360255Y339126D01*
X360315Y339196D01*
X360327Y339226D01*
X360346Y339252D01*
X360373Y339339D01*
X360407Y339424D01*
X360411Y339465D01*
X360418Y339487D01*
X360417Y339519D01*
X360425Y339591D01*
X360425Y391091D01*
X361988Y392654D01*
X427710Y458376D01*
X427752Y458434D01*
X427801Y458486D01*
X427823Y458533D01*
X427853Y458575D01*
X427874Y458644D01*
X427905Y458709D01*
X427910Y458761D01*
X427926Y458811D01*
X427924Y458882D01*
X427932Y458953D01*
X427921Y459004D01*
X427919Y459056D01*
X427895Y459124D01*
X427880Y459194D01*
X427853Y459239D01*
X427835Y459287D01*
X427790Y459343D01*
X427753Y459405D01*
X427714Y459439D01*
X427681Y459479D01*
X427621Y459518D01*
X427566Y459565D01*
X427518Y459584D01*
X427474Y459612D01*
X427405Y459630D01*
X427338Y459657D01*
X427267Y459665D01*
X427236Y459673D01*
X427212Y459671D01*
X427172Y459675D01*
X424468Y459675D01*
X423575Y460568D01*
X423575Y474832D01*
X424468Y475725D01*
X440732Y475725D01*
X441625Y474832D01*
X441625Y460568D01*
X440732Y459675D01*
X434340Y459675D01*
X434320Y459672D01*
X434301Y459674D01*
X434199Y459652D01*
X434097Y459636D01*
X434080Y459626D01*
X434060Y459622D01*
X433971Y459569D01*
X433880Y459520D01*
X433866Y459506D01*
X433849Y459496D01*
X433782Y459417D01*
X433710Y459342D01*
X433702Y459324D01*
X433689Y459309D01*
X433650Y459213D01*
X433607Y459119D01*
X433605Y459099D01*
X433597Y459081D01*
X433579Y458914D01*
X433579Y457777D01*
X365222Y389420D01*
X365169Y389346D01*
X365109Y389276D01*
X365097Y389246D01*
X365078Y389220D01*
X365051Y389133D01*
X365017Y389048D01*
X365013Y389007D01*
X365006Y388985D01*
X365007Y388953D01*
X364999Y388881D01*
X364999Y337381D01*
X340838Y313220D01*
X340785Y313146D01*
X340725Y313076D01*
X340713Y313046D01*
X340694Y313020D01*
X340667Y312933D01*
X340633Y312848D01*
X340629Y312807D01*
X340622Y312785D01*
X340623Y312753D01*
X340615Y312681D01*
X340615Y290823D01*
X340629Y290732D01*
X340637Y290642D01*
X340649Y290612D01*
X340654Y290580D01*
X340697Y290499D01*
X340733Y290415D01*
X340759Y290383D01*
X340770Y290362D01*
X340793Y290340D01*
X340838Y290284D01*
X346672Y284450D01*
X346746Y284397D01*
X346816Y284337D01*
X346846Y284325D01*
X346872Y284306D01*
X346959Y284279D01*
X347044Y284245D01*
X347085Y284241D01*
X347107Y284234D01*
X347139Y284235D01*
X347211Y284227D01*
X358401Y284227D01*
X358492Y284241D01*
X358582Y284249D01*
X358612Y284261D01*
X358644Y284266D01*
X358725Y284309D01*
X358809Y284345D01*
X358841Y284371D01*
X358862Y284382D01*
X358884Y284405D01*
X358940Y284450D01*
X367387Y292897D01*
X367455Y292991D01*
X367525Y293085D01*
X367527Y293091D01*
X367530Y293096D01*
X367565Y293208D01*
X367601Y293319D01*
X367601Y293325D01*
X367603Y293331D01*
X367600Y293448D01*
X367598Y293565D01*
X367596Y293572D01*
X367596Y293577D01*
X367590Y293594D01*
X367571Y293659D01*
X367571Y310121D01*
X368809Y313109D01*
X371095Y315395D01*
X374083Y316633D01*
X377317Y316633D01*
X380305Y315395D01*
X382591Y313109D01*
X383829Y310121D01*
X383829Y293679D01*
X382591Y290691D01*
X380305Y288405D01*
X377317Y287167D01*
X374083Y287167D01*
X371095Y288405D01*
X370767Y288733D01*
X370751Y288745D01*
X370739Y288760D01*
X370652Y288816D01*
X370568Y288876D01*
X370549Y288882D01*
X370532Y288893D01*
X370431Y288918D01*
X370333Y288949D01*
X370313Y288948D01*
X370293Y288953D01*
X370190Y288945D01*
X370087Y288942D01*
X370068Y288936D01*
X370048Y288934D01*
X369953Y288894D01*
X369856Y288858D01*
X369840Y288845D01*
X369822Y288838D01*
X369691Y288733D01*
X360611Y279653D01*
X345001Y279653D01*
G37*
%LPD*%
%LPC*%
G36*
X348683Y287167D02*
X348683Y287167D01*
X345695Y288405D01*
X343409Y290691D01*
X342171Y293679D01*
X342171Y310121D01*
X343409Y313109D01*
X345695Y315395D01*
X348683Y316633D01*
X351917Y316633D01*
X354905Y315395D01*
X357205Y313095D01*
X357220Y313053D01*
X357269Y312992D01*
X357310Y312926D01*
X357345Y312897D01*
X357374Y312861D01*
X357439Y312819D01*
X357499Y312769D01*
X357542Y312753D01*
X357581Y312728D01*
X357656Y312709D01*
X357729Y312681D01*
X357775Y312679D01*
X357819Y312668D01*
X357897Y312674D01*
X357975Y312670D01*
X358019Y312683D01*
X358065Y312687D01*
X358136Y312717D01*
X358211Y312739D01*
X358249Y312765D01*
X358291Y312783D01*
X358397Y312868D01*
X358413Y312879D01*
X358416Y312883D01*
X358422Y312888D01*
X412018Y366484D01*
X412071Y366558D01*
X412131Y366628D01*
X412143Y366658D01*
X412162Y366684D01*
X412189Y366771D01*
X412223Y366856D01*
X412227Y366897D01*
X412234Y366919D01*
X412233Y366951D01*
X412241Y367023D01*
X412241Y391091D01*
X421201Y400051D01*
X426981Y400051D01*
X427072Y400065D01*
X427162Y400073D01*
X427192Y400085D01*
X427224Y400090D01*
X427305Y400133D01*
X427389Y400169D01*
X427421Y400195D01*
X427442Y400206D01*
X427464Y400229D01*
X427520Y400274D01*
X487522Y460276D01*
X487564Y460334D01*
X487613Y460386D01*
X487635Y460433D01*
X487665Y460475D01*
X487686Y460544D01*
X487717Y460609D01*
X487722Y460661D01*
X487738Y460711D01*
X487736Y460782D01*
X487744Y460853D01*
X487733Y460904D01*
X487731Y460956D01*
X487707Y461024D01*
X487692Y461094D01*
X487665Y461139D01*
X487647Y461187D01*
X487602Y461243D01*
X487565Y461305D01*
X487526Y461339D01*
X487493Y461379D01*
X487433Y461418D01*
X487378Y461465D01*
X487330Y461484D01*
X487286Y461512D01*
X487217Y461530D01*
X487150Y461557D01*
X487079Y461565D01*
X487048Y461573D01*
X487024Y461571D01*
X486984Y461575D01*
X484468Y461575D01*
X483575Y462468D01*
X483575Y476732D01*
X484468Y477625D01*
X500732Y477625D01*
X501625Y476732D01*
X501625Y462468D01*
X500732Y461575D01*
X495604Y461575D01*
X495514Y461561D01*
X495423Y461553D01*
X495394Y461541D01*
X495362Y461536D01*
X495281Y461493D01*
X495197Y461457D01*
X495165Y461431D01*
X495144Y461420D01*
X495122Y461397D01*
X495066Y461352D01*
X430754Y397040D01*
X429191Y395477D01*
X423411Y395477D01*
X423320Y395463D01*
X423230Y395455D01*
X423200Y395443D01*
X423168Y395438D01*
X423087Y395395D01*
X423003Y395359D01*
X422971Y395333D01*
X422950Y395322D01*
X422928Y395299D01*
X422872Y395254D01*
X417038Y389420D01*
X416985Y389346D01*
X416925Y389276D01*
X416913Y389246D01*
X416894Y389220D01*
X416867Y389133D01*
X416833Y389048D01*
X416829Y389007D01*
X416822Y388985D01*
X416823Y388953D01*
X416815Y388881D01*
X416815Y364813D01*
X358652Y306650D01*
X358599Y306576D01*
X358539Y306506D01*
X358527Y306476D01*
X358508Y306450D01*
X358481Y306363D01*
X358447Y306278D01*
X358443Y306237D01*
X358436Y306215D01*
X358437Y306183D01*
X358429Y306111D01*
X358429Y293679D01*
X357191Y290691D01*
X354905Y288405D01*
X351917Y287167D01*
X348683Y287167D01*
G37*
%LPD*%
%LPC*%
G36*
X465368Y249475D02*
X465368Y249475D01*
X464475Y250368D01*
X464475Y269632D01*
X465368Y270525D01*
X470916Y270525D01*
X470936Y270528D01*
X470955Y270526D01*
X471057Y270548D01*
X471159Y270564D01*
X471176Y270574D01*
X471196Y270578D01*
X471285Y270631D01*
X471376Y270680D01*
X471390Y270694D01*
X471407Y270704D01*
X471474Y270783D01*
X471546Y270858D01*
X471554Y270876D01*
X471567Y270891D01*
X471606Y270987D01*
X471649Y271081D01*
X471651Y271101D01*
X471659Y271119D01*
X471677Y271286D01*
X471677Y285935D01*
X472916Y287174D01*
X472943Y287211D01*
X472977Y287242D01*
X473014Y287311D01*
X473060Y287374D01*
X473073Y287418D01*
X473095Y287458D01*
X473109Y287535D01*
X473132Y287609D01*
X473131Y287655D01*
X473139Y287700D01*
X473128Y287777D01*
X473126Y287855D01*
X473110Y287898D01*
X473103Y287943D01*
X473068Y288013D01*
X473041Y288086D01*
X473013Y288122D01*
X472992Y288163D01*
X472936Y288217D01*
X472888Y288278D01*
X472849Y288303D01*
X472816Y288335D01*
X472703Y288397D01*
X470409Y290691D01*
X469171Y293679D01*
X469171Y310121D01*
X470409Y313109D01*
X472695Y315395D01*
X475683Y316633D01*
X478953Y316633D01*
X478983Y316626D01*
X479097Y316597D01*
X479103Y316597D01*
X479109Y316596D01*
X479226Y316607D01*
X479342Y316616D01*
X479348Y316619D01*
X479354Y316619D01*
X479462Y316667D01*
X479568Y316712D01*
X479574Y316717D01*
X479579Y316719D01*
X479593Y316732D01*
X479699Y316817D01*
X495838Y332956D01*
X495891Y333030D01*
X495951Y333100D01*
X495963Y333130D01*
X495982Y333156D01*
X496009Y333243D01*
X496043Y333328D01*
X496047Y333369D01*
X496054Y333391D01*
X496053Y333423D01*
X496061Y333495D01*
X496061Y360611D01*
X498675Y363225D01*
X498702Y363263D01*
X498736Y363294D01*
X498774Y363362D01*
X498819Y363425D01*
X498832Y363469D01*
X498855Y363509D01*
X498868Y363586D01*
X498891Y363660D01*
X498890Y363706D01*
X498898Y363751D01*
X498887Y363828D01*
X498885Y363906D01*
X498869Y363949D01*
X498862Y363995D01*
X498827Y364064D01*
X498800Y364137D01*
X498772Y364173D01*
X498751Y364214D01*
X498695Y364268D01*
X498647Y364329D01*
X498608Y364354D01*
X498575Y364386D01*
X498456Y364452D01*
X498440Y364462D01*
X498435Y364463D01*
X498428Y364467D01*
X498095Y364605D01*
X495809Y366891D01*
X494571Y369879D01*
X494571Y386321D01*
X495809Y389309D01*
X498095Y391595D01*
X501083Y392833D01*
X504317Y392833D01*
X507305Y391595D01*
X509591Y389309D01*
X510829Y386321D01*
X510829Y369879D01*
X509591Y366891D01*
X507305Y364605D01*
X504234Y363333D01*
X504201Y363328D01*
X504184Y363318D01*
X504164Y363314D01*
X504075Y363261D01*
X503984Y363212D01*
X503970Y363198D01*
X503953Y363188D01*
X503886Y363109D01*
X503814Y363034D01*
X503806Y363016D01*
X503793Y363001D01*
X503754Y362905D01*
X503711Y362811D01*
X503709Y362791D01*
X503701Y362773D01*
X503683Y362606D01*
X503683Y361765D01*
X500858Y358940D01*
X500805Y358866D01*
X500745Y358796D01*
X500733Y358766D01*
X500714Y358740D01*
X500687Y358653D01*
X500653Y358568D01*
X500649Y358527D01*
X500642Y358505D01*
X500643Y358473D01*
X500635Y358401D01*
X500635Y331285D01*
X499072Y329722D01*
X483863Y314513D01*
X483851Y314497D01*
X483836Y314485D01*
X483780Y314397D01*
X483720Y314313D01*
X483714Y314294D01*
X483703Y314278D01*
X483678Y314177D01*
X483647Y314078D01*
X483648Y314058D01*
X483643Y314039D01*
X483651Y313936D01*
X483654Y313833D01*
X483660Y313814D01*
X483662Y313794D01*
X483702Y313699D01*
X483738Y313601D01*
X483751Y313586D01*
X483758Y313568D01*
X483863Y313437D01*
X484191Y313109D01*
X485429Y310121D01*
X485429Y293679D01*
X484191Y290691D01*
X481905Y288405D01*
X478917Y287167D01*
X478536Y287167D01*
X478516Y287164D01*
X478497Y287166D01*
X478395Y287144D01*
X478293Y287128D01*
X478276Y287118D01*
X478256Y287114D01*
X478167Y287061D01*
X478076Y287012D01*
X478062Y286998D01*
X478045Y286988D01*
X477978Y286909D01*
X477906Y286834D01*
X477898Y286816D01*
X477885Y286801D01*
X477846Y286705D01*
X477803Y286611D01*
X477801Y286591D01*
X477793Y286573D01*
X477775Y286406D01*
X477775Y285565D01*
X476474Y284264D01*
X476421Y284190D01*
X476361Y284120D01*
X476349Y284090D01*
X476330Y284064D01*
X476303Y283977D01*
X476269Y283892D01*
X476265Y283851D01*
X476258Y283829D01*
X476259Y283797D01*
X476251Y283725D01*
X476251Y271286D01*
X476254Y271266D01*
X476252Y271247D01*
X476274Y271145D01*
X476290Y271043D01*
X476300Y271026D01*
X476304Y271006D01*
X476357Y270917D01*
X476406Y270826D01*
X476420Y270812D01*
X476430Y270795D01*
X476509Y270728D01*
X476584Y270656D01*
X476602Y270648D01*
X476617Y270635D01*
X476713Y270596D01*
X476807Y270553D01*
X476827Y270551D01*
X476845Y270543D01*
X477012Y270525D01*
X482632Y270525D01*
X483525Y269632D01*
X483525Y250368D01*
X482632Y249475D01*
X465368Y249475D01*
G37*
%LPD*%
%LPC*%
G36*
X275768Y494675D02*
X275768Y494675D01*
X274875Y495568D01*
X274875Y503387D01*
X274861Y503478D01*
X274853Y503568D01*
X274841Y503598D01*
X274836Y503630D01*
X274793Y503711D01*
X274757Y503795D01*
X274731Y503827D01*
X274720Y503848D01*
X274697Y503870D01*
X274652Y503926D01*
X207255Y571323D01*
X207239Y571334D01*
X207227Y571350D01*
X207139Y571406D01*
X207056Y571466D01*
X207037Y571472D01*
X207020Y571483D01*
X206919Y571508D01*
X206821Y571539D01*
X206801Y571538D01*
X206781Y571543D01*
X206678Y571535D01*
X206575Y571532D01*
X206556Y571525D01*
X206536Y571524D01*
X206441Y571483D01*
X206344Y571448D01*
X206328Y571435D01*
X206310Y571427D01*
X206179Y571323D01*
X205232Y570375D01*
X179968Y570375D01*
X179075Y571268D01*
X179075Y586996D01*
X179061Y587086D01*
X179053Y587177D01*
X179041Y587206D01*
X179036Y587238D01*
X178993Y587319D01*
X178957Y587403D01*
X178931Y587435D01*
X178920Y587456D01*
X178897Y587478D01*
X178852Y587534D01*
X177330Y589056D01*
X177256Y589109D01*
X177186Y589169D01*
X177156Y589181D01*
X177130Y589200D01*
X177043Y589227D01*
X176958Y589261D01*
X176917Y589265D01*
X176895Y589272D01*
X176863Y589271D01*
X176792Y589279D01*
X173155Y589279D01*
X170179Y592255D01*
X170179Y596465D01*
X173155Y599441D01*
X177365Y599441D01*
X179158Y597648D01*
X179232Y597595D01*
X179301Y597535D01*
X179331Y597523D01*
X179357Y597504D01*
X179444Y597477D01*
X179529Y597443D01*
X179570Y597439D01*
X179592Y597432D01*
X179625Y597433D01*
X179696Y597425D01*
X205232Y597425D01*
X206125Y596532D01*
X206125Y579237D01*
X206139Y579146D01*
X206147Y579056D01*
X206159Y579026D01*
X206164Y578994D01*
X206207Y578913D01*
X206243Y578829D01*
X206269Y578797D01*
X206280Y578776D01*
X206303Y578754D01*
X206348Y578698D01*
X273576Y511470D01*
X273634Y511428D01*
X273686Y511379D01*
X273733Y511357D01*
X273775Y511327D01*
X273844Y511306D01*
X273909Y511275D01*
X273961Y511270D01*
X274011Y511254D01*
X274082Y511256D01*
X274153Y511248D01*
X274204Y511259D01*
X274256Y511261D01*
X274324Y511285D01*
X274394Y511300D01*
X274439Y511327D01*
X274487Y511345D01*
X274543Y511390D01*
X274605Y511427D01*
X274639Y511466D01*
X274679Y511499D01*
X274718Y511559D01*
X274765Y511614D01*
X274784Y511662D01*
X274812Y511706D01*
X274830Y511775D01*
X274837Y511794D01*
X275768Y512725D01*
X290032Y512725D01*
X290925Y511832D01*
X290925Y495568D01*
X290032Y494675D01*
X275768Y494675D01*
G37*
%LPD*%
%LPC*%
G36*
X702907Y919869D02*
X702907Y919869D01*
X695067Y923117D01*
X689067Y929117D01*
X685819Y936957D01*
X685819Y945443D01*
X689067Y953283D01*
X695067Y959283D01*
X702907Y962531D01*
X711393Y962531D01*
X719209Y959293D01*
X719303Y959271D01*
X719366Y959252D01*
X719391Y959203D01*
X719429Y959114D01*
X719449Y959088D01*
X719458Y959071D01*
X719482Y959047D01*
X719534Y958983D01*
X725233Y953283D01*
X728481Y945443D01*
X728481Y936957D01*
X725233Y929117D01*
X719233Y923117D01*
X711393Y919869D01*
X702907Y919869D01*
G37*
%LPD*%
%LPC*%
G36*
X588607Y919869D02*
X588607Y919869D01*
X580767Y923117D01*
X574767Y929117D01*
X571519Y936957D01*
X571519Y945443D01*
X574767Y953283D01*
X580466Y958983D01*
X580523Y959062D01*
X580585Y959137D01*
X580595Y959161D01*
X580610Y959182D01*
X580630Y959247D01*
X580662Y959256D01*
X580681Y959257D01*
X580711Y959270D01*
X580791Y959293D01*
X588607Y962531D01*
X597093Y962531D01*
X604933Y959283D01*
X610933Y953283D01*
X614181Y945443D01*
X614181Y936957D01*
X610933Y929117D01*
X604933Y923117D01*
X597093Y919869D01*
X588607Y919869D01*
G37*
%LPD*%
%LPC*%
G36*
X352621Y933449D02*
X352621Y933449D01*
X337604Y948466D01*
X337530Y948519D01*
X337460Y948579D01*
X337430Y948591D01*
X337404Y948610D01*
X337317Y948637D01*
X337232Y948671D01*
X337191Y948675D01*
X337169Y948682D01*
X337137Y948681D01*
X337065Y948689D01*
X327286Y948689D01*
X327266Y948686D01*
X327247Y948688D01*
X327145Y948666D01*
X327043Y948650D01*
X327026Y948640D01*
X327006Y948636D01*
X326917Y948583D01*
X326826Y948534D01*
X326812Y948520D01*
X326795Y948510D01*
X326728Y948431D01*
X326656Y948356D01*
X326648Y948338D01*
X326635Y948323D01*
X326596Y948227D01*
X326553Y948133D01*
X326551Y948113D01*
X326543Y948095D01*
X326525Y947928D01*
X326525Y941868D01*
X325632Y940975D01*
X309368Y940975D01*
X308475Y941868D01*
X308475Y958132D01*
X309368Y959025D01*
X325632Y959025D01*
X326525Y958132D01*
X326525Y954024D01*
X326528Y954004D01*
X326526Y953985D01*
X326548Y953883D01*
X326564Y953781D01*
X326574Y953764D01*
X326578Y953744D01*
X326631Y953655D01*
X326680Y953564D01*
X326694Y953550D01*
X326704Y953533D01*
X326783Y953466D01*
X326858Y953394D01*
X326876Y953386D01*
X326891Y953373D01*
X326987Y953334D01*
X327081Y953291D01*
X327101Y953289D01*
X327119Y953281D01*
X327286Y953263D01*
X339275Y953263D01*
X354292Y938246D01*
X354366Y938193D01*
X354436Y938133D01*
X354466Y938121D01*
X354492Y938102D01*
X354579Y938075D01*
X354664Y938041D01*
X354705Y938037D01*
X354727Y938030D01*
X354759Y938031D01*
X354831Y938023D01*
X388881Y938023D01*
X388972Y938037D01*
X389062Y938045D01*
X389092Y938057D01*
X389124Y938062D01*
X389205Y938105D01*
X389289Y938141D01*
X389321Y938167D01*
X389342Y938178D01*
X389364Y938201D01*
X389420Y938246D01*
X390682Y939508D01*
X390735Y939582D01*
X390795Y939652D01*
X390807Y939682D01*
X390826Y939708D01*
X390853Y939795D01*
X390887Y939880D01*
X390891Y939921D01*
X390898Y939943D01*
X390897Y939975D01*
X390905Y940047D01*
X390905Y940214D01*
X390902Y940234D01*
X390904Y940253D01*
X390882Y940355D01*
X390866Y940457D01*
X390856Y940474D01*
X390852Y940494D01*
X390799Y940583D01*
X390750Y940674D01*
X390736Y940688D01*
X390726Y940705D01*
X390647Y940772D01*
X390572Y940844D01*
X390554Y940852D01*
X390539Y940865D01*
X390443Y940904D01*
X390349Y940947D01*
X390329Y940949D01*
X390311Y940957D01*
X390144Y940975D01*
X389368Y940975D01*
X388475Y941868D01*
X388475Y958132D01*
X389368Y959025D01*
X405632Y959025D01*
X406525Y958132D01*
X406525Y950336D01*
X406539Y950246D01*
X406547Y950155D01*
X406559Y950126D01*
X406564Y950094D01*
X406607Y950013D01*
X406643Y949929D01*
X406669Y949897D01*
X406680Y949876D01*
X406703Y949854D01*
X406748Y949798D01*
X407894Y948652D01*
X410680Y945866D01*
X410754Y945813D01*
X410824Y945753D01*
X410854Y945741D01*
X410880Y945722D01*
X410967Y945695D01*
X411052Y945661D01*
X411093Y945657D01*
X411115Y945650D01*
X411147Y945651D01*
X411219Y945643D01*
X434694Y945643D01*
X434714Y945646D01*
X434733Y945644D01*
X434835Y945666D01*
X434937Y945682D01*
X434954Y945692D01*
X434974Y945696D01*
X435063Y945749D01*
X435154Y945798D01*
X435168Y945812D01*
X435185Y945822D01*
X435252Y945901D01*
X435324Y945976D01*
X435332Y945994D01*
X435345Y946009D01*
X435384Y946105D01*
X435427Y946199D01*
X435429Y946219D01*
X435437Y946237D01*
X435455Y946404D01*
X435455Y946488D01*
X440812Y951845D01*
X448388Y951845D01*
X453745Y946488D01*
X453745Y938912D01*
X448388Y933555D01*
X440812Y933555D01*
X435455Y938912D01*
X435455Y940308D01*
X435452Y940328D01*
X435454Y940347D01*
X435432Y940449D01*
X435416Y940551D01*
X435406Y940568D01*
X435402Y940588D01*
X435349Y940677D01*
X435300Y940768D01*
X435286Y940782D01*
X435276Y940799D01*
X435197Y940866D01*
X435122Y940938D01*
X435104Y940946D01*
X435089Y940959D01*
X434993Y940998D01*
X434899Y941041D01*
X434879Y941043D01*
X434861Y941051D01*
X434694Y941069D01*
X409009Y941069D01*
X407824Y942254D01*
X407766Y942296D01*
X407714Y942345D01*
X407667Y942367D01*
X407625Y942397D01*
X407556Y942418D01*
X407491Y942449D01*
X407439Y942454D01*
X407389Y942470D01*
X407318Y942468D01*
X407247Y942476D01*
X407196Y942465D01*
X407144Y942463D01*
X407076Y942439D01*
X407006Y942424D01*
X406961Y942397D01*
X406913Y942379D01*
X406857Y942334D01*
X406795Y942297D01*
X406761Y942258D01*
X406721Y942225D01*
X406682Y942165D01*
X406635Y942110D01*
X406616Y942062D01*
X406588Y942018D01*
X406570Y941949D01*
X406546Y941890D01*
X405632Y940975D01*
X396240Y940975D01*
X396220Y940972D01*
X396201Y940974D01*
X396099Y940952D01*
X395997Y940936D01*
X395980Y940926D01*
X395960Y940922D01*
X395871Y940869D01*
X395780Y940820D01*
X395766Y940806D01*
X395749Y940796D01*
X395682Y940717D01*
X395610Y940642D01*
X395602Y940624D01*
X395589Y940609D01*
X395550Y940513D01*
X395507Y940419D01*
X395505Y940399D01*
X395497Y940381D01*
X395479Y940214D01*
X395479Y937837D01*
X391091Y933449D01*
X352621Y933449D01*
G37*
%LPD*%
%LPC*%
G36*
X363368Y870975D02*
X363368Y870975D01*
X362475Y871868D01*
X362475Y877824D01*
X362472Y877844D01*
X362474Y877863D01*
X362452Y877965D01*
X362436Y878067D01*
X362426Y878084D01*
X362422Y878104D01*
X362369Y878193D01*
X362320Y878284D01*
X362306Y878298D01*
X362296Y878315D01*
X362217Y878382D01*
X362142Y878454D01*
X362124Y878462D01*
X362109Y878475D01*
X362013Y878514D01*
X361919Y878557D01*
X361899Y878559D01*
X361881Y878567D01*
X361771Y878579D01*
X300989Y939361D01*
X300989Y959543D01*
X306901Y965455D01*
X343847Y965455D01*
X352176Y957126D01*
X352234Y957084D01*
X352286Y957035D01*
X352333Y957013D01*
X352375Y956983D01*
X352444Y956962D01*
X352509Y956931D01*
X352561Y956926D01*
X352611Y956910D01*
X352682Y956912D01*
X352753Y956904D01*
X352804Y956915D01*
X352856Y956917D01*
X352924Y956941D01*
X352994Y956956D01*
X353039Y956983D01*
X353087Y957001D01*
X353143Y957046D01*
X353205Y957083D01*
X353239Y957122D01*
X353279Y957155D01*
X353318Y957215D01*
X353365Y957270D01*
X353384Y957318D01*
X353412Y957362D01*
X353430Y957431D01*
X353457Y957498D01*
X353465Y957569D01*
X353473Y957600D01*
X353471Y957624D01*
X353475Y957664D01*
X353475Y958132D01*
X354368Y959025D01*
X370632Y959025D01*
X371525Y958132D01*
X371525Y941868D01*
X370632Y940975D01*
X354368Y940975D01*
X353475Y941868D01*
X353475Y949043D01*
X353473Y949058D01*
X353474Y949070D01*
X353461Y949133D01*
X353461Y949134D01*
X353453Y949224D01*
X353441Y949254D01*
X353436Y949286D01*
X353393Y949367D01*
X353357Y949451D01*
X353331Y949483D01*
X353320Y949504D01*
X353297Y949526D01*
X353252Y949582D01*
X342176Y960658D01*
X342102Y960711D01*
X342032Y960771D01*
X342002Y960783D01*
X341976Y960802D01*
X341889Y960829D01*
X341804Y960863D01*
X341763Y960867D01*
X341741Y960874D01*
X341709Y960873D01*
X341637Y960881D01*
X309111Y960881D01*
X309020Y960867D01*
X308930Y960859D01*
X308900Y960847D01*
X308868Y960842D01*
X308787Y960799D01*
X308703Y960763D01*
X308671Y960737D01*
X308650Y960726D01*
X308628Y960703D01*
X308572Y960658D01*
X305786Y957872D01*
X305733Y957798D01*
X305673Y957728D01*
X305661Y957698D01*
X305642Y957672D01*
X305615Y957585D01*
X305581Y957500D01*
X305577Y957459D01*
X305570Y957437D01*
X305571Y957405D01*
X305563Y957333D01*
X305563Y941571D01*
X305577Y941480D01*
X305585Y941390D01*
X305597Y941360D01*
X305602Y941328D01*
X305645Y941247D01*
X305681Y941163D01*
X305707Y941131D01*
X305718Y941110D01*
X305741Y941088D01*
X305786Y941032D01*
X361176Y885642D01*
X361234Y885600D01*
X361286Y885551D01*
X361333Y885529D01*
X361375Y885499D01*
X361444Y885478D01*
X361509Y885447D01*
X361561Y885442D01*
X361611Y885426D01*
X361682Y885428D01*
X361753Y885420D01*
X361804Y885431D01*
X361856Y885433D01*
X361924Y885457D01*
X361994Y885472D01*
X362039Y885499D01*
X362087Y885517D01*
X362143Y885562D01*
X362205Y885599D01*
X362239Y885638D01*
X362279Y885671D01*
X362318Y885731D01*
X362365Y885786D01*
X362384Y885834D01*
X362412Y885878D01*
X362430Y885947D01*
X362457Y886014D01*
X362465Y886085D01*
X362473Y886116D01*
X362471Y886140D01*
X362475Y886180D01*
X362475Y888132D01*
X363368Y889025D01*
X377632Y889025D01*
X378525Y888132D01*
X378525Y871868D01*
X377632Y870975D01*
X363368Y870975D01*
G37*
%LPD*%
%LPC*%
G36*
X763061Y441555D02*
X763061Y441555D01*
X759700Y442947D01*
X757127Y445520D01*
X755735Y448881D01*
X755735Y452519D01*
X757127Y455880D01*
X759700Y458453D01*
X763061Y459845D01*
X781939Y459845D01*
X782040Y459803D01*
X782154Y459776D01*
X782267Y459748D01*
X782274Y459748D01*
X782280Y459747D01*
X782396Y459758D01*
X782513Y459767D01*
X782518Y459769D01*
X782525Y459770D01*
X782632Y459817D01*
X782739Y459863D01*
X782745Y459868D01*
X782749Y459870D01*
X782763Y459882D01*
X782870Y459968D01*
X791494Y468592D01*
X791547Y468666D01*
X791607Y468736D01*
X791619Y468766D01*
X791638Y468792D01*
X791665Y468879D01*
X791699Y468964D01*
X791703Y469005D01*
X791710Y469027D01*
X791709Y469059D01*
X791717Y469131D01*
X791717Y480321D01*
X791703Y480412D01*
X791695Y480502D01*
X791683Y480532D01*
X791678Y480564D01*
X791635Y480645D01*
X791599Y480729D01*
X791573Y480761D01*
X791562Y480782D01*
X791539Y480804D01*
X791494Y480860D01*
X786930Y485424D01*
X786856Y485477D01*
X786786Y485537D01*
X786756Y485549D01*
X786730Y485568D01*
X786643Y485595D01*
X786558Y485629D01*
X786517Y485633D01*
X786495Y485640D01*
X786463Y485639D01*
X786392Y485647D01*
X784794Y485647D01*
X784698Y485632D01*
X784601Y485622D01*
X784577Y485612D01*
X784551Y485608D01*
X784466Y485562D01*
X784376Y485522D01*
X784357Y485505D01*
X784334Y485492D01*
X784267Y485422D01*
X784195Y485356D01*
X784183Y485333D01*
X784165Y485314D01*
X784124Y485226D01*
X784077Y485140D01*
X784072Y485115D01*
X784061Y485091D01*
X784050Y484994D01*
X784033Y484898D01*
X784037Y484872D01*
X784034Y484847D01*
X784055Y484752D01*
X784069Y484655D01*
X784081Y484632D01*
X784086Y484606D01*
X784136Y484522D01*
X784180Y484436D01*
X784199Y484418D01*
X784212Y484395D01*
X784287Y484332D01*
X784356Y484264D01*
X784384Y484248D01*
X784399Y484235D01*
X784430Y484223D01*
X784503Y484183D01*
X785300Y483853D01*
X787873Y481280D01*
X789265Y477919D01*
X789265Y474281D01*
X787873Y470920D01*
X785300Y468347D01*
X781939Y466955D01*
X763061Y466955D01*
X759700Y468347D01*
X757127Y470920D01*
X755735Y474281D01*
X755735Y477919D01*
X757127Y481280D01*
X759700Y483853D01*
X763061Y485245D01*
X781320Y485245D01*
X781391Y485256D01*
X781463Y485258D01*
X781512Y485276D01*
X781563Y485284D01*
X781626Y485318D01*
X781694Y485343D01*
X781734Y485375D01*
X781780Y485400D01*
X781830Y485452D01*
X781886Y485496D01*
X781914Y485540D01*
X781950Y485578D01*
X781980Y485643D01*
X782019Y485703D01*
X782031Y485754D01*
X782053Y485801D01*
X782061Y485872D01*
X782079Y485942D01*
X782075Y485994D01*
X782080Y486045D01*
X782065Y486116D01*
X782060Y486187D01*
X782039Y486235D01*
X782028Y486286D01*
X781991Y486347D01*
X781963Y486413D01*
X781919Y486469D01*
X781902Y486497D01*
X781884Y486512D01*
X781859Y486544D01*
X779779Y488623D01*
X779779Y492833D01*
X782755Y495809D01*
X786965Y495809D01*
X789941Y492833D01*
X789941Y489196D01*
X789955Y489106D01*
X789963Y489015D01*
X789975Y488986D01*
X789980Y488954D01*
X790023Y488873D01*
X790059Y488789D01*
X790085Y488757D01*
X790096Y488736D01*
X790119Y488714D01*
X790164Y488658D01*
X794728Y484094D01*
X796291Y482531D01*
X796291Y466921D01*
X787100Y457730D01*
X787088Y457713D01*
X787072Y457701D01*
X787016Y457614D01*
X786956Y457530D01*
X786950Y457511D01*
X786939Y457494D01*
X786914Y457394D01*
X786884Y457295D01*
X786884Y457275D01*
X786879Y457256D01*
X786887Y457153D01*
X786890Y457049D01*
X786897Y457030D01*
X786898Y457010D01*
X786939Y456916D01*
X786974Y456818D01*
X786987Y456802D01*
X786995Y456784D01*
X787100Y456653D01*
X787873Y455880D01*
X789265Y452519D01*
X789265Y448881D01*
X787873Y445520D01*
X785300Y442947D01*
X781939Y441555D01*
X763061Y441555D01*
G37*
%LPD*%
%LPC*%
G36*
X51361Y466955D02*
X51361Y466955D01*
X48000Y468347D01*
X45427Y470920D01*
X44035Y474281D01*
X44035Y477919D01*
X45427Y481280D01*
X48000Y483853D01*
X51361Y485245D01*
X70239Y485245D01*
X73600Y483853D01*
X76173Y481280D01*
X77565Y477919D01*
X77565Y477352D01*
X77576Y477282D01*
X77578Y477210D01*
X77596Y477161D01*
X77604Y477110D01*
X77638Y477046D01*
X77663Y476979D01*
X77695Y476938D01*
X77720Y476892D01*
X77772Y476843D01*
X77816Y476787D01*
X77860Y476759D01*
X77898Y476723D01*
X77963Y476693D01*
X78023Y476654D01*
X78074Y476641D01*
X78121Y476619D01*
X78192Y476611D01*
X78262Y476594D01*
X78314Y476598D01*
X78365Y476592D01*
X78436Y476607D01*
X78507Y476613D01*
X78555Y476633D01*
X78606Y476644D01*
X78667Y476681D01*
X78733Y476709D01*
X78789Y476754D01*
X78817Y476771D01*
X78832Y476788D01*
X78864Y476814D01*
X79825Y477775D01*
X121014Y477775D01*
X121034Y477778D01*
X121053Y477776D01*
X121155Y477798D01*
X121257Y477814D01*
X121274Y477824D01*
X121294Y477828D01*
X121383Y477881D01*
X121474Y477930D01*
X121488Y477944D01*
X121505Y477954D01*
X121572Y478033D01*
X121644Y478108D01*
X121652Y478126D01*
X121665Y478141D01*
X121704Y478237D01*
X121747Y478331D01*
X121749Y478351D01*
X121757Y478369D01*
X121775Y478536D01*
X121775Y482432D01*
X122668Y483325D01*
X138932Y483325D01*
X139825Y482432D01*
X139825Y468168D01*
X138932Y467275D01*
X122668Y467275D01*
X121775Y468168D01*
X121775Y472440D01*
X121772Y472460D01*
X121774Y472479D01*
X121752Y472581D01*
X121736Y472683D01*
X121726Y472700D01*
X121722Y472720D01*
X121669Y472809D01*
X121620Y472900D01*
X121606Y472914D01*
X121596Y472931D01*
X121517Y472998D01*
X121442Y473070D01*
X121424Y473078D01*
X121409Y473091D01*
X121313Y473130D01*
X121219Y473173D01*
X121199Y473175D01*
X121181Y473183D01*
X121014Y473201D01*
X82035Y473201D01*
X81944Y473187D01*
X81854Y473179D01*
X81824Y473167D01*
X81792Y473162D01*
X81711Y473119D01*
X81627Y473083D01*
X81595Y473057D01*
X81574Y473046D01*
X81552Y473023D01*
X81496Y472978D01*
X80195Y471677D01*
X76995Y471677D01*
X76880Y471659D01*
X76764Y471641D01*
X76758Y471639D01*
X76752Y471638D01*
X76650Y471583D01*
X76545Y471530D01*
X76540Y471525D01*
X76535Y471522D01*
X76454Y471438D01*
X76372Y471354D01*
X76369Y471348D01*
X76365Y471344D01*
X76357Y471327D01*
X76292Y471207D01*
X76173Y470920D01*
X73600Y468347D01*
X70239Y466955D01*
X51361Y466955D01*
G37*
%LPD*%
%LPC*%
G36*
X217168Y31775D02*
X217168Y31775D01*
X216275Y32668D01*
X216275Y48932D01*
X217168Y49825D01*
X222252Y49825D01*
X222272Y49828D01*
X222291Y49826D01*
X222393Y49848D01*
X222495Y49864D01*
X222512Y49874D01*
X222532Y49878D01*
X222621Y49931D01*
X222712Y49980D01*
X222726Y49994D01*
X222743Y50004D01*
X222810Y50083D01*
X222882Y50158D01*
X222890Y50176D01*
X222903Y50191D01*
X222942Y50287D01*
X222985Y50381D01*
X222987Y50401D01*
X222995Y50419D01*
X223013Y50586D01*
X223013Y118714D01*
X223010Y118734D01*
X223012Y118753D01*
X222990Y118855D01*
X222974Y118957D01*
X222964Y118974D01*
X222960Y118994D01*
X222907Y119083D01*
X222858Y119174D01*
X222844Y119188D01*
X222834Y119205D01*
X222755Y119272D01*
X222680Y119344D01*
X222662Y119352D01*
X222647Y119365D01*
X222551Y119404D01*
X222457Y119447D01*
X222437Y119449D01*
X222419Y119457D01*
X222252Y119475D01*
X209668Y119475D01*
X208775Y120368D01*
X208775Y134632D01*
X209668Y135525D01*
X225932Y135525D01*
X226825Y134632D01*
X226825Y122025D01*
X226839Y121934D01*
X226847Y121844D01*
X226859Y121814D01*
X226864Y121782D01*
X226907Y121701D01*
X226943Y121617D01*
X226969Y121585D01*
X226980Y121564D01*
X227003Y121542D01*
X227048Y121486D01*
X227587Y120947D01*
X227587Y50586D01*
X227590Y50566D01*
X227588Y50547D01*
X227610Y50445D01*
X227626Y50343D01*
X227636Y50326D01*
X227640Y50306D01*
X227693Y50217D01*
X227742Y50126D01*
X227756Y50112D01*
X227766Y50095D01*
X227845Y50028D01*
X227920Y49956D01*
X227938Y49948D01*
X227953Y49935D01*
X228049Y49896D01*
X228143Y49853D01*
X228163Y49851D01*
X228181Y49843D01*
X228348Y49825D01*
X233432Y49825D01*
X234325Y48932D01*
X234325Y32668D01*
X233432Y31775D01*
X217168Y31775D01*
G37*
%LPD*%
%LPC*%
G36*
X125568Y31775D02*
X125568Y31775D01*
X124675Y32668D01*
X124675Y48932D01*
X125568Y49825D01*
X130652Y49825D01*
X130672Y49828D01*
X130691Y49826D01*
X130793Y49848D01*
X130895Y49864D01*
X130912Y49874D01*
X130932Y49878D01*
X131021Y49931D01*
X131112Y49980D01*
X131126Y49994D01*
X131143Y50004D01*
X131210Y50083D01*
X131282Y50158D01*
X131290Y50176D01*
X131303Y50191D01*
X131342Y50287D01*
X131385Y50381D01*
X131387Y50401D01*
X131395Y50419D01*
X131413Y50586D01*
X131413Y118714D01*
X131410Y118734D01*
X131412Y118753D01*
X131390Y118855D01*
X131374Y118957D01*
X131364Y118974D01*
X131360Y118994D01*
X131307Y119083D01*
X131258Y119174D01*
X131244Y119188D01*
X131234Y119205D01*
X131155Y119272D01*
X131080Y119344D01*
X131062Y119352D01*
X131047Y119365D01*
X130951Y119404D01*
X130857Y119447D01*
X130837Y119449D01*
X130819Y119457D01*
X130652Y119475D01*
X128068Y119475D01*
X127175Y120368D01*
X127175Y134632D01*
X128068Y135525D01*
X144332Y135525D01*
X145225Y134632D01*
X145225Y120368D01*
X144332Y119475D01*
X136748Y119475D01*
X136728Y119472D01*
X136709Y119474D01*
X136607Y119452D01*
X136505Y119436D01*
X136488Y119426D01*
X136468Y119422D01*
X136379Y119369D01*
X136288Y119320D01*
X136274Y119306D01*
X136257Y119296D01*
X136190Y119217D01*
X136118Y119142D01*
X136110Y119124D01*
X136097Y119109D01*
X136058Y119013D01*
X136015Y118919D01*
X136013Y118899D01*
X136005Y118881D01*
X135987Y118714D01*
X135987Y50586D01*
X135990Y50566D01*
X135988Y50547D01*
X136010Y50445D01*
X136026Y50343D01*
X136036Y50326D01*
X136040Y50306D01*
X136093Y50217D01*
X136142Y50126D01*
X136156Y50112D01*
X136166Y50095D01*
X136245Y50028D01*
X136320Y49956D01*
X136338Y49948D01*
X136353Y49935D01*
X136449Y49896D01*
X136543Y49853D01*
X136563Y49851D01*
X136581Y49843D01*
X136748Y49825D01*
X141832Y49825D01*
X142725Y48932D01*
X142725Y32668D01*
X141832Y31775D01*
X125568Y31775D01*
G37*
%LPD*%
%LPC*%
G36*
X173621Y947263D02*
X173621Y947263D01*
X167378Y949849D01*
X162599Y954628D01*
X160013Y960871D01*
X160013Y967629D01*
X162599Y973872D01*
X167378Y978651D01*
X173621Y981237D01*
X180379Y981237D01*
X186622Y978651D01*
X191401Y973872D01*
X193987Y967629D01*
X193987Y960871D01*
X191401Y954628D01*
X186622Y949849D01*
X180379Y947263D01*
X173621Y947263D01*
G37*
%LPD*%
%LPC*%
G36*
X99621Y947263D02*
X99621Y947263D01*
X93378Y949849D01*
X88599Y954628D01*
X86013Y960871D01*
X86013Y967629D01*
X88599Y973872D01*
X93378Y978651D01*
X99621Y981237D01*
X106379Y981237D01*
X112622Y978651D01*
X117401Y973872D01*
X119987Y967629D01*
X119987Y960871D01*
X117401Y954628D01*
X112622Y949849D01*
X106379Y947263D01*
X99621Y947263D01*
G37*
%LPD*%
%LPC*%
G36*
X590368Y154475D02*
X590368Y154475D01*
X589475Y155368D01*
X589475Y172632D01*
X590368Y173525D01*
X597408Y173525D01*
X597428Y173528D01*
X597447Y173526D01*
X597549Y173548D01*
X597651Y173564D01*
X597668Y173574D01*
X597688Y173578D01*
X597777Y173631D01*
X597868Y173680D01*
X597882Y173694D01*
X597899Y173704D01*
X597966Y173783D01*
X598038Y173858D01*
X598046Y173876D01*
X598059Y173891D01*
X598098Y173987D01*
X598141Y174081D01*
X598143Y174101D01*
X598151Y174119D01*
X598169Y174286D01*
X598169Y198737D01*
X598155Y198828D01*
X598147Y198918D01*
X598135Y198948D01*
X598130Y198980D01*
X598087Y199061D01*
X598051Y199145D01*
X598025Y199177D01*
X598014Y199198D01*
X597991Y199220D01*
X597946Y199276D01*
X589372Y207850D01*
X589278Y207918D01*
X589184Y207988D01*
X589178Y207990D01*
X589172Y207993D01*
X589061Y208028D01*
X588950Y208064D01*
X588943Y208064D01*
X588937Y208066D01*
X588821Y208063D01*
X588704Y208062D01*
X588696Y208060D01*
X588691Y208059D01*
X588674Y208053D01*
X588543Y208015D01*
X586815Y207299D01*
X583985Y207299D01*
X581371Y208382D01*
X579370Y210383D01*
X578287Y212997D01*
X578287Y227003D01*
X579370Y229617D01*
X581371Y231618D01*
X583985Y232701D01*
X586815Y232701D01*
X589429Y231618D01*
X591430Y229617D01*
X592513Y227003D01*
X592513Y212997D01*
X592174Y212180D01*
X592148Y212066D01*
X592119Y211953D01*
X592120Y211947D01*
X592118Y211941D01*
X592129Y211824D01*
X592138Y211708D01*
X592141Y211702D01*
X592141Y211696D01*
X592189Y211588D01*
X592235Y211482D01*
X592239Y211476D01*
X592241Y211471D01*
X592254Y211457D01*
X592339Y211351D01*
X602743Y200947D01*
X602743Y174286D01*
X602746Y174266D01*
X602744Y174247D01*
X602766Y174145D01*
X602782Y174043D01*
X602792Y174026D01*
X602796Y174006D01*
X602849Y173917D01*
X602898Y173826D01*
X602912Y173812D01*
X602922Y173795D01*
X603001Y173728D01*
X603076Y173656D01*
X603094Y173648D01*
X603109Y173635D01*
X603205Y173596D01*
X603299Y173553D01*
X603319Y173551D01*
X603337Y173543D01*
X603504Y173525D01*
X609632Y173525D01*
X610525Y172632D01*
X610525Y155368D01*
X609632Y154475D01*
X590368Y154475D01*
G37*
%LPD*%
%LPC*%
G36*
X530368Y154475D02*
X530368Y154475D01*
X529475Y155368D01*
X529475Y172632D01*
X530368Y173525D01*
X531876Y173525D01*
X531896Y173528D01*
X531915Y173526D01*
X532017Y173548D01*
X532119Y173564D01*
X532136Y173574D01*
X532156Y173578D01*
X532245Y173631D01*
X532336Y173680D01*
X532350Y173694D01*
X532367Y173704D01*
X532434Y173783D01*
X532506Y173858D01*
X532514Y173876D01*
X532527Y173891D01*
X532566Y173987D01*
X532609Y174081D01*
X532611Y174101D01*
X532619Y174119D01*
X532637Y174286D01*
X532637Y206001D01*
X532623Y206092D01*
X532615Y206182D01*
X532603Y206212D01*
X532598Y206244D01*
X532555Y206325D01*
X532519Y206409D01*
X532493Y206441D01*
X532482Y206462D01*
X532459Y206484D01*
X532414Y206540D01*
X531078Y207876D01*
X531077Y207880D01*
X531075Y207885D01*
X531074Y207892D01*
X531019Y207994D01*
X530966Y208099D01*
X530961Y208103D01*
X530958Y208109D01*
X530874Y208189D01*
X530790Y208271D01*
X530784Y208275D01*
X530780Y208278D01*
X530763Y208286D01*
X530643Y208352D01*
X530571Y208382D01*
X528570Y210383D01*
X527487Y212997D01*
X527487Y227003D01*
X528570Y229617D01*
X530571Y231618D01*
X533185Y232701D01*
X536015Y232701D01*
X538629Y231618D01*
X540630Y229617D01*
X541713Y227003D01*
X541713Y212997D01*
X540630Y210383D01*
X538629Y208382D01*
X537681Y207989D01*
X537581Y207928D01*
X537481Y207868D01*
X537477Y207863D01*
X537472Y207860D01*
X537397Y207770D01*
X537321Y207681D01*
X537319Y207675D01*
X537315Y207670D01*
X537273Y207562D01*
X537229Y207453D01*
X537228Y207445D01*
X537227Y207441D01*
X537226Y207422D01*
X537211Y207286D01*
X537211Y174286D01*
X537214Y174266D01*
X537212Y174247D01*
X537234Y174145D01*
X537250Y174043D01*
X537260Y174026D01*
X537264Y174006D01*
X537317Y173917D01*
X537366Y173826D01*
X537380Y173812D01*
X537390Y173795D01*
X537469Y173728D01*
X537544Y173656D01*
X537562Y173648D01*
X537577Y173635D01*
X537673Y173596D01*
X537767Y173553D01*
X537787Y173551D01*
X537805Y173543D01*
X537972Y173525D01*
X549632Y173525D01*
X550525Y172632D01*
X550525Y155368D01*
X549632Y154475D01*
X530368Y154475D01*
G37*
%LPD*%
%LPC*%
G36*
X283368Y870975D02*
X283368Y870975D01*
X282475Y871868D01*
X282475Y888132D01*
X283368Y889025D01*
X288036Y889025D01*
X288056Y889028D01*
X288075Y889026D01*
X288177Y889048D01*
X288279Y889064D01*
X288296Y889074D01*
X288316Y889078D01*
X288405Y889131D01*
X288496Y889180D01*
X288510Y889194D01*
X288527Y889204D01*
X288594Y889283D01*
X288666Y889358D01*
X288674Y889376D01*
X288687Y889391D01*
X288726Y889487D01*
X288769Y889581D01*
X288771Y889601D01*
X288779Y889619D01*
X288797Y889786D01*
X288797Y934473D01*
X288783Y934564D01*
X288775Y934654D01*
X288763Y934684D01*
X288758Y934716D01*
X288715Y934797D01*
X288679Y934881D01*
X288653Y934913D01*
X288642Y934934D01*
X288619Y934956D01*
X288574Y935012D01*
X282834Y940752D01*
X282760Y940805D01*
X282690Y940865D01*
X282660Y940877D01*
X282634Y940896D01*
X282547Y940923D01*
X282462Y940957D01*
X282421Y940961D01*
X282399Y940968D01*
X282367Y940967D01*
X282295Y940975D01*
X274368Y940975D01*
X273475Y941868D01*
X273475Y958132D01*
X274368Y959025D01*
X290632Y959025D01*
X291525Y958132D01*
X291525Y941868D01*
X290500Y940843D01*
X290456Y940820D01*
X290407Y940768D01*
X290351Y940724D01*
X290323Y940680D01*
X290287Y940642D01*
X290257Y940577D01*
X290218Y940517D01*
X290205Y940466D01*
X290183Y940419D01*
X290175Y940348D01*
X290158Y940278D01*
X290162Y940226D01*
X290156Y940175D01*
X290171Y940104D01*
X290177Y940033D01*
X290197Y939985D01*
X290208Y939934D01*
X290245Y939873D01*
X290273Y939807D01*
X290318Y939751D01*
X290335Y939723D01*
X290352Y939708D01*
X290378Y939676D01*
X293371Y936683D01*
X293371Y889786D01*
X293374Y889766D01*
X293372Y889747D01*
X293394Y889645D01*
X293410Y889543D01*
X293420Y889526D01*
X293424Y889506D01*
X293477Y889417D01*
X293526Y889326D01*
X293540Y889312D01*
X293550Y889295D01*
X293629Y889228D01*
X293704Y889156D01*
X293722Y889148D01*
X293737Y889135D01*
X293833Y889096D01*
X293927Y889053D01*
X293947Y889051D01*
X293965Y889043D01*
X294132Y889025D01*
X297632Y889025D01*
X298525Y888132D01*
X298525Y871868D01*
X297632Y870975D01*
X283368Y870975D01*
G37*
%LPD*%
%LPC*%
G36*
X725310Y958175D02*
X725310Y958175D01*
X720363Y960224D01*
X720268Y960246D01*
X720206Y960266D01*
X720181Y960315D01*
X720143Y960404D01*
X720123Y960429D01*
X720114Y960447D01*
X720090Y960470D01*
X720038Y960535D01*
X716534Y964039D01*
X714475Y969010D01*
X714475Y974390D01*
X716534Y979361D01*
X720339Y983166D01*
X725310Y985225D01*
X730690Y985225D01*
X735661Y983166D01*
X739466Y979361D01*
X741525Y974390D01*
X741525Y969010D01*
X739466Y964039D01*
X735661Y960234D01*
X730690Y958175D01*
X725310Y958175D01*
G37*
%LPD*%
%LPC*%
G36*
X569310Y958175D02*
X569310Y958175D01*
X564339Y960234D01*
X560534Y964039D01*
X558475Y969010D01*
X558475Y974390D01*
X560534Y979361D01*
X564339Y983166D01*
X569310Y985225D01*
X574690Y985225D01*
X579661Y983166D01*
X583466Y979361D01*
X585525Y974390D01*
X585525Y969010D01*
X583466Y964039D01*
X579962Y960535D01*
X579905Y960456D01*
X579843Y960381D01*
X579834Y960356D01*
X579818Y960335D01*
X579799Y960271D01*
X579798Y960271D01*
X579766Y960262D01*
X579747Y960260D01*
X579717Y960247D01*
X579637Y960224D01*
X574690Y958175D01*
X569310Y958175D01*
G37*
%LPD*%
%LPC*%
G36*
X296368Y562875D02*
X296368Y562875D01*
X295475Y563768D01*
X295475Y583032D01*
X296368Y583925D01*
X313632Y583925D01*
X314525Y583032D01*
X314525Y576072D01*
X314528Y576052D01*
X314526Y576033D01*
X314548Y575931D01*
X314564Y575829D01*
X314574Y575812D01*
X314578Y575792D01*
X314631Y575703D01*
X314680Y575612D01*
X314694Y575598D01*
X314704Y575581D01*
X314783Y575514D01*
X314858Y575442D01*
X314876Y575434D01*
X314891Y575421D01*
X314987Y575382D01*
X315081Y575339D01*
X315101Y575337D01*
X315119Y575329D01*
X315286Y575311D01*
X334638Y575311D01*
X334728Y575325D01*
X334819Y575333D01*
X334849Y575345D01*
X334881Y575350D01*
X334962Y575393D01*
X335045Y575429D01*
X335078Y575455D01*
X335098Y575466D01*
X335120Y575489D01*
X335176Y575534D01*
X337747Y578105D01*
X341957Y578105D01*
X344933Y575129D01*
X344933Y570919D01*
X341957Y567943D01*
X337747Y567943D01*
X335176Y570514D01*
X335103Y570567D01*
X335033Y570627D01*
X335003Y570639D01*
X334977Y570658D01*
X334890Y570685D01*
X334805Y570719D01*
X334764Y570723D01*
X334742Y570730D01*
X334709Y570729D01*
X334638Y570737D01*
X315286Y570737D01*
X315266Y570734D01*
X315247Y570736D01*
X315145Y570714D01*
X315043Y570698D01*
X315026Y570688D01*
X315006Y570684D01*
X314917Y570631D01*
X314826Y570582D01*
X314812Y570568D01*
X314795Y570558D01*
X314728Y570479D01*
X314656Y570404D01*
X314648Y570386D01*
X314635Y570371D01*
X314596Y570275D01*
X314553Y570181D01*
X314551Y570161D01*
X314543Y570143D01*
X314525Y569976D01*
X314525Y563768D01*
X313632Y562875D01*
X296368Y562875D01*
G37*
%LPD*%
%LPC*%
G36*
X51361Y390755D02*
X51361Y390755D01*
X48000Y392147D01*
X45427Y394720D01*
X44035Y398081D01*
X44035Y401719D01*
X45427Y405080D01*
X48000Y407653D01*
X51361Y409045D01*
X70239Y409045D01*
X73600Y407653D01*
X76173Y405080D01*
X77565Y401719D01*
X77565Y398081D01*
X76173Y394720D01*
X73600Y392147D01*
X70239Y390755D01*
X51361Y390755D01*
G37*
%LPD*%
%LPC*%
G36*
X763061Y339955D02*
X763061Y339955D01*
X759700Y341347D01*
X757127Y343920D01*
X755735Y347281D01*
X755735Y350919D01*
X757127Y354280D01*
X759700Y356853D01*
X763061Y358245D01*
X781939Y358245D01*
X785300Y356853D01*
X787873Y354280D01*
X789265Y350919D01*
X789265Y347281D01*
X787873Y343920D01*
X785300Y341347D01*
X781939Y339955D01*
X763061Y339955D01*
G37*
%LPD*%
%LPC*%
G36*
X763061Y289155D02*
X763061Y289155D01*
X759700Y290547D01*
X757127Y293120D01*
X755735Y296481D01*
X755735Y300119D01*
X757127Y303480D01*
X759700Y306053D01*
X763061Y307445D01*
X781939Y307445D01*
X785300Y306053D01*
X787873Y303480D01*
X789265Y300119D01*
X789265Y296481D01*
X787873Y293120D01*
X785300Y290547D01*
X781939Y289155D01*
X763061Y289155D01*
G37*
%LPD*%
%LPC*%
G36*
X51361Y314555D02*
X51361Y314555D01*
X48000Y315947D01*
X45427Y318520D01*
X44035Y321881D01*
X44035Y325519D01*
X45427Y328880D01*
X48000Y331453D01*
X51361Y332845D01*
X70239Y332845D01*
X73600Y331453D01*
X76173Y328880D01*
X77565Y325519D01*
X77565Y321881D01*
X76173Y318520D01*
X73600Y315947D01*
X70239Y314555D01*
X51361Y314555D01*
G37*
%LPD*%
%LPC*%
G36*
X763061Y365355D02*
X763061Y365355D01*
X759700Y366747D01*
X757127Y369320D01*
X755735Y372681D01*
X755735Y376319D01*
X757127Y379680D01*
X759700Y382253D01*
X763061Y383645D01*
X781939Y383645D01*
X785300Y382253D01*
X787873Y379680D01*
X789265Y376319D01*
X789265Y372681D01*
X787873Y369320D01*
X785300Y366747D01*
X781939Y365355D01*
X763061Y365355D01*
G37*
%LPD*%
%LPC*%
G36*
X763061Y416155D02*
X763061Y416155D01*
X759700Y417547D01*
X757127Y420120D01*
X755735Y423481D01*
X755735Y427119D01*
X757127Y430480D01*
X759700Y433053D01*
X763061Y434445D01*
X781939Y434445D01*
X785300Y433053D01*
X787873Y430480D01*
X789265Y427119D01*
X789265Y423481D01*
X787873Y420120D01*
X785300Y417547D01*
X781939Y416155D01*
X763061Y416155D01*
G37*
%LPD*%
%LPC*%
G36*
X51361Y339955D02*
X51361Y339955D01*
X48000Y341347D01*
X45427Y343920D01*
X44035Y347281D01*
X44035Y350919D01*
X45427Y354280D01*
X48000Y356853D01*
X51361Y358245D01*
X70239Y358245D01*
X73600Y356853D01*
X76173Y354280D01*
X77565Y350919D01*
X77565Y347281D01*
X76173Y343920D01*
X73600Y341347D01*
X70239Y339955D01*
X51361Y339955D01*
G37*
%LPD*%
%LPC*%
G36*
X51361Y365355D02*
X51361Y365355D01*
X48000Y366747D01*
X45427Y369320D01*
X44035Y372681D01*
X44035Y376319D01*
X45427Y379680D01*
X48000Y382253D01*
X51361Y383645D01*
X70239Y383645D01*
X73600Y382253D01*
X76173Y379680D01*
X77565Y376319D01*
X77565Y372681D01*
X76173Y369320D01*
X73600Y366747D01*
X70239Y365355D01*
X51361Y365355D01*
G37*
%LPD*%
%LPC*%
G36*
X763061Y314555D02*
X763061Y314555D01*
X759700Y315947D01*
X757127Y318520D01*
X755735Y321881D01*
X755735Y325519D01*
X757127Y328880D01*
X759700Y331453D01*
X763061Y332845D01*
X781939Y332845D01*
X785300Y331453D01*
X787873Y328880D01*
X789265Y325519D01*
X789265Y321881D01*
X787873Y318520D01*
X785300Y315947D01*
X781939Y314555D01*
X763061Y314555D01*
G37*
%LPD*%
%LPC*%
G36*
X51361Y289155D02*
X51361Y289155D01*
X48000Y290547D01*
X45427Y293120D01*
X44035Y296481D01*
X44035Y300119D01*
X45427Y303480D01*
X48000Y306053D01*
X51361Y307445D01*
X70239Y307445D01*
X73600Y306053D01*
X76173Y303480D01*
X77565Y300119D01*
X77565Y296481D01*
X76173Y293120D01*
X73600Y290547D01*
X70239Y289155D01*
X51361Y289155D01*
G37*
%LPD*%
%LPC*%
G36*
X474907Y897127D02*
X474907Y897127D01*
X471931Y900103D01*
X471931Y900684D01*
X471928Y900704D01*
X471930Y900723D01*
X471908Y900825D01*
X471892Y900927D01*
X471882Y900944D01*
X471878Y900964D01*
X471825Y901053D01*
X471776Y901144D01*
X471762Y901158D01*
X471752Y901175D01*
X471673Y901242D01*
X471598Y901314D01*
X471580Y901322D01*
X471565Y901335D01*
X471469Y901374D01*
X471375Y901417D01*
X471355Y901419D01*
X471337Y901427D01*
X471170Y901445D01*
X456253Y901445D01*
X449504Y908194D01*
X449487Y908206D01*
X449475Y908222D01*
X449388Y908278D01*
X449304Y908338D01*
X449285Y908344D01*
X449268Y908355D01*
X449168Y908380D01*
X449069Y908410D01*
X449049Y908410D01*
X449030Y908415D01*
X448927Y908407D01*
X448823Y908404D01*
X448804Y908397D01*
X448784Y908396D01*
X448689Y908355D01*
X448592Y908320D01*
X448576Y908307D01*
X448558Y908299D01*
X448427Y908194D01*
X448388Y908155D01*
X440812Y908155D01*
X435455Y913512D01*
X435455Y921088D01*
X440812Y926445D01*
X448388Y926445D01*
X453745Y921088D01*
X453745Y913512D01*
X452738Y912505D01*
X452726Y912489D01*
X452710Y912476D01*
X452654Y912389D01*
X452594Y912305D01*
X452588Y912286D01*
X452577Y912269D01*
X452552Y912169D01*
X452522Y912070D01*
X452522Y912050D01*
X452517Y912031D01*
X452525Y911928D01*
X452528Y911824D01*
X452535Y911805D01*
X452536Y911786D01*
X452577Y911691D01*
X452612Y911593D01*
X452625Y911578D01*
X452633Y911559D01*
X452738Y911428D01*
X457924Y906242D01*
X457998Y906189D01*
X458068Y906129D01*
X458098Y906117D01*
X458124Y906098D01*
X458211Y906071D01*
X458296Y906037D01*
X458337Y906033D01*
X458359Y906026D01*
X458391Y906027D01*
X458463Y906019D01*
X473322Y906019D01*
X473412Y906033D01*
X473503Y906041D01*
X473533Y906053D01*
X473565Y906058D01*
X473645Y906101D01*
X473729Y906137D01*
X473762Y906163D01*
X473782Y906174D01*
X473804Y906197D01*
X473860Y906242D01*
X474475Y906856D01*
X474516Y906914D01*
X474566Y906966D01*
X474588Y907013D01*
X474618Y907055D01*
X474639Y907124D01*
X474669Y907189D01*
X474675Y907241D01*
X474690Y907291D01*
X474690Y907293D01*
X474695Y907291D01*
X474718Y907293D01*
X474759Y907289D01*
X479117Y907289D01*
X482093Y904313D01*
X482093Y900103D01*
X479117Y897127D01*
X474907Y897127D01*
G37*
%LPD*%
%LPC*%
G36*
X449917Y597571D02*
X449917Y597571D01*
X449897Y597573D01*
X449879Y597581D01*
X449712Y597599D01*
X442425Y597599D01*
X442425Y598903D01*
X442657Y599464D01*
X443098Y599904D01*
X443116Y599911D01*
X443177Y599960D01*
X443243Y600001D01*
X443272Y600036D01*
X443308Y600065D01*
X443350Y600130D01*
X443400Y600190D01*
X443416Y600233D01*
X443441Y600272D01*
X443460Y600347D01*
X443488Y600420D01*
X443490Y600466D01*
X443501Y600510D01*
X443495Y600588D01*
X443499Y600665D01*
X443486Y600709D01*
X443482Y600755D01*
X443452Y600827D01*
X443430Y600902D01*
X443404Y600939D01*
X443386Y600982D01*
X443301Y601088D01*
X443290Y601104D01*
X443286Y601107D01*
X443281Y601113D01*
X442894Y601500D01*
X442878Y601512D01*
X442865Y601527D01*
X442778Y601583D01*
X442694Y601644D01*
X442675Y601649D01*
X442658Y601660D01*
X442558Y601685D01*
X442459Y601716D01*
X442439Y601715D01*
X442420Y601720D01*
X442317Y601712D01*
X442213Y601709D01*
X442194Y601703D01*
X442174Y601701D01*
X442079Y601661D01*
X441982Y601625D01*
X441966Y601613D01*
X441948Y601605D01*
X441817Y601500D01*
X440537Y600219D01*
X436327Y600219D01*
X433351Y603195D01*
X433351Y607405D01*
X436327Y610381D01*
X440537Y610381D01*
X441126Y609791D01*
X441184Y609750D01*
X441236Y609700D01*
X441283Y609678D01*
X441325Y609648D01*
X441394Y609627D01*
X441459Y609597D01*
X441511Y609591D01*
X441561Y609576D01*
X441632Y609577D01*
X441703Y609570D01*
X441754Y609581D01*
X441806Y609582D01*
X441874Y609607D01*
X441944Y609622D01*
X441989Y609649D01*
X442037Y609666D01*
X442093Y609711D01*
X442155Y609748D01*
X442189Y609788D01*
X442229Y609820D01*
X442268Y609880D01*
X442315Y609935D01*
X442334Y609983D01*
X442362Y610027D01*
X442380Y610097D01*
X442407Y610163D01*
X442415Y610234D01*
X442423Y610266D01*
X442421Y610289D01*
X442425Y610330D01*
X442425Y615232D01*
X443255Y616062D01*
X443267Y616078D01*
X443283Y616090D01*
X443339Y616178D01*
X443399Y616261D01*
X443405Y616280D01*
X443416Y616297D01*
X443441Y616398D01*
X443471Y616497D01*
X443471Y616516D01*
X443476Y616536D01*
X443468Y616639D01*
X443465Y616742D01*
X443458Y616761D01*
X443457Y616781D01*
X443416Y616876D01*
X443381Y616973D01*
X443368Y616989D01*
X443360Y617007D01*
X443255Y617138D01*
X442425Y617968D01*
X442425Y623232D01*
X443318Y624125D01*
X456582Y624125D01*
X457475Y623232D01*
X457475Y617968D01*
X456645Y617138D01*
X456633Y617122D01*
X456617Y617110D01*
X456561Y617022D01*
X456501Y616939D01*
X456495Y616920D01*
X456484Y616903D01*
X456459Y616802D01*
X456429Y616703D01*
X456429Y616684D01*
X456424Y616664D01*
X456432Y616561D01*
X456435Y616458D01*
X456442Y616439D01*
X456443Y616419D01*
X456484Y616324D01*
X456519Y616227D01*
X456532Y616211D01*
X456540Y616193D01*
X456645Y616062D01*
X457475Y615232D01*
X457475Y609968D01*
X456645Y609138D01*
X456633Y609122D01*
X456617Y609110D01*
X456561Y609022D01*
X456501Y608939D01*
X456495Y608920D01*
X456484Y608903D01*
X456459Y608802D01*
X456429Y608703D01*
X456429Y608684D01*
X456424Y608664D01*
X456432Y608561D01*
X456435Y608458D01*
X456442Y608439D01*
X456443Y608419D01*
X456484Y608324D01*
X456519Y608227D01*
X456532Y608211D01*
X456540Y608193D01*
X456645Y608062D01*
X457475Y607232D01*
X457475Y601968D01*
X456619Y601113D01*
X456592Y601075D01*
X456558Y601044D01*
X456521Y600976D01*
X456475Y600913D01*
X456462Y600869D01*
X456440Y600829D01*
X456426Y600752D01*
X456403Y600678D01*
X456404Y600632D01*
X456396Y600587D01*
X456407Y600510D01*
X456409Y600432D01*
X456425Y600389D01*
X456432Y600343D01*
X456467Y600274D01*
X456494Y600201D01*
X456522Y600165D01*
X456543Y600124D01*
X456599Y600070D01*
X456647Y600009D01*
X456686Y599984D01*
X456719Y599952D01*
X456798Y599908D01*
X457243Y599464D01*
X457475Y598903D01*
X457475Y597599D01*
X450188Y597599D01*
X450169Y597596D01*
X450149Y597598D01*
X450047Y597576D01*
X449945Y597560D01*
X449944Y597559D01*
X449917Y597571D01*
G37*
%LPD*%
%LPC*%
G36*
X526483Y287167D02*
X526483Y287167D01*
X523495Y288405D01*
X521209Y290691D01*
X519971Y293679D01*
X519971Y310121D01*
X521209Y313109D01*
X523495Y315395D01*
X526483Y316633D01*
X529717Y316633D01*
X532705Y315395D01*
X534991Y313109D01*
X536229Y310121D01*
X536229Y293679D01*
X534991Y290691D01*
X532705Y288405D01*
X529717Y287167D01*
X526483Y287167D01*
G37*
%LPD*%
%LPC*%
G36*
X399483Y287167D02*
X399483Y287167D01*
X396495Y288405D01*
X394209Y290691D01*
X392971Y293679D01*
X392971Y310121D01*
X394209Y313109D01*
X396495Y315395D01*
X399483Y316633D01*
X402717Y316633D01*
X405705Y315395D01*
X407991Y313109D01*
X409229Y310121D01*
X409229Y293679D01*
X407991Y290691D01*
X405705Y288405D01*
X402717Y287167D01*
X399483Y287167D01*
G37*
%LPD*%
%LPC*%
G36*
X450283Y287167D02*
X450283Y287167D01*
X447295Y288405D01*
X445009Y290691D01*
X443771Y293679D01*
X443771Y310121D01*
X445009Y313109D01*
X447295Y315395D01*
X450283Y316633D01*
X453517Y316633D01*
X456505Y315395D01*
X458791Y313109D01*
X460029Y310121D01*
X460029Y293679D01*
X458791Y290691D01*
X456505Y288405D01*
X453517Y287167D01*
X450283Y287167D01*
G37*
%LPD*%
%LPC*%
G36*
X653483Y287167D02*
X653483Y287167D01*
X650495Y288405D01*
X648209Y290691D01*
X646971Y293679D01*
X646971Y310121D01*
X648209Y313109D01*
X650495Y315395D01*
X653483Y316633D01*
X656717Y316633D01*
X659705Y315395D01*
X661991Y313109D01*
X663229Y310121D01*
X663229Y293679D01*
X661991Y290691D01*
X659705Y288405D01*
X656717Y287167D01*
X653483Y287167D01*
G37*
%LPD*%
%LPC*%
G36*
X628083Y287167D02*
X628083Y287167D01*
X625095Y288405D01*
X622809Y290691D01*
X621571Y293679D01*
X621571Y310121D01*
X622809Y313109D01*
X625095Y315395D01*
X628083Y316633D01*
X631317Y316633D01*
X634305Y315395D01*
X636591Y313109D01*
X637829Y310121D01*
X637829Y293679D01*
X636591Y290691D01*
X634305Y288405D01*
X631317Y287167D01*
X628083Y287167D01*
G37*
%LPD*%
%LPC*%
G36*
X602683Y287167D02*
X602683Y287167D01*
X599695Y288405D01*
X597409Y290691D01*
X596171Y293679D01*
X596171Y310121D01*
X597409Y313109D01*
X599695Y315395D01*
X602683Y316633D01*
X605917Y316633D01*
X608905Y315395D01*
X611191Y313109D01*
X612429Y310121D01*
X612429Y293679D01*
X611191Y290691D01*
X608905Y288405D01*
X605917Y287167D01*
X602683Y287167D01*
G37*
%LPD*%
%LPC*%
G36*
X577283Y287167D02*
X577283Y287167D01*
X574295Y288405D01*
X572009Y290691D01*
X570771Y293679D01*
X570771Y310121D01*
X572009Y313109D01*
X574295Y315395D01*
X577283Y316633D01*
X580517Y316633D01*
X583505Y315395D01*
X585791Y313109D01*
X587029Y310121D01*
X587029Y293679D01*
X585791Y290691D01*
X583505Y288405D01*
X580517Y287167D01*
X577283Y287167D01*
G37*
%LPD*%
%LPC*%
G36*
X424883Y363367D02*
X424883Y363367D01*
X421895Y364605D01*
X419609Y366891D01*
X418371Y369879D01*
X418371Y386321D01*
X419609Y389309D01*
X421895Y391595D01*
X424883Y392833D01*
X428117Y392833D01*
X431105Y391595D01*
X433391Y389309D01*
X434629Y386321D01*
X434629Y369879D01*
X433391Y366891D01*
X431105Y364605D01*
X428117Y363367D01*
X424883Y363367D01*
G37*
%LPD*%
%LPC*%
G36*
X526483Y363367D02*
X526483Y363367D01*
X523495Y364605D01*
X521209Y366891D01*
X519971Y369879D01*
X519971Y386321D01*
X521209Y389309D01*
X523495Y391595D01*
X526483Y392833D01*
X529717Y392833D01*
X532705Y391595D01*
X534991Y389309D01*
X536229Y386321D01*
X536229Y369879D01*
X534991Y366891D01*
X532705Y364605D01*
X529717Y363367D01*
X526483Y363367D01*
G37*
%LPD*%
%LPC*%
G36*
X348683Y363367D02*
X348683Y363367D01*
X345695Y364605D01*
X343409Y366891D01*
X342171Y369879D01*
X342171Y386321D01*
X343409Y389309D01*
X345695Y391595D01*
X348683Y392833D01*
X351917Y392833D01*
X354905Y391595D01*
X357191Y389309D01*
X358429Y386321D01*
X358429Y369879D01*
X357191Y366891D01*
X354905Y364605D01*
X351917Y363367D01*
X348683Y363367D01*
G37*
%LPD*%
%LPC*%
G36*
X374083Y363367D02*
X374083Y363367D01*
X371095Y364605D01*
X368809Y366891D01*
X367571Y369879D01*
X367571Y386321D01*
X368809Y389309D01*
X371095Y391595D01*
X374083Y392833D01*
X377317Y392833D01*
X380305Y391595D01*
X382591Y389309D01*
X383829Y386321D01*
X383829Y369879D01*
X382591Y366891D01*
X380305Y364605D01*
X377317Y363367D01*
X374083Y363367D01*
G37*
%LPD*%
%LPC*%
G36*
X399483Y363367D02*
X399483Y363367D01*
X396495Y364605D01*
X394209Y366891D01*
X392971Y369879D01*
X392971Y386321D01*
X394209Y389309D01*
X396495Y391595D01*
X399483Y392833D01*
X402717Y392833D01*
X405705Y391595D01*
X407991Y389309D01*
X409229Y386321D01*
X409229Y369879D01*
X407991Y366891D01*
X405705Y364605D01*
X402717Y363367D01*
X399483Y363367D01*
G37*
%LPD*%
%LPC*%
G36*
X551883Y287167D02*
X551883Y287167D01*
X548895Y288405D01*
X546609Y290691D01*
X545371Y293679D01*
X545371Y310121D01*
X546609Y313109D01*
X548895Y315395D01*
X551883Y316633D01*
X555117Y316633D01*
X558105Y315395D01*
X560391Y313109D01*
X561629Y310121D01*
X561629Y293679D01*
X560391Y290691D01*
X558105Y288405D01*
X555117Y287167D01*
X551883Y287167D01*
G37*
%LPD*%
%LPC*%
G36*
X450283Y363367D02*
X450283Y363367D01*
X447295Y364605D01*
X445009Y366891D01*
X443771Y369879D01*
X443771Y386321D01*
X445009Y389309D01*
X447295Y391595D01*
X450283Y392833D01*
X453517Y392833D01*
X456505Y391595D01*
X458791Y389309D01*
X460029Y386321D01*
X460029Y369879D01*
X458791Y366891D01*
X456505Y364605D01*
X453517Y363367D01*
X450283Y363367D01*
G37*
%LPD*%
%LPC*%
G36*
X551883Y363367D02*
X551883Y363367D01*
X548895Y364605D01*
X546609Y366891D01*
X545371Y369879D01*
X545371Y386321D01*
X546609Y389309D01*
X548895Y391595D01*
X551883Y392833D01*
X555117Y392833D01*
X558105Y391595D01*
X560391Y389309D01*
X561629Y386321D01*
X561629Y369879D01*
X560391Y366891D01*
X558105Y364605D01*
X555117Y363367D01*
X551883Y363367D01*
G37*
%LPD*%
%LPC*%
G36*
X577283Y363367D02*
X577283Y363367D01*
X574295Y364605D01*
X572009Y366891D01*
X570771Y369879D01*
X570771Y386321D01*
X572009Y389309D01*
X574295Y391595D01*
X577283Y392833D01*
X580517Y392833D01*
X583505Y391595D01*
X585791Y389309D01*
X587029Y386321D01*
X587029Y369879D01*
X585791Y366891D01*
X583505Y364605D01*
X580517Y363367D01*
X577283Y363367D01*
G37*
%LPD*%
%LPC*%
G36*
X602683Y363367D02*
X602683Y363367D01*
X599695Y364605D01*
X597409Y366891D01*
X596171Y369879D01*
X596171Y386321D01*
X597409Y389309D01*
X599695Y391595D01*
X602683Y392833D01*
X605917Y392833D01*
X608905Y391595D01*
X611191Y389309D01*
X612429Y386321D01*
X612429Y369879D01*
X611191Y366891D01*
X608905Y364605D01*
X605917Y363367D01*
X602683Y363367D01*
G37*
%LPD*%
%LPC*%
G36*
X323283Y363367D02*
X323283Y363367D01*
X320295Y364605D01*
X318009Y366891D01*
X316771Y369879D01*
X316771Y386321D01*
X318009Y389309D01*
X320295Y391595D01*
X323283Y392833D01*
X326517Y392833D01*
X329505Y391595D01*
X331791Y389309D01*
X333029Y386321D01*
X333029Y369879D01*
X331791Y366891D01*
X329505Y364605D01*
X326517Y363367D01*
X323283Y363367D01*
G37*
%LPD*%
%LPC*%
G36*
X628083Y363367D02*
X628083Y363367D01*
X625095Y364605D01*
X622809Y366891D01*
X621571Y369879D01*
X621571Y386321D01*
X622809Y389309D01*
X625095Y391595D01*
X628083Y392833D01*
X631317Y392833D01*
X634305Y391595D01*
X636591Y389309D01*
X637829Y386321D01*
X637829Y369879D01*
X636591Y366891D01*
X634305Y364605D01*
X631317Y363367D01*
X628083Y363367D01*
G37*
%LPD*%
%LPC*%
G36*
X653483Y363367D02*
X653483Y363367D01*
X650495Y364605D01*
X648209Y366891D01*
X646971Y369879D01*
X646971Y386321D01*
X648209Y389309D01*
X650495Y391595D01*
X653483Y392833D01*
X656717Y392833D01*
X659705Y391595D01*
X661991Y389309D01*
X663229Y386321D01*
X663229Y369879D01*
X661991Y366891D01*
X659705Y364605D01*
X656717Y363367D01*
X653483Y363367D01*
G37*
%LPD*%
%LPC*%
G36*
X128068Y138475D02*
X128068Y138475D01*
X127175Y139368D01*
X127175Y153632D01*
X128068Y154525D01*
X132108Y154525D01*
X132179Y154536D01*
X132251Y154538D01*
X132300Y154556D01*
X132351Y154564D01*
X132414Y154598D01*
X132482Y154623D01*
X132522Y154655D01*
X132568Y154680D01*
X132618Y154732D01*
X132674Y154776D01*
X132702Y154820D01*
X132738Y154858D01*
X132768Y154923D01*
X132807Y154983D01*
X132819Y155034D01*
X132841Y155081D01*
X132849Y155152D01*
X132867Y155222D01*
X132863Y155274D01*
X132868Y155325D01*
X132853Y155396D01*
X132848Y155467D01*
X132827Y155515D01*
X132816Y155566D01*
X132779Y155627D01*
X132751Y155693D01*
X132707Y155749D01*
X132690Y155777D01*
X132672Y155792D01*
X132647Y155824D01*
X132079Y156391D01*
X132079Y160601D01*
X135055Y163577D01*
X139265Y163577D01*
X142241Y160601D01*
X142241Y156391D01*
X141673Y155824D01*
X141632Y155766D01*
X141582Y155714D01*
X141560Y155667D01*
X141530Y155625D01*
X141509Y155556D01*
X141479Y155491D01*
X141473Y155439D01*
X141458Y155389D01*
X141459Y155318D01*
X141452Y155247D01*
X141463Y155196D01*
X141464Y155144D01*
X141489Y155076D01*
X141504Y155006D01*
X141531Y154961D01*
X141548Y154913D01*
X141593Y154857D01*
X141630Y154795D01*
X141670Y154761D01*
X141702Y154721D01*
X141762Y154682D01*
X141817Y154635D01*
X141865Y154616D01*
X141909Y154588D01*
X141979Y154570D01*
X142045Y154543D01*
X142116Y154535D01*
X142148Y154527D01*
X142171Y154529D01*
X142212Y154525D01*
X144332Y154525D01*
X145225Y153632D01*
X145225Y139368D01*
X144332Y138475D01*
X128068Y138475D01*
G37*
%LPD*%
%LPC*%
G36*
X381943Y862075D02*
X381943Y862075D01*
X378967Y865051D01*
X378967Y869261D01*
X381252Y871546D01*
X381305Y871620D01*
X381365Y871689D01*
X381377Y871719D01*
X381396Y871745D01*
X381423Y871832D01*
X381457Y871917D01*
X381461Y871958D01*
X381468Y871980D01*
X381467Y872013D01*
X381475Y872084D01*
X381475Y888132D01*
X382368Y889025D01*
X396632Y889025D01*
X397525Y888132D01*
X397525Y871868D01*
X396632Y870975D01*
X389252Y870975D01*
X389181Y870964D01*
X389109Y870962D01*
X389060Y870944D01*
X389009Y870936D01*
X388946Y870902D01*
X388878Y870877D01*
X388838Y870845D01*
X388792Y870820D01*
X388742Y870769D01*
X388686Y870724D01*
X388658Y870680D01*
X388622Y870642D01*
X388592Y870577D01*
X388553Y870517D01*
X388541Y870466D01*
X388519Y870419D01*
X388511Y870348D01*
X388493Y870278D01*
X388497Y870226D01*
X388492Y870175D01*
X388507Y870104D01*
X388512Y870033D01*
X388533Y869985D01*
X388544Y869934D01*
X388581Y869873D01*
X388609Y869807D01*
X388654Y869751D01*
X388670Y869723D01*
X388688Y869708D01*
X388713Y869676D01*
X389129Y869260D01*
X389129Y865051D01*
X386153Y862075D01*
X381943Y862075D01*
G37*
%LPD*%
%LPC*%
G36*
X349068Y775675D02*
X349068Y775675D01*
X348175Y776568D01*
X348175Y779588D01*
X348164Y779659D01*
X348162Y779731D01*
X348144Y779780D01*
X348136Y779831D01*
X348102Y779894D01*
X348077Y779962D01*
X348045Y780002D01*
X348020Y780048D01*
X347968Y780098D01*
X347924Y780154D01*
X347880Y780182D01*
X347842Y780218D01*
X347777Y780248D01*
X347717Y780287D01*
X347666Y780299D01*
X347619Y780321D01*
X347548Y780329D01*
X347478Y780347D01*
X347426Y780343D01*
X347375Y780348D01*
X347304Y780333D01*
X347233Y780328D01*
X347185Y780307D01*
X347134Y780296D01*
X347073Y780259D01*
X347007Y780231D01*
X346951Y780186D01*
X346923Y780170D01*
X346908Y780152D01*
X346876Y780127D01*
X346528Y779779D01*
X342319Y779779D01*
X339343Y782755D01*
X339343Y786965D01*
X342319Y789941D01*
X346528Y789941D01*
X346876Y789593D01*
X346934Y789552D01*
X346986Y789502D01*
X347033Y789480D01*
X347075Y789450D01*
X347144Y789429D01*
X347209Y789399D01*
X347261Y789393D01*
X347311Y789378D01*
X347382Y789379D01*
X347453Y789372D01*
X347504Y789383D01*
X347556Y789384D01*
X347624Y789409D01*
X347694Y789424D01*
X347739Y789451D01*
X347787Y789468D01*
X347843Y789513D01*
X347905Y789550D01*
X347939Y789590D01*
X347979Y789622D01*
X348018Y789682D01*
X348065Y789737D01*
X348084Y789785D01*
X348112Y789829D01*
X348130Y789898D01*
X348157Y789965D01*
X348165Y790036D01*
X348173Y790068D01*
X348171Y790091D01*
X348175Y790132D01*
X348175Y790832D01*
X349068Y791725D01*
X365332Y791725D01*
X366225Y790832D01*
X366225Y776568D01*
X365332Y775675D01*
X349068Y775675D01*
G37*
%LPD*%
%LPC*%
G36*
X473936Y908155D02*
X473936Y908155D01*
X466212Y908155D01*
X460855Y913512D01*
X460855Y921088D01*
X466212Y926445D01*
X473788Y926445D01*
X479145Y921088D01*
X479145Y913512D01*
X474221Y908588D01*
X474179Y908530D01*
X474130Y908478D01*
X474108Y908431D01*
X474077Y908389D01*
X474056Y908320D01*
X474026Y908255D01*
X474020Y908203D01*
X474005Y908153D01*
X474005Y908151D01*
X474000Y908153D01*
X473977Y908151D01*
X473936Y908155D01*
G37*
%LPD*%
%LPC*%
G36*
X466212Y933555D02*
X466212Y933555D01*
X460855Y938912D01*
X460855Y946488D01*
X466212Y951845D01*
X473788Y951845D01*
X479145Y946488D01*
X479145Y938912D01*
X473788Y933555D01*
X466212Y933555D01*
G37*
%LPD*%
%LPC*%
G36*
X491612Y908155D02*
X491612Y908155D01*
X486255Y913512D01*
X486255Y921088D01*
X491612Y926445D01*
X499188Y926445D01*
X504545Y921088D01*
X504545Y913512D01*
X499188Y908155D01*
X491612Y908155D01*
G37*
%LPD*%
%LPC*%
G36*
X642096Y869885D02*
X642096Y869885D01*
X639223Y871075D01*
X637025Y873273D01*
X635835Y876146D01*
X635835Y879254D01*
X637025Y882127D01*
X639223Y884325D01*
X642096Y885515D01*
X645204Y885515D01*
X648077Y884325D01*
X650275Y882127D01*
X651465Y879254D01*
X651465Y876146D01*
X650275Y873273D01*
X648077Y871075D01*
X645204Y869885D01*
X642096Y869885D01*
G37*
%LPD*%
%LPC*%
G36*
X667496Y869885D02*
X667496Y869885D01*
X664623Y871075D01*
X662425Y873273D01*
X661235Y876146D01*
X661235Y879254D01*
X662425Y882127D01*
X664623Y884325D01*
X667496Y885515D01*
X670604Y885515D01*
X673477Y884325D01*
X675675Y882127D01*
X676865Y879254D01*
X676865Y876146D01*
X675675Y873273D01*
X673477Y871075D01*
X670604Y869885D01*
X667496Y869885D01*
G37*
%LPD*%
%LPC*%
G36*
X616696Y869885D02*
X616696Y869885D01*
X613823Y871075D01*
X611625Y873273D01*
X610435Y876146D01*
X610435Y879254D01*
X611625Y882127D01*
X613823Y884325D01*
X616696Y885515D01*
X619804Y885515D01*
X622677Y884325D01*
X624875Y882127D01*
X626065Y879254D01*
X626065Y876146D01*
X624875Y873273D01*
X622677Y871075D01*
X619804Y869885D01*
X616696Y869885D01*
G37*
%LPD*%
%LPC*%
G36*
X692896Y869885D02*
X692896Y869885D01*
X690023Y871075D01*
X687825Y873273D01*
X686635Y876146D01*
X686635Y879254D01*
X687825Y882127D01*
X690023Y884325D01*
X692896Y885515D01*
X696004Y885515D01*
X698877Y884325D01*
X701075Y882127D01*
X702265Y879254D01*
X702265Y876146D01*
X701075Y873273D01*
X698877Y871075D01*
X696004Y869885D01*
X692896Y869885D01*
G37*
%LPD*%
%LPC*%
G36*
X680196Y844485D02*
X680196Y844485D01*
X677323Y845675D01*
X675125Y847873D01*
X673935Y850746D01*
X673935Y853854D01*
X675125Y856727D01*
X677323Y858925D01*
X680196Y860115D01*
X683304Y860115D01*
X686177Y858925D01*
X688375Y856727D01*
X689565Y853854D01*
X689565Y850746D01*
X688375Y847873D01*
X686177Y845675D01*
X683304Y844485D01*
X680196Y844485D01*
G37*
%LPD*%
%LPC*%
G36*
X654796Y844485D02*
X654796Y844485D01*
X651923Y845675D01*
X649725Y847873D01*
X648535Y850746D01*
X648535Y853854D01*
X649725Y856727D01*
X651923Y858925D01*
X654796Y860115D01*
X657904Y860115D01*
X660777Y858925D01*
X662975Y856727D01*
X664165Y853854D01*
X664165Y850746D01*
X662975Y847873D01*
X660777Y845675D01*
X657904Y844485D01*
X654796Y844485D01*
G37*
%LPD*%
%LPC*%
G36*
X629396Y844485D02*
X629396Y844485D01*
X626523Y845675D01*
X624325Y847873D01*
X623135Y850746D01*
X623135Y853854D01*
X624325Y856727D01*
X626523Y858925D01*
X629396Y860115D01*
X632504Y860115D01*
X635377Y858925D01*
X637575Y856727D01*
X638765Y853854D01*
X638765Y850746D01*
X637575Y847873D01*
X635377Y845675D01*
X632504Y844485D01*
X629396Y844485D01*
G37*
%LPD*%
%LPC*%
G36*
X603996Y844485D02*
X603996Y844485D01*
X601123Y845675D01*
X598925Y847873D01*
X597735Y850746D01*
X597735Y853854D01*
X598925Y856727D01*
X601123Y858925D01*
X603996Y860115D01*
X607104Y860115D01*
X609977Y858925D01*
X612175Y856727D01*
X613365Y853854D01*
X613365Y850746D01*
X612175Y847873D01*
X609977Y845675D01*
X607104Y844485D01*
X603996Y844485D01*
G37*
%LPD*%
%LPC*%
G36*
X706523Y221523D02*
X706523Y221523D01*
X706523Y236275D01*
X715403Y236275D01*
X715964Y236043D01*
X716393Y235614D01*
X716625Y235053D01*
X716625Y221523D01*
X706523Y221523D01*
G37*
%LPD*%
%LPC*%
G36*
X706523Y218477D02*
X706523Y218477D01*
X716625Y218477D01*
X716625Y204947D01*
X716393Y204386D01*
X715964Y203957D01*
X715403Y203725D01*
X706523Y203725D01*
X706523Y218477D01*
G37*
%LPD*%
%LPC*%
G36*
X693375Y221523D02*
X693375Y221523D01*
X693375Y235053D01*
X693607Y235614D01*
X694036Y236043D01*
X694597Y236275D01*
X703477Y236275D01*
X703477Y221523D01*
X693375Y221523D01*
G37*
%LPD*%
%LPC*%
G36*
X694597Y203725D02*
X694597Y203725D01*
X694036Y203957D01*
X693607Y204386D01*
X693375Y204947D01*
X693375Y218477D01*
X703477Y218477D01*
X703477Y203725D01*
X694597Y203725D01*
G37*
%LPD*%
%LPC*%
G36*
X62323Y426823D02*
X62323Y426823D01*
X62323Y434445D01*
X69321Y434445D01*
X71087Y434093D01*
X72752Y433404D01*
X74250Y432403D01*
X75523Y431130D01*
X76524Y429632D01*
X77213Y427967D01*
X77441Y426823D01*
X62323Y426823D01*
G37*
%LPD*%
%LPC*%
G36*
X62323Y452223D02*
X62323Y452223D01*
X62323Y459845D01*
X69321Y459845D01*
X71087Y459493D01*
X72752Y458804D01*
X74250Y457803D01*
X75523Y456530D01*
X76524Y455032D01*
X77213Y453367D01*
X77441Y452223D01*
X62323Y452223D01*
G37*
%LPD*%
%LPC*%
G36*
X44159Y452223D02*
X44159Y452223D01*
X44387Y453367D01*
X45076Y455032D01*
X46077Y456530D01*
X47350Y457803D01*
X48848Y458804D01*
X50513Y459493D01*
X52279Y459845D01*
X59277Y459845D01*
X59277Y452223D01*
X44159Y452223D01*
G37*
%LPD*%
%LPC*%
G36*
X44159Y426823D02*
X44159Y426823D01*
X44387Y427967D01*
X45076Y429632D01*
X46077Y431130D01*
X47350Y432403D01*
X48848Y433404D01*
X50513Y434093D01*
X52279Y434445D01*
X59277Y434445D01*
X59277Y426823D01*
X44159Y426823D01*
G37*
%LPD*%
%LPC*%
G36*
X62323Y416155D02*
X62323Y416155D01*
X62323Y423777D01*
X77441Y423777D01*
X77213Y422633D01*
X76524Y420968D01*
X75523Y419470D01*
X74250Y418197D01*
X72752Y417196D01*
X71087Y416507D01*
X69321Y416155D01*
X62323Y416155D01*
G37*
%LPD*%
%LPC*%
G36*
X62323Y441555D02*
X62323Y441555D01*
X62323Y449177D01*
X77441Y449177D01*
X77213Y448033D01*
X76524Y446368D01*
X75523Y444870D01*
X74250Y443597D01*
X72752Y442596D01*
X71087Y441907D01*
X69321Y441555D01*
X62323Y441555D01*
G37*
%LPD*%
%LPC*%
G36*
X52279Y416155D02*
X52279Y416155D01*
X50513Y416507D01*
X48848Y417196D01*
X47350Y418197D01*
X46077Y419470D01*
X45076Y420968D01*
X44387Y422633D01*
X44159Y423777D01*
X59277Y423777D01*
X59277Y416155D01*
X52279Y416155D01*
G37*
%LPD*%
%LPC*%
G36*
X52279Y441555D02*
X52279Y441555D01*
X50513Y441907D01*
X48848Y442596D01*
X47350Y443597D01*
X46077Y444870D01*
X45076Y446368D01*
X44387Y448033D01*
X44159Y449177D01*
X59277Y449177D01*
X59277Y441555D01*
X52279Y441555D01*
G37*
%LPD*%
%LPC*%
G36*
X233673Y704923D02*
X233673Y704923D01*
X233673Y713925D01*
X243203Y713925D01*
X243764Y713693D01*
X244193Y713264D01*
X244425Y712703D01*
X244425Y704923D01*
X233673Y704923D01*
G37*
%LPD*%
%LPC*%
G36*
X219875Y704923D02*
X219875Y704923D01*
X219875Y712703D01*
X220107Y713264D01*
X220536Y713693D01*
X221097Y713925D01*
X230627Y713925D01*
X230627Y704923D01*
X219875Y704923D01*
G37*
%LPD*%
%LPC*%
G36*
X233673Y692875D02*
X233673Y692875D01*
X233673Y701877D01*
X244425Y701877D01*
X244425Y694097D01*
X244193Y693536D01*
X243764Y693107D01*
X243203Y692875D01*
X233673Y692875D01*
G37*
%LPD*%
%LPC*%
G36*
X221097Y692875D02*
X221097Y692875D01*
X220536Y693107D01*
X220107Y693536D01*
X219875Y694097D01*
X219875Y701877D01*
X230627Y701877D01*
X230627Y692875D01*
X221097Y692875D01*
G37*
%LPD*%
%LPC*%
G36*
X478823Y379623D02*
X478823Y379623D01*
X478823Y392689D01*
X479671Y392520D01*
X481150Y391908D01*
X482482Y391018D01*
X483614Y389886D01*
X484504Y388554D01*
X485116Y387075D01*
X485429Y385505D01*
X485429Y379623D01*
X478823Y379623D01*
G37*
%LPD*%
%LPC*%
G36*
X504223Y303423D02*
X504223Y303423D01*
X504223Y316489D01*
X505071Y316320D01*
X506550Y315708D01*
X507882Y314818D01*
X509014Y313686D01*
X509904Y312354D01*
X510516Y310875D01*
X510829Y309305D01*
X510829Y303423D01*
X504223Y303423D01*
G37*
%LPD*%
%LPC*%
G36*
X504223Y300377D02*
X504223Y300377D01*
X510829Y300377D01*
X510829Y294495D01*
X510516Y292925D01*
X509904Y291446D01*
X509014Y290114D01*
X507882Y288982D01*
X506550Y288092D01*
X505071Y287480D01*
X504223Y287311D01*
X504223Y300377D01*
G37*
%LPD*%
%LPC*%
G36*
X478823Y376577D02*
X478823Y376577D01*
X485429Y376577D01*
X485429Y370695D01*
X485116Y369125D01*
X484504Y367646D01*
X483614Y366314D01*
X482482Y365182D01*
X481150Y364292D01*
X479671Y363680D01*
X478823Y363511D01*
X478823Y376577D01*
G37*
%LPD*%
%LPC*%
G36*
X469171Y379623D02*
X469171Y379623D01*
X469171Y385505D01*
X469484Y387075D01*
X470096Y388554D01*
X470986Y389886D01*
X472118Y391018D01*
X473450Y391908D01*
X474929Y392520D01*
X475777Y392689D01*
X475777Y379623D01*
X469171Y379623D01*
G37*
%LPD*%
%LPC*%
G36*
X494571Y303423D02*
X494571Y303423D01*
X494571Y309305D01*
X494884Y310875D01*
X495496Y312354D01*
X496386Y313686D01*
X497518Y314818D01*
X498850Y315708D01*
X500329Y316320D01*
X501177Y316489D01*
X501177Y303423D01*
X494571Y303423D01*
G37*
%LPD*%
%LPC*%
G36*
X474929Y363680D02*
X474929Y363680D01*
X473450Y364292D01*
X472118Y365182D01*
X470986Y366314D01*
X470096Y367646D01*
X469484Y369125D01*
X469171Y370695D01*
X469171Y376577D01*
X475777Y376577D01*
X475777Y363511D01*
X474929Y363680D01*
G37*
%LPD*%
%LPC*%
G36*
X500329Y287480D02*
X500329Y287480D01*
X498850Y288092D01*
X497518Y288982D01*
X496386Y290114D01*
X495496Y291446D01*
X494884Y292925D01*
X494571Y294495D01*
X494571Y300377D01*
X501177Y300377D01*
X501177Y287311D01*
X500329Y287480D01*
G37*
%LPD*%
%LPC*%
G36*
X100123Y717823D02*
X100123Y717823D01*
X100123Y725825D01*
X107903Y725825D01*
X108464Y725593D01*
X108893Y725164D01*
X109125Y724603D01*
X109125Y717823D01*
X100123Y717823D01*
G37*
%LPD*%
%LPC*%
G36*
X394123Y707623D02*
X394123Y707623D01*
X394123Y715625D01*
X401903Y715625D01*
X402464Y715393D01*
X402893Y714964D01*
X403125Y714403D01*
X403125Y707623D01*
X394123Y707623D01*
G37*
%LPD*%
%LPC*%
G36*
X278523Y574923D02*
X278523Y574923D01*
X278523Y583925D01*
X285303Y583925D01*
X285864Y583693D01*
X286293Y583264D01*
X286525Y582703D01*
X286525Y574923D01*
X278523Y574923D01*
G37*
%LPD*%
%LPC*%
G36*
X591523Y585523D02*
X591523Y585523D01*
X591523Y593525D01*
X599303Y593525D01*
X599864Y593293D01*
X600293Y592864D01*
X600525Y592303D01*
X600525Y585523D01*
X591523Y585523D01*
G37*
%LPD*%
%LPC*%
G36*
X591523Y655523D02*
X591523Y655523D01*
X591523Y663525D01*
X599303Y663525D01*
X599864Y663293D01*
X600293Y662864D01*
X600525Y662303D01*
X600525Y655523D01*
X591523Y655523D01*
G37*
%LPD*%
%LPC*%
G36*
X541523Y137523D02*
X541523Y137523D01*
X541523Y145525D01*
X549303Y145525D01*
X549864Y145293D01*
X550293Y144864D01*
X550525Y144303D01*
X550525Y137523D01*
X541523Y137523D01*
G37*
%LPD*%
%LPC*%
G36*
X601523Y137523D02*
X601523Y137523D01*
X601523Y145525D01*
X609303Y145525D01*
X609864Y145293D01*
X610293Y144864D01*
X610525Y144303D01*
X610525Y137523D01*
X601523Y137523D01*
G37*
%LPD*%
%LPC*%
G36*
X210123Y777123D02*
X210123Y777123D01*
X210123Y786125D01*
X216903Y786125D01*
X217464Y785893D01*
X217893Y785464D01*
X218125Y784903D01*
X218125Y777123D01*
X210123Y777123D01*
G37*
%LPD*%
%LPC*%
G36*
X447523Y261523D02*
X447523Y261523D01*
X447523Y270525D01*
X454303Y270525D01*
X454864Y270293D01*
X455293Y269864D01*
X455525Y269303D01*
X455525Y261523D01*
X447523Y261523D01*
G37*
%LPD*%
%LPC*%
G36*
X529475Y137523D02*
X529475Y137523D01*
X529475Y144303D01*
X529707Y144864D01*
X530136Y145293D01*
X530697Y145525D01*
X538477Y145525D01*
X538477Y137523D01*
X529475Y137523D01*
G37*
%LPD*%
%LPC*%
G36*
X210123Y765075D02*
X210123Y765075D01*
X210123Y774077D01*
X218125Y774077D01*
X218125Y766297D01*
X217893Y765736D01*
X217464Y765307D01*
X216903Y765075D01*
X210123Y765075D01*
G37*
%LPD*%
%LPC*%
G36*
X447523Y249475D02*
X447523Y249475D01*
X447523Y258477D01*
X455525Y258477D01*
X455525Y250697D01*
X455293Y250136D01*
X454864Y249707D01*
X454303Y249475D01*
X447523Y249475D01*
G37*
%LPD*%
%LPC*%
G36*
X88075Y717823D02*
X88075Y717823D01*
X88075Y724603D01*
X88307Y725164D01*
X88736Y725593D01*
X89297Y725825D01*
X97077Y725825D01*
X97077Y717823D01*
X88075Y717823D01*
G37*
%LPD*%
%LPC*%
G36*
X589475Y137523D02*
X589475Y137523D01*
X589475Y144303D01*
X589707Y144864D01*
X590136Y145293D01*
X590697Y145525D01*
X598477Y145525D01*
X598477Y137523D01*
X589475Y137523D01*
G37*
%LPD*%
%LPC*%
G36*
X382075Y707623D02*
X382075Y707623D01*
X382075Y714403D01*
X382307Y714964D01*
X382736Y715393D01*
X383297Y715625D01*
X391077Y715625D01*
X391077Y707623D01*
X382075Y707623D01*
G37*
%LPD*%
%LPC*%
G36*
X579475Y655523D02*
X579475Y655523D01*
X579475Y662303D01*
X579707Y662864D01*
X580136Y663293D01*
X580697Y663525D01*
X588477Y663525D01*
X588477Y655523D01*
X579475Y655523D01*
G37*
%LPD*%
%LPC*%
G36*
X579475Y585523D02*
X579475Y585523D01*
X579475Y592303D01*
X579707Y592864D01*
X580136Y593293D01*
X580697Y593525D01*
X588477Y593525D01*
X588477Y585523D01*
X579475Y585523D01*
G37*
%LPD*%
%LPC*%
G36*
X278523Y562875D02*
X278523Y562875D01*
X278523Y571877D01*
X286525Y571877D01*
X286525Y564097D01*
X286293Y563536D01*
X285864Y563107D01*
X285303Y562875D01*
X278523Y562875D01*
G37*
%LPD*%
%LPC*%
G36*
X601523Y126475D02*
X601523Y126475D01*
X601523Y134477D01*
X610525Y134477D01*
X610525Y127697D01*
X610293Y127136D01*
X609864Y126707D01*
X609303Y126475D01*
X601523Y126475D01*
G37*
%LPD*%
%LPC*%
G36*
X436475Y261523D02*
X436475Y261523D01*
X436475Y269303D01*
X436707Y269864D01*
X437136Y270293D01*
X437697Y270525D01*
X444477Y270525D01*
X444477Y261523D01*
X436475Y261523D01*
G37*
%LPD*%
%LPC*%
G36*
X394123Y696575D02*
X394123Y696575D01*
X394123Y704577D01*
X403125Y704577D01*
X403125Y697797D01*
X402893Y697236D01*
X402464Y696807D01*
X401903Y696575D01*
X394123Y696575D01*
G37*
%LPD*%
%LPC*%
G36*
X267475Y574923D02*
X267475Y574923D01*
X267475Y582703D01*
X267707Y583264D01*
X268136Y583693D01*
X268697Y583925D01*
X275477Y583925D01*
X275477Y574923D01*
X267475Y574923D01*
G37*
%LPD*%
%LPC*%
G36*
X591523Y644475D02*
X591523Y644475D01*
X591523Y652477D01*
X600525Y652477D01*
X600525Y645697D01*
X600293Y645136D01*
X599864Y644707D01*
X599303Y644475D01*
X591523Y644475D01*
G37*
%LPD*%
%LPC*%
G36*
X100123Y706775D02*
X100123Y706775D01*
X100123Y714777D01*
X109125Y714777D01*
X109125Y707997D01*
X108893Y707436D01*
X108464Y707007D01*
X107903Y706775D01*
X100123Y706775D01*
G37*
%LPD*%
%LPC*%
G36*
X199075Y777123D02*
X199075Y777123D01*
X199075Y784903D01*
X199307Y785464D01*
X199736Y785893D01*
X200297Y786125D01*
X207077Y786125D01*
X207077Y777123D01*
X199075Y777123D01*
G37*
%LPD*%
%LPC*%
G36*
X541523Y126475D02*
X541523Y126475D01*
X541523Y134477D01*
X550525Y134477D01*
X550525Y127697D01*
X550293Y127136D01*
X549864Y126707D01*
X549303Y126475D01*
X541523Y126475D01*
G37*
%LPD*%
%LPC*%
G36*
X591523Y574475D02*
X591523Y574475D01*
X591523Y582477D01*
X600525Y582477D01*
X600525Y575697D01*
X600293Y575136D01*
X599864Y574707D01*
X599303Y574475D01*
X591523Y574475D01*
G37*
%LPD*%
%LPC*%
G36*
X200297Y765075D02*
X200297Y765075D01*
X199736Y765307D01*
X199307Y765736D01*
X199075Y766297D01*
X199075Y774077D01*
X207077Y774077D01*
X207077Y765075D01*
X200297Y765075D01*
G37*
%LPD*%
%LPC*%
G36*
X437697Y249475D02*
X437697Y249475D01*
X437136Y249707D01*
X436707Y250136D01*
X436475Y250697D01*
X436475Y258477D01*
X444477Y258477D01*
X444477Y249475D01*
X437697Y249475D01*
G37*
%LPD*%
%LPC*%
G36*
X89297Y706775D02*
X89297Y706775D01*
X88736Y707007D01*
X88307Y707436D01*
X88075Y707997D01*
X88075Y714777D01*
X97077Y714777D01*
X97077Y706775D01*
X89297Y706775D01*
G37*
%LPD*%
%LPC*%
G36*
X580697Y644475D02*
X580697Y644475D01*
X580136Y644707D01*
X579707Y645136D01*
X579475Y645697D01*
X579475Y652477D01*
X588477Y652477D01*
X588477Y644475D01*
X580697Y644475D01*
G37*
%LPD*%
%LPC*%
G36*
X383297Y696575D02*
X383297Y696575D01*
X382736Y696807D01*
X382307Y697236D01*
X382075Y697797D01*
X382075Y704577D01*
X391077Y704577D01*
X391077Y696575D01*
X383297Y696575D01*
G37*
%LPD*%
%LPC*%
G36*
X530697Y126475D02*
X530697Y126475D01*
X530136Y126707D01*
X529707Y127136D01*
X529475Y127697D01*
X529475Y134477D01*
X538477Y134477D01*
X538477Y126475D01*
X530697Y126475D01*
G37*
%LPD*%
%LPC*%
G36*
X268697Y562875D02*
X268697Y562875D01*
X268136Y563107D01*
X267707Y563536D01*
X267475Y564097D01*
X267475Y571877D01*
X275477Y571877D01*
X275477Y562875D01*
X268697Y562875D01*
G37*
%LPD*%
%LPC*%
G36*
X580697Y574475D02*
X580697Y574475D01*
X580136Y574707D01*
X579707Y575136D01*
X579475Y575697D01*
X579475Y582477D01*
X588477Y582477D01*
X588477Y574475D01*
X580697Y574475D01*
G37*
%LPD*%
%LPC*%
G36*
X590697Y126475D02*
X590697Y126475D01*
X590136Y126707D01*
X589707Y127136D01*
X589475Y127697D01*
X589475Y134477D01*
X598477Y134477D01*
X598477Y126475D01*
X590697Y126475D01*
G37*
%LPD*%
%LPC*%
G36*
X100223Y42323D02*
X100223Y42323D01*
X100223Y49825D01*
X106503Y49825D01*
X107064Y49593D01*
X107493Y49164D01*
X107725Y48603D01*
X107725Y42323D01*
X100223Y42323D01*
G37*
%LPD*%
%LPC*%
G36*
X191823Y42323D02*
X191823Y42323D01*
X191823Y49825D01*
X198103Y49825D01*
X198664Y49593D01*
X199093Y49164D01*
X199325Y48603D01*
X199325Y42323D01*
X191823Y42323D01*
G37*
%LPD*%
%LPC*%
G36*
X89675Y42323D02*
X89675Y42323D01*
X89675Y48603D01*
X89907Y49164D01*
X90336Y49593D01*
X90897Y49825D01*
X97177Y49825D01*
X97177Y42323D01*
X89675Y42323D01*
G37*
%LPD*%
%LPC*%
G36*
X181275Y42323D02*
X181275Y42323D01*
X181275Y48603D01*
X181507Y49164D01*
X181936Y49593D01*
X182497Y49825D01*
X188777Y49825D01*
X188777Y42323D01*
X181275Y42323D01*
G37*
%LPD*%
%LPC*%
G36*
X100223Y31775D02*
X100223Y31775D01*
X100223Y39277D01*
X107725Y39277D01*
X107725Y32997D01*
X107493Y32436D01*
X107064Y32007D01*
X106503Y31775D01*
X100223Y31775D01*
G37*
%LPD*%
%LPC*%
G36*
X191823Y31775D02*
X191823Y31775D01*
X191823Y39277D01*
X199325Y39277D01*
X199325Y32997D01*
X199093Y32436D01*
X198664Y32007D01*
X198103Y31775D01*
X191823Y31775D01*
G37*
%LPD*%
%LPC*%
G36*
X90897Y31775D02*
X90897Y31775D01*
X90336Y32007D01*
X89907Y32436D01*
X89675Y32997D01*
X89675Y39277D01*
X97177Y39277D01*
X97177Y31775D01*
X90897Y31775D01*
G37*
%LPD*%
%LPC*%
G36*
X182497Y31775D02*
X182497Y31775D01*
X181936Y32007D01*
X181507Y32436D01*
X181275Y32997D01*
X181275Y39277D01*
X188777Y39277D01*
X188777Y31775D01*
X182497Y31775D01*
G37*
%LPD*%
%LPC*%
G36*
X132323Y495823D02*
X132323Y495823D01*
X132323Y502325D01*
X138603Y502325D01*
X139164Y502093D01*
X139593Y501664D01*
X139825Y501103D01*
X139825Y495823D01*
X132323Y495823D01*
G37*
%LPD*%
%LPC*%
G36*
X121775Y495823D02*
X121775Y495823D01*
X121775Y501103D01*
X122007Y501664D01*
X122436Y502093D01*
X122997Y502325D01*
X129277Y502325D01*
X129277Y495823D01*
X121775Y495823D01*
G37*
%LPD*%
%LPC*%
G36*
X132323Y486275D02*
X132323Y486275D01*
X132323Y492777D01*
X139825Y492777D01*
X139825Y487497D01*
X139593Y486936D01*
X139164Y486507D01*
X138603Y486275D01*
X132323Y486275D01*
G37*
%LPD*%
%LPC*%
G36*
X122997Y486275D02*
X122997Y486275D01*
X122436Y486507D01*
X122007Y486936D01*
X121775Y487497D01*
X121775Y492777D01*
X129277Y492777D01*
X129277Y486275D01*
X122997Y486275D01*
G37*
%LPD*%
%LPC*%
G36*
X496923Y944223D02*
X496923Y944223D01*
X496923Y951845D01*
X499188Y951845D01*
X504545Y946488D01*
X504545Y944223D01*
X496923Y944223D01*
G37*
%LPD*%
%LPC*%
G36*
X486255Y944223D02*
X486255Y944223D01*
X486255Y946488D01*
X491612Y951845D01*
X493877Y951845D01*
X493877Y944223D01*
X486255Y944223D01*
G37*
%LPD*%
%LPC*%
G36*
X496923Y933555D02*
X496923Y933555D01*
X496923Y941177D01*
X504545Y941177D01*
X504545Y938912D01*
X499188Y933555D01*
X496923Y933555D01*
G37*
%LPD*%
%LPC*%
G36*
X491612Y933555D02*
X491612Y933555D01*
X486255Y938912D01*
X486255Y941177D01*
X493877Y941177D01*
X493877Y933555D01*
X491612Y933555D01*
G37*
%LPD*%
%LPC*%
G36*
X357925Y621599D02*
X357925Y621599D01*
X357925Y622903D01*
X358157Y623464D01*
X358586Y623893D01*
X359147Y624125D01*
X364451Y624125D01*
X364451Y621599D01*
X357925Y621599D01*
G37*
%LPD*%
%LPC*%
G36*
X366449Y621599D02*
X366449Y621599D01*
X366449Y624125D01*
X371753Y624125D01*
X372314Y623893D01*
X372743Y623464D01*
X372975Y622903D01*
X372975Y621599D01*
X366449Y621599D01*
G37*
%LPD*%
%LPC*%
G36*
X376175Y551349D02*
X376175Y551349D01*
X376175Y556653D01*
X376407Y557214D01*
X376836Y557643D01*
X377397Y557875D01*
X378701Y557875D01*
X378701Y551349D01*
X376175Y551349D01*
G37*
%LPD*%
%LPC*%
G36*
X377397Y542825D02*
X377397Y542825D01*
X376836Y543057D01*
X376407Y543486D01*
X376175Y544047D01*
X376175Y549351D01*
X378701Y549351D01*
X378701Y542825D01*
X377397Y542825D01*
G37*
%LPD*%
%LPC*%
G36*
X495399Y942699D02*
X495399Y942699D01*
X495399Y942701D01*
X495401Y942701D01*
X495401Y942699D01*
X495399Y942699D01*
G37*
%LPD*%
%LPC*%
G36*
X60799Y425299D02*
X60799Y425299D01*
X60799Y425301D01*
X60801Y425301D01*
X60801Y425299D01*
X60799Y425299D01*
G37*
%LPD*%
%LPC*%
G36*
X60799Y450699D02*
X60799Y450699D01*
X60799Y450701D01*
X60801Y450701D01*
X60801Y450699D01*
X60799Y450699D01*
G37*
%LPD*%
%LPC*%
G36*
X477299Y378099D02*
X477299Y378099D01*
X477299Y378101D01*
X477301Y378101D01*
X477301Y378099D01*
X477299Y378099D01*
G37*
%LPD*%
%LPC*%
G36*
X502699Y301899D02*
X502699Y301899D01*
X502699Y301901D01*
X502701Y301901D01*
X502701Y301899D01*
X502699Y301899D01*
G37*
%LPD*%
%LPC*%
G36*
X232149Y703399D02*
X232149Y703399D01*
X232149Y703401D01*
X232151Y703401D01*
X232151Y703399D01*
X232149Y703399D01*
G37*
%LPD*%
%LPC*%
G36*
X392599Y706099D02*
X392599Y706099D01*
X392599Y706101D01*
X392601Y706101D01*
X392601Y706099D01*
X392599Y706099D01*
G37*
%LPD*%
%LPC*%
G36*
X589999Y583999D02*
X589999Y583999D01*
X589999Y584001D01*
X590001Y584001D01*
X590001Y583999D01*
X589999Y583999D01*
G37*
%LPD*%
%LPC*%
G36*
X276999Y573399D02*
X276999Y573399D01*
X276999Y573401D01*
X277001Y573401D01*
X277001Y573399D01*
X276999Y573399D01*
G37*
%LPD*%
%LPC*%
G36*
X208599Y775599D02*
X208599Y775599D01*
X208599Y775601D01*
X208601Y775601D01*
X208601Y775599D01*
X208599Y775599D01*
G37*
%LPD*%
%LPC*%
G36*
X704999Y219999D02*
X704999Y219999D01*
X704999Y220001D01*
X705001Y220001D01*
X705001Y219999D01*
X704999Y219999D01*
G37*
%LPD*%
%LPC*%
G36*
X539999Y135999D02*
X539999Y135999D01*
X539999Y136001D01*
X540001Y136001D01*
X540001Y135999D01*
X539999Y135999D01*
G37*
%LPD*%
%LPC*%
G36*
X130799Y494299D02*
X130799Y494299D01*
X130799Y494301D01*
X130801Y494301D01*
X130801Y494299D01*
X130799Y494299D01*
G37*
%LPD*%
%LPC*%
G36*
X98599Y716299D02*
X98599Y716299D01*
X98599Y716301D01*
X98601Y716301D01*
X98601Y716299D01*
X98599Y716299D01*
G37*
%LPD*%
%LPC*%
G36*
X190299Y40799D02*
X190299Y40799D01*
X190299Y40801D01*
X190301Y40801D01*
X190301Y40799D01*
X190299Y40799D01*
G37*
%LPD*%
%LPC*%
G36*
X98699Y40799D02*
X98699Y40799D01*
X98699Y40801D01*
X98701Y40801D01*
X98701Y40799D01*
X98699Y40799D01*
G37*
%LPD*%
%LPC*%
G36*
X445999Y259999D02*
X445999Y259999D01*
X445999Y260001D01*
X446001Y260001D01*
X446001Y259999D01*
X445999Y259999D01*
G37*
%LPD*%
%LPC*%
G36*
X589999Y653999D02*
X589999Y653999D01*
X589999Y654001D01*
X590001Y654001D01*
X590001Y653999D01*
X589999Y653999D01*
G37*
%LPD*%
%LPC*%
G36*
X599999Y135999D02*
X599999Y135999D01*
X599999Y136001D01*
X600001Y136001D01*
X600001Y135999D01*
X599999Y135999D01*
G37*
%LPD*%
D10*
X98600Y688300D03*
X98600Y716300D03*
D11*
X305000Y573400D03*
X277000Y573400D03*
D10*
X392600Y706100D03*
X392600Y678100D03*
D11*
X236600Y775600D03*
X208600Y775600D03*
D12*
X199650Y703400D03*
X232150Y703400D03*
D10*
X354800Y465900D03*
X354800Y493900D03*
D13*
X192600Y583900D03*
X192600Y627900D03*
D14*
X435700Y634850D03*
X427700Y634850D03*
X419700Y634850D03*
X411700Y634850D03*
X403700Y634850D03*
X395700Y634850D03*
X387700Y634850D03*
X379700Y634850D03*
D15*
X365450Y620600D03*
X365450Y612600D03*
X365450Y604600D03*
X365450Y596600D03*
X365450Y588600D03*
X365450Y580600D03*
X365450Y572600D03*
X365450Y564600D03*
D14*
X379700Y550350D03*
X387700Y550350D03*
X395700Y550350D03*
X403700Y550350D03*
X411700Y550350D03*
X419700Y550350D03*
X427700Y550350D03*
X435700Y550350D03*
D15*
X449950Y564600D03*
X449950Y572600D03*
X449950Y580600D03*
X449950Y588600D03*
X449950Y596600D03*
X449950Y604600D03*
X449950Y612600D03*
X449950Y620600D03*
D16*
X764880Y298300D02*
X780120Y298300D01*
X780120Y323700D02*
X764880Y323700D01*
X764880Y349100D02*
X780120Y349100D01*
X780120Y374500D02*
X764880Y374500D01*
X764880Y399900D02*
X780120Y399900D01*
X780120Y425300D02*
X764880Y425300D01*
X764880Y450700D02*
X780120Y450700D01*
X780120Y476100D02*
X764880Y476100D01*
X68420Y298300D02*
X53180Y298300D01*
X53180Y323700D02*
X68420Y323700D01*
X68420Y349100D02*
X53180Y349100D01*
X53180Y374500D02*
X68420Y374500D01*
X68420Y399900D02*
X53180Y399900D01*
X53180Y425300D02*
X68420Y425300D01*
X68420Y450700D02*
X53180Y450700D01*
X53180Y476100D02*
X68420Y476100D01*
D17*
X190300Y40800D03*
X225300Y40800D03*
X98700Y40800D03*
X133700Y40800D03*
D18*
X604800Y693900D03*
X604800Y712900D03*
X136200Y146500D03*
X136200Y127500D03*
X311000Y783700D03*
X311000Y764700D03*
X357200Y783700D03*
X357200Y764700D03*
X443100Y700500D03*
X443100Y681500D03*
X432600Y486700D03*
X432600Y467700D03*
X492600Y488600D03*
X492600Y469600D03*
D19*
X301900Y503700D03*
X282900Y503700D03*
D18*
X130800Y494300D03*
X130800Y475300D03*
X217800Y146500D03*
X217800Y127500D03*
D20*
X514412Y625400D02*
X525588Y625400D01*
X525588Y574600D02*
X514412Y574600D01*
D10*
X590000Y556000D03*
X590000Y584000D03*
X590000Y626000D03*
X590000Y654000D03*
D21*
X324900Y308504D02*
X324900Y295296D01*
X350300Y295296D02*
X350300Y308504D01*
X375700Y308504D02*
X375700Y295296D01*
X401100Y295296D02*
X401100Y308504D01*
X426500Y308504D02*
X426500Y295296D01*
X451900Y295296D02*
X451900Y308504D01*
X477300Y308504D02*
X477300Y295296D01*
X502700Y295296D02*
X502700Y308504D01*
X528100Y308504D02*
X528100Y295296D01*
X553500Y295296D02*
X553500Y308504D01*
X578900Y308504D02*
X578900Y295296D01*
X604300Y295296D02*
X604300Y308504D01*
X629700Y308504D02*
X629700Y295296D01*
X655100Y295296D02*
X655100Y308504D01*
X655100Y371496D02*
X655100Y384704D01*
X629700Y384704D02*
X629700Y371496D01*
X604300Y371496D02*
X604300Y384704D01*
X578900Y384704D02*
X578900Y371496D01*
X553500Y371496D02*
X553500Y384704D01*
X528100Y384704D02*
X528100Y371496D01*
X502700Y371496D02*
X502700Y384704D01*
X477300Y384704D02*
X477300Y371496D01*
X451900Y371496D02*
X451900Y384704D01*
X426500Y384704D02*
X426500Y371496D01*
X401100Y371496D02*
X401100Y384704D01*
X375700Y384704D02*
X375700Y371496D01*
X350300Y371496D02*
X350300Y384704D01*
X324900Y384704D02*
X324900Y371496D01*
D11*
X446000Y260000D03*
X474000Y260000D03*
D20*
X585400Y225588D02*
X585400Y214412D01*
X534600Y214412D02*
X534600Y225588D01*
D10*
X540000Y164000D03*
X540000Y136000D03*
X600000Y164000D03*
X600000Y136000D03*
D19*
X389500Y880000D03*
X370500Y880000D03*
X309500Y880000D03*
X290500Y880000D03*
D17*
X282500Y950000D03*
X317500Y950000D03*
X362500Y950000D03*
X397500Y950000D03*
D22*
X444600Y917300D03*
X444600Y942700D03*
X470000Y917300D03*
X470000Y942700D03*
X495400Y917300D03*
X495400Y942700D03*
D23*
X694450Y877700D03*
X681750Y852300D03*
X669050Y877700D03*
X656350Y852300D03*
X643650Y877700D03*
X630950Y852300D03*
X618250Y877700D03*
X605550Y852300D03*
D24*
X728000Y971700D03*
X572000Y971700D03*
D25*
X124000Y907750D03*
X132000Y919750D03*
X140000Y907750D03*
X148000Y919750D03*
X156000Y907750D03*
D26*
X103000Y916750D03*
X177000Y916750D03*
X103000Y964250D03*
X177000Y964250D03*
D27*
X100000Y825000D03*
X100000Y775000D03*
D28*
X705000Y220000D03*
X755000Y220000D03*
D29*
X108204Y832104D02*
X100584Y824484D01*
X100000Y825000D01*
X155448Y905256D02*
X155448Y906780D01*
X155448Y905256D02*
X152400Y902208D01*
X152400Y900684D01*
X105156Y853440D01*
X105156Y835152D01*
X108204Y832104D01*
X155448Y906780D02*
X156000Y907750D01*
X108204Y832104D02*
X100000Y825000D01*
X444528Y573296D02*
X449100Y573296D01*
X449950Y572600D01*
X444528Y573296D02*
X439956Y568724D01*
X420144Y588664D02*
X420144Y634256D01*
X444528Y573296D02*
X449950Y572600D01*
X420144Y634256D02*
X419700Y634850D01*
X418620Y635780D02*
X413004Y635780D01*
X418620Y635780D02*
X419700Y634850D01*
X563400Y693692D02*
X604548Y693692D01*
X563400Y693692D02*
X516156Y646448D01*
X423192Y646448D01*
X420144Y643400D01*
X420144Y635780D01*
X604548Y693692D02*
X604800Y693900D01*
X420144Y635780D02*
X419700Y634850D01*
X420080Y588600D02*
X365450Y588600D01*
X420080Y588600D02*
X439956Y568724D01*
X420080Y588600D02*
X420144Y588664D01*
X237744Y746760D02*
X237744Y774192D01*
X237744Y746760D02*
X201168Y710184D01*
X201168Y704088D01*
X237744Y774192D02*
X236600Y775600D01*
X201168Y704088D02*
X199650Y703400D01*
X193548Y696468D02*
X193548Y629412D01*
X196596Y699516D02*
X199644Y702564D01*
X196596Y699516D02*
X193548Y696468D01*
X193548Y629412D02*
X192600Y627900D01*
X199644Y702564D02*
X199650Y703400D01*
X196596Y699516D02*
X192024Y704088D01*
X196596Y699516D02*
X199650Y703400D01*
X193548Y627888D02*
X272796Y627888D01*
X312420Y588264D01*
X364236Y588264D01*
X365450Y588600D01*
X193548Y627888D02*
X192600Y627900D01*
X99060Y688848D02*
X99060Y693420D01*
X108204Y702564D01*
X111252Y702564D01*
X114300Y705612D01*
X114300Y758952D01*
X99060Y774192D01*
X99060Y688848D02*
X98600Y688300D01*
X99060Y774192D02*
X100000Y775000D01*
X114300Y705612D02*
X188976Y705612D01*
X190500Y704088D01*
X192024Y704088D01*
X199650Y703400D01*
X411700Y634850D02*
X413004Y635508D01*
X413004Y635780D01*
X365450Y620600D02*
X364850Y620000D01*
X364897Y620002D01*
X364944Y620007D01*
X364990Y620017D01*
X365035Y620029D01*
X365080Y620046D01*
X365122Y620065D01*
X365163Y620088D01*
X365203Y620115D01*
X365240Y620144D01*
X365274Y620176D01*
X365306Y620210D01*
X365335Y620247D01*
X365362Y620287D01*
X365385Y620328D01*
X365404Y620370D01*
X365421Y620415D01*
X365433Y620460D01*
X365443Y620506D01*
X365448Y620553D01*
X365450Y620600D01*
X277000Y593000D02*
X277000Y573400D01*
X277000Y593000D02*
X270000Y600000D01*
D30*
X270000Y600000D03*
X340000Y650000D03*
D29*
X364850Y625150D01*
X364850Y620000D01*
D31*
X438432Y605300D03*
D29*
X339852Y573024D02*
X306324Y573024D01*
X305000Y573400D01*
D31*
X339852Y573024D03*
D29*
X571500Y713232D02*
X603504Y713232D01*
X571500Y713232D02*
X559308Y701040D01*
X603504Y713232D02*
X604800Y712900D01*
D31*
X559308Y701040D03*
D29*
X449950Y604600D02*
X439132Y604600D01*
X438432Y605300D01*
X396240Y635508D02*
X396240Y640080D01*
X396240Y635508D02*
X395700Y634850D01*
X396240Y640080D02*
X392600Y643476D01*
X392600Y678100D01*
X313944Y762000D02*
X312420Y763524D01*
X311000Y764700D01*
X379476Y661416D02*
X379476Y635508D01*
X379476Y661416D02*
X315468Y725424D01*
X315468Y758952D01*
X313944Y760476D01*
X313944Y762000D01*
X379476Y635508D02*
X379700Y634850D01*
X313944Y762000D02*
X311000Y764700D01*
X403380Y634256D02*
X403380Y631208D01*
X403380Y634256D02*
X403700Y634850D01*
X403380Y631208D01*
X403860Y635508D02*
X403860Y649224D01*
X435864Y681228D01*
X441960Y681228D01*
X403860Y635508D02*
X403700Y634850D01*
X441960Y681228D02*
X443100Y681500D01*
X396240Y949452D02*
X393192Y949452D01*
X396240Y949452D02*
X397500Y950000D01*
X397764Y949452D02*
X402336Y949452D01*
X397764Y949452D02*
X397500Y950000D01*
X409956Y943356D02*
X443484Y943356D01*
X409956Y943356D02*
X405384Y947928D01*
X403860Y947928D01*
X402336Y949452D01*
X443484Y943356D02*
X444600Y942700D01*
X402336Y949452D02*
X397500Y950000D01*
X137160Y158496D02*
X137160Y147828D01*
X136200Y146500D01*
X473964Y260604D02*
X473964Y284988D01*
X475488Y286512D01*
X475488Y288036D01*
X477012Y289560D01*
X477012Y301752D01*
X473964Y260604D02*
X474000Y260000D01*
X477012Y301752D02*
X477300Y301900D01*
X478536Y303276D02*
X478536Y312420D01*
X498348Y332232D01*
X498348Y359664D01*
X501396Y362712D01*
X501396Y377952D01*
X478536Y303276D02*
X477300Y301900D01*
X501396Y377952D02*
X502700Y378100D01*
X281940Y504444D02*
X277368Y504444D01*
X281940Y504444D02*
X282900Y503700D01*
D31*
X137160Y158496D03*
D29*
X193548Y583692D02*
X198120Y583692D01*
X193548Y583692D02*
X192600Y583900D01*
X198120Y583692D02*
X277368Y504444D01*
X282900Y503700D01*
X198120Y583692D02*
X192600Y583900D01*
X318516Y950976D02*
X338328Y950976D01*
X353568Y935736D01*
X390144Y935736D01*
X393192Y938784D01*
X393192Y949452D01*
X318516Y950976D02*
X317500Y950000D01*
X393192Y949452D02*
X397500Y950000D01*
X192024Y585216D02*
X184404Y585216D01*
X175260Y594360D01*
X192024Y585216D02*
X192600Y583900D01*
D31*
X175260Y594360D03*
D29*
X451104Y563880D02*
X451104Y534924D01*
X492252Y493776D01*
X492252Y489204D01*
X492600Y488600D01*
X451104Y563880D02*
X449950Y564600D01*
X435864Y550164D02*
X435864Y490728D01*
X432816Y487680D01*
X435864Y550164D02*
X435700Y550350D01*
X432816Y487680D02*
X432600Y486700D01*
X411480Y539496D02*
X411480Y550164D01*
X411480Y539496D02*
X370332Y498348D01*
X362712Y498348D01*
X411480Y550164D02*
X411700Y550350D01*
X359664Y495300D02*
X355092Y495300D01*
X359664Y495300D02*
X362712Y498348D01*
X355092Y495300D02*
X354800Y493900D01*
X315468Y498348D02*
X301752Y498348D01*
X315468Y498348D02*
X342900Y470916D01*
X348996Y470916D01*
X326136Y312420D02*
X326136Y303276D01*
X326136Y312420D02*
X338328Y324612D01*
X338328Y443484D01*
X353568Y458724D01*
X326136Y303276D02*
X324900Y301900D01*
X353568Y562356D02*
X353568Y568452D01*
X353568Y562356D02*
X301752Y510540D01*
X301752Y504444D01*
X301900Y503700D01*
D31*
X353568Y568452D03*
D29*
X348996Y470916D02*
X353568Y466344D01*
X354800Y465900D01*
X353568Y464820D02*
X353568Y458724D01*
X353568Y464820D02*
X354800Y465900D01*
X301900Y498496D02*
X301900Y503700D01*
X301900Y498496D02*
X301752Y498348D01*
X129540Y475488D02*
X80772Y475488D01*
X79248Y473964D01*
X62484Y473964D01*
X60960Y475488D01*
X129540Y475488D02*
X130800Y475300D01*
X60960Y475488D02*
X60800Y476100D01*
X225300Y120000D02*
X225300Y40800D01*
X225300Y120000D02*
X217800Y127500D01*
X133700Y125000D02*
X133700Y40800D01*
X133700Y125000D02*
X136200Y127500D01*
X548160Y556532D02*
X589308Y556532D01*
X548160Y556532D02*
X531396Y573296D01*
X520728Y573296D01*
X589308Y556532D02*
X590000Y556000D01*
X520728Y573296D02*
X520000Y574600D01*
X450550Y580000D02*
X449950Y580600D01*
X514600Y580000D02*
X520000Y574600D01*
X514600Y580000D02*
X450550Y580000D01*
X470950Y589050D02*
X508536Y626636D01*
X589308Y626636D02*
X590000Y626000D01*
X470950Y589050D02*
X450400Y589050D01*
X449950Y588600D01*
X521236Y626636D02*
X589308Y626636D01*
X521236Y626636D02*
X520000Y625400D01*
X509772Y625400D01*
X508536Y626636D01*
X541020Y164592D02*
X540000Y164000D01*
X541020Y164592D02*
X534924Y170688D01*
X534924Y207264D02*
X533400Y208788D01*
X533400Y219456D01*
X534924Y170688D02*
X540000Y164000D01*
X533400Y219456D02*
X534600Y220000D01*
X534924Y207264D02*
X534924Y169076D01*
X540000Y164000D01*
X600456Y164592D02*
X600456Y200000D01*
X600456Y164592D02*
X600000Y164000D01*
X600456Y200000D02*
X585400Y215056D01*
X585400Y220000D01*
X496824Y466344D02*
X493776Y469392D01*
X492600Y469600D01*
X496824Y466344D02*
X428244Y397764D01*
X422148Y397764D01*
X414528Y390144D01*
X414528Y365760D01*
X350520Y301752D01*
X492600Y469600D02*
X496824Y466344D01*
X350520Y301752D02*
X350300Y301900D01*
X431292Y458724D02*
X431292Y466344D01*
X431292Y458724D02*
X362712Y390144D01*
X362712Y338328D01*
X338328Y313944D01*
X338328Y289560D01*
X345948Y281940D01*
X359664Y281940D01*
X374904Y297180D01*
X374904Y301752D01*
X431292Y466344D02*
X432600Y467700D01*
X375700Y301900D02*
X374904Y301752D01*
X425196Y301752D02*
X269748Y146304D01*
X425196Y301752D02*
X426500Y301900D01*
X269748Y146304D02*
X217932Y146304D01*
X217800Y146500D01*
X365760Y597408D02*
X377952Y597408D01*
X365760Y597408D02*
X365450Y596600D01*
D31*
X377952Y597408D03*
D29*
X390144Y877824D02*
X390144Y879348D01*
X389500Y880000D01*
X385572Y868680D02*
X384048Y867156D01*
X385572Y868680D02*
X385572Y873252D01*
X390144Y877824D01*
X389500Y880000D01*
D31*
X384048Y867156D03*
D29*
X312420Y879348D02*
X310896Y879348D01*
X309500Y880000D01*
X355092Y605028D02*
X364236Y605028D01*
X355092Y605028D02*
X297180Y662940D01*
X297180Y769620D01*
X301752Y774192D01*
X320040Y774192D01*
X323088Y777240D01*
X323088Y778764D01*
X324612Y780288D01*
X324612Y858012D01*
X312420Y870204D01*
X312420Y879348D01*
X364236Y605028D02*
X365450Y604600D01*
X312420Y879348D02*
X309500Y880000D01*
X362712Y880872D02*
X370332Y880872D01*
X362712Y880872D02*
X303276Y940308D01*
X303276Y958596D01*
X307848Y963168D01*
X342900Y963168D01*
X355092Y950976D01*
X361188Y950976D01*
X370332Y880872D02*
X370500Y880000D01*
X362500Y950000D02*
X361188Y950976D01*
X283464Y949452D02*
X283464Y944880D01*
X283464Y949452D02*
X282500Y950000D01*
X291084Y935736D02*
X291084Y880872D01*
X291084Y935736D02*
X284988Y941832D01*
X284988Y943356D01*
X283464Y944880D01*
X291084Y880872D02*
X290500Y880000D01*
X475488Y903732D02*
X477012Y902208D01*
X475488Y903732D02*
X457200Y903732D01*
X445008Y915924D01*
X444600Y917300D01*
D31*
X477012Y902208D03*
D29*
X310896Y813816D02*
X310896Y784860D01*
X310896Y813816D02*
X185928Y938784D01*
X169164Y938784D01*
X149352Y918972D01*
X310896Y784860D02*
X311000Y783700D01*
X149352Y918972D02*
X148000Y919750D01*
X344424Y784860D02*
X356616Y784860D01*
X357200Y783700D01*
D31*
X344424Y784860D03*
D32*
X40000Y950000D03*
X790000Y950000D03*
X790000Y50000D03*
X40000Y50000D03*
D29*
X387096Y635508D02*
X387096Y640080D01*
X385572Y641604D01*
X385572Y659892D01*
X377952Y667512D01*
X377952Y688848D01*
X381000Y691896D01*
X426720Y691896D01*
X435864Y701040D01*
X441960Y701040D01*
X387096Y635508D02*
X387700Y634850D01*
X441960Y701040D02*
X443100Y700500D01*
X358140Y714756D02*
X358140Y763524D01*
X358140Y714756D02*
X381000Y691896D01*
X358140Y763524D02*
X357200Y764700D01*
X755904Y288036D02*
X755904Y220980D01*
X755904Y288036D02*
X751332Y292608D01*
X751332Y388620D01*
X762000Y399288D01*
X771144Y399288D01*
X755904Y220980D02*
X755000Y220000D01*
X771144Y399288D02*
X772500Y399900D01*
X794004Y481584D02*
X784860Y490728D01*
X794004Y481584D02*
X794004Y467868D01*
X777240Y451104D01*
X772668Y451104D01*
X772500Y450700D01*
D31*
X784860Y490728D03*
M02*
