G04 EAGLE Gerber RS-274X export*
G75*
%MOMM*%
%FSLAX34Y34*%
%LPD*%
%INBottom Copper*%
%IPPOS*%
%AMOC8*
5,1,8,0,0,1.08239X$1,22.5*%
G01*
%ADD10C,1.524000*%
%ADD11C,1.117600*%
%ADD12C,1.320800*%
%ADD13P,1.649562X8X22.500000*%
%ADD14C,1.258000*%
%ADD15C,2.400000*%
%ADD16C,1.208000*%
%ADD17C,3.092400*%
%ADD18C,0.756400*%
%ADD19C,0.152400*%
%ADD20C,0.711200*%
%ADD21C,5.800000*%


D10*
X780120Y298300D02*
X764880Y298300D01*
X764880Y323700D02*
X780120Y323700D01*
X780120Y349100D02*
X764880Y349100D01*
X764880Y374500D02*
X780120Y374500D01*
X780120Y399900D02*
X764880Y399900D01*
X764880Y425300D02*
X780120Y425300D01*
X780120Y450700D02*
X764880Y450700D01*
X764880Y476100D02*
X780120Y476100D01*
X68420Y298300D02*
X53180Y298300D01*
X53180Y323700D02*
X68420Y323700D01*
X68420Y349100D02*
X53180Y349100D01*
X53180Y374500D02*
X68420Y374500D01*
X68420Y399900D02*
X53180Y399900D01*
X53180Y425300D02*
X68420Y425300D01*
X68420Y450700D02*
X53180Y450700D01*
X53180Y476100D02*
X68420Y476100D01*
D11*
X514412Y625400D02*
X525588Y625400D01*
X525588Y574600D02*
X514412Y574600D01*
D12*
X324900Y308504D02*
X324900Y295296D01*
X350300Y295296D02*
X350300Y308504D01*
X375700Y308504D02*
X375700Y295296D01*
X401100Y295296D02*
X401100Y308504D01*
X426500Y308504D02*
X426500Y295296D01*
X451900Y295296D02*
X451900Y308504D01*
X477300Y308504D02*
X477300Y295296D01*
X502700Y295296D02*
X502700Y308504D01*
X528100Y308504D02*
X528100Y295296D01*
X553500Y295296D02*
X553500Y308504D01*
X578900Y308504D02*
X578900Y295296D01*
X604300Y295296D02*
X604300Y308504D01*
X629700Y308504D02*
X629700Y295296D01*
X655100Y295296D02*
X655100Y308504D01*
X655100Y371496D02*
X655100Y384704D01*
X629700Y384704D02*
X629700Y371496D01*
X604300Y371496D02*
X604300Y384704D01*
X578900Y384704D02*
X578900Y371496D01*
X553500Y371496D02*
X553500Y384704D01*
X528100Y384704D02*
X528100Y371496D01*
X502700Y371496D02*
X502700Y384704D01*
X477300Y384704D02*
X477300Y371496D01*
X451900Y371496D02*
X451900Y384704D01*
X426500Y384704D02*
X426500Y371496D01*
X401100Y371496D02*
X401100Y384704D01*
X375700Y384704D02*
X375700Y371496D01*
X350300Y371496D02*
X350300Y384704D01*
X324900Y384704D02*
X324900Y371496D01*
D11*
X585400Y225588D02*
X585400Y214412D01*
X534600Y214412D02*
X534600Y225588D01*
D13*
X444600Y917300D03*
X444600Y942700D03*
X470000Y917300D03*
X470000Y942700D03*
X495400Y917300D03*
X495400Y942700D03*
D14*
X694450Y877700D03*
X681750Y852300D03*
X669050Y877700D03*
X656350Y852300D03*
X643650Y877700D03*
X630950Y852300D03*
X618250Y877700D03*
X605550Y852300D03*
D15*
X728000Y971700D03*
X572000Y971700D03*
D16*
X124000Y907750D03*
X132000Y919750D03*
X140000Y907750D03*
X148000Y919750D03*
X156000Y907750D03*
D17*
X103000Y916750D03*
X177000Y916750D03*
X103000Y964250D03*
X177000Y964250D03*
D18*
X270000Y600000D03*
D19*
X290000Y600000D01*
X340000Y650000D01*
D18*
X340000Y650000D03*
D20*
X438432Y605300D03*
D19*
X437388Y605028D02*
X394716Y562356D01*
X437388Y605028D02*
X438432Y605300D01*
X350520Y562356D02*
X339852Y573024D01*
X350520Y562356D02*
X394716Y562356D01*
D20*
X339852Y573024D03*
D19*
X533400Y701040D02*
X559308Y701040D01*
X533400Y701040D02*
X438912Y606552D01*
X438432Y605300D01*
D20*
X559308Y701040D03*
D19*
X443484Y935736D02*
X443484Y941832D01*
X443732Y941832D02*
X444600Y942700D01*
X443732Y941832D02*
X443484Y941832D01*
X137160Y199644D02*
X137160Y158496D01*
X137160Y199644D02*
X39624Y297180D01*
X39624Y379476D01*
X59436Y399288D01*
X60800Y399900D01*
X502920Y379476D02*
X527304Y379476D01*
X502920Y379476D02*
X502700Y378100D01*
X527304Y379476D02*
X528100Y378100D01*
X59436Y400812D02*
X59436Y403860D01*
X42672Y420624D01*
X42672Y480060D01*
X74676Y512064D01*
X59436Y400812D02*
X60800Y399900D01*
D20*
X137160Y158496D03*
D19*
X350520Y842772D02*
X443484Y935736D01*
X350520Y842772D02*
X350520Y781812D01*
X169164Y600456D02*
X80772Y512064D01*
X169164Y600456D02*
X350520Y781812D01*
X80772Y512064D02*
X74676Y512064D01*
X443484Y935736D02*
X444600Y942700D01*
X169164Y600456D02*
X175260Y594360D01*
X472440Y301752D02*
X477012Y301752D01*
X472440Y301752D02*
X370332Y199644D01*
X137160Y199644D01*
X477012Y301752D02*
X477300Y301900D01*
D20*
X175260Y594360D03*
D19*
X495300Y917448D02*
X495300Y928116D01*
X480060Y943356D01*
X480060Y947928D01*
X473964Y954024D01*
X466344Y954024D01*
X455676Y943356D01*
X495300Y917448D02*
X495400Y917300D01*
X358140Y568452D02*
X353568Y568452D01*
D20*
X353568Y568452D03*
D19*
X455676Y665988D02*
X455676Y943356D01*
X455676Y665988D02*
X358140Y568452D01*
X324612Y379476D02*
X156972Y379476D01*
X60960Y475488D01*
X324612Y379476D02*
X324900Y378100D01*
X60960Y475488D02*
X60800Y476100D01*
X528828Y301752D02*
X528828Y225552D01*
X533400Y220980D01*
X528828Y301752D02*
X528100Y301900D01*
X533400Y220980D02*
X534600Y220000D01*
X554736Y251460D02*
X554736Y301752D01*
X554736Y251460D02*
X585216Y220980D01*
X554736Y301752D02*
X553500Y301900D01*
X585216Y220980D02*
X585400Y220000D01*
D20*
X377952Y597408D03*
D19*
X377952Y861060D01*
X384048Y867156D01*
D20*
X384048Y867156D03*
D19*
X623316Y303276D02*
X629412Y303276D01*
X623316Y303276D02*
X588264Y338328D01*
X48768Y338328D01*
X42672Y344424D01*
X42672Y356616D01*
X59436Y373380D01*
X629412Y303276D02*
X629700Y301900D01*
X60800Y374500D02*
X59436Y373380D01*
X605028Y301752D02*
X609600Y301752D01*
X626364Y284988D01*
X632460Y284988D01*
X640080Y292608D01*
X640080Y310896D01*
X601980Y348996D01*
X60960Y348996D01*
X604300Y301900D02*
X605028Y301752D01*
X60960Y348996D02*
X60800Y349100D01*
X571500Y303276D02*
X577596Y303276D01*
X571500Y303276D02*
X551688Y323088D01*
X60960Y323088D01*
X577596Y303276D02*
X578900Y301900D01*
X60960Y323088D02*
X60800Y323700D01*
X446532Y301752D02*
X451104Y301752D01*
X446532Y301752D02*
X429768Y284988D01*
X73152Y284988D01*
X60960Y297180D01*
X451104Y301752D02*
X451900Y301900D01*
X60960Y297180D02*
X60800Y298300D01*
X469392Y932688D02*
X469392Y941832D01*
X470000Y942700D01*
X603504Y794004D02*
X603504Y379476D01*
X603504Y794004D02*
X480060Y917448D01*
X480060Y922020D01*
X469392Y932688D01*
X603504Y379476D02*
X604300Y378100D01*
X577596Y379476D02*
X577596Y801624D01*
X477012Y902208D01*
X577596Y379476D02*
X578900Y378100D01*
D20*
X477012Y902208D03*
D19*
X554736Y687324D02*
X554736Y379476D01*
X554736Y687324D02*
X565404Y697992D01*
X565404Y804672D01*
X470916Y899160D01*
X470916Y915924D01*
X554736Y379476D02*
X553500Y378100D01*
X470916Y915924D02*
X470000Y917300D01*
X694944Y876300D02*
X694944Y861060D01*
X800100Y755904D01*
X800100Y326136D01*
X772668Y298704D01*
X694944Y876300D02*
X694450Y877700D01*
X772668Y298704D02*
X772500Y298300D01*
X606552Y804672D02*
X606552Y851916D01*
X606552Y804672D02*
X771144Y640080D01*
X771144Y477012D01*
X606552Y851916D02*
X605550Y852300D01*
X771144Y477012D02*
X772500Y476100D01*
X344424Y784860D02*
X262128Y784860D01*
X140208Y906780D01*
X140000Y907750D01*
D20*
X344424Y784860D03*
D21*
X40000Y950000D03*
X790000Y950000D03*
X790000Y50000D03*
X40000Y50000D03*
D19*
X656844Y877824D02*
X669036Y877824D01*
X656844Y877824D02*
X647700Y886968D01*
X614172Y886968D01*
X592836Y865632D01*
X592836Y809244D01*
X751332Y650748D01*
X751332Y344424D01*
X771144Y324612D01*
X669050Y877700D02*
X669036Y877824D01*
X771144Y324612D02*
X772500Y323700D01*
X653796Y876300D02*
X644652Y876300D01*
X653796Y876300D02*
X665988Y864108D01*
X687324Y864108D01*
X797052Y754380D01*
X797052Y374904D01*
X772668Y350520D01*
X644652Y876300D02*
X643650Y877700D01*
X772668Y350520D02*
X772500Y349100D01*
X632460Y876300D02*
X618744Y876300D01*
X632460Y876300D02*
X647700Y861060D01*
X685800Y861060D01*
X794004Y752856D01*
X794004Y396240D01*
X772668Y374904D01*
X618744Y876300D02*
X618250Y877700D01*
X772668Y374904D02*
X772500Y374500D01*
X682752Y737616D02*
X682752Y851916D01*
X682752Y737616D02*
X790956Y629412D01*
X790956Y419100D01*
X772668Y400812D01*
X682752Y851916D02*
X681750Y852300D01*
X772668Y400812D02*
X772500Y399900D01*
X655320Y853440D02*
X643128Y853440D01*
X635508Y861060D01*
X601980Y861060D01*
X595884Y854964D01*
X595884Y810768D01*
X754380Y652272D01*
X754380Y443484D01*
X771144Y426720D01*
X656350Y852300D02*
X655320Y853440D01*
X771144Y426720D02*
X772500Y425300D01*
X632460Y783336D02*
X632460Y851916D01*
X632460Y783336D02*
X784860Y630936D01*
X784860Y490728D01*
X632460Y851916D02*
X630950Y852300D01*
D20*
X784860Y490728D03*
M02*
