G04 EAGLE Gerber RS-274X export*
G75*
%MOMM*%
%FSLAX34Y34*%
%LPD*%
%IN*%
%IPPOS*%
%AMOC8*
5,1,8,0,0,1.08239X$1,22.5*%
G01*
%ADD10C,0.254000*%


D10*
X0Y0D02*
X830000Y0D01*
X830000Y999880D01*
X0Y999880D01*
X0Y0D01*
X690900Y941732D02*
X690970Y942794D01*
X691108Y943848D01*
X691316Y944892D01*
X691591Y945920D01*
X691933Y946927D01*
X692341Y947910D01*
X692811Y948864D01*
X693343Y949786D01*
X693934Y950670D01*
X694582Y951514D01*
X695283Y952314D01*
X696036Y953067D01*
X696836Y953768D01*
X697680Y954416D01*
X698564Y955007D01*
X699486Y955539D01*
X700440Y956009D01*
X701423Y956417D01*
X702430Y956759D01*
X703458Y957034D01*
X704502Y957242D01*
X705556Y957380D01*
X706618Y957450D01*
X707682Y957450D01*
X708744Y957380D01*
X709798Y957242D01*
X710842Y957034D01*
X711870Y956759D01*
X712877Y956417D01*
X713860Y956009D01*
X714814Y955539D01*
X715736Y955007D01*
X716620Y954416D01*
X717464Y953768D01*
X718264Y953067D01*
X719017Y952314D01*
X719718Y951514D01*
X720366Y950670D01*
X720957Y949786D01*
X721489Y948864D01*
X721959Y947910D01*
X722367Y946927D01*
X722709Y945920D01*
X722984Y944892D01*
X723192Y943848D01*
X723330Y942794D01*
X723400Y941732D01*
X723400Y940668D01*
X723330Y939606D01*
X723192Y938552D01*
X722984Y937508D01*
X722709Y936480D01*
X722367Y935473D01*
X721959Y934490D01*
X721489Y933536D01*
X720957Y932614D01*
X720366Y931730D01*
X719718Y930886D01*
X719017Y930086D01*
X718264Y929333D01*
X717464Y928632D01*
X716620Y927984D01*
X715736Y927393D01*
X714814Y926861D01*
X713860Y926391D01*
X712877Y925983D01*
X711870Y925641D01*
X710842Y925366D01*
X709798Y925158D01*
X708744Y925020D01*
X707682Y924950D01*
X706618Y924950D01*
X705556Y925020D01*
X704502Y925158D01*
X703458Y925366D01*
X702430Y925641D01*
X701423Y925983D01*
X700440Y926391D01*
X699486Y926861D01*
X698564Y927393D01*
X697680Y927984D01*
X696836Y928632D01*
X696036Y929333D01*
X695283Y930086D01*
X694582Y930886D01*
X693934Y931730D01*
X693343Y932614D01*
X692811Y933536D01*
X692341Y934490D01*
X691933Y935473D01*
X691591Y936480D01*
X691316Y937508D01*
X691108Y938552D01*
X690970Y939606D01*
X690900Y940668D01*
X690900Y941732D01*
X576600Y941732D02*
X576670Y942794D01*
X576808Y943848D01*
X577016Y944892D01*
X577291Y945920D01*
X577633Y946927D01*
X578041Y947910D01*
X578511Y948864D01*
X579043Y949786D01*
X579634Y950670D01*
X580282Y951514D01*
X580983Y952314D01*
X581736Y953067D01*
X582536Y953768D01*
X583380Y954416D01*
X584264Y955007D01*
X585186Y955539D01*
X586140Y956009D01*
X587123Y956417D01*
X588130Y956759D01*
X589158Y957034D01*
X590202Y957242D01*
X591256Y957380D01*
X592318Y957450D01*
X593382Y957450D01*
X594444Y957380D01*
X595498Y957242D01*
X596542Y957034D01*
X597570Y956759D01*
X598577Y956417D01*
X599560Y956009D01*
X600514Y955539D01*
X601436Y955007D01*
X602320Y954416D01*
X603164Y953768D01*
X603964Y953067D01*
X604717Y952314D01*
X605418Y951514D01*
X606066Y950670D01*
X606657Y949786D01*
X607189Y948864D01*
X607659Y947910D01*
X608067Y946927D01*
X608409Y945920D01*
X608684Y944892D01*
X608892Y943848D01*
X609030Y942794D01*
X609100Y941732D01*
X609100Y940668D01*
X609030Y939606D01*
X608892Y938552D01*
X608684Y937508D01*
X608409Y936480D01*
X608067Y935473D01*
X607659Y934490D01*
X607189Y933536D01*
X606657Y932614D01*
X606066Y931730D01*
X605418Y930886D01*
X604717Y930086D01*
X603964Y929333D01*
X603164Y928632D01*
X602320Y927984D01*
X601436Y927393D01*
X600514Y926861D01*
X599560Y926391D01*
X598577Y925983D01*
X597570Y925641D01*
X596542Y925366D01*
X595498Y925158D01*
X594444Y925020D01*
X593382Y924950D01*
X592318Y924950D01*
X591256Y925020D01*
X590202Y925158D01*
X589158Y925366D01*
X588130Y925641D01*
X587123Y925983D01*
X586140Y926391D01*
X585186Y926861D01*
X584264Y927393D01*
X583380Y927984D01*
X582536Y928632D01*
X581736Y929333D01*
X580983Y930086D01*
X580282Y930886D01*
X579634Y931730D01*
X579043Y932614D01*
X578511Y933536D01*
X578041Y934490D01*
X577633Y935473D01*
X577291Y936480D01*
X577016Y937508D01*
X576808Y938552D01*
X576670Y939606D01*
X576600Y940668D01*
X576600Y941732D01*
M02*
