G04 EAGLE Gerber RS-274X export*
G75*
%MOMM*%
%FSLAX34Y34*%
%LPD*%
%INSolderpaste Top*%
%IPPOS*%
%AMOC8*
5,1,8,0,0,1.08239X$1,22.5*%
G01*
%ADD10R,1.800000X1.600000*%
%ADD11R,1.600000X1.800000*%
%ADD12R,2.150000X1.800000*%
%ADD13R,2.400000X2.400000*%
%ADD14R,0.400000X1.200000*%
%ADD15R,1.200000X0.400000*%
%ADD16R,1.500000X1.500000*%
%ADD17R,1.500000X1.300000*%
%ADD18R,1.300000X1.500000*%
%ADD19R,2.950000X2.020000*%
%ADD20R,2.020000X2.950000*%


D10*
X98600Y688300D03*
X98600Y716300D03*
D11*
X305000Y573400D03*
X277000Y573400D03*
D10*
X392600Y706100D03*
X392600Y678100D03*
D11*
X236600Y775600D03*
X208600Y775600D03*
D12*
X199650Y703400D03*
X232150Y703400D03*
D10*
X354800Y465900D03*
X354800Y493900D03*
D13*
X192600Y583900D03*
X192600Y627900D03*
D14*
X435700Y634850D03*
X427700Y634850D03*
X419700Y634850D03*
X411700Y634850D03*
X403700Y634850D03*
X395700Y634850D03*
X387700Y634850D03*
X379700Y634850D03*
D15*
X365450Y620600D03*
X365450Y612600D03*
X365450Y604600D03*
X365450Y596600D03*
X365450Y588600D03*
X365450Y580600D03*
X365450Y572600D03*
X365450Y564600D03*
D14*
X379700Y550350D03*
X387700Y550350D03*
X395700Y550350D03*
X403700Y550350D03*
X411700Y550350D03*
X419700Y550350D03*
X427700Y550350D03*
X435700Y550350D03*
D15*
X449950Y564600D03*
X449950Y572600D03*
X449950Y580600D03*
X449950Y588600D03*
X449950Y596600D03*
X449950Y604600D03*
X449950Y612600D03*
X449950Y620600D03*
D16*
X190300Y40800D03*
X225300Y40800D03*
X98700Y40800D03*
X133700Y40800D03*
D17*
X604800Y693900D03*
X604800Y712900D03*
X136200Y146500D03*
X136200Y127500D03*
X311000Y783700D03*
X311000Y764700D03*
X357200Y783700D03*
X357200Y764700D03*
X443100Y700500D03*
X443100Y681500D03*
X432600Y486700D03*
X432600Y467700D03*
X492600Y488600D03*
X492600Y469600D03*
D18*
X301900Y503700D03*
X282900Y503700D03*
D17*
X130800Y494300D03*
X130800Y475300D03*
X217800Y146500D03*
X217800Y127500D03*
D10*
X590000Y556000D03*
X590000Y584000D03*
X590000Y626000D03*
X590000Y654000D03*
D11*
X446000Y260000D03*
X474000Y260000D03*
D10*
X540000Y164000D03*
X540000Y136000D03*
X600000Y164000D03*
X600000Y136000D03*
D18*
X389500Y880000D03*
X370500Y880000D03*
X309500Y880000D03*
X290500Y880000D03*
D16*
X282500Y950000D03*
X317500Y950000D03*
X362500Y950000D03*
X397500Y950000D03*
D19*
X100000Y825000D03*
X100000Y775000D03*
D20*
X705000Y220000D03*
X755000Y220000D03*
M02*
