G04 EAGLE Gerber RS-274X export*
G75*
%MOMM*%
%FSLAX34Y34*%
%LPD*%
%INSoldermask Bottom*%
%IPPOS*%
%AMOC8*
5,1,8,0,0,1.08239X$1,22.5*%
G01*
%ADD10C,1.727200*%
%ADD11C,1.320800*%
%ADD12C,1.524000*%
%ADD13P,1.869504X8X22.500000*%
%ADD14C,1.461200*%
%ADD15C,2.603200*%
%ADD16C,3.453200*%
%ADD17C,1.411200*%
%ADD18C,3.295600*%
%ADD19C,0.959600*%
%ADD20C,0.914400*%
%ADD21C,6.003200*%


D10*
X780120Y298300D02*
X764880Y298300D01*
X764880Y323700D02*
X780120Y323700D01*
X780120Y349100D02*
X764880Y349100D01*
X764880Y374500D02*
X780120Y374500D01*
X780120Y399900D02*
X764880Y399900D01*
X764880Y425300D02*
X780120Y425300D01*
X780120Y450700D02*
X764880Y450700D01*
X764880Y476100D02*
X780120Y476100D01*
X68420Y298300D02*
X53180Y298300D01*
X53180Y323700D02*
X68420Y323700D01*
X68420Y349100D02*
X53180Y349100D01*
X53180Y374500D02*
X68420Y374500D01*
X68420Y399900D02*
X53180Y399900D01*
X53180Y425300D02*
X68420Y425300D01*
X68420Y450700D02*
X53180Y450700D01*
X53180Y476100D02*
X68420Y476100D01*
D11*
X514412Y625400D02*
X525588Y625400D01*
X525588Y574600D02*
X514412Y574600D01*
D12*
X324900Y308504D02*
X324900Y295296D01*
X350300Y295296D02*
X350300Y308504D01*
X375700Y308504D02*
X375700Y295296D01*
X401100Y295296D02*
X401100Y308504D01*
X426500Y308504D02*
X426500Y295296D01*
X451900Y295296D02*
X451900Y308504D01*
X477300Y308504D02*
X477300Y295296D01*
X502700Y295296D02*
X502700Y308504D01*
X528100Y308504D02*
X528100Y295296D01*
X553500Y295296D02*
X553500Y308504D01*
X578900Y308504D02*
X578900Y295296D01*
X604300Y295296D02*
X604300Y308504D01*
X629700Y308504D02*
X629700Y295296D01*
X655100Y295296D02*
X655100Y308504D01*
X655100Y371496D02*
X655100Y384704D01*
X629700Y384704D02*
X629700Y371496D01*
X604300Y371496D02*
X604300Y384704D01*
X578900Y384704D02*
X578900Y371496D01*
X553500Y371496D02*
X553500Y384704D01*
X528100Y384704D02*
X528100Y371496D01*
X502700Y371496D02*
X502700Y384704D01*
X477300Y384704D02*
X477300Y371496D01*
X451900Y371496D02*
X451900Y384704D01*
X426500Y384704D02*
X426500Y371496D01*
X401100Y371496D02*
X401100Y384704D01*
X375700Y384704D02*
X375700Y371496D01*
X350300Y371496D02*
X350300Y384704D01*
X324900Y384704D02*
X324900Y371496D01*
D11*
X585400Y225588D02*
X585400Y214412D01*
X534600Y214412D02*
X534600Y225588D01*
D13*
X444600Y917300D03*
X444600Y942700D03*
X470000Y917300D03*
X470000Y942700D03*
X495400Y917300D03*
X495400Y942700D03*
D14*
X694450Y877700D03*
X681750Y852300D03*
X669050Y877700D03*
X656350Y852300D03*
X643650Y877700D03*
X630950Y852300D03*
X618250Y877700D03*
X605550Y852300D03*
D15*
X728000Y971700D03*
X572000Y971700D03*
D16*
X707150Y941200D03*
X592850Y941200D03*
D17*
X124000Y907750D03*
X132000Y919750D03*
X140000Y907750D03*
X148000Y919750D03*
X156000Y907750D03*
D18*
X103000Y916750D03*
X177000Y916750D03*
X103000Y964250D03*
X177000Y964250D03*
D19*
X270000Y600000D03*
X340000Y650000D03*
D20*
X438432Y605300D03*
X339852Y573024D03*
X559308Y701040D03*
X137160Y158496D03*
X175260Y594360D03*
X353568Y568452D03*
X377952Y597408D03*
X384048Y867156D03*
X477012Y902208D03*
X344424Y784860D03*
D21*
X40000Y950000D03*
X790000Y950000D03*
X790000Y50000D03*
X40000Y50000D03*
D20*
X784860Y490728D03*
M02*
