G04 EAGLE Gerber RS-274X export*
G75*
%MOMM*%
%FSLAX34Y34*%
%LPD*%
%INSoldermask Top*%
%IPPOS*%
%AMOC8*
5,1,8,0,0,1.08239X$1,22.5*%
G01*
%ADD10R,2.003200X1.803200*%
%ADD11R,1.803200X2.003200*%
%ADD12R,2.353200X2.003200*%
%ADD13R,2.603200X2.603200*%
%ADD14R,0.603200X1.403200*%
%ADD15R,1.403200X0.603200*%
%ADD16C,1.727200*%
%ADD17R,1.703200X1.703200*%
%ADD18R,1.703200X1.503200*%
%ADD19R,1.503200X1.703200*%
%ADD20C,1.320800*%
%ADD21C,1.524000*%
%ADD22P,1.869504X8X22.500000*%
%ADD23C,1.461200*%
%ADD24C,2.603200*%
%ADD25C,3.453200*%
%ADD26C,1.411200*%
%ADD27C,3.295600*%
%ADD28R,3.153200X2.223200*%
%ADD29R,2.223200X3.153200*%
%ADD30C,0.959600*%
%ADD31C,0.914400*%
%ADD32C,6.003200*%


D10*
X98600Y688300D03*
X98600Y716300D03*
D11*
X305000Y573400D03*
X277000Y573400D03*
D10*
X392600Y706100D03*
X392600Y678100D03*
D11*
X236600Y775600D03*
X208600Y775600D03*
D12*
X199650Y703400D03*
X232150Y703400D03*
D10*
X354800Y465900D03*
X354800Y493900D03*
D13*
X192600Y583900D03*
X192600Y627900D03*
D14*
X435700Y634850D03*
X427700Y634850D03*
X419700Y634850D03*
X411700Y634850D03*
X403700Y634850D03*
X395700Y634850D03*
X387700Y634850D03*
X379700Y634850D03*
D15*
X365450Y620600D03*
X365450Y612600D03*
X365450Y604600D03*
X365450Y596600D03*
X365450Y588600D03*
X365450Y580600D03*
X365450Y572600D03*
X365450Y564600D03*
D14*
X379700Y550350D03*
X387700Y550350D03*
X395700Y550350D03*
X403700Y550350D03*
X411700Y550350D03*
X419700Y550350D03*
X427700Y550350D03*
X435700Y550350D03*
D15*
X449950Y564600D03*
X449950Y572600D03*
X449950Y580600D03*
X449950Y588600D03*
X449950Y596600D03*
X449950Y604600D03*
X449950Y612600D03*
X449950Y620600D03*
D16*
X764880Y298300D02*
X780120Y298300D01*
X780120Y323700D02*
X764880Y323700D01*
X764880Y349100D02*
X780120Y349100D01*
X780120Y374500D02*
X764880Y374500D01*
X764880Y399900D02*
X780120Y399900D01*
X780120Y425300D02*
X764880Y425300D01*
X764880Y450700D02*
X780120Y450700D01*
X780120Y476100D02*
X764880Y476100D01*
X68420Y298300D02*
X53180Y298300D01*
X53180Y323700D02*
X68420Y323700D01*
X68420Y349100D02*
X53180Y349100D01*
X53180Y374500D02*
X68420Y374500D01*
X68420Y399900D02*
X53180Y399900D01*
X53180Y425300D02*
X68420Y425300D01*
X68420Y450700D02*
X53180Y450700D01*
X53180Y476100D02*
X68420Y476100D01*
D17*
X190300Y40800D03*
X225300Y40800D03*
X98700Y40800D03*
X133700Y40800D03*
D18*
X604800Y693900D03*
X604800Y712900D03*
X136200Y146500D03*
X136200Y127500D03*
X311000Y783700D03*
X311000Y764700D03*
X357200Y783700D03*
X357200Y764700D03*
X443100Y700500D03*
X443100Y681500D03*
X432600Y486700D03*
X432600Y467700D03*
X492600Y488600D03*
X492600Y469600D03*
D19*
X301900Y503700D03*
X282900Y503700D03*
D18*
X130800Y494300D03*
X130800Y475300D03*
X217800Y146500D03*
X217800Y127500D03*
D20*
X514412Y625400D02*
X525588Y625400D01*
X525588Y574600D02*
X514412Y574600D01*
D10*
X590000Y556000D03*
X590000Y584000D03*
X590000Y626000D03*
X590000Y654000D03*
D21*
X324900Y308504D02*
X324900Y295296D01*
X350300Y295296D02*
X350300Y308504D01*
X375700Y308504D02*
X375700Y295296D01*
X401100Y295296D02*
X401100Y308504D01*
X426500Y308504D02*
X426500Y295296D01*
X451900Y295296D02*
X451900Y308504D01*
X477300Y308504D02*
X477300Y295296D01*
X502700Y295296D02*
X502700Y308504D01*
X528100Y308504D02*
X528100Y295296D01*
X553500Y295296D02*
X553500Y308504D01*
X578900Y308504D02*
X578900Y295296D01*
X604300Y295296D02*
X604300Y308504D01*
X629700Y308504D02*
X629700Y295296D01*
X655100Y295296D02*
X655100Y308504D01*
X655100Y371496D02*
X655100Y384704D01*
X629700Y384704D02*
X629700Y371496D01*
X604300Y371496D02*
X604300Y384704D01*
X578900Y384704D02*
X578900Y371496D01*
X553500Y371496D02*
X553500Y384704D01*
X528100Y384704D02*
X528100Y371496D01*
X502700Y371496D02*
X502700Y384704D01*
X477300Y384704D02*
X477300Y371496D01*
X451900Y371496D02*
X451900Y384704D01*
X426500Y384704D02*
X426500Y371496D01*
X401100Y371496D02*
X401100Y384704D01*
X375700Y384704D02*
X375700Y371496D01*
X350300Y371496D02*
X350300Y384704D01*
X324900Y384704D02*
X324900Y371496D01*
D11*
X446000Y260000D03*
X474000Y260000D03*
D20*
X585400Y225588D02*
X585400Y214412D01*
X534600Y214412D02*
X534600Y225588D01*
D10*
X540000Y164000D03*
X540000Y136000D03*
X600000Y164000D03*
X600000Y136000D03*
D19*
X389500Y880000D03*
X370500Y880000D03*
X309500Y880000D03*
X290500Y880000D03*
D17*
X282500Y950000D03*
X317500Y950000D03*
X362500Y950000D03*
X397500Y950000D03*
D22*
X444600Y917300D03*
X444600Y942700D03*
X470000Y917300D03*
X470000Y942700D03*
X495400Y917300D03*
X495400Y942700D03*
D23*
X694450Y877700D03*
X681750Y852300D03*
X669050Y877700D03*
X656350Y852300D03*
X643650Y877700D03*
X630950Y852300D03*
X618250Y877700D03*
X605550Y852300D03*
D24*
X728000Y971700D03*
X572000Y971700D03*
D25*
X707150Y941200D03*
X592850Y941200D03*
D26*
X124000Y907750D03*
X132000Y919750D03*
X140000Y907750D03*
X148000Y919750D03*
X156000Y907750D03*
D27*
X103000Y916750D03*
X177000Y916750D03*
X103000Y964250D03*
X177000Y964250D03*
D28*
X100000Y825000D03*
X100000Y775000D03*
D29*
X705000Y220000D03*
X755000Y220000D03*
D30*
X270000Y600000D03*
X340000Y650000D03*
D31*
X438432Y605300D03*
X339852Y573024D03*
X559308Y701040D03*
X137160Y158496D03*
X175260Y594360D03*
X353568Y568452D03*
X377952Y597408D03*
X384048Y867156D03*
X477012Y902208D03*
X344424Y784860D03*
D32*
X40000Y950000D03*
X790000Y950000D03*
X790000Y50000D03*
X40000Y50000D03*
D31*
X784860Y490728D03*
M02*
