M48
;GenerationSoftware,Autodesk,EAGLE,9.2.1*%
;CreationDate,2018-12-10T12:15:04Z*%
FMAT,2
ICI,OFF
METRIC,TZ,000.000
T5C0.305
T4C0.813
T3C1.016
T2C1.150
T1C3.300
%
G90
M71
T1
X70100Y71020
X12100Y51020
X12100Y71020
X70100Y51020
T2
X39260Y41970
X34180Y80070
X36720Y80070
X39260Y80070
X41800Y80070
X34180Y41970
X36720Y41970
X45610Y77530
X45610Y80070
X41800Y41970
T3
X5310Y59040
X5310Y61580
X5310Y64120
X5310Y66660
X76900Y48880
X76900Y51420
X76900Y53960
X76900Y56500
X76900Y59040
X76900Y61580
X76900Y64120
X76900Y66660
X5310Y48880
X5310Y51420
X5310Y53960
X5310Y56500
T4
X13490Y93850
X5870Y86230
X8410Y86230
X8410Y93850
X5870Y93850
X10950Y86230
X13490Y86230
X10950Y93850
T5
X20879Y86106
X59588Y93726
X59588Y90373
X64465Y84734
X64465Y89764
X72238Y93878
X72238Y90068
X76962Y90068
X7315Y30632
X36576Y87325
X56388Y92659
X41605Y88392
X39624Y93726
X40996Y91745
X42367Y84430
X27127Y87630
X41605Y90983
X39929Y90983
X27280Y93574
X65532Y79096
X56388Y91288
X61112Y88849
X69037Y92354
X66294Y81229
X64922Y79858
X67056Y91288
X64922Y77572
X34442Y87020
M30